<svg width="32" height="32" xmlns="http://www.w3.org/2000/svg" preserveAspectRatio="xMidYMid meet">
 <title>Gibiru</title>
 <g stroke="null" fill="#665c5e">
  <path stroke="null" d="m5.830952,4.792419c-2.176124,0.300052 -4.062098,1.67676 -4.968816,3.582971l-0.507762,1.076656l0,6.265787l0,6.265788l0.507762,1.059006c0.634703,1.341408 1.559555,2.259213 2.937768,2.965217l1.088061,0.564804l9.556812,0.05295c9.502409,0.052951 9.574946,0.052951 10.33659,-0.335351l0.761644,-0.388303l0.253881,0.388303c0.253881,0.353002 0.417091,0.370652 2.955902,0.370652l2.702021,0l0,-6.70704l0,-6.70704l-10.880621,0l-10.88062,0l0,2.471014l0,2.471015l7.88845,0l7.88845,0l0,1.58851l0,1.606159l-8.88584,-0.05295l-8.885841,-0.052951l-0.489628,-0.494203l-0.507762,-0.476553l0,-4.589027l0,-4.589027l0.507762,-0.476553l0.489628,-0.494203l11.696668,-0.05295l11.696668,-0.0353l0,-2.735766l0,-2.735766l-12.095623,0.017649c-6.673448,0.01765 -12.585251,0.088251 -13.165552,0.176501l0,0.000001z" id="svg_2"/>
 </g>
</svg>