<svg width="204.99999999999997" height="41" xmlns="http://www.w3.org/2000/svg" stroke="null" style="vector-effect: non-scaling-stroke;" preserveAspectRatio="xMidYMid meet">
 <g stroke="null">
  <g transform="translate(0,280) scale(0.10000000149011612,-0.10000000149011612) " id="svg_1" fill="#000000">
   <g fill="#fffff0">
    <path stroke="null" id="svg_2" d="m77.037595,2789.025822c-25.499196,-3.51592 -47.598498,-19.647791 -58.223163,-41.984226l-5.949812,-12.61595l0,-73.420691l0,-73.420691l5.949812,-12.409131c7.437265,-15.718233 18.274423,-26.472813 34.423914,-34.745567l12.749598,-6.618203l111.983967,-0.620457c111.346487,-0.620457 112.19646,-0.620457 121.121179,3.929558l8.924718,4.550015l2.974906,-4.550015c2.974906,-4.136377 4.887346,-4.343196 34.636407,-4.343196l31.661501,0l0,78.591163l0,78.591163l-127.495978,0l-127.495978,0l0,-28.954639l0,-28.954639l92.434584,0l92.434584,0l0,-18.613696l0,-18.820515l-104.121715,0.620457l-104.121715,0.620457l-5.737319,5.790928l-5.949812,5.584109l0,53.772901l0,53.772901l5.949812,5.584109l5.737319,5.790928l137.058176,0.620457l137.058176,0.413638l0,32.056922l0,32.056922l-141.733029,-0.206819c-78.197533,-0.206819 -147.470348,-1.034094 -154.270133,-2.068188z"/>
    <path stroke="null" id="svg_3" d="m468.66274,2662.039048l0,-129.261781l37.186327,0l37.186327,0l0,129.261781l0,129.261781l-37.186327,0l-37.186327,0l0,-129.261781z"/>
    <path stroke="null" id="svg_4" d="m638.657377,2662.039048l0,-129.4686l151.50772,0.620457l151.295227,0.620457l12.112118,5.584109c25.286702,11.581856 40.798713,32.056922 43.348632,57.702459c2.762413,27.093269 -7.862252,50.877437 -28.686595,63.907024l-10.624665,6.825022l11.262145,11.788674c13.812064,14.684138 16.999464,24.611443 15.724504,47.361516c-0.849973,13.029588 -2.124933,18.406878 -7.437265,27.300088c-7.862252,13.856863 -22.311796,24.818262 -40.798713,31.022827l-14.024558,4.963652l-141.733029,0.620457l-141.945522,0.620457l0,-129.4686zm267.52906,60.184285c3.824879,-3.51592 4.462359,-5.997747 4.037373,-15.511414c-1.062466,-19.234153 1.487453,-18.820515 -106.246648,-18.820515l-90.947131,0l0,19.647791l0,19.85461l94.347024,-0.620457c90.097158,-0.620457 94.559517,-0.827275 98.809383,-4.550015zm2.762413,-88.10483c4.462359,-1.240913 9.349705,-4.343196 11.262145,-6.825022c4.887346,-6.825022 4.037373,-18.820515 -1.91244,-25.645537l-5.099839,-5.790928l-100.084343,-0.620457l-100.084343,-0.620457l0,19.440972c0,10.75458 0.63748,20.061428 1.487453,20.681885c2.337426,2.481826 185.719141,1.654551 194.431366,-0.620457z"/>
    <path stroke="null" id="svg_5" d="m1080.643433,2662.039048l0,-129.261781l36.12386,0l36.12386,0l0,129.261781l0,129.261781l-36.12386,0l-36.12386,0l0,-129.261781z"/>
    <path stroke="null" id="svg_6" d="m1250.63807,2662.039048l0,-129.261781l36.12386,0l36.12386,0l0,40.329676l0,40.329676l65.235442,-0.413638l65.235442,-0.620457l31.873994,-39.709219l31.873994,-39.916038l42.073673,0l42.286166,0l-34.848901,41.984226l-35.061394,42.191045l13.812064,5.790928c18.69941,7.859116 34.848901,22.750073 43.561126,39.916038c6.799785,13.443225 7.012279,14.477319 7.012279,40.743313c0,24.818262 -0.424987,27.713726 -5.737319,38.675125c-12.112118,25.438718 -36.973834,42.811502 -66.722895,47.154698c-8.499732,1.034094 -69.485308,2.068188 -143.645468,2.068188l-129.195924,0l0,-129.261781zm265.404127,58.116097c12.324611,-11.375037 9.987185,-35.366023 -4.037373,-41.984226c-4.037373,-2.068188 -28.261608,-2.688645 -97.109436,-2.688645l-92.009597,0l0,25.852356l0,26.059175l93.284557,-0.620457l93.49705,-0.620457l6.374799,-5.997747z"/>
    <path stroke="null" id="svg_7" d="m1677.749596,2693.268695c0,-92.448026 0.212493,-98.85941 4.249866,-111.47536c5.524826,-17.165964 19.761877,-33.091016 37.611313,-41.777408l12.324611,-6.204565l118.996246,0l118.996246,0l11.687131,5.37729c16.361984,7.445479 25.711689,15.925051 34.211421,31.229646l7.224772,13.029588l0.63748,104.029881l0.63748,103.823062l-36.336354,0l-36.12386,0l0,-88.10483c0,-77.35025 -0.424987,-88.932105 -3.399893,-95.136671c-6.587292,-13.443225 -6.374799,-13.443225 -99.871849,-12.822769l-84.147345,0.620457l-6.162306,6.825022l-6.162306,6.618203l0,91.000294l0,91.000294l-37.186327,0l-37.186327,0l0,-98.032135z"/>
   </g>
   <g fill="#54565a">
    <path stroke="null" id="svg_8" d="m45.80108,2427.506473c0,-17.165964 0.63748,-21.095523 4.249866,-25.645537c6.162306,-7.445479 16.999464,-10.340942 34.848901,-9.306848c25.286702,1.654551 28.899088,6.204565 28.899088,35.779661c0,15.511414 -0.63748,19.647791 -2.974906,19.647791c-2.337426,0 -3.187399,-4.550015 -3.824879,-19.647791c-0.63748,-16.959146 -1.27496,-20.061428 -5.524826,-24.197805c-4.037373,-4.136377 -7.012279,-4.756834 -20.186863,-4.756834c-11.262145,0 -16.999464,1.034094 -21.24933,3.722739c-5.524826,3.51592 -5.737319,4.136377 -5.737319,24.197805c0,19.234153 -0.212493,20.681885 -4.249866,20.681885c-4.037373,0 -4.249866,-1.447732 -4.249866,-20.475066z"/>
    <path stroke="null" id="svg_9" d="m132.923332,2420.060995c0,-26.472813 0.212493,-27.920545 4.249866,-27.920545c4.037373,0 4.249866,1.447732 4.249866,22.956892l0,22.750073l25.711689,-22.750073c14.237051,-12.61595 27.624129,-22.956892 29.749061,-22.956892c3.824879,0 4.037373,2.068188 4.037373,27.920545c0,26.472813 -0.212493,27.920545 -4.249866,27.920545c-4.037373,0 -4.249866,-1.447732 -4.249866,-21.715979c0,-11.995493 -0.63748,-21.715979 -1.27496,-21.715979c-0.63748,0 -12.112118,9.720486 -25.499196,21.715979c-14.024558,12.61595 -25.924182,21.715979 -28.474102,21.715979c-4.037373,0 -4.249866,-1.240913 -4.249866,-27.920545z"/>
    <path stroke="null" id="svg_10" d="m235.132607,2444.2588c-10.837158,-5.170471 -16.149491,-13.443225 -15.936997,-24.197805c0.424987,-16.752327 10.837158,-25.438718 32.936461,-27.300088c6.587292,-0.620457 17.42445,-0.413638 24.011742,0.206819c9.987185,1.240913 11.899625,2.275007 11.899625,5.790928c0,3.102283 -0.849973,3.722739 -3.612386,2.688645c-7.862252,-2.895464 -29.749061,-3.51592 -38.67378,-1.034094c-27.411635,7.23866 -25.499196,36.193299 2.762413,40.329676c10.412172,1.654551 29.111582,0.413638 35.911367,-2.068188c2.762413,-1.034094 3.612386,-0.413638 3.612386,2.688645c0,4.963652 -7.012279,6.618203 -29.536568,6.618203c-11.262145,0 -18.486917,-1.034094 -23.374263,-3.722739z"/>
    <path stroke="null" id="svg_11" d="m305.042902,2420.060995l0,-27.920545l31.873994,0c30.386541,0 31.873994,0.206819 31.873994,4.136377c0,3.929558 -1.487453,4.136377 -27.624129,4.136377l-27.624129,0l0,8.272754l0,8.272754l24.436729,0c22.949276,0 24.436729,0.206819 24.436729,4.136377c0,3.929558 -1.487453,4.136377 -24.436729,4.136377l-24.436729,0l0,8.272754l0,8.272754l26.561662,0c22.099303,0 26.561662,0.413638 26.561662,3.102283c0,2.688645 -4.887346,3.102283 -30.811528,3.102283l-30.811528,0l0,-27.920545z"/>
    <path stroke="null" id="svg_12" d="m385.790354,2420.060995c0,-26.472813 0.212493,-27.920545 4.249866,-27.920545c4.037373,0 4.249866,1.447732 4.249866,22.956892l0,22.750073l25.711689,-22.750073c14.237051,-12.61595 27.624129,-22.956892 29.749061,-22.956892c3.824879,0 4.037373,2.068188 4.037373,27.920545c0,26.472813 -0.212493,27.920545 -4.249866,27.920545c-4.037373,0 -4.249866,-1.447732 -4.249866,-21.715979c0,-11.995493 -0.63748,-21.715979 -1.27496,-21.715979c-0.63748,0 -12.112118,9.720486 -25.499196,21.715979c-14.024558,12.61595 -25.924182,21.715979 -28.474102,21.715979c-4.037373,0 -4.249866,-1.240913 -4.249866,-27.920545z"/>
    <path stroke="null" id="svg_13" d="m480.987351,2444.672438c-6.799785,-3.51592 -9.562198,-11.581856 -6.374799,-18.406878c2.762413,-5.790928 13.387078,-9.100029 30.174048,-9.513667c18.274423,-0.413638 24.436729,-2.275007 25.074209,-7.652297c1.062466,-7.445479 -11.687131,-11.581856 -30.599035,-9.927305c-8.287239,0.620457 -17.636944,2.068188 -20.61185,3.102283c-4.462359,1.654551 -5.524826,1.447732 -6.374799,-1.86137c-0.849973,-3.309102 0.849973,-4.343196 9.562198,-5.997747c22.736783,-4.756834 47.810992,-1.654551 53.760804,6.618203c9.349705,13.029588 0.63748,20.061428 -28.049115,22.336436c-11.049651,1.034094 -21.461823,2.688645 -23.161769,4.136377c-4.462359,3.51592 -3.612386,7.652297 2.337426,11.375037c4.249866,2.688645 9.349705,3.309102 25.924182,2.688645c13.812064,-0.620457 20.61185,0 21.24933,1.447732c1.91244,5.584109 -42.923646,7.031841 -52.910831,1.654551z"/>
    <path stroke="null" id="svg_14" d="m572.996948,2444.2588c-10.837158,-5.170471 -16.149491,-13.443225 -15.936997,-24.197805c0,-4.963652 1.91244,-11.581856 3.824879,-14.477319c12.324611,-18.200059 58.435656,-17.372783 68.210348,1.240913c7.224772,13.650044 2.124933,30.195552 -11.687131,37.020574c-10.837158,5.37729 -33.998927,5.790928 -44.411099,0.413638zm39.523753,-5.997747c8.499732,-3.929558 14.237051,-14.270501 12.112118,-22.336436c-4.462359,-17.786421 -39.523753,-23.577349 -54.398284,-9.306848c-10.412172,10.340942 -6.799785,26.059175 7.649759,32.26374c9.137212,3.722739 25.711689,3.51592 34.636407,-0.620457z"/>
    <path stroke="null" id="svg_15" d="m649.282042,2420.267814c0,-26.679632 0.212493,-28.127363 4.249866,-28.127363c3.612386,0 4.249866,1.447732 4.249866,10.340942l0,10.340942l10.412172,0c8.924718,0 11.899625,-1.240913 24.436729,-10.547761c10.199678,-7.445479 15.724504,-10.134124 19.761877,-9.720486c4.887346,0.620457 4.249866,1.447732 -7.862252,9.927305l-13.174584,9.306848l8.499732,2.068188c12.112118,3.102283 15.299517,6.411384 15.299517,16.545508c0,14.684138 -3.824879,16.338689 -37.39882,17.165964l-28.474102,0.827275l0,-28.127363zm56.523217,16.545508c1.699946,-2.275007 2.974906,-5.170471 2.974906,-6.411384c0,-1.240913 -1.27496,-4.136377 -2.974906,-6.411384c-2.54992,-3.309102 -6.162306,-3.929558 -25.499196,-4.550015l-22.524289,-0.827275l0,11.788674l0,11.788674l22.524289,-0.827275c19.33689,-0.620457 22.949276,-1.240913 25.499196,-4.550015z"/>
    <path stroke="null" id="svg_16" d="m734.27936,2420.060995l0,-27.920545l31.873994,0c30.386541,0 31.873994,0.206819 31.873994,4.136377c0,3.929558 -1.487453,4.136377 -27.624129,4.136377l-27.624129,0l0,8.272754l0,8.272754l24.436729,0c22.949276,0 24.436729,0.206819 24.436729,4.136377c0,3.929558 -1.487453,4.136377 -24.436729,4.136377l-24.436729,0l0,8.272754l0,8.272754l26.561662,0c22.099303,0 26.561662,0.413638 26.561662,3.102283c0,2.688645 -4.887346,3.102283 -30.811528,3.102283l-30.811528,0l0,-27.920545z"/>
    <path stroke="null" id="svg_17" d="m815.026813,2420.060995l0,-28.541001l22.949276,1.034094c26.561662,1.240913 36.76134,4.756834 42.923646,14.477319c5.312332,8.272754 4.674853,22.336436 -1.27496,28.74782c-7.862252,8.479573 -15.936997,10.75458 -40.58622,11.788674l-24.011742,1.034094l0,-28.541001zm50.573405,16.752327c7.649759,-3.929558 11.049651,-8.893211 11.049651,-16.752327c0,-13.856863 -10.412172,-19.647791 -36.12386,-19.647791l-16.999464,0l0,20.888704l0,21.095523l17.636944,-1.034094c10.199678,-0.620457 20.61185,-2.688645 24.436729,-4.550015z"/>
   </g>
   <g fill="#ff0040">
    <path stroke="null" id="svg_18" d="m944.647724,2420.060995c0,-26.472813 0.212493,-27.920545 4.249866,-27.920545c3.612386,0 4.249866,1.447732 4.249866,8.272754l0,8.272754l20.399356,0c24.224236,0 33.361448,3.309102 36.76134,13.029588c3.187399,8.893211 -0.424987,19.234153 -8.287239,23.163711c-4.462359,2.275007 -13.387078,3.102283 -31.873994,3.102283l-25.499196,0l0,-27.920545zm56.09823,15.097776c4.462359,-6.204565 4.249866,-9.100029 -0.849973,-14.063682c-3.612386,-3.51592 -7.012279,-4.136377 -25.499196,-4.136377l-21.24933,0l0,11.375037l0,11.375037l22.099303,0c20.61185,0 22.524289,-0.413638 25.499196,-4.550015z"/>
    <path stroke="null" id="svg_19" d="m1027.520109,2420.060995c0,-26.472813 0.212493,-27.920545 4.249866,-27.920545c3.612386,0 4.249866,1.447732 4.249866,10.340942l0,10.340942l10.412172,0c9.137212,0 11.899625,-1.240913 24.224236,-10.547761c10.412172,-7.652297 15.512011,-10.340942 19.761877,-9.720486c5.312332,0.620457 4.887346,1.240913 -7.649759,9.927305l-13.174584,9.306848l8.499732,1.654551c10.624665,2.068188 16.149491,7.859116 16.149491,17.372783c0,5.37729 -1.487453,8.686392 -5.949812,12.202312c-5.312332,4.756834 -7.437265,4.963652 -33.361448,4.963652l-27.411635,0l0,-27.920545zm57.37319,15.718233c2.974906,-5.584109 2.762413,-7.652297 -1.27496,-11.375037c-2.54992,-2.688645 -8.074745,-3.309102 -25.499196,-3.309102l-22.099303,0l0,9.306848l0,9.306848l23.374263,0c20.824343,0 23.374263,-0.413638 25.499196,-3.929558z"/>
    <path stroke="null" id="svg_20" d="m1112.517428,2420.060995c0,-26.472813 0.212493,-27.920545 4.249866,-27.920545c4.037373,0 4.249866,1.447732 4.249866,27.920545c0,26.472813 -0.212493,27.920545 -4.249866,27.920545c-4.037373,0 -4.249866,-1.447732 -4.249866,-27.920545z"/>
    <path stroke="null" id="svg_21" d="m1151.403701,2420.060995c22.736783,-36.400117 21.88681,-36.400117 44.411099,0c15.087024,24.611443 16.999464,30.195552 9.349705,27.300088c-1.487453,-0.620457 -8.712225,-10.961399 -16.149491,-22.956892c-7.224772,-12.202312 -13.812064,-22.336436 -14.662037,-22.956892c-0.849973,-0.413638 -8.074745,9.927305 -15.936997,22.956892c-11.687131,19.027334 -15.512011,23.577349 -19.33689,23.577349c-4.462359,0 -3.399893,-2.275007 12.324611,-27.920545z"/>
    <path stroke="null" id="svg_22" d="m1227.901288,2420.060995c-16.574477,-26.472813 -17.42445,-27.920545 -12.324611,-27.920545c3.612386,0 6.162306,1.86137 8.499732,6.204565l3.399893,6.204565l22.736783,0l22.949276,0l3.612386,-6.204565c2.54992,-4.136377 5.524826,-6.204565 8.924718,-6.204565c4.674853,0 3.824879,1.86137 -12.324611,27.920545c-23.161769,37.020574 -22.311796,37.020574 -45.473565,0zm31.661501,6.618203l7.649759,-12.822769l-8.287239,-0.620457c-4.462359,-0.413638 -12.112118,-0.413638 -16.78697,0l-8.499732,0.620457l7.862252,13.029588c4.462359,7.031841 8.499732,12.822769 9.137212,12.822769c0.63748,0 4.462359,-5.790928 8.924718,-13.029588z"/>
    <path stroke="null" id="svg_23" d="m1288.886864,2443.845162c0,-3.722739 1.487453,-4.136377 14.874531,-4.136377l14.874531,0l0,-23.784168c0,-22.336436 0.212493,-23.784168 4.249866,-23.784168c4.037373,0 4.249866,1.447732 4.249866,23.784168l0,23.577349l14.237051,0.620457c11.687131,0.413638 14.449544,1.240913 15.087024,4.343196c0.63748,3.309102 -2.124933,3.51592 -33.361448,3.51592c-32.723968,0 -34.211421,-0.206819 -34.211421,-4.136377z"/>
    <path stroke="null" id="svg_24" d="m1371.759249,2420.060995l0,-27.920545l31.873994,0c30.386541,0 31.873994,0.206819 31.873994,4.136377c0,3.929558 -1.487453,4.136377 -27.624129,4.136377l-27.624129,0l0,8.272754l0,8.272754l24.436729,0c22.949276,0 24.436729,0.206819 24.436729,4.136377c0,3.929558 -1.487453,4.136377 -24.436729,4.136377l-24.436729,0l0,7.23866l0,7.23866l26.561662,0c25.074209,0 26.561662,0.206819 26.561662,4.136377c0,3.929558 -1.487453,4.136377 -30.811528,4.136377l-30.811528,0l0,-27.920545z"/>

   </g>
   <g fill="#54565a">
    <path stroke="null" id="svg_25" d="m1503.080106,2444.672438c-6.799785,-3.51592 -9.562198,-11.581856 -6.374799,-18.406878c2.762413,-5.790928 13.387078,-9.100029 30.174048,-9.513667c18.274423,-0.413638 24.436729,-2.275007 25.074209,-7.652297c1.062466,-7.445479 -11.687131,-11.581856 -30.599035,-9.927305c-8.287239,0.620457 -17.636944,2.068188 -20.61185,3.102283c-4.462359,1.654551 -5.524826,1.447732 -6.374799,-1.86137c-0.849973,-3.309102 0.849973,-4.343196 9.562198,-5.997747c22.736783,-4.756834 47.810992,-1.654551 53.760804,6.618203c9.349705,13.029588 0.63748,20.061428 -28.049115,22.336436c-11.049651,1.034094 -21.461823,2.688645 -23.161769,4.136377c-4.462359,3.51592 -3.612386,7.652297 2.337426,11.375037c4.249866,2.688645 9.349705,3.309102 25.924182,2.688645c13.812064,-0.620457 20.61185,0 21.24933,1.447732c1.91244,5.584109 -42.923646,7.031841 -52.910831,1.654551z"/>
    <path stroke="null" id="svg_26" d="m1577.877747,2420.060995l0,-27.920545l31.873994,0c30.386541,0 31.873994,0.206819 31.873994,4.136377c0,3.929558 -1.487453,4.136377 -27.624129,4.136377l-27.624129,0l0,8.272754l0,8.272754l24.436729,0c22.949276,0 24.436729,0.206819 24.436729,4.136377c0,3.929558 -1.487453,4.136377 -24.436729,4.136377l-24.436729,0l0,8.272754l0,8.272754l26.561662,0c22.099303,0 26.561662,0.413638 26.561662,3.102283c0,2.688645 -4.887346,3.102283 -30.811528,3.102283l-30.811528,0l0,-27.920545z"/>
    <path stroke="null" id="svg_27" d="m1669.887344,2420.060995c-15.299517,-24.818262 -16.78697,-27.920545 -12.749598,-27.920545c2.974906,0 6.374799,2.688645 9.562198,7.23866l4.674853,7.23866l21.24933,0l21.461823,0l4.249866,-7.23866c2.54992,-4.136377 6.162306,-7.23866 8.499732,-7.23866c2.124933,0 4.037373,0.620457 4.037373,1.654551c-0.212493,0.827275 -7.649759,13.029588 -16.574477,27.300088c-22.524289,35.159204 -21.88681,35.159204 -44.411099,-1.034094zm31.873994,6.825022l7.649759,-13.029588l-16.149491,-0.620457c-8.712225,-0.413638 -16.361984,-0.206819 -16.999464,0.206819c-1.062466,1.240913 14.237051,26.265994 16.149491,26.265994c0.849973,0 4.887346,-5.790928 9.349705,-12.822769z"/>
    <path stroke="null" id="svg_28" d="m1745.747451,2420.267814c0,-26.679632 0.212493,-28.127363 4.249866,-28.127363c3.612386,0 4.249866,1.447732 4.249866,10.340942l0,10.340942l10.412172,0c8.924718,0 11.899625,-1.240913 24.436729,-10.547761c10.199678,-7.445479 15.724504,-10.134124 19.761877,-9.720486c4.887346,0.620457 4.249866,1.447732 -7.862252,9.927305l-13.174584,9.306848l8.499732,2.068188c12.112118,3.102283 15.299517,6.411384 15.299517,16.545508c0,14.684138 -3.824879,16.338689 -37.39882,17.165964l-28.474102,0.827275l0,-28.127363zm56.523217,16.545508c1.699946,-2.275007 2.974906,-5.170471 2.974906,-6.411384c0,-1.240913 -1.27496,-4.136377 -2.974906,-6.411384c-2.54992,-3.309102 -6.162306,-3.929558 -25.499196,-4.550015l-22.524289,-0.827275l0,11.788674l0,11.788674l22.524289,-0.827275c19.33689,-0.620457 22.949276,-1.240913 25.499196,-4.550015z"/>
    <path stroke="null" id="svg_29" d="m1845.831793,2444.2588c-10.837158,-5.170471 -16.149491,-13.443225 -15.936997,-24.197805c0.424987,-16.752327 10.837158,-25.438718 32.936461,-27.300088c6.587292,-0.620457 17.42445,-0.413638 24.011742,0.206819c9.987185,1.240913 11.899625,2.275007 11.899625,5.790928c0,3.102283 -0.849973,3.722739 -3.612386,2.688645c-7.862252,-2.895464 -29.749061,-3.51592 -38.67378,-1.034094c-27.411635,7.23866 -25.499196,36.193299 2.762413,40.329676c10.412172,1.654551 29.111582,0.413638 35.911367,-2.068188c2.762413,-1.034094 3.612386,-0.413638 3.612386,2.688645c0,4.963652 -7.012279,6.618203 -29.536568,6.618203c-11.262145,0 -18.486917,-1.034094 -23.374263,-3.722739z"/>
    <path stroke="null" id="svg_30" d="m1915.742088,2420.060995c0,-26.472813 0.212493,-27.920545 4.249866,-27.920545c3.824879,0 4.249866,1.447732 4.249866,12.409131l0,12.409131l25.499196,0l25.499196,0l0,-12.409131c0,-9.720486 0.63748,-12.409131 3.187399,-12.409131c2.762413,0 3.187399,4.550015 3.187399,27.920545c0,23.37053 -0.424987,27.920545 -3.187399,27.920545c-2.54992,0 -3.187399,-2.688645 -3.187399,-11.375037l0,-11.375037l-25.499196,0l-25.499196,0l0,11.375037c0,9.927305 -0.424987,11.375037 -4.249866,11.375037c-4.037373,0 -4.249866,-1.447732 -4.249866,-27.920545z"/>
   </g>
  </g>
 </g>
</svg>