<svg width="100" height="76" xmlns="http://www.w3.org/2000/svg" fill="none">
 <path stroke="null" id="svg_1" fill="#CF0000" d="m8.55078,66.01416c0.79903,0.71221 1.63548,1.38139 2.5058,2.00464c4.3701,3.02173 9.3031,5.13417 14.50576,6.2116c5.97102,1.2729 12.10414,1.60558 18.17784,0.98604c2.72127,-0.25953 5.42498,-0.67732 8.09764,-1.25116c3.59906,-0.76918 7.1359,-1.80499 10.58135,-3.09883c1.74883,-0.65511 3.47173,-1.37325 5.16858,-2.15464c3.99312,-1.8329 7.80788,-4.03184 11.3953,-6.56858c1.21627,-0.86511 2.40232,-1.76906 3.55813,-2.71162c0.5543,-0.45349 1.09686,-0.91279 1.6279,-1.3779c0.82639,-0.72407 1.6322,-1.47092 2.41743,-2.24069l0.44186,-0.43372c0.91395,-0.91395 1.79499,-1.85895 2.64301,-2.83487c0.82639,-0.95116 1.61627,-1.9322 2.36976,-2.94301c3.35592,-4.37138 5.74184,-9.40764 6.99881,-14.7732c1.16069,-5.07207 0.80197,-10.37356 -1.03139,-15.24296c-0.52151,-1.32151 -1.15883,-2.59429 -1.90464,-3.80347c-1.0093,-1.62244 -2.19267,-3.12976 -3.52906,-4.49539c-0.46511,-0.47324 -0.97907,-0.87558 -1.47441,-1.31511c-0.53372,-0.47558 -1.08953,-0.9093 -1.65348,-1.34302c-1.16604,-0.89562 -2.39139,-1.71144 -3.66743,-2.44185c-3.6694,-2.05691 -7.62892,-3.54665 -11.74414,-4.41859c-5.48963,-1.1646 -11.11868,-1.52962 -16.71273,-1.08372c-3.07569,0.22948 -6.13253,0.66495 -9.14996,1.30348c-3.71045,0.78308 -7.35648,1.8454 -10.90693,3.17789c-1.66278,0.62325 -3.26743,1.30116 -4.84533,2.02092c-5.05207,2.2829 -9.81426,5.15934 -14.18599,8.56863c-0.91046,0.71395 -1.79999,1.46511 -2.65348,2.20929c-0.49651,0.44302 -1.00697,0.88604 -1.48837,1.34186c-1.38709,1.29034 -2.70661,2.6515 -3.95347,4.07789c-0.93023,1.07325 -1.80813,2.15813 -2.65348,3.30464c-3.16053,4.18243 -5.44305,8.96066 -6.71044,14.04762c-1.25754,5.06917 -0.98031,10.39787 0.79651,15.30924c0.14767,0.38256 0.29535,0.76046 0.46511,1.13139c0.48654,1.10232 1.05398,2.16732 1.69767,3.18603c0.66073,1.04325 1.39516,2.03802 2.19767,2.97673c0.12791,0.14953 0.25698,0.29721 0.38721,0.44302c0.70045,0.78581 1.44548,1.53092 2.23139,2.23139z"/>
 <path stroke="null" id="svg_2" fill="white" d="m14.44378,61.11302c-0.21628,0 -0.34884,-0.04884 -0.41395,-0.14767c-0.0814,-0.12791 -0.04302,-0.34884 0.11628,-0.67442c0.1593,-0.32558 20.83829,-42.69867 22.48712,-46.05331c0.07523,-0.19674 0.20081,-0.37011 0.36395,-0.50314c0.16326,-0.13302 0.35849,-0.22105 0.56628,-0.255c0.34884,0 0.56744,0.31395 0.61279,0.86395c0.18837,2.25813 1.8465,24.30223 2.81859,37.24288c0.17791,2.38487 0.3093,4.10929 0.3186,4.23022c0.06512,0.83139 -0.01744,1.05697 -0.93023,1.20581c-0.52209,0.08605 -4.11045,0.65581 -4.95812,0.78953c-0.09756,0.01674 -0.19639,0.0257 -0.29535,0.02674c-0.46511,0 -0.49651,-0.25 -0.50116,-0.63023c-0.0093,-0.73837 -0.05349,-4.0058 -0.07907,-5.98253l-0.01163,-0.85l0,-0.05581l-9.13717,1.41627c0,0.01512 -3.23138,7.5523 -3.34185,7.82206c-0.14767,0.34884 -0.31977,0.43488 -0.77325,0.50814c-1.39534,0.22325 -5.95812,0.94418 -6.47556,1.02093c-0.12128,0.01733 -0.24372,0.02593 -0.36628,0.02558zm20.03248,-30.97197l-6.64997,15.54413l6.71393,-1.04651l-0.06395,-14.49762zm14.10576,25.6592c-1.39895,0.0343 -2.79104,-0.20593 -4.09766,-0.70697c-0.95697,-0.39535 -1.09069,-0.69069 -0.79186,-1.75232c0.21628,-0.76046 1.3593,-4.71045 1.3593,-4.7337c0.17058,0.305 0.39023,0.58 0.65,0.81395c0.67081,0.60849 1.49569,1.02151 2.38487,1.19418c0.39651,0.0864 0.80116,0.13081 1.20697,0.13256c0.6729,0.04128 1.34406,-0.10453 1.93929,-0.42116c0.59511,-0.31674 1.09104,-0.79186 1.43279,-1.37302c0.32546,-0.76453 0.34337,-1.62499 0.05,-2.40232c-0.58942,-1.52883 -1.57709,-2.8722 -2.86045,-3.89068c-1.37127,-1.13197 -2.42836,-2.59755 -3.06976,-4.2558c-0.60267,-2.17046 -0.3686,-4.48812 0.65581,-6.49416c0.74523,-1.27523 1.80034,-2.34162 3.06743,-3.10045c1.2672,-0.75883 2.70545,-1.18546 4.18138,-1.24023c0.38604,-0.04349 0.7743,-0.06523 1.16279,-0.06512c1.39895,0.00988 2.78534,0.26442 4.0965,0.75232c0.10895,0.02581 0.21058,0.07616 0.29721,0.14709c0.08663,0.07105 0.15593,0.1607 0.20279,0.26244c0.04686,0.10174 0.06988,0.21279 0.06744,0.32477c-0.00233,0.11198 -0.03023,0.22186 -0.0814,0.32151c-0.07558,0.2186 -0.78023,2.20929 -1.2,3.41045l0,0.01744l-0.29535,0.85697l0,0.0186c-0.91267,-0.71337 -1.95999,-1.235 -3.07906,-1.53371l-0.25349,0c-0.38895,-0.02349 -0.77802,0.04581 -1.135,0.20209c-0.35698,0.15628 -0.67174,0.395 -0.91848,0.69674c-0.38093,0.41465 -0.62976,0.93348 -0.71442,1.49023c-0.08477,0.55674 -0.00151,1.12604 0.23884,1.63534c0.34884,0.62558 0.69767,1.11744 3.81161,3.93138c0.82349,0.70535 1.49988,1.56604 1.99069,2.5329c0.49081,0.96686 0.78639,2.02081 0.86976,3.10196c0.11977,1.65302 -0.2186,3.30696 -0.9779,4.78021c-0.66139,1.21186 -1.55848,2.27929 -2.63836,3.13952c-1.10302,0.90825 -2.40836,1.5379 -3.8058,1.83604c-1.23232,0.24465 -2.48546,0.37 -3.74185,0.37442l-0.00465,-0.00349zm12.79065,-2.1372c-0.05302,0.00767 -0.10721,0.00326 -0.15826,-0.01291c-0.05116,-0.01605 -0.09802,-0.04349 -0.13709,-0.08012c-0.11628,-0.13605 -0.06512,-0.44302 0.03953,-1.01511c0.05116,-0.28605 1.27906,-6.89997 2.70929,-14.55576l0,-0.01512c2.28139,-12.27437 5.12789,-27.56157 5.19765,-27.95226c0.15581,-0.88604 0.42442,-1.07907 1.10116,-1.18023c0.50465,-0.08372 4.08719,-0.46511 4.8837,-0.47791l0.04884,0c0.34884,0 0.54651,0.05581 0.6593,0.1907c0.13721,0.16395 0.15465,0.45116 0.0593,0.99186c-0.13256,0.74651 -5.3337,28.28366 -5.38603,28.56156c0.0314,-0.05465 1.57325,-2.63604 3.20464,-5.36742c1.86046,-3.12441 3.79301,-6.35463 3.92091,-6.57323c0.09593,-0.20267 0.24593,-0.375 0.43337,-0.49814c0.18756,-0.12302 0.40523,-0.19209 0.62942,-0.19953l2.99185,-0.29535l2.00464,-0.20232c0.14767,-0.01279 0.2407,-0.02326 0.32093,-0.02326c0.07442,-0.00547 0.14884,0.00977 0.21512,0.04419c0.03674,0.02337 0.06686,0.05593 0.08721,0.09442c0.02047,0.0386 0.03046,0.08174 0.02907,0.12535c-0.00337,0.11744 -0.04012,0.23151 -0.10581,0.32907c-0.29535,0.47674 -7.66509,12.40925 -7.73369,12.53018l0.54418,1.54767c1.14069,3.2465 3.51394,10.00577 3.64068,10.37554c0.08256,0.24186 0.09302,0.38837 0.03256,0.48953c-0.06046,0.10116 -0.2186,0.17907 -0.52442,0.23256c-0.30581,0.05349 -3.61161,0.58139 -4.98603,0.79302c-0.09256,0.01605 -0.18628,0.025 -0.28023,0.02674c-0.33139,0 -0.44186,-0.14767 -0.58139,-0.52209c-0.18023,-0.48372 -4.07789,-11.41158 -4.11859,-11.52205l-2.44883,12.65344c-0.10814,0.5593 -0.31395,0.5907 -0.65465,0.64302l-0.05698,0.0093c-1.44418,0.23256 -4.33952,0.69069 -4.95347,0.78604c-0.20953,0.03616 -0.42128,0.05837 -0.63372,0.06628l0.00581,0.00233z"/>
 <path stroke="null" id="svg_3" fill="#BFBFBF" d="m96.51206,7.4876c-0.46628,0.00288 -0.92802,-0.09137 -1.35581,-0.27674c-0.83558,-0.35886 -1.50162,-1.02483 -1.86046,-1.86046c-0.18244,-0.42894 -0.27639,-0.89028 -0.27639,-1.35639c0,-0.46611 0.09395,-0.92744 0.27639,-1.35639c0.35884,-0.83562 1.02488,-1.50159 1.86046,-1.86046c0.42825,-0.18263 0.88907,-0.27677 1.35465,-0.27677c0.46558,0 0.92639,0.09414 1.35465,0.27677c0.83558,0.35887 1.50162,1.02483 1.86046,1.86046c0.18244,0.42915 0.27639,0.89067 0.27639,1.35697c0,0.46631 -0.09395,0.92783 -0.27639,1.35697c-0.35884,0.83562 -1.02488,1.5016 -1.86046,1.86046c-0.42721,0.18466 -0.88814,0.2785 -1.35348,0.27558zm0,-6.36625c-0.38291,-0.00271 -0.76244,0.07286 -1.11511,0.22209c-0.61116,0.25755 -1.11441,0.71859 -1.42441,1.30494c-0.31,0.58635 -0.40756,1.26188 -0.27616,1.91197c0.13128,0.6501 0.4836,1.23473 0.99686,1.6547c0.51337,0.41998 1.15616,0.64943 1.81941,0.64943c0.66325,0 1.30604,-0.22945 1.81941,-0.64943c0.51325,-0.41998 0.86558,-1.0046 0.99686,-1.6547c0.13139,-0.65009 0.03384,-1.32562 -0.27616,-1.91197c-0.30988,-0.58635 -0.81325,-1.04739 -1.42441,-1.30494c-0.35256,-0.15002 -0.73197,-0.22639 -1.11511,-0.22442l-0.00116,0.00233zm-0.61046,4.84533l-0.73023,0l0,-3.99068l1.5372,0c0.37965,-0.03008 0.75697,0.08042 1.06046,0.31046c0.11744,0.11509 0.20872,0.25409 0.26779,0.40757c0.05895,0.15348 0.08419,0.31786 0.07407,0.48196c0.0107,0.1432 -0.00791,0.28706 -0.05465,0.42281c-0.04674,0.13576 -0.12081,0.26053 -0.21744,0.36672c-0.18663,0.178 -0.42802,0.28745 -0.68488,0.31046l1.03953,1.68953l-0.7686,0l-0.99302,-1.63604l-0.52907,0l0,1.6372l-0.00116,0zm0,-3.37208l0,1.11744l0.53488,0c0.11105,0.00255 0.22209,-0.00212 0.33256,-0.01395c0.105,-0.00712 0.20814,-0.03066 0.30581,-0.06977c0.08802,-0.03481 0.16488,-0.09314 0.22209,-0.1686c0.06151,-0.09141 0.09128,-0.20048 0.08488,-0.31046c0.00791,-0.11089 -0.02116,-0.22128 -0.08256,-0.31395c-0.05721,-0.07542 -0.13407,-0.13373 -0.22209,-0.1686c-0.09767,-0.0385 -0.20093,-0.06051 -0.30581,-0.06512c-0.10116,-0.00698 -0.21395,-0.0093 -0.33256,-0.0093l-0.53721,0.00233z"/>
</svg>