<svg version="1.1" xmlns="http://www.w3.org/2000/svg" xml:space="preserve" viewBox="0 0 25 24">
    <path stroke="#6E9BB5" stroke-width="0.6" transform="translate(-770.000000, -15.000000)" fill="#6E9BB5" d="M794.048828,37.0527344 L794.022461,37.0527344 C794.215821,37.2636729 794.3125,37.4921863 794.3125,37.7382812 C794.3125,37.9843762 794.215821,38.2041006 794.022461,38.3974609 C793.829101,38.5908213 793.609376,38.6875 793.363281,38.6875 C793.117186,38.6875 792.897462,38.5908213 792.704102,38.3974609 L787.272461,32.9921875 C786.39355,33.7128942 785.404791,34.2797831 784.306152,34.6928711 C783.207514,35.1059591 782.042975,35.3125 780.8125,35.3125 C777.947251,35.2421871 775.561045,34.2534275 773.653809,32.3461914 C771.746572,30.4389553 770.757813,28.0527487 770.6875,25.1875 C770.757813,22.3222513 771.746572,19.9360447 773.653809,18.0288086 C775.561045,16.1215725 777.947251,15.1328129 780.8125,15.0625 C783.677749,15.1328129 786.063955,16.1215725 787.971191,18.0288086 C789.878428,19.9360447 790.867187,22.3222513 790.9375,25.1875 C790.9375,26.4179749 790.730959,27.582514 790.317871,28.6811523 C789.904783,29.7797906 789.337894,30.7685503 788.617188,31.6474609 L794.048828,37.0527344 Z M784.00293,32.7548828 C784.98731,32.3505839 785.861813,31.7661171 786.626465,31.0014648 C787.391117,30.2368126 787.984373,29.3579151 788.40625,28.3647461 C788.828127,27.3715771 789.039062,26.3125056 789.039062,25.1875 C789.039062,24.0624944 788.828127,23.0034229 788.40625,22.0102539 C787.984373,21.0170849 787.391117,20.1381874 786.626465,19.3735352 C785.861813,18.6088829 784.982915,18.0156271 783.989746,17.59375 C782.996577,17.1718729 781.937506,16.9609375 780.8125,16.9609375 C779.687494,16.9609375 778.628423,17.1718729 777.635254,17.59375 C776.642085,18.0156271 775.763187,18.6088829 774.998535,19.3735352 C774.233883,20.1381874 773.640627,21.0170849 773.21875,22.0102539 C772.796873,23.0034229 772.585938,24.0624944 772.585938,25.1875 C772.585938,26.3125056 772.796873,27.3715771 773.21875,28.3647461 C773.640627,29.3579151 774.233883,30.2368126 774.998535,31.0014648 C775.763187,31.7661171 776.642085,32.3593729 777.635254,32.78125 C778.628423,33.2031271 779.687494,33.4140625 780.8125,33.4140625 C781.937506,33.4140625 783.000972,33.1943381 784.00293,32.7548828 Z"/>
</svg>