<svg width="36" height="36" xmlns="http://www.w3.org/2000/svg">
    <rect x="0.10285" y="4.49047" fill="none" height="26.07738" width="35.87706"/>
    <path fill="none" d="m3.08581,27.71044a10.47858,10.47858 0 0 0 0.87309,0.69697a13.80927,13.80927 0 0 0 5.05007,2.16014a20.44234,20.44234 0 0 0 6.3302,0.34261a24.53683,24.53683 0 0 0 2.81948,-0.43504a25.86152,25.86152 0 0 0 3.68594,-1.07992q0.91313,-0.34171 1.79977,-0.74905a24.77166,24.77166 0 0 0 3.96955,-2.28418q0.63404,-0.44949 1.23617,-0.94083q0.28962,-0.23664 0.56721,-0.4796q0.43143,-0.37784 0.84298,-0.77886c0.05118,-0.04998 0.10206,-0.10025 0.15234,-0.15053q0.47719,-0.47689 0.92006,-0.98569q0.43143,-0.49646 0.82552,-1.02362a13.4799,13.4799 0 0 0 2.43652,-5.13708a9.19996,9.19996 0 0 0 -0.35857,-5.30026a8.37474,8.37474 0 0 0 -0.66626,-1.32138a9.13553,9.13553 0 0 0 -1.22564,-1.56554c-0.16047,-0.16468 -0.3405,-0.30408 -0.51181,-0.45702c-0.18546,-0.16498 -0.37934,-0.31612 -0.57564,-0.46695a11.36432,11.36432 0 0 0 -1.27862,-0.8478a14.52701,14.52701 0 0 0 -4.09118,-1.53543a20.30114,20.30114 0 0 0 -5.8202,-0.37693a24.04941,24.04941 0 0 0 -3.18497,0.4516a26.23695,26.23695 0 0 0 -3.79914,1.10491c-0.57895,0.21647 -1.13773,0.4516 -1.68597,0.70239a24.31735,24.31735 0 0 0 -4.94078,2.98055c-0.31702,0.24838 -0.62622,0.5094 -0.92277,0.76922c-0.17311,0.15053 -0.35014,0.3095 -0.51813,0.46665a19.17787,19.17787 0 0 0 -1.38008,1.41651c-0.32515,0.37332 -0.62983,0.75026 -0.92277,1.14917a13.51784,13.51784 0 0 0 -2.33326,4.88509a9.15239,9.15239 0 0 0 0.27547,5.32314c0.05058,0.13307 0.10507,0.26434 0.16227,0.39379a8.49245,8.49245 0 0 0 0.59129,1.10792a9.01601,9.01601 0 0 0 0.76441,1.03536q0.06654,0.07798 0.13488,0.15445a9.56485,9.56485 0 0 0 0.77705,0.77524l0.00151,0z"/>
    <path fill="none" d="m3.08581,27.71044a10.47858,10.47858 0 0 0 0.87309,0.69697a13.80927,13.80927 0 0 0 5.05007,2.16014a20.44234,20.44234 0 0 0 6.3302,0.34261a24.53683,24.53683 0 0 0 2.81948,-0.43504a25.86152,25.86152 0 0 0 3.68594,-1.07992q0.91313,-0.34171 1.79977,-0.74905a24.77166,24.77166 0 0 0 3.96955,-2.28418q0.63404,-0.44949 1.23617,-0.94083q0.28962,-0.23664 0.56721,-0.4796q0.43143,-0.37784 0.84298,-0.77886c0.05118,-0.04998 0.10206,-0.10025 0.15234,-0.15053q0.47719,-0.47689 0.92006,-0.98569q0.43143,-0.49646 0.82552,-1.02362a13.4799,13.4799 0 0 0 2.43652,-5.13708a9.19996,9.19996 0 0 0 -0.35857,-5.30026a8.37474,8.37474 0 0 0 -0.66626,-1.32138a9.13553,9.13553 0 0 0 -1.22564,-1.56554c-0.16047,-0.16468 -0.3405,-0.30408 -0.51181,-0.45702c-0.18546,-0.16498 -0.37934,-0.31612 -0.57564,-0.46695a11.36432,11.36432 0 0 0 -1.27862,-0.8478a14.52701,14.52701 0 0 0 -4.09118,-1.53543a20.30114,20.30114 0 0 0 -5.8202,-0.37693a24.04941,24.04941 0 0 0 -3.18497,0.4516a26.23695,26.23695 0 0 0 -3.79914,1.10491c-0.57895,0.21647 -1.13773,0.4516 -1.68597,0.70239a24.31735,24.31735 0 0 0 -4.94078,2.98055c-0.31702,0.24838 -0.62622,0.5094 -0.92277,0.76922c-0.17311,0.15053 -0.35014,0.3095 -0.51813,0.46665a19.17787,19.17787 0 0 0 -1.38008,1.41651c-0.32515,0.37332 -0.62983,0.75026 -0.92277,1.14917a13.51784,13.51784 0 0 0 -2.33326,4.88509a9.15239,9.15239 0 0 0 0.27547,5.32314c0.05058,0.13307 0.10507,0.26434 0.16227,0.39379a8.49245,8.49245 0 0 0 0.59129,1.10792a9.01601,9.01601 0 0 0 0.76441,1.03536q0.06654,0.07798 0.13488,0.15445a9.56485,9.56485 0 0 0 0.77705,0.77524l0.00151,0z"/>
    <path fill="none" d="m0.10797,4.55098l35.16775,0l0,26.47599l-35.16775,0l0,-26.47599z"/>
    <path fill="#64646b" d="m3.07617,27.26667a10.47858,10.47858 0 0 0 0.87309,0.69697a13.80927,13.80927 0 0 0 5.05007,2.16014a20.44234,20.44234 0 0 0 6.3302,0.34261a24.53683,24.53683 0 0 0 2.81948,-0.43504a25.86152,25.86152 0 0 0 3.68594,-1.07992q0.91313,-0.34171 1.79977,-0.74905a24.77166,24.77166 0 0 0 3.96955,-2.28418q0.63404,-0.44949 1.23617,-0.94083q0.28962,-0.23664 0.56721,-0.4796q0.43143,-0.37784 0.84298,-0.77886c0.05118,-0.04998 0.10206,-0.10025 0.15234,-0.15053q0.47719,-0.47689 0.92006,-0.98569q0.43143,-0.49646 0.82552,-1.02362a13.4799,13.4799 0 0 0 2.43652,-5.13708a9.19996,9.19996 0 0 0 -0.35857,-5.30026a8.37474,8.37474 0 0 0 -0.66626,-1.32138a9.13553,9.13553 0 0 0 -1.22564,-1.56554c-0.16047,-0.16468 -0.3405,-0.30408 -0.51181,-0.45702c-0.18546,-0.16498 -0.37934,-0.31612 -0.57564,-0.46695a11.36432,11.36432 0 0 0 -1.27862,-0.8478a14.52701,14.52701 0 0 0 -4.09118,-1.53543a20.30114,20.30114 0 0 0 -5.8202,-0.37693a24.04941,24.04941 0 0 0 -3.18497,0.4516a26.23695,26.23695 0 0 0 -3.79914,1.10491c-0.57895,0.21647 -1.13773,0.4516 -1.68597,0.70239a24.31735,24.31735 0 0 0 -4.94078,2.98055c-0.31702,0.24838 -0.62622,0.5094 -0.92277,0.76922c-0.17311,0.15053 -0.35014,0.3095 -0.51813,0.46665a19.17787,19.17787 0 0 0 -1.38008,1.41651c-0.32515,0.37332 -0.62983,0.75026 -0.92277,1.14917a13.51784,13.51784 0 0 0 -2.33326,4.88509a9.15239,9.15239 0 0 0 0.27547,5.32314c0.05058,0.13307 0.10507,0.26434 0.16227,0.39379a8.49245,8.49245 0 0 0 0.59129,1.10792a9.01601,9.01601 0 0 0 0.76441,1.03536q0.06654,0.07798 0.13488,0.15445a9.56485,9.56485 0 0 0 0.77705,0.77524"/>
    <path fill="#fff" d="m5.12733,25.58733l0,0c-0.07557,0 -0.12283,-0.01686 -0.14451,-0.05178c-0.028,-0.04486 -0.01475,-0.12043 0.04004,-0.23453c0.04034,-0.08309 7.25176,-14.83891 7.82951,-16.01337a0.41908,0.41908 0 0 1 0.32395,-0.26313c0.12043,0 0.1975,0.10929 0.21346,0.30107c0.06864,0.82522 0.70811,9.32189 0.98117,12.95003c0.06654,0.88543 0.10748,1.43036 0.11079,1.47161c0.02258,0.28902 -0.00632,0.3679 -0.32395,0.41908c-0.18365,0.03011 -1.4403,0.22941 -1.72631,0.27457a0.68221,0.68221 0 0 1 -0.10327,0.00933c-0.16017,0 -0.17311,-0.08671 -0.17462,-0.21887c-0.00421,-0.35526 -0.03191,-2.37601 -0.03221,-2.39588l-3.17895,0.49164c-0.00692,0.01626 -1.13773,2.6566 -1.16362,2.71772c-0.05028,0.12193 -0.11139,0.15053 -0.27096,0.17642c-0.47508,0.07557 -2.07434,0.32876 -2.25438,0.35526a0.88423,0.88423 0 0 1 -0.12615,0.01084zm6.97328,-10.77031l0,0l-2.31519,5.40563l2.33747,-0.36399l-0.02288,-5.04134l0.0006,-0.0003zm4.91188,8.92268l0,0a3.73682,3.73682 0 0 1 -1.42705,-0.24567c-0.33328,-0.13759 -0.37964,-0.24085 -0.27547,-0.60906c0.07527,-0.26554 0.47087,-1.63268 0.47478,-1.64592a1.1007,1.1007 0 0 0 0.2264,0.28511a1.72721,1.72721 0 0 0 0.83064,0.41607a2.01473,2.01473 0 0 0 0.42149,0.04606a1.272,1.272 0 0 0 1.17416,-0.62531a1.12026,1.12026 0 0 0 0.01746,-0.83546a3.19521,3.19521 0 0 0 -0.99743,-1.3551a3.60797,3.60797 0 0 1 -1.06878,-1.48034a3.12235,3.12235 0 0 1 0.22821,-2.25799c0.4516,-0.85382 1.32469,-1.37557 2.52263,-1.50954a3.63717,3.63717 0 0 1 0.40403,-0.02228a4.18481,4.18481 0 0 1 1.42585,0.26163a0.2553,0.2553 0 0 1 0.1695,0.367c-0.03282,0.09514 -0.40764,1.15669 -0.52145,1.47974l-0.00572,0.01626c-0.00662,-0.00482 -0.69034,-0.51181 -1.07179,-0.53289c-0.03011,-0.00151 -0.06021,-0.00241 -0.08821,-0.00241a0.85743,0.85743 0 0 0 -0.71503,0.31251a0.98388,0.98388 0 0 0 -0.16589,1.08685c0.12043,0.21737 0.24085,0.38807 1.3271,1.36714a2.86765,2.86765 0 0 1 0.99683,1.95903a3.12927,3.12927 0 0 1 -0.34141,1.66068a3.60466,3.60466 0 0 1 -0.91885,1.09046a3.10639,3.10639 0 0 1 -1.32469,0.63886a6.83117,6.83117 0 0 1 -1.29729,0.13458zm4.45125,-0.74303l0,0a0.12404,0.12404 0 0 1 -0.10176,-0.03221c-0.03944,-0.04727 -0.02228,-0.15354 0.01385,-0.35315c0.01806,-0.09845 0.44227,-2.3733 0.9333,-5.00702l0.01024,-0.05449c0.79662,-4.27212 1.78803,-9.58893 1.81181,-9.72441c0.05419,-0.30739 0.14752,-0.37543 0.38326,-0.41216c0.17371,-0.0283 1.42163,-0.16077 1.69982,-0.16498l0.01716,0c0.12043,0 0.19057,0.01987 0.22911,0.06593c0.04787,0.0572 0.05389,0.15686 0.02077,0.34472c-0.04365,0.24447 -1.68356,8.91816 -1.87052,9.90505l-0.00482,0.02529c0.01114,-0.01897 0.54734,-0.91614 1.11394,-1.86661c0.6497,-1.08655 1.32138,-2.21012 1.36714,-2.28599a0.4248,0.4248 0 0 1 0.37001,-0.24266l1.04169,-0.10507l0.69817,-0.07045c0.04907,-0.00482 0.0834,-0.00813 0.112,-0.00813a0.1406,0.1406 0 0 1 0.07497,0.01566a0.08731,0.08731 0 0 1 0.04094,0.07647a0.21556,0.21556 0 0 1 -0.03673,0.1144c-0.10176,0.16589 -2.66684,4.31547 -2.69243,4.35672l0.19057,0.54192c0.3968,1.12839 1.22263,3.4764 1.26658,3.60496c0.03011,0.084 0.03221,0.13488 0.01144,0.1704s-0.07587,0.06232 -0.18245,0.08038s-1.25725,0.20051 -1.73594,0.27578a0.63796,0.63796 0 0 1 -0.09755,0.00903c-0.11531,0 -0.15415,-0.05359 -0.20201,-0.18064c-0.06262,-0.1683 -1.42013,-3.96804 -1.43367,-4.00628l-0.85322,4.40188c-0.03733,0.19479 -0.10899,0.20563 -0.22791,0.22369l-0.02017,0.00301c-0.50278,0.08008 -1.51075,0.24085 -1.7248,0.27367a1.65827,1.65827 0 0 1 -0.22249,0.02529l-0.0003,0z"/>
    <path fill="#bfbfbf" d="m34.36741,7.98915a1.5529,1.5529 0 0 1 -0.62652,-0.12795a1.6396,1.6396 0 0 1 -0.85834,-0.85834a1.55259,1.55259 0 0 1 -0.12795,-0.62652a1.55259,1.55259 0 0 1 0.12795,-0.62652a1.6396,1.6396 0 0 1 0.85834,-0.85834a1.55259,1.55259 0 0 1 0.62652,-0.12795a1.55259,1.55259 0 0 1 0.62652,0.12795a1.6396,1.6396 0 0 1 0.85834,0.85834a1.5529,1.5529 0 0 1 0.12795,0.62652a1.5529,1.5529 0 0 1 -0.12795,0.62652a1.6396,1.6396 0 0 1 -0.85834,0.85834a1.5529,1.5529 0 0 1 -0.62652,0.12795zm0,-2.9393a1.3012,1.3012 0 0 0 -0.51603,0.10507a1.32168,1.32168 0 0 0 -0.7054,0.7054a1.33101,1.33101 0 0 0 0,1.03175a1.32168,1.32168 0 0 0 0.7054,0.7069a1.33101,1.33101 0 0 0 1.03175,0a1.32168,1.32168 0 0 0 0.7069,-0.7069a1.33101,1.33101 0 0 0 0,-1.03175a1.32168,1.32168 0 0 0 -0.7069,-0.7054a1.3012,1.3012 0 0 0 -0.51573,-0.10537l0,0.0003zm-0.2818,2.23722l-0.33749,0l0,-1.84282l0.71021,0a0.72015,0.72015 0 0 1 0.49194,0.14301a0.52927,0.52927 0 0 1 0.15836,0.41065a0.48682,0.48682 0 0 1 -0.12615,0.36549a0.52807,0.52807 0 0 1 -0.31642,0.14301l0.4817,0.77976l-0.35526,0l-0.45973,-0.75387l-0.24717,0l0,0.75447l0,0.0003zm0,-1.55681l0,0.51603l0.24717,0c0.05178,0 0.10417,-0.00211 0.15595,-0.00662a0.47177,0.47177 0 0 0 0.1409,-0.03101a0.24085,0.24085 0 0 0 0.10176,-0.07798a0.23453,0.23453 0 0 0 0.03914,-0.14301a0.23453,0.23453 0 0 0 -0.03914,-0.14301a0.24085,0.24085 0 0 0 -0.10176,-0.07798a0.43384,0.43384 0 0 0 -0.1409,-0.03011c-0.05028,-0.00301 -0.10266,-0.00421 -0.15595,-0.00421l-0.24717,-0.00211z"/>
</svg>