<svg width="32" height="32" xmlns="http://www.w3.org/2000/svg">
 <rect width="32.56518" height="23.67013" fill="none" y="3.94783" x="0.10247"/>
 <path fill="none" d="m2.81006,25.02433a9.51128,9.51128 0 0 0 0.79249,0.63263a12.53451,12.53451 0 0 0 4.58389,1.96073a18.55527,18.55527 0 0 0 5.74585,0.31098a22.27179,22.27179 0 0 0 2.55921,-0.39488a23.4742,23.4742 0 0 0 3.34568,-0.98023q0.82884,-0.31017 1.63363,-0.6799a22.48494,22.48494 0 0 0 3.60311,-2.07332q0.57551,-0.408 1.12206,-0.85398q0.26288,-0.2148 0.51485,-0.43533q0.3916,-0.34296 0.76516,-0.70696c0.04646,-0.04537 0.09264,-0.091 0.13828,-0.13663q0.43314,-0.43287 0.83513,-0.8947q0.3916,-0.45063 0.74931,-0.92913a12.23555,12.23555 0 0 0 2.2116,-4.66287a8.3507,8.3507 0 0 0 -0.32547,-4.81098a7.60165,7.60165 0 0 0 -0.60476,-1.1994a8.29221,8.29221 0 0 0 -1.1125,-1.42102c-0.14566,-0.14948 -0.30907,-0.27601 -0.46456,-0.41483c-0.16834,-0.14975 -0.34432,-0.28694 -0.5225,-0.42385a10.31526,10.31526 0 0 0 -1.16059,-0.76954a13.186,13.186 0 0 0 -3.71352,-1.39369a18.42711,18.42711 0 0 0 -5.28293,-0.34213a21.82937,21.82937 0 0 0 -2.89096,0.40991a23.81497,23.81497 0 0 0 -3.44843,1.00291c-0.52551,0.19649 -1.0327,0.40991 -1.53034,0.63755a22.07257,22.07257 0 0 0 -4.48469,2.70541c-0.28776,0.22545 -0.56841,0.46238 -0.83759,0.69821c-0.15713,0.13663 -0.31782,0.28093 -0.4703,0.42357a17.40753,17.40753 0 0 0 -1.25268,1.28575c-0.29513,0.33886 -0.57169,0.681 -0.83759,1.04309a12.26998,12.26998 0 0 0 -2.11787,4.43414a8.30752,8.30752 0 0 0 0.25004,4.83175c0.04591,0.12079 0.09537,0.23994 0.14729,0.35744a7.7085,7.7085 0 0 0 0.53671,1.00565a8.18373,8.18373 0 0 0 0.69385,0.93978q0.0604,0.07078 0.12243,0.14019a8.6819,8.6819 0 0 0 0.70532,0.70368l0.00137,0l0.00001,0z"/>
 <path fill="none" d="m2.81006,25.02433a9.51128,9.51128 0 0 0 0.79249,0.63263a12.53451,12.53451 0 0 0 4.58389,1.96073a18.55527,18.55527 0 0 0 5.74585,0.31098a22.27179,22.27179 0 0 0 2.55921,-0.39488a23.4742,23.4742 0 0 0 3.34568,-0.98023q0.82884,-0.31017 1.63363,-0.6799a22.48494,22.48494 0 0 0 3.60311,-2.07332q0.57551,-0.408 1.12206,-0.85398q0.26288,-0.2148 0.51485,-0.43533q0.3916,-0.34296 0.76516,-0.70696c0.04646,-0.04537 0.09264,-0.091 0.13828,-0.13663q0.43314,-0.43287 0.83513,-0.8947q0.3916,-0.45063 0.74931,-0.92913a12.23555,12.23555 0 0 0 2.2116,-4.66287a8.3507,8.3507 0 0 0 -0.32547,-4.81098a7.60165,7.60165 0 0 0 -0.60476,-1.1994a8.29221,8.29221 0 0 0 -1.1125,-1.42102c-0.14566,-0.14948 -0.30907,-0.27601 -0.46456,-0.41483c-0.16834,-0.14975 -0.34432,-0.28694 -0.5225,-0.42385a10.31526,10.31526 0 0 0 -1.16059,-0.76954a13.186,13.186 0 0 0 -3.71352,-1.39369a18.42711,18.42711 0 0 0 -5.28293,-0.34213a21.82937,21.82937 0 0 0 -2.89096,0.40991a23.81497,23.81497 0 0 0 -3.44843,1.00291c-0.52551,0.19649 -1.0327,0.40991 -1.53034,0.63755a22.07257,22.07257 0 0 0 -4.48469,2.70541c-0.28776,0.22545 -0.56841,0.46238 -0.83759,0.69821c-0.15713,0.13663 -0.31782,0.28093 -0.4703,0.42357a17.40753,17.40753 0 0 0 -1.25268,1.28575c-0.29513,0.33886 -0.57169,0.681 -0.83759,1.04309a12.26998,12.26998 0 0 0 -2.11787,4.43414a8.30752,8.30752 0 0 0 0.25004,4.83175c0.04591,0.12079 0.09537,0.23994 0.14729,0.35744a7.7085,7.7085 0 0 0 0.53671,1.00565a8.18373,8.18373 0 0 0 0.69385,0.93978q0.0604,0.07078 0.12243,0.14019a8.6819,8.6819 0 0 0 0.70532,0.70368l0.00137,0l0.00001,0z"/>
 <path fill="none" d="m0.10711,4.00276l31.92135,0l0,24.03194l-31.92135,0l0,-24.03194z"/>
 <path class="svg-grey" d="m2.80131,24.62152a9.51128,9.51128 0 0 0 0.79249,0.63263a12.53451,12.53451 0 0 0 4.58389,1.96073a18.55527,18.55527 0 0 0 5.74585,0.31098a22.27179,22.27179 0 0 0 2.55921,-0.39488a23.4742,23.4742 0 0 0 3.34568,-0.98023q0.82884,-0.31017 1.63363,-0.6799a22.48494,22.48494 0 0 0 3.60311,-2.07332q0.57551,-0.408 1.12206,-0.85398q0.26288,-0.2148 0.51485,-0.43533q0.3916,-0.34296 0.76516,-0.70696c0.04646,-0.04537 0.09264,-0.091 0.13828,-0.13663q0.43314,-0.43287 0.83513,-0.8947q0.3916,-0.45063 0.74931,-0.92913a12.23555,12.23555 0 0 0 2.2116,-4.66287a8.3507,8.3507 0 0 0 -0.32547,-4.81098a7.60165,7.60165 0 0 0 -0.60476,-1.1994a8.29221,8.29221 0 0 0 -1.1125,-1.42102c-0.14566,-0.14948 -0.30907,-0.27601 -0.46456,-0.41483c-0.16834,-0.14975 -0.34432,-0.28694 -0.5225,-0.42385a10.31526,10.31526 0 0 0 -1.16059,-0.76954a13.186,13.186 0 0 0 -3.71352,-1.39369a18.42711,18.42711 0 0 0 -5.28293,-0.34213a21.82937,21.82937 0 0 0 -2.89096,0.40991a23.81497,23.81497 0 0 0 -3.44843,1.00291c-0.52551,0.19649 -1.0327,0.40991 -1.53034,0.63755a22.07257,22.07257 0 0 0 -4.48469,2.70541c-0.28776,0.22545 -0.56841,0.46238 -0.83759,0.69821c-0.15713,0.13663 -0.31782,0.28093 -0.4703,0.42357a17.40753,17.40753 0 0 0 -1.25268,1.28575c-0.29513,0.33886 -0.57169,0.681 -0.83759,1.04309a12.26998,12.26998 0 0 0 -2.11787,4.43414a8.30752,8.30752 0 0 0 0.25004,4.83175c0.04591,0.12079 0.09537,0.23994 0.14729,0.35744a7.7085,7.7085 0 0 0 0.53671,1.00565a8.18373,8.18373 0 0 0 0.69385,0.93978q0.0604,0.07078 0.12243,0.14019a8.6819,8.6819 0 0 0 0.70532,0.70368" fill="#cf0000"/>
 <path d="m4.66313,23.09721l0,0c-0.06859,0 -0.11149,-0.0153 -0.13117,-0.047c-0.02542,-0.04072 -0.01339,-0.10931 0.03634,-0.21288c0.03662,-0.07542 6.58234,-13.4691 7.10675,-14.53515a0.38039,0.38039 0 0 1 0.29405,-0.23884c0.10931,0 0.17927,0.0992 0.19376,0.27328c0.0623,0.74904 0.64274,8.46137 0.8906,11.75459c0.0604,0.80369 0.09756,1.29832 0.10056,1.33576c0.0205,0.26234 -0.00574,0.33394 -0.29405,0.38039c-0.1667,0.02733 -1.30734,0.20823 -1.56695,0.24922a0.61923,0.61923 0 0 1 -0.09374,0.00847c-0.14538,0 -0.15713,-0.07871 -0.1585,-0.19867c-0.00382,-0.32247 -0.02896,-2.15668 -0.02924,-2.17471l-2.8855,0.44626c-0.00628,0.01476 -1.0327,2.41136 -1.0562,2.46684c-0.04564,0.11067 -0.10111,0.13663 -0.24595,0.16013c-0.43122,0.06859 -1.88285,0.29841 -2.04627,0.32247a0.80261,0.80261 0 0 1 -0.1145,0.00984l0.00001,-0.00001zm6.32956,-9.77608l0,0l-2.10147,4.90663l2.12169,-0.33039l-0.02077,-4.57596l0.00054,-0.00027zm4.45846,8.09901l0,0a3.39187,3.39187 0 0 1 -1.29532,-0.22299c-0.30251,-0.12489 -0.34459,-0.21862 -0.25004,-0.55284c0.06832,-0.24103 0.4274,-1.48196 0.43095,-1.49398a0.99909,0.99909 0 0 0 0.2055,0.25879a1.56777,1.56777 0 0 0 0.75396,0.37766a1.82875,1.82875 0 0 0 0.38258,0.04181a1.15458,1.15458 0 0 0 1.06577,-0.56759a1.01685,1.01685 0 0 0 0.01585,-0.75834a2.90025,2.90025 0 0 0 -0.90536,-1.23001a3.27491,3.27491 0 0 1 -0.97012,-1.34369a2.83412,2.83412 0 0 1 0.20714,-2.04955c0.40991,-0.775 1.20241,-1.24859 2.28976,-1.37019a3.30142,3.30142 0 0 1 0.36673,-0.02022a3.7985,3.7985 0 0 1 1.29423,0.23748a0.23173,0.23173 0 0 1 0.15385,0.33312c-0.02979,0.08636 -0.37001,1.04991 -0.47331,1.34314l-0.00519,0.01476c-0.00601,-0.00438 -0.62661,-0.46456 -0.97285,-0.4837c-0.02733,-0.00137 -0.05465,-0.00219 -0.08007,-0.00219a0.77828,0.77828 0 0 0 -0.64902,0.28366a0.89306,0.89306 0 0 0 -0.15058,0.98652c0.10931,0.1973 0.21862,0.35225 1.20459,1.24094a2.60293,2.60293 0 0 1 0.90481,1.77819a2.8404,2.8404 0 0 1 -0.30989,1.50738a3.27191,3.27191 0 0 1 -0.83403,0.9898a2.81963,2.81963 0 0 1 -1.20241,0.57989a6.20057,6.20057 0 0 1 -1.17753,0.12216l-0.00002,-0.00001zm4.04035,-0.67444l0,0a0.11259,0.11259 0 0 1 -0.09237,-0.02924c-0.0358,-0.04291 -0.02022,-0.13937 0.01257,-0.32055c0.01639,-0.08936 0.40144,-2.15422 0.84715,-4.54481l0.00929,-0.04946c0.72308,-3.87775 1.62297,-8.70376 1.64456,-8.82673c0.04919,-0.27901 0.1339,-0.34077 0.34788,-0.37411c0.15767,-0.02569 1.2904,-0.14593 1.54291,-0.14975l0.01558,0c0.10931,0 0.17298,0.01804 0.20796,0.05984c0.04345,0.05192 0.04892,0.14238 0.01885,0.3129c-0.03962,0.2219 -1.52815,8.09491 -1.69785,8.9907l-0.00438,0.02296c0.01011,-0.01722 0.49681,-0.83157 1.01111,-1.6943c0.58973,-0.98625 1.1994,-2.0061 1.24094,-2.07497a0.38559,0.38559 0 0 1 0.33585,-0.22026l0.94553,-0.09537l0.63372,-0.06395c0.04454,-0.00438 0.0757,-0.00738 0.10166,-0.00738a0.12762,0.12762 0 0 1 0.06805,0.01421a0.07925,0.07925 0 0 1 0.03716,0.06941a0.19566,0.19566 0 0 1 -0.03334,0.10384c-0.09237,0.15058 -2.42066,3.9171 -2.44389,3.95454l0.17298,0.49189c0.36017,1.02423 1.10977,3.15549 1.14966,3.27218c0.02733,0.07625 0.02924,0.12243 0.01038,0.15467s-0.06887,0.05657 -0.16561,0.07296s-1.14119,0.182 -1.57569,0.25032a0.57907,0.57907 0 0 1 -0.08854,0.0082c-0.10467,0 -0.13992,-0.04864 -0.18336,-0.16396c-0.05684,-0.15276 -1.28904,-3.60174 -1.30133,-3.63645l-0.77446,3.99553c-0.03388,0.17681 -0.09893,0.18665 -0.20687,0.20304l-0.01831,0.00273c-0.45637,0.07269 -1.37129,0.21862 -1.56558,0.24841a1.50519,1.50519 0 0 1 -0.20195,0.02296l-0.00027,0z" fill="#fff"/>
</svg>