<svg width="205" height="68" xmlns="http://www.w3.org/2000/svg" preserveAspectRatio="xMidYMid meet">
 <g>
  <g stroke="null" id="svg_2">
   <path stroke="null" id="path9874" d="m168.70965,51.23616l-7.21831,0l0,-49.03643l7.21831,0l0,49.03643zm0,0" fill="#34a853" />
   <path stroke="null" id="path9864" d="m0.2489,26.34502c0,-14.32282 11.84511,-25.92774 26.00359,-25.92774c7.79982,0 13.36209,3.10982 17.55905,7.16776l-4.98075,4.98075c-2.97076,-2.86963 -7.01604,-5.08188 -12.5783,-5.08188c-10.30282,0 -18.34283,8.39396 -18.34283,18.81056c0,10.4166 8.04002,18.81056 18.34283,18.81056c6.67472,0 10.47981,-2.70529 12.91963,-5.18304c2.00999,-2.02264 3.3247,-4.93016 3.80509,-8.88697l-16.72472,0l0,-7.06659l23.56377,0c0.24019,1.28941 0.39187,2.76849 0.39187,4.44981c0,5.33469 -1.41585,11.89566 -6.05527,16.54773c-4.53829,4.74055 -10.2902,7.25623 -17.90038,7.25623c-14.15849,0 -26.00359,-11.60491 -26.00359,-25.87719zm0,0" fill="#4285f4" />
   <path stroke="null" id="path9868" d="m69.18368,18.88698c-9.1271,0 -16.53518,7.01607 -16.53518,16.6868c0,9.63277 7.40787,16.69945 16.53518,16.69945c9.1271,0 16.53518,-7.06668 16.53518,-16.69945c0,-9.67072 -7.40787,-16.6868 -16.53518,-16.6868zm0,26.76218c-4.98076,0 -9.31688,-4.14634 -9.31688,-10.11313c0,-6.03004 4.28552,-10.12578 9.31688,-10.12578c4.98076,0 9.31667,4.09574 9.31667,10.12578c0,5.96679 -4.33612,10.11313 -9.31667,10.11313zm0,0" fill="#ea4335" />
   <path stroke="null" id="path9870" d="m105.28784,18.88698c-9.1271,0 -16.53518,7.01607 -16.53518,16.6868c0,9.63277 7.40787,16.69945 16.53518,16.69945c9.1271,0 16.53518,-7.06668 16.53518,-16.69945c0,-9.67072 -7.40787,-16.6868 -16.53518,-16.6868zm0,26.76218c-4.98076,0 -9.31688,-4.14634 -9.31688,-10.11313c0,-6.03004 4.28552,-10.12578 9.31688,-10.12578c5.03136,0 9.31667,4.09574 9.31667,10.12578c0,5.96679 -4.33612,10.11313 -9.31667,10.11313zm0,0" fill="#fbbc03" />
   <path stroke="null" id="path9872" d="m149.58367,19.87301l0,2.71791l-0.24018,0c-1.60556,-1.97206 -4.72792,-3.75454 -8.68469,-3.75454c-8.24229,0 -15.80178,7.30686 -15.80178,16.7374c0,9.34198 7.5597,16.64884 15.80178,16.64884c3.95677,0 7.07933,-1.78249 8.68469,-3.80515l0.24018,0l0,2.42712c0,6.35879 -3.36274,9.77194 -8.77326,9.77194c-4.44979,0 -7.18034,-3.21092 -8.29289,-5.92883l-6.29553,2.6673c1.79514,4.44979 6.63672,9.87295 14.63883,9.87295c8.48247,0 15.65016,-5.03136 15.65016,-17.38204l0,-29.9731l-6.92751,0l0.0002,0.0002zm-8.29289,25.77615c-4.9681,0 -9.16506,-4.24756 -9.16506,-10.07538c0,-5.86557 4.19695,-10.16374 9.16506,-10.16374c4.93015,0 8.78591,4.29817 8.78591,10.16374c0.05061,5.87822 -3.85576,10.07538 -8.78591,10.07538zm0,0" fill="#4285f4" />
   <path stroke="null" id="path9878" d="m190.04158,44.93132c-3.70394,0 -6.29553,-1.71923 -8.0021,-5.03136l22.05935,-9.24097l-0.7332,-1.87105c-1.36538,-3.75454 -5.56233,-10.6188 -14.10786,-10.6188c-8.48247,0 -15.5616,6.76324 -15.5616,16.6868c0,9.34198 6.97812,16.69945 16.3454,16.69945c7.5597,0 11.90827,-4.68997 13.75401,-7.40787l-5.60029,-3.80515c-1.9088,2.76851 -4.44979,4.58875 -8.15372,4.58875l0,0l0,0.0002zm-0.53097,-20.34013c2.86953,0 5.3095,1.42844 6.0931,3.55232l-14.74004,6.16901c-0.18957,-6.40919 4.93015,-9.72133 8.64674,-9.72133l0.0002,0zm0,0" fill="#ea4335" />
  </g>
 </g>

</svg>