<svg width="32" height="32" xmlns="http://www.w3.org/2000/svg" color="#CA1D1D" fill="currentColor">
 <path d="m6.05058,20.18537l-2.20449,0c-1.1217,0 -2.01751,-0.91236 -2.01751,-2.01968l0,-2.41741c0,-1.12291 0.91139,-2.01971 2.01751,-2.01971l2.20449,0l0,6.4568z"/>
 <path d="m1.98442,18.92985c0,0 -0.07011,-0.15595 -0.20253,-0.4445c-0.05453,-0.14037 -0.14021,-0.29632 -0.21032,-0.51465c-0.03895,-0.10139 -0.08569,-0.21055 -0.12464,-0.32752c-0.03895,-0.12478 -0.10126,-0.24175 -0.14021,-0.3665c-0.03895,-0.12478 -0.08569,-0.25734 -0.14021,-0.39771c-0.01558,-0.07018 -0.05453,-0.14037 -0.07011,-0.21055c-0.01558,-0.07018 -0.03895,-0.15595 -0.05453,-0.21055c-0.03895,-0.15595 -0.08569,-0.31194 -0.12463,-0.4523c-0.01558,-0.08577 -0.03895,-0.15595 -0.05453,-0.24172c-0.01558,-0.08577 -0.05453,-0.17157 -0.08569,-0.24175c-0.01558,-0.08577 -0.03895,-0.17154 -0.05453,-0.24172c-0.01558,-0.03898 -0.01558,-0.08577 -0.01558,-0.12478c-0.01558,-0.03898 -0.01558,-0.08577 -0.01558,-0.12475c-0.03116,-0.17157 -0.05453,-0.35873 -0.08569,-0.52249c-0.01558,-0.20274 -0.03116,-0.38209 -0.05453,-0.55366l-0.01558,-0.14037c0,-0.05457 0,-0.08577 -0.01558,-0.14037l-0.01558,-0.28073l-0.02337,-0.28073c0,-0.08577 0,-0.17154 0.01558,-0.27293c0,-0.08577 0.01558,-0.17154 0.01558,-0.27293l0,-0.12478c0,-0.05457 0.01558,-0.08577 0.01558,-0.14037c0.01558,-0.17154 0.03116,-0.3587 0.05453,-0.52246c0.01558,-0.17157 0.05453,-0.3587 0.08569,-0.51468c0.01558,-0.17154 0.05453,-0.32752 0.10126,-0.48348c-0.00779,-0.08577 0.02337,-0.17154 0.03895,-0.24172c0.01558,-0.03901 0.01558,-0.0858 0.03116,-0.12478c0.01558,-0.03898 0.01558,-0.08577 0.03116,-0.10139c0.03895,-0.15595 0.08569,-0.29632 0.12463,-0.44447c0.01558,-0.03901 0.01558,-0.07018 0.03116,-0.10139c0.01558,-0.03119 0.01558,-0.07018 0.03895,-0.10137c0.01558,-0.07018 0.05453,-0.12477 0.07011,-0.20275c0.05453,-0.12477 0.08569,-0.24174 0.12464,-0.36651c0.05453,-0.10138 0.08569,-0.21055 0.12463,-0.31192c0.03895,-0.10137 0.08569,-0.20275 0.12464,-0.28073c0.03895,-0.08578 0.08569,-0.15596 0.10126,-0.24174c0.12464,-0.28073 0.21032,-0.45229 0.21032,-0.45229l0.56864,0.27293c0,0 -0.05453,0.15596 -0.17137,0.44449c-0.03116,0.07018 -0.05453,0.15596 -0.08569,0.22615c-0.03116,0.08578 -0.05453,0.17156 -0.10126,0.28073c-0.03116,0.10138 -0.07011,0.20275 -0.10127,0.31192c-0.03116,0.10137 -0.07011,0.22614 -0.10126,0.35871c-0.01558,0.05459 -0.03895,0.12476 -0.05453,0.18716c-0.01558,0.01559 -0.01558,0.05457 -0.03116,0.08577c0,0.0312 -0.01558,0.07018 -0.01558,0.10139c-0.03116,0.12475 -0.05453,0.27293 -0.08569,0.39768c0.00779,0.03901 0.00779,0.0624 0.00779,0.09358c-0.01558,0.03901 -0.01558,0.07018 -0.01558,0.10139c-0.01558,0.08577 -0.03116,0.17157 -0.05453,0.24172c-0.01558,0.15598 -0.05453,0.29635 -0.07011,0.4523c-0.01558,0.15595 -0.03116,0.31191 -0.05453,0.46789c-0.01558,0.15595 -0.01558,0.31191 -0.01558,0.48348l0,0.24953c0,0.08577 0.01558,0.17157 0.01558,0.24175c0,0.08577 0,0.17154 0.01558,0.24172l0.01558,0.25734l0.01558,0.24175c0,0.03898 0.01558,0.08577 0.01558,0.12475l0.01558,0.12478c0.03116,0.15595 0.05453,0.32752 0.08569,0.48348c0.03895,0.15595 0.07011,0.31191 0.10126,0.46789c0.01558,0.03898 0.01558,0.08577 0.03116,0.12475c0.01558,0.03901 0.01558,0.0858 0.03116,0.12478c0.01558,0.08577 0.03895,0.15595 0.07011,0.22614c0.01558,0.08577 0.03895,0.15595 0.05453,0.21055c0.01558,0.07018 0.03895,0.15595 0.07011,0.21055c0.05453,0.14037 0.10127,0.28073 0.15579,0.41329c0.01558,0.07018 0.05453,0.14037 0.07011,0.20274c0.03116,0.07018 0.05453,0.12478 0.08569,0.18716c0.05453,0.12478 0.10126,0.24175 0.15579,0.3665c0.05453,0.12478 0.10126,0.21055 0.15579,0.32752c0.05453,0.10139 0.08569,0.20277 0.14021,0.28073c0.08569,0.17157 0.17137,0.35873 0.24148,0.48348c0.14022,0.27295 0.21032,0.42891 0.21032,0.42891l-1.20739,0.59264z"/>
 <path d="m2.06958,8.98731c0.56358,0 1.02045,-0.45736 1.02045,-1.02154c0,-0.56419 -0.45687,-1.02155 -1.02045,-1.02155c-0.56358,0 -1.02044,0.45736 -1.02044,1.02155c0,0.56418 0.45687,1.02154 1.02044,1.02154z"/>
 <path d="m26.17899,20.18537l2.20446,0c1.1218,0 2.01741,-0.91236 2.01741,-2.01968l0,-2.41741c0,-1.12291 -0.91117,-2.01971 -2.01741,-2.01971l-2.20446,0l0,6.4568z"/>
 <path d="m30.24527,18.92987c0,0 0.07016,-0.15595 0.20254,-0.4445c0.0546,-0.14037 0.14003,-0.29632 0.21018,-0.51468c0.03904,-0.10136 0.08571,-0.21055 0.12475,-0.32749c0.03904,-0.12478 0.10127,-0.24175 0.14031,-0.36653c0.03876,-0.12475 0.08543,-0.25731 0.14003,-0.39768c0.01556,-0.07018 0.0546,-0.14037 0.07016,-0.21055c0.01556,-0.07018 0.03904,-0.15598 0.0546,-0.21055c0.03876,-0.15598 0.08571,-0.31194 0.12447,-0.4523c0.01556,-0.08577 0.03904,-0.15595 0.0546,-0.24172c0.01556,-0.0858 0.03904,-0.17157 0.0546,-0.24175c0.01556,-0.08577 0.03904,-0.17154 0.0546,-0.24172c0.01556,-0.03901 0.01556,-0.0858 0.01556,-0.12478c0.01556,-0.03898 0.01556,-0.08577 0.01556,-0.12478c0.03112,-0.17154 0.0546,-0.3587 0.08571,-0.52246c0.01556,-0.17157 0.03876,-0.35873 0.05431,-0.53807l0.01584,-0.14037c0,-0.05457 0,-0.08577 0.01556,-0.14037l0.01556,-0.28073l0.01556,-0.27293c0,-0.08577 0,-0.17154 -0.01556,-0.27293c0,-0.08577 -0.01556,-0.17157 -0.01556,-0.27293l0,-0.14037c0,-0.0546 -0.01556,-0.08577 -0.01556,-0.14037c-0.01584,-0.17157 -0.0314,-0.35873 -0.0546,-0.52246c-0.01556,-0.17157 -0.0546,-0.35873 -0.08571,-0.51468c-0.01556,-0.17157 -0.0546,-0.32752 -0.10127,-0.48348c-0.01556,-0.0858 -0.03904,-0.15598 -0.0546,-0.24175c-0.01556,-0.03898 -0.01556,-0.08577 -0.03112,-0.12478c-0.01556,-0.03898 -0.01556,-0.08577 -0.03112,-0.10136c-0.03904,-0.15595 -0.08571,-0.29632 -0.12475,-0.4445c-0.01556,-0.03898 -0.01556,-0.07018 -0.03112,-0.10139c-0.01556,-0.03118 -0.01556,-0.07017 -0.03904,-0.10136c-0.01556,-0.07018 -0.05431,-0.12477 -0.06987,-0.20275c-0.0546,-0.12477 -0.08571,-0.24174 -0.12475,-0.36651c-0.0546,-0.10137 -0.08571,-0.21055 -0.12475,-0.31192c-0.03876,-0.10137 -0.08543,-0.20275 -0.12447,-0.28073c-0.03904,-0.08578 -0.08571,-0.15596 -0.10127,-0.24174c-0.12475,-0.28073 -0.21047,-0.45229 -0.21047,-0.45229l-0.5686,0.27293c0,0 0.0546,0.15596 0.17143,0.44449c0.03112,0.07018 0.0546,0.15596 0.08571,0.22615c0.03112,0.08578 0.0546,0.17155 0.10127,0.28073c0.03112,0.10138 0.07016,0.20275 0.10127,0.31192c0.03112,0.10137 0.07016,0.22614 0.10127,0.35871c0.01556,0.05459 0.03904,0.12477 0.0546,0.18715c0.01556,0.0312 0.01556,0.0546 0.03112,0.10139c0.01556,0.03117 0.01556,0.07018 0.01556,0.10136c0.03112,0.12478 0.0546,0.27295 0.08571,0.39771c0.01556,0.03898 0.01556,0.07018 0.01556,0.10139c0.01556,0.03898 0.01556,0.07018 0.01556,0.10136c0.01556,0.07018 0.01556,0.15598 0.03904,0.21055c0.01556,0.15598 0.05431,0.29632 0.06987,0.4523c0.01556,0.15595 0.0314,0.31191 0.0546,0.46789c0.01556,0.15595 0.01556,0.31191 0.01556,0.48348l0,0.24953c0,0.08577 -0.01556,0.17154 -0.01556,0.24172c0,0.0858 0,0.17157 -0.01556,0.24175l-0.01556,0.24175l-0.01556,0.24172c0,0.03898 -0.01556,0.08577 -0.01556,0.12478l-0.01556,0.12475c-0.03112,0.15598 -0.0546,0.32752 -0.08571,0.48348c-0.03904,0.15598 -0.07016,0.31194 -0.10127,0.46789c-0.01556,0.03901 -0.01556,0.0858 -0.03112,0.12478c-0.01556,0.03898 -0.01556,0.08577 -0.03112,0.12475c-0.01556,0.0858 -0.03904,0.15598 -0.07016,0.22617c-0.01556,0.08577 -0.03904,0.15595 -0.0546,0.21055c-0.01556,0.07018 -0.03904,0.15595 -0.07016,0.21052c-0.0546,0.14037 -0.10127,0.28073 -0.15587,0.41332c-0.01556,0.07018 -0.05431,0.14037 -0.06987,0.20274c-0.0314,0.07018 -0.0546,0.12475 -0.08571,0.18716c-0.0546,0.12475 -0.10127,0.24172 -0.15587,0.3665c-0.0546,0.12478 -0.10127,0.21055 -0.15587,0.32752c-0.05431,0.10136 -0.08571,0.20274 -0.14003,0.28073c-0.08571,0.17154 -0.17143,0.3587 -0.24158,0.48348c-0.14031,0.27293 -0.21047,0.42888 -0.21047,0.42888l1.25431,0.60826z"/>
 <path d="m30.15899,8.98735c0.5635,0 1.02036,-0.45736 1.02036,-1.02155c0,-0.56419 -0.45686,-1.02155 -1.02036,-1.02155c-0.5635,0 -1.02065,0.45736 -1.02065,1.02155c0,0.56418 0.45714,1.02155 1.02065,1.02155z"/>
 <path d="m27.9394,13.72854c-0.81012,-2.23026 -2.8588,-3.92241 -5.4138,-4.19536l-2.13436,-0.21055c-2.84324,-0.29633 -5.70984,-0.29633 -8.56864,0l-2.13436,0.21055c-2.55501,0.27294 -4.61927,1.9651 -5.42939,4.19536c-0.29601,0.811 -0.42843,1.69218 -0.35833,2.58895l0.17137,2.17566c0.03895,0.58486 0.17137,1.15411 0.36611,1.69218c0.77898,2.12106 2.68745,3.71189 5.03214,4.07839c2.18887,0.3587 4.39336,0.52246 6.60562,0.52246c2.21227,0 4.41672,-0.17154 6.60562,-0.52246c1.48005,-0.24175 2.77311,-0.95137 3.72346,-1.98072c0.56865,-0.60823 1.02045,-1.32565 1.30865,-2.12106c0.20254,-0.53807 0.32718,-1.09173 0.36611,-1.69218l0.1714,-2.17566c0.10124,-0.88896 -0.02339,-1.77015 -0.3116,-2.56556zm-2.34468,2.30044l-0.17137,2.17566c-0.14023,1.80913 -1.48005,3.25959 -3.25608,3.55591c-1.98635,0.31191 -4.03506,0.48348 -6.06814,0.48348c-2.03311,0 -4.07398,-0.17157 -6.08373,-0.49906c-1.77603,-0.29635 -3.12363,-1.76237 -3.25608,-3.55594l-0.17137,-2.17566c-0.15578,-2.10548 1.37878,-3.938 3.48199,-4.17975l2.07204,-0.21055c1.29309,-0.14037 2.62511,-0.21055 3.93378,-0.21055c1.30865,0 2.62511,0.07018 3.93378,0.21055l2.07204,0.21055c2.14995,0.24175 3.68451,2.08208 3.51314,4.19537z"/>
 <path d="m13.25594,16.62941c-0.1402,0.86557 -0.76339,-0.01559 -1.72152,-0.17157c-0.95032,-0.15595 -1.83057,0.51468 -1.69034,-0.3665c0.14023,-0.88118 1.00486,-1.46605 1.9474,-1.32568c0.9192,0.15598 1.5891,0.98257 1.46446,1.86375zm7.43914,-0.17157c-0.93476,0.15598 -1.57351,1.03714 -1.72152,0.17157c-0.14023,-0.88118 0.52189,-1.70777 1.46446,-1.84814c0.93476,-0.15598 1.8072,0.45227 1.9474,1.32565c0.13242,0.8656 -0.7478,0.21055 -1.69034,0.35092z"/>
 <path d="m18.21017,19.23395c0,0.53807 -0.21032,1.02155 -0.56865,1.38025c-0.35833,0.35873 -0.8413,0.56928 -1.37878,0.56928l-0.32716,0c-1.08277,0 -1.94743,-0.8656 -1.94743,-1.94952c0,-0.10139 0.03895,-0.20274 0.11686,-0.25734c0.0701,-0.07018 0.15578,-0.11697 0.25706,-0.11697l3.48196,0c0.21032,0 0.36614,0.17157 0.36614,0.37431z"/>
</svg>