<svg width="112" height="96" viewBox="0 0 112 96" fill="none" xmlns="http://www.w3.org/2000/svg">
<path d="M20.4473 46.8076H12.6544C8.68917 46.8076 5.52246 43.5824 5.52246 39.668V31.1224C5.52246 27.1529 8.74424 23.9827 12.6544 23.9827H20.4473V46.8076Z" fill="#CA1D1D"/>
<path d="M6.07335 42.3693C6.07335 42.3693 5.82552 41.818 5.3574 40.798C5.16464 40.3018 4.86174 39.7505 4.61391 38.9787C4.47623 38.6203 4.31101 38.2344 4.17332 37.8209C4.03564 37.3798 3.81535 36.9663 3.67767 36.5253C3.53998 36.0842 3.37476 35.6156 3.18201 35.1194C3.12693 34.8713 2.98925 34.6232 2.93418 34.3751C2.87911 34.127 2.7965 33.8238 2.74142 33.6308C2.60374 33.0795 2.43852 32.5281 2.30084 32.0319C2.24576 31.7287 2.16315 31.4806 2.10808 31.1774C2.05301 30.8742 1.91533 30.5709 1.80518 30.3228C1.75011 30.0196 1.6675 29.7164 1.61242 29.4683C1.55735 29.3305 1.55735 29.1651 1.55735 29.0272C1.50228 28.8894 1.50228 28.724 1.50228 28.5862C1.39213 27.9797 1.30952 27.3181 1.19937 26.7392C1.1443 26.0225 1.08923 25.3885 1.00662 24.782L0.951545 24.2858C0.951545 24.0929 0.951545 23.9826 0.896472 23.7896L0.841399 22.7972L0.758789 21.8048C0.758789 21.5016 0.758789 21.1984 0.813862 20.84C0.813862 20.5368 0.868935 20.2336 0.868935 19.8752V19.4341C0.868935 19.2412 0.924009 19.1309 0.924009 18.9379C0.979082 18.3315 1.03415 17.6699 1.11676 17.091C1.17184 16.4845 1.30952 15.823 1.41967 15.2716C1.47474 14.6652 1.61242 14.1138 1.77764 13.5625C1.75011 13.2593 1.86025 12.9561 1.91533 12.708C1.9704 12.5701 1.9704 12.4047 2.02547 12.2669C2.08054 12.1291 2.08054 11.9637 2.13562 11.9085C2.2733 11.3572 2.43852 10.861 2.5762 10.3373C2.63128 10.1994 2.63128 10.0892 2.68635 9.9789C2.74142 9.86863 2.74142 9.7308 2.82403 9.62054C2.87911 9.37244 3.01679 9.17947 3.07186 8.90381C3.26462 8.46275 3.37476 8.04926 3.51245 7.6082C3.7052 7.24983 3.81535 6.8639 3.95303 6.50554C4.09071 6.14718 4.25593 5.78882 4.39362 5.51316C4.5313 5.20993 4.69652 4.96183 4.75159 4.6586C5.19218 3.66621 5.49508 3.05975 5.49508 3.05975L7.50525 4.02457C7.50525 4.02457 7.31249 4.5759 6.89945 5.59585C6.7893 5.84395 6.70669 6.14718 6.59654 6.39528C6.4864 6.69851 6.40379 7.00174 6.23857 7.38766C6.12842 7.74603 5.99074 8.10439 5.88059 8.49032C5.77045 8.84868 5.63276 9.28974 5.52262 9.75837C5.46754 9.95133 5.38493 10.1994 5.32986 10.42C5.27479 10.4751 5.27479 10.6129 5.21971 10.7232C5.21971 10.8335 5.16464 10.9713 5.16464 11.0816C5.0545 11.5226 4.97189 12.0464 4.86174 12.4874C4.88928 12.6253 4.88928 12.708 4.88928 12.8182C4.8342 12.9561 4.8342 13.0663 4.8342 13.1766C4.77913 13.4798 4.72406 13.7831 4.64145 14.0311C4.58637 14.5825 4.44869 15.0787 4.39362 15.63C4.33854 16.1813 4.28347 16.7326 4.20086 17.284C4.14579 17.8353 4.14579 18.3866 4.14579 18.9931V19.8752C4.14579 20.1784 4.20086 20.4817 4.20086 20.7298C4.20086 21.033 4.20086 21.3362 4.25593 21.5843L4.31101 22.494L4.36608 23.3486C4.36608 23.4864 4.42115 23.6518 4.42115 23.7896L4.47623 24.2307C4.58637 24.782 4.66898 25.3885 4.77913 25.9398C4.91681 26.4911 5.02696 27.0424 5.1371 27.5938C5.19218 27.7316 5.19218 27.897 5.24725 28.0348C5.30232 28.1727 5.30232 28.3381 5.3574 28.4759C5.41247 28.7791 5.49508 29.0272 5.60523 29.2753C5.6603 29.5785 5.74291 29.8266 5.79798 30.0196C5.85306 30.2677 5.93567 30.5709 6.04581 30.7639C6.23857 31.2601 6.40379 31.7563 6.59654 32.2249C6.65162 32.473 6.7893 32.7211 6.84437 32.9416C6.95452 33.1897 7.03713 33.3827 7.14728 33.6032C7.34003 34.0443 7.50525 34.4578 7.69801 34.8988C7.89076 35.3399 8.05598 35.6431 8.24874 36.0566C8.44149 36.415 8.55164 36.7734 8.7444 37.049C9.0473 37.6555 9.3502 38.3171 9.59803 38.7581C10.0937 39.723 10.3415 40.2743 10.3415 40.2743L6.07335 42.3693Z" fill="#CA1D1D"/>
<path d="M6.37438 7.22225C8.36664 7.22225 9.98168 5.60547 9.98168 3.61107C9.98168 1.61666 8.36664 -0.00012207 6.37438 -0.00012207C4.38213 -0.00012207 2.76709 1.61666 2.76709 3.61107C2.76709 5.60547 4.38213 7.22225 6.37438 7.22225Z" fill="#CA1D1D"/>
<path d="M91.6016 46.8076H99.3944C103.36 46.8076 106.526 43.5824 106.526 39.668V31.1224C106.526 27.1529 103.305 23.9827 99.3944 23.9827H91.6016V46.8076Z" fill="#CA1D1D"/>
<path d="M105.976 42.3694C105.976 42.3694 106.224 41.8181 106.692 40.7981C106.885 40.3019 107.187 39.7506 107.435 38.9787C107.573 38.6204 107.738 38.2344 107.876 37.821C108.014 37.3799 108.234 36.9664 108.372 36.5253C108.509 36.0843 108.674 35.6157 108.867 35.1195C108.922 34.8714 109.06 34.6233 109.115 34.3752C109.17 34.1271 109.253 33.8238 109.308 33.6309C109.445 33.0795 109.611 32.5282 109.748 32.032C109.803 31.7288 109.886 31.4807 109.941 31.1775C109.996 30.8742 110.079 30.571 110.134 30.3229C110.189 30.0197 110.272 29.7165 110.327 29.4684C110.382 29.3305 110.382 29.1651 110.382 29.0273C110.437 28.8895 110.437 28.7241 110.437 28.5862C110.547 27.9798 110.63 27.3182 110.74 26.7393C110.795 26.1328 110.877 25.4712 110.932 24.8372L110.988 24.341C110.988 24.1481 110.988 24.0378 111.043 23.8448L111.098 22.8524L111.153 21.8876C111.153 21.5844 111.153 21.2812 111.098 20.9228C111.098 20.6196 111.043 20.3163 111.043 19.958V19.4618C111.043 19.2688 110.988 19.1586 110.988 18.9656C110.932 18.3591 110.877 17.6975 110.795 17.1187C110.74 16.5122 110.602 15.8506 110.492 15.2993C110.437 14.6928 110.299 14.1415 110.134 13.5902C110.079 13.2869 109.996 13.0388 109.941 12.7356C109.886 12.5978 109.886 12.4324 109.831 12.2945C109.776 12.1567 109.776 11.9913 109.721 11.9362C109.583 11.3849 109.418 10.8887 109.28 10.3649C109.225 10.2271 109.225 10.1168 109.17 10.0065C109.115 9.89628 109.115 9.75845 109.032 9.64818C108.977 9.40009 108.84 9.20712 108.785 8.93146C108.592 8.4904 108.482 8.0769 108.344 7.63584C108.151 7.27748 108.041 6.89155 107.903 6.53319C107.766 6.17483 107.601 5.81647 107.463 5.5408C107.325 5.23757 107.16 4.98948 107.105 4.68625C106.664 3.69386 106.361 3.0874 106.361 3.0874L104.351 4.05222C104.351 4.05222 104.544 4.60355 104.957 5.6235C105.067 5.8716 105.15 6.17483 105.26 6.42293C105.37 6.72616 105.453 7.02938 105.618 7.41531C105.728 7.77368 105.866 8.13204 105.976 8.51797C106.086 8.87633 106.224 9.31739 106.334 9.78602C106.389 9.97898 106.472 10.2271 106.527 10.4476C106.582 10.5579 106.582 10.6406 106.637 10.806C106.692 10.9162 106.692 11.0541 106.692 11.1643C106.802 11.6054 106.885 12.1292 106.995 12.5702C107.05 12.708 107.05 12.8183 107.05 12.9286C107.105 13.0664 107.105 13.1767 107.105 13.2869C107.16 13.535 107.16 13.8383 107.243 14.0312C107.298 14.5826 107.435 15.0787 107.49 15.6301C107.545 16.1814 107.601 16.7327 107.683 17.2841C107.738 17.8354 107.738 18.3867 107.738 18.9932V19.8753C107.738 20.1785 107.683 20.4817 107.683 20.7298C107.683 21.0331 107.683 21.3363 107.628 21.5844L107.573 22.439L107.518 23.2935C107.518 23.4313 107.463 23.5967 107.463 23.7346L107.408 24.1756C107.298 24.727 107.215 25.3334 107.105 25.8847C106.967 26.4361 106.857 26.9874 106.747 27.5387C106.692 27.6766 106.692 27.842 106.637 27.9798C106.582 28.1176 106.582 28.283 106.527 28.4208C106.472 28.7241 106.389 28.9722 106.279 29.2203C106.224 29.5235 106.141 29.7716 106.086 29.9646C106.031 30.2127 105.948 30.5159 105.838 30.7088C105.645 31.205 105.48 31.7012 105.287 32.1699C105.232 32.418 105.095 32.6661 105.04 32.8866C104.929 33.1347 104.847 33.3276 104.737 33.5482C104.544 33.9892 104.379 34.4027 104.186 34.8438C103.993 35.2849 103.828 35.5881 103.635 36.0016C103.443 36.3599 103.332 36.7183 103.14 36.994C102.837 37.6004 102.534 38.262 102.286 38.7031C101.79 39.6679 101.542 40.2192 101.542 40.2192L105.976 42.3694Z" fill="#CA1D1D"/>
<path d="M105.671 7.22238C107.663 7.22238 109.278 5.60559 109.278 3.61119C109.278 1.61678 107.663 0 105.671 0C103.679 0 102.063 1.61678 102.063 3.61119C102.063 5.60559 103.679 7.22238 105.671 7.22238Z" fill="#CA1D1D"/>
<path d="M97.8247 23.9826C94.9609 16.0986 87.7188 10.1168 78.6868 9.15194L71.1418 8.40765C61.0909 7.36013 50.9574 7.36013 40.8515 8.40765L33.3065 9.15194C24.2745 10.1168 16.9773 16.0986 14.1135 23.9826C13.0671 26.8495 12.599 29.9645 12.8468 33.1346L13.4526 40.8256C13.5903 42.8931 14.0584 44.9054 14.7468 46.8075C17.5005 54.3055 24.247 59.9291 32.5355 61.2247C40.2732 62.4927 48.0661 63.0716 55.8865 63.0716C63.7069 63.0716 71.4997 62.4652 79.2375 61.2247C84.4695 60.3701 89.0405 57.8616 92.4 54.2228C94.4102 52.0727 96.0073 49.5366 97.0261 46.7248C97.7421 44.8227 98.1827 42.8655 98.3203 40.7429L98.9262 33.0519C99.2841 29.9094 98.8435 26.7944 97.8247 23.9826ZM89.5362 32.1147L88.9304 39.8057C88.4347 46.201 83.6984 51.3284 77.4201 52.3759C70.3983 53.4785 63.1561 54.085 55.9691 54.085C48.782 54.085 41.5675 53.4785 34.463 52.3208C28.1847 51.2732 23.4209 46.0908 22.9527 39.7505L22.3469 32.0595C21.7962 24.6166 27.2209 18.1386 34.6558 17.284L41.9805 16.5397C46.5516 16.0435 51.2603 15.7954 55.8865 15.7954C60.5126 15.7954 65.1663 16.0435 69.7925 16.5397L77.1172 17.284C84.7173 18.1386 90.142 24.6442 89.5362 32.1147Z" fill="#CA1D1D"/>
<path d="M45.9184 34.2372C45.4228 37.297 43.2198 34.1821 39.8328 33.6307C36.4734 33.0794 33.3617 35.4501 33.8574 32.3351C34.3531 29.2201 37.4096 27.1526 40.7415 27.6488C43.9909 28.2002 46.359 31.1222 45.9184 34.2372ZM72.2159 33.6307C68.9115 34.1821 66.6535 37.297 66.1303 34.2372C65.6346 31.1222 67.9752 28.2002 71.3072 27.704C74.6116 27.1526 77.6957 29.3028 78.1913 32.3902C78.6594 35.4501 75.5478 33.1345 72.2159 33.6307Z" fill="#CA1D1D"/>
<path d="M63.4317 43.4443C63.4317 45.3464 62.6882 47.0555 61.4215 48.3235C60.1548 49.5916 58.4475 50.3359 56.5475 50.3359H55.391C51.5634 50.3359 48.5068 47.276 48.5068 43.4443C48.5068 43.0859 48.6445 42.7276 48.9199 42.5346C49.1677 42.2865 49.4706 42.1211 49.8286 42.1211H62.1374C62.8809 42.1211 63.4317 42.7276 63.4317 43.4443Z" fill="#CA1D1D"/>
<path d="M23.7518 74.9388V95.2949H19.2694V86.9547H10.4829V95.2949H6.00049V74.9388H10.4829V82.9644H19.2694V74.9388H23.7518ZM26.2717 87.4717C26.2717 82.7621 29.7283 79.4125 34.4561 79.4125C39.1838 79.4125 42.6069 82.7621 42.6069 87.4717C42.6069 92.1814 39.1838 95.531 34.4561 95.531C29.7283 95.531 26.2717 92.1814 26.2717 87.4717ZM38.236 87.4717C38.236 84.7628 36.6081 83.1442 34.4449 83.1442C32.2818 83.1442 30.6315 84.7741 30.6315 87.4717C30.6315 90.1694 32.2929 91.7992 34.4449 91.7992C36.5969 91.7992 38.236 90.1806 38.236 87.4717ZM55.7309 94.5418C54.85 95.2162 53.5454 95.531 52.2185 95.531C48.7062 95.531 46.6657 93.6426 46.6657 89.9221V83.4927H44.3687V80.0082H46.6657V76.1865H50.9808V79.997H54.6827V83.4814H50.9808V89.8546C50.9808 91.1922 51.6721 91.9229 52.8318 91.9229C53.4673 91.9229 54.1029 91.7205 54.5712 91.3384L55.7309 94.5418ZM76.214 89.7422C76.214 93.2604 73.5602 95.2949 68.4757 95.2949H58.4738V74.9388H67.9293C72.7685 74.9388 75.255 77.0632 75.255 80.233C75.255 82.2675 74.2627 83.8411 72.6793 84.7066C74.8313 85.4372 76.214 87.1795 76.214 89.7422ZM62.9117 78.4908V83.2903H67.3606C69.5461 83.2903 70.728 82.481 70.728 80.8737C70.728 79.2663 69.5349 78.4908 67.3606 78.4908H62.9117ZM71.7092 89.2477C71.7092 87.5279 70.4604 86.7186 68.1411 86.7186H62.9117V91.7543H68.13C70.4604 91.743 71.7092 90.9899 71.7092 89.2477ZM78.1987 87.4717C78.1987 82.7621 81.6553 79.4125 86.3831 79.4125C91.1108 79.4125 94.5339 82.7621 94.5339 87.4717C94.5339 92.1814 91.1108 95.531 86.3831 95.531C81.6553 95.531 78.1987 92.1814 78.1987 87.4717ZM90.163 87.4717C90.163 84.7628 88.5351 83.1442 86.3719 83.1442C84.2087 83.1442 82.5585 84.7741 82.5585 87.4717C82.5585 90.1694 84.2199 91.7992 86.3719 91.7992C88.5239 91.7992 90.163 90.1806 90.163 87.4717ZM107 94.5418C106.119 95.2162 104.815 95.531 103.488 95.531C99.9753 95.531 97.9348 93.6426 97.9348 89.9221V83.4927H95.6378V80.0082H97.9348V76.1865H102.25V79.997H105.952V83.4814H102.25V89.8546C102.25 91.1922 102.941 91.9229 104.101 91.9229C104.736 91.9229 105.372 91.7205 105.84 91.3384L107 94.5418Z" fill="#fff"/>
</svg>
