<svg width="205" height="62" xmlns="http://www.w3.org/2000/svg" color="#7abb3b">
 <path stroke="null" d="m54.919492,45.15887c-1.298279,0 -2.019346,-0.86492 -2.019346,-2.812339c0,-1.946969 1.201178,-10.250471 1.664656,-14.058547c0.861324,-7.072654 -3.216028,-12.19789 -9.130211,-12.19789c-4.685133,0 -8.260346,1.852565 -11.064143,4.836629c-1.902015,-2.875724 -4.038691,-4.836629 -8.194713,-4.836629c-4.047682,0 -6.557478,1.483041 -9.029064,3.859324c-1.328848,-2.610494 -3.697938,-3.859324 -7.239884,-3.859324c-2.939559,0 -6.888342,1.47405 -9.25923,2.932816l2.641063,5.978467c1.79862,-1.000682 3.273569,-1.757712 4.54083,-1.757712c1.387738,0 2.212199,1.000682 1.981584,3.093752c-0.222074,2.019346 -2.669834,25.168094 -2.669834,25.168094l7.967694,0c0,0 1.563509,-14.858283 2.114649,-19.328086c0.645543,-5.23852 3.182762,-8.555246 6.797984,-8.555246c3.172872,0 4.254022,2.497209 4.026104,5.416989c-0.198698,2.543063 -2.512044,22.466343 -2.512044,22.466343l8.012648,0c0,0 1.768051,-16.517095 2.320989,-20.610631c0.71747,-5.316291 4.147031,-7.272701 6.298542,-7.272701c3.537451,0 4.613207,2.893706 4.281894,5.635466c-0.269276,2.232878 -1.227701,10.09403 -1.519454,14.174529c-0.360084,5.044318 2.019795,8.794852 6.527359,8.794852c2.957091,0 5.911486,-0.842892 8.018042,-2.046768l-1.726244,-5.914183c-1.002031,0.433359 -1.951914,0.892792 -2.829871,0.892792z" fill="currentColor"/>
 <path stroke="null" d="m95.20975,49.184974c-0.299845,2.951697 -1.255573,4.429793 -3.488001,4.429793c-1.094187,0 -2.450906,-0.450442 -3.681305,-0.955278l-2.975073,6.846534c1.632289,1.00293 5.390915,1.803116 7.771244,1.803116c7.716849,0 9.663818,-5.873275 10.529637,-13.806353c0.576763,-5.624677 3.138707,-30.975735 3.138707,-30.975735l-8.153804,2.312897c0,0 -2.644659,25.455801 -3.141404,30.345027z" fill="currentColor"/>
 <path stroke="null" d="m103.940767,0.409148c-3.093303,0 -5.296961,2.590714 -5.493861,5.330227c-0.197349,2.739513 1.633638,5.330677 4.726941,5.330677c2.822229,0 5.296961,-2.591164 5.49431,-5.330677c0.1969,-2.739513 -1.905162,-5.330227 -4.72739,-5.330227z" fill="currentColor"/>
 <path stroke="null" d="m127.199654,23.014849c2.236025,0 3.416974,1.445729 3.416974,3.251991c0,4.758858 -5.850797,6.804277 -11.970421,6.517919c0.996186,-5.196713 4.675693,-9.76991 8.553448,-9.76991zm-1.721748,22.144021c-3.879103,0 -6.148395,-2.849651 -6.855525,-6.812819c12.767011,0.883351 19.828427,-4.408215 19.828427,-12.190697c0,-6.274267 -5.787861,-9.988837 -11.034474,-9.988837c-10.169104,0 -17.286263,8.402401 -17.286263,19.544765c0,9.898479 5.214695,16.515747 14.210043,16.515747c5.726274,0 10.468499,-2.596558 14.159244,-7.289783l-4.240985,-4.763354c-2.612292,2.589366 -5.21964,4.984978 -8.780467,4.984978z" fill="currentColor"/>
 <path stroke="null" d="m158.87263,23.014849c2.236025,0 3.416974,1.445729 3.416974,3.251991c0,4.758858 -5.850797,6.804277 -11.969972,6.517919c0.995737,-5.196713 4.675243,-9.76991 8.552998,-9.76991zm-1.721748,22.144021c-3.879103,0 -6.148395,-2.849651 -6.855525,-6.812819c12.76746,0.883351 19.828427,-4.408215 19.828427,-12.190697c0,-6.274267 -5.787412,-9.988837 -11.034474,-9.988837c-10.168654,0 -17.285813,8.402401 -17.285813,19.544765c0,9.898479 5.214695,16.515747 14.209593,16.515747c5.726274,0 10.468499,-2.596558 14.159694,-7.289783l-4.241435,-4.763354c-2.612292,2.589366 -5.21964,4.984978 -8.780467,4.984978z" fill="currentColor"/>
 <path stroke="null" d="m202.657183,44.580308c-0.939544,0.370423 -1.765354,0.578561 -2.731421,0.578561c-2.763339,0 -3.986095,-2.312447 -5.119392,-5.011951c-0.882452,-2.102061 -2.505301,-6.494992 -3.854379,-10.313407l12.544937,-12.945479l-9.687194,0c-2.203658,2.159153 -7.885427,7.856207 -10.78273,10.765197c1.305472,-12.854672 2.641962,-26.018629 2.641962,-26.018629l-8.043666,2.312447c0,0 -4.33449,42.475935 -4.831235,47.36561l7.826088,0c0.166331,-1.6215 0.656782,-6.437451 1.269508,-12.468515l3.034862,-3.153092c0.936847,2.399659 1.966749,5.29741 2.654549,7.035792c2.341668,5.921376 4.823143,9.500184 10.224398,9.500184c2.105658,0 4.650069,-0.629809 6.592093,-1.616555l-1.738381,-6.030165z" fill="currentColor"/>
 <path stroke="null" d="m74.56001,45.10987c-3.411579,0 -6.051293,-2.952596 -6.051293,-8.857788c0,-7.680885 3.667369,-13.017406 8.265291,-13.017406c4.254921,0 6.020725,5.111749 6.020725,9.880498c0,7.320352 -4.073755,11.994697 -8.234722,11.994697zm16.803454,-12.46357c0,-8.38442 -5.105905,-16.471692 -14.589457,-16.471692c-9.791938,0 -16.77783,8.55165 -16.77783,19.572637c0,10.636628 5.706944,16.479783 14.217235,16.479783c11.053354,0 17.150052,-9.615267 17.150052,-19.580729z" fill="currentColor"/>
</svg>