<svg width="32" height="32" xmlns="http://www.w3.org/2000/svg" color="#7abb3b">
 <path stroke="null" fill="currentColor" d="m15.960905,31.635356a15.696049,15.696049 0 0 1 -15.676453,-15.676453a15.694089,15.694089 0 0 1 15.676453,-15.676453a15.694089,15.694089 0 0 1 15.676453,15.676453a15.696049,15.696049 0 0 1 -15.676453,15.676453zm4.228723,-19.358459a1.422639,1.422639 0 0 1 1.114988,0.448739a1.934083,1.934083 0 0 1 0.372316,1.514737l-0.04311,0.360559l0,0.064665c-0.125411,1.071877 -0.391912,3.295975 -0.480091,4.524617a3.178401,3.178401 0 0 0 0.687804,2.418093a2.108483,2.108483 0 0 0 1.59312,0.650573a5.898266,5.898266 0 0 0 2.800206,-0.715238l-0.603544,-2.063413l-0.148927,0.060747a2.310317,2.310317 0 0 1 -0.842609,0.248864c-0.472253,0 -0.701521,-0.325286 -0.701521,-0.979778c0,-0.462456 0.195955,-1.959557 0.368396,-3.280298l0,-0.039191c0.08818,-0.670168 0.156764,-1.189451 0.195955,-1.585281a4.038647,4.038647 0 0 0 -0.850448,-3.229349a3.058868,3.058868 0 0 0 -2.329913,-1.024848a5.073292,5.073292 0 0 0 -3.866206,1.687178a3.135291,3.135291 0 0 0 -2.857033,-1.687178a4.230682,4.230682 0 0 0 -3.147048,1.348175a2.547424,2.547424 0 0 0 -2.527828,-1.346216a7.122988,7.122988 0 0 0 -3.229349,1.020929l0.919032,2.092807a3.746672,3.746672 0 0 1 1.585281,-0.61922a0.648614,0.648614 0 0 1 0.513404,0.209672a1.10715,1.10715 0 0 1 0.182238,0.872003l-0.934709,8.778813l2.78453,0s0.019596,-0.209672 0.056827,-0.538878c0.145007,-1.357973 0.527121,-4.963557 0.678007,-6.200036c0.223389,-1.840023 1.132624,-2.988324 2.369104,-2.988324a1.318782,1.318782 0 0 1 1.01897,0.391912a1.947799,1.947799 0 0 1 0.391912,1.493183c-0.056827,0.774025 -0.678007,6.147129 -0.868083,7.77748l0,0.060747l2.800206,0s0,-0.080341 0.023514,-0.217511c0.505566,-4.722532 0.7074,-6.395993 0.783822,-6.970143c0.239066,-1.861579 1.440274,-2.539585 2.186865,-2.539585l0.003919,0l0.000001,-0.000004z" id="svg_1"/></svg>