<svg width="32" height="32" xmlns="http://www.w3.org/2000/svg" preserveAspectRatio="xMidYMid meet" version="1.0">
 <path class="svg-grey" d="m24.76315,2.45009c-0.47299,0.172 -0.88148,0.32249 -0.90298,0.32249c-0.23649,0 0.043,0.90298 0.47299,1.61246c0.30099,0.47299 0.53749,1.01047 0.51599,1.18247c0,0.172 -0.172,0 -0.36549,-0.40849c-0.51599,-1.03197 -0.79548,-1.03197 -1.35447,-0.043c-0.25799,0.49449 -0.55899,0.88148 -0.66648,0.88148c-0.086,0 -0.32249,0.32249 -0.51599,0.68798c-1.44046,2.77343 -2.88093,3.41841 -9.00828,3.9344c-1.99945,0.172 -4.27839,0.42999 -5.00938,0.58049c-1.63396,0.30099 -2.23594,0.086 -2.92393,-1.11797c-0.38699,-0.62348 -0.45149,-1.11797 -0.45149,-3.05292c0,-1.28997 -0.0645,-2.32194 -0.129,-2.32194c-0.0645,0 -0.27949,0.34399 -0.47299,0.75248c-0.49449,1.03197 -0.66648,2.83793 -0.38699,3.8699c0.129,0.51599 0.1505,0.88148 0.043,0.92448c-0.38699,0.129 0.23649,1.31147 1.09647,2.10695l0.85998,0.77398l-0.36549,1.28997c-0.1935,0.70948 -0.42999,2.47244 -0.49449,3.8914l-0.1505,2.62293l-0.96748,0.47299c-1.61246,0.81698 -1.97795,1.39747 -2.88093,4.53639c-1.01047,3.59041 -0.98898,3.78391 0.38699,3.8699c1.31147,0.086 1.56946,-0.1505 0.96748,-0.90298c-0.45149,-0.58049 -0.47299,-0.60198 -0.086,-2.02095c0.36549,-1.35447 1.07497,-2.40794 1.63396,-2.40794c0.1505,0 0.1935,0.1935 0.1075,0.53749c-0.23649,0.94598 0.1935,1.39747 1.26847,1.39747c0.79548,0 0.96748,-0.0645 0.96748,-0.38699c0,-0.23649 -0.1935,-0.58049 -0.42999,-0.79548c-0.49449,-0.42999 -0.55899,-1.35447 -0.1505,-1.87045c0.129,-0.172 0.94598,-0.77398 1.78446,-1.31147c1.31147,-0.81698 1.65546,-1.18247 2.23594,-2.25744c1.09647,-2.06395 1.33297,-2.19295 3.11742,-1.97795c0.83848,0.1075 2.12845,0.45149 2.90243,0.77398c0.90298,0.36549 1.93495,0.60198 2.90243,0.66648c0.83848,0.043 1.71996,0.129 1.99945,0.1935c0.79548,0.172 1.16097,1.37597 1.35447,4.49339c0.1075,1.52646 0.30099,3.26792 0.47299,3.8699c0.27949,1.07497 0.30099,1.07497 1.35447,1.22547c1.89195,0.27949 2.45094,-0.32249 1.05347,-1.13947c-1.03197,-0.60198 -1.18247,-0.98898 -1.18247,-2.73043c0,-1.37597 0.043,-1.50496 0.49449,-1.63396c0.25799,-0.0645 0.92448,-0.40849 1.50496,-0.75248c1.20397,-0.77398 1.31147,-1.33297 0.47299,-2.98843c-0.30099,-0.60198 -0.53749,-1.20397 -0.53749,-1.35447c0,-0.172 0.34399,-1.22547 0.73098,-2.36494c0.68798,-1.91345 0.75248,-2.30044 0.79548,-4.72988c0.0215,-1.46196 0.129,-2.96693 0.23649,-3.35392c0.21499,-0.77398 0.98898,-1.13947 2.42944,-1.13947c0.58049,0 1.01047,-0.129 1.24697,-0.38699c0.49449,-0.53749 1.22547,-2.27894 1.05347,-2.45094c-0.086,-0.086 -0.77398,-0.25799 -1.50496,-0.34399c-0.85998,-0.129 -1.50496,-0.34399 -1.82745,-0.64498c-0.25799,-0.23649 -0.85998,-0.51599 -1.31147,-0.60198c-0.77398,-0.129 -0.83848,-0.1075 -0.66648,0.25799c0.34399,0.88148 0.34399,1.11797 -0.086,2.36494c-0.40849,1.22547 -0.88148,1.67696 -1.33297,1.22547c-0.129,-0.129 -0.043,-0.1935 0.23649,-0.1935c0.36549,0.0215 0.53749,-0.21499 0.88148,-1.16097c0.51599,-1.46196 0.51599,-1.56946 -0.0645,-2.23594c-0.47299,-0.51599 -0.51599,-0.53749 -1.35447,-0.23649zm-1.52646,4.79438c0.40849,0.45149 1.37597,1.18247 2.14995,1.63396c1.39747,0.81698 1.95645,1.61246 0.94598,1.28997c-1.71996,-0.51599 -4.45039,-2.73043 -4.1924,-3.37542c0.1935,-0.51599 0.27949,-0.47299 1.09647,0.45149zm1.13947,13.58766c0.23649,0.34399 0.1935,0.45149 -0.21499,0.75248c-0.53749,0.36549 -0.68798,0.172 -0.49449,-0.64498c0.172,-0.64498 0.36549,-0.68798 0.70948,-0.1075z"/>
</svg>