<svg width="205" height="45" xmlns="http://www.w3.org/2000/svg" preserveAspectRatio="xMidYMid meet" version="1.0">
    <g fill="#fff">
        <path stroke="null" id="svg_2" d="m37.79678,2.31843c-0.6905,0.25109 -1.28685,0.4708 -1.31823,0.4708c-0.34525,0 0.06277,1.31823 0.6905,2.35399c0.43941,0.6905 0.78466,1.47516 0.75328,1.72626c0,0.25109 -0.25109,0 -0.53357,-0.59634c-0.75328,-1.50655 -1.1613,-1.50655 -1.97735,-0.06277c-0.37664,0.72189 -0.81605,1.28685 -0.97298,1.28685c-0.12555,0 -0.4708,0.4708 -0.75328,1.00437c-2.10289,4.04886 -4.20579,4.99045 -13.15094,5.74373c-2.91894,0.25109 -6.24591,0.62773 -7.31305,0.84744c-2.38537,0.43941 -3.26419,0.12555 -4.26856,-1.6321c-0.56496,-0.91021 -0.65912,-1.6321 -0.65912,-4.45688c0,-1.88319 -0.09416,-3.38974 -0.18832,-3.38974c-0.09416,0 -0.40802,0.50218 -0.6905,1.09853c-0.72189,1.50655 -0.97298,4.14302 -0.56496,5.64957c0.18832,0.75328 0.21971,1.28685 0.06277,1.34962c-0.56496,0.18832 0.34525,1.91458 1.60071,3.07588l1.25546,1.12991l-0.53357,1.88319c-0.28248,1.03575 -0.62773,3.60945 -0.72189,5.68095l-0.21971,3.82915l-1.41239,0.6905c-2.35399,1.19269 -2.88756,2.04012 -4.20579,6.62255c-1.47516,5.24154 -1.44378,5.52402 0.56496,5.64957c1.91458,0.12555 2.29121,-0.21971 1.41239,-1.31823c-0.65912,-0.84744 -0.6905,-0.87882 -0.12555,-2.95033c0.53357,-1.97735 1.56932,-3.51529 2.38537,-3.51529c0.21971,0 0.28248,0.28248 0.15693,0.78466c-0.34525,1.38101 0.28248,2.04012 1.8518,2.04012c1.1613,0 1.41239,-0.09416 1.41239,-0.56496c0,-0.34525 -0.28248,-0.84744 -0.62773,-1.1613c-0.72189,-0.62773 -0.81605,-1.97735 -0.21971,-2.73062c0.18832,-0.25109 1.38101,-1.12991 2.60508,-1.91458c1.91458,-1.19269 2.41676,-1.72626 3.26419,-3.29558c1.60071,-3.0131 1.94596,-3.20142 4.55104,-2.88756c1.22407,0.15693 3.10726,0.65912 4.23718,1.12991c1.31823,0.53357 2.82478,0.87882 4.23718,0.97298c1.22407,0.06277 2.51092,0.18832 2.91894,0.28248c1.1613,0.25109 1.69487,2.00874 1.97735,6.55978c0.15693,2.22844 0.43941,4.77075 0.6905,5.64957c0.40802,1.56932 0.43941,1.56932 1.97735,1.78903c2.76201,0.40802 3.57806,-0.4708 1.53794,-1.66348c-1.50655,-0.87882 -1.72626,-1.44378 -1.72626,-3.98608c0,-2.00874 0.06277,-2.19705 0.72189,-2.38537c0.37664,-0.09416 1.34962,-0.59634 2.19705,-1.09853c1.75764,-1.12991 1.91458,-1.94596 0.6905,-4.36272c-0.43941,-0.87882 -0.78466,-1.75764 -0.78466,-1.97735c0,-0.25109 0.50218,-1.78903 1.06714,-3.45251c1.00437,-2.7934 1.09853,-3.35835 1.1613,-6.90503c0.03139,-2.13428 0.18832,-4.33134 0.34525,-4.89629c0.31386,-1.12991 1.44378,-1.66348 3.54667,-1.66348c0.84744,0 1.47516,-0.18832 1.82042,-0.56496c0.72189,-0.78466 1.78903,-3.32697 1.53794,-3.57806c-0.12555,-0.12555 -1.12991,-0.37664 -2.19705,-0.50218c-1.25546,-0.18832 -2.19705,-0.50218 -2.66785,-0.94159c-0.37664,-0.34525 -1.25546,-0.75328 -1.91458,-0.87882c-1.12991,-0.18832 -1.22407,-0.15693 -0.97298,0.37664c0.50218,1.28685 0.50218,1.6321 -0.12555,3.45251c-0.59634,1.78903 -1.28685,2.44815 -1.94596,1.78903c-0.18832,-0.18832 -0.06277,-0.28248 0.34525,-0.28248c0.53357,0.03139 0.78466,-0.31386 1.28685,-1.69487c0.75328,-2.13428 0.75328,-2.29121 -0.09416,-3.26419c-0.6905,-0.75328 -0.75328,-0.78466 -1.97735,-0.34525zm-2.22844,6.99919c0.59634,0.65912 2.00874,1.72626 3.13865,2.38537c2.04012,1.19269 2.85617,2.35399 1.38101,1.88319c-2.51092,-0.75328 -6.497,-3.98608 -6.12036,-4.92768c0.28248,-0.75328 0.40802,-0.6905 1.60071,0.65912zm1.66348,19.83626c0.34525,0.50218 0.28248,0.65912 -0.31386,1.09853c-0.78466,0.53357 -1.00437,0.25109 -0.72189,-0.94159c0.25109,-0.94159 0.53357,-1.00437 1.03575,-0.15693z"/>
        <g stroke="null" id="svg_8">
            <path stroke="null" id="svg_3" d="m151.69844,1.1777c-0.53594,0.21437 -2.89405,0.64312 -5.14498,1.07187c-5.03779,0.8575 -11.14745,6.10966 -13.71994,11.79057c-5.35935,11.79057 1.17906,25.40333 13.82713,29.04769c15.00618,4.39467 29.15487,-5.46654 29.15487,-20.25835c0,-2.67968 -0.53594,-6.21685 -1.17906,-7.93184c-1.50062,-4.18029 -8.2534,-10.82589 -12.11213,-12.00495c-4.50186,-1.39343 -9.53965,-2.14374 -10.82589,-1.71499zm9.21809,14.36306c5.46654,5.57373 3.53717,13.71994 -3.96592,16.82836c-8.78934,3.64436 -17.25711,-5.7881 -12.86244,-14.36306c2.14374,-4.18029 4.39467,-5.46654 9.53965,-5.57373c3.10842,0 4.82342,0.75031 7.28872,3.10842z"/>
            <path stroke="null" id="svg_4" d="m50.08513,2.35676c-0.42875,0.42875 -0.75031,9.64683 -0.75031,20.47272l0,19.61523l11.04026,0l10.93308,0l2.4653,-4.28748c1.28624,-2.25093 2.35811,-4.39467 2.35811,-4.71623c0,-0.42875 -3.3228,-0.64312 -7.50309,-0.64312l-7.39591,0l-0.32156,-15.32775l-0.32156,-15.22056l-4.82342,-0.32156c-2.67968,-0.21437 -5.25216,0 -5.68091,0.42875z"/>
            <path stroke="null" id="svg_5" d="m64.341,2.57113c0,0.42875 3.10842,6.21685 6.96716,12.86244c6.75278,11.68339 6.96716,12.21932 6.96716,19.50804l0,7.50309l5.89529,0l5.89529,0l0,-7.61028c0,-7.28872 0.21437,-7.93184 6.32404,-18.43617c9.1109,-15.54212 9.00371,-14.68462 1.92937,-14.68462l-5.89529,0l-3.96592,6.96716c-2.14374,3.85873 -4.07311,6.96716 -4.28748,6.96716c-0.21437,0 -2.14374,-3.10842 -4.28748,-6.96716l-3.96592,-6.96716l-5.7881,0c-3.21561,0 -5.7881,0.32156 -5.7881,0.8575z"/>
            <path stroke="null" id="svg_6" d="m110.96736,3.21425c-4.71623,2.03655 -11.04026,9.53965 -11.89776,14.0415c-2.67968,14.47025 6.53841,26.26082 20.57991,26.26082c9.64683,0 10.07558,-0.32156 10.07558,-8.2534l0,-6.85997l-2.78686,2.14374c-4.50186,3.53717 -11.68339,2.57249 -15.11337,-1.92937c-0.75031,-0.96468 -1.39343,-3.53717 -1.39343,-5.7881c0,-3.21561 0.75031,-4.82342 3.21561,-7.39591c2.89405,-2.89405 3.85873,-3.21561 7.61028,-2.67968c2.35811,0.32156 5.25216,1.39343 6.43122,2.4653c2.03655,1.82218 2.03655,1.71499 2.03655,-4.71623c0,-5.35935 -0.32156,-6.75278 -2.03655,-7.71747c-2.89405,-1.50062 -12.86244,-1.28624 -16.72118,0.42875z"/>
            <path stroke="null" id="svg_7" d="m180.53175,5.35799c-3.10842,3.10842 -3.64436,4.39467 -3.64436,8.89652c0,6.96716 1.92937,9.43246 9.75402,12.21932c5.35935,1.92937 6.32404,2.78686 6.10966,4.60904c-0.42875,3.00124 -6.10966,3.64436 -9.96839,1.07187c-1.50062,-0.96468 -2.89405,-1.60781 -3.10842,-1.39343c-0.10719,0.21437 -1.39343,2.25093 -2.67968,4.39467l-2.35811,3.96592l2.89405,1.92937c4.18029,2.67968 16.18524,3.21561 20.57991,0.96468c4.39467,-2.25093 6.6456,-6.75278 6.6456,-12.96963c0,-5.89529 -2.89405,-9.43246 -9.21809,-11.14745c-5.7881,-1.60781 -7.28872,-2.78686 -6.43122,-4.9306c0.53594,-1.60781 1.50062,-1.82218 5.35935,-1.28624c4.60904,0.64312 4.82342,0.53594 7.07434,-3.21561c1.17906,-2.03655 2.14374,-3.96592 1.92937,-4.07311c-1.60781,-1.28624 -8.78934,-2.67968 -13.39838,-2.67968c-5.25216,0 -6.32404,0.42875 -9.53965,3.64436z"/>
        </g>
    </g>
</svg>