<svg width="16" height="16" viewBox="0.09 0 16 16" xmlns="http://www.w3.org/2000/svg">
 <path d="m12.502629,13.152694l-8.828414,0c-1.9412,0 -3.520574,-1.579374 -3.520574,-3.520574c0,-1.807367 1.369014,-3.301046 3.124364,-3.498357c0.472031,-2.252596 2.465954,-3.90021 4.810417,-3.90021c2.34464,0 4.338562,1.64779 4.810417,3.90021c1.75535,0.197312 3.124364,1.69099 3.124364,3.498357c0,1.9412 -1.579374,3.520574 -3.520574,3.520574zm-8.828414,-5.983178c-1.357906,0 -2.462604,1.104698 -2.462604,2.462604s1.104698,2.462604 2.462604,2.462604l8.828414,0c1.357906,0 2.462604,-1.104698 2.462604,-2.462604s-1.104698,-2.462604 -2.462604,-2.462604l-0.056954,0c-0.268548,0 -0.494601,-0.201367 -0.525459,-0.468152c-0.224995,-1.943845 -1.872256,-3.40984 -3.831794,-3.40984c-1.959362,0 -3.606799,1.465995 -3.831794,3.40984c-0.030857,0.266961 -0.256911,0.468152 -0.525459,0.468152l-0.056954,0z"/>
 <path d="m9.889264,11.082422c-0.13542,0 -0.270664,-0.051664 -0.373993,-0.154993l-3.601509,-3.601686c-0.206657,-0.206481 -0.206657,-0.541505 0,-0.747985c0.206481,-0.206657 0.541505,-0.206657 0.747985,0l3.601509,3.601509c0.206657,0.206481 0.206657,0.541505 0,0.747985c-0.103328,0.103505 -0.238749,0.155169 -0.373993,0.155169z"/>
 <path d="m6.287755,11.082422c-0.13542,0 -0.270841,-0.051664 -0.373993,-0.154993c-0.206657,-0.206481 -0.206657,-0.541505 0,-0.747985l3.601509,-3.601509c0.206657,-0.206657 0.541328,-0.206657 0.747985,0c0.206657,0.206481 0.206657,0.541505 0,0.747985l-3.601509,3.601509c-0.103328,0.103328 -0.238749,0.154993 -0.373993,0.154993z"/>
</svg>