<svg width="16" height="16" fill="currentColor" xmlns="http://www.w3.org/2000/svg">
 <path d="m4.483192,12.6254c0.11045,-0.1994 0.0449,-0.4544 -0.1464,-0.5695c-0.1913,-0.1151 -0.43592,-0.0468 -0.54637,0.1526l-1.19992,2.1661c-0.11045,0.1994 -0.04491,0.4544 0.1464,0.5695c0.1913,0.1151 0.43592,0.0468 0.54637,-0.1526l1.19992,-2.1661z"/>
 <path d="m7.136792,12.0559c0.1913,0.1151 0.25685,0.3701 0.1464,0.5695l-1.19992,2.1661c-0.11045,0.1994 -0.35507,0.2677 -0.54638,0.1526c-0.1913,-0.1151 -0.25685,-0.3701 -0.1464,-0.5695l1.19992,-2.1661c0.11045,-0.1994 0.35507,-0.2677 0.54638,-0.1526z"/>
 <path d="m12.883142,12.6254c0.1105,-0.1994 0.0449,-0.4544 -0.1464,-0.5695c-0.1913,-0.1151 -0.4359,-0.0468 -0.5463,0.1526l-1.2,2.1661c-0.1104,0.1994 -0.0449,0.4544 0.1465,0.5695c0.1913,0.1151 0.4359,0.0468 0.5463,-0.1526l1.1999,-2.1661z"/>
 <path d="m9.936742,12.0559c0.1914,0.1151 0.2569,0.3701 0.1464,0.5695l-1.19987,2.1661c-0.11045,0.1994 -0.35507,0.2677 -0.54638,0.1526c-0.1913,-0.1151 -0.25684,-0.3701 -0.1464,-0.5695l1.19992,-2.1661c0.11045,-0.1994 0.35503,-0.2677 0.54633,-0.1526z"/>
 <path d="m7.89998,10c1.45314,0 2.76152,-0.6199 3.67502,-1.60968c0.0922,-0.09985 0.2374,-0.13118 0.3645,-0.08314c0.3297,0.12462 0.6872,0.19282 1.0605,0.19282c1.6569,0 3,-1.34315 3,-3c0,-1.65685 -1.3431,-3 -3,-3c-0.1685,0 -0.3337,0.01389 -0.4947,0.04059c-0.1338,0.0222 -0.2699,-0.03675 -0.3408,-0.15236c-0.8793,-1.432651 -2.46034,-2.38823 -4.26452,-2.38823c-1.79433,0 -3.3679,0.945171 -4.25001,2.3648c-0.06749,0.10862 -0.19313,0.16701 -0.32026,0.15311c-0.10828,-0.01184 -0.21828,-0.01791 -0.32971,-0.01791c-1.65685,0 -3,1.34315 -3,3c0,1.65685 1.34315,3 3,3c0.3231,0 0.63426,-0.05108 0.92586,-0.14559c0.12188,-0.03951 0.25703,-0.00778 0.34518,0.0852c0.9112,0.96103 2.20008,1.56039 3.62894,1.56039zm3.90502,-2.89609c-0.1721,-0.12844 -0.4376,-0.09679 -0.5552,0.08293c-0.7142,1.09181 -1.94777,1.81316 -3.34982,1.81316c-1.36775,0 -2.57517,-0.68649 -3.29649,-1.7337c-0.11235,-0.16311 -0.34776,-0.19705 -0.51374,-0.08899c-0.3135,0.2041 -0.68778,0.32269 -1.08975,0.32269c-1.10457,0 -2,-0.89543 -2,-2c0,-1.10457 0.89543,-2 2,-2c0.25671,0 0.50212,0.04836 0.72762,0.13648c0.18468,0.07216 0.40874,-0.00886 0.48588,-0.19152c0.60677,-1.43669 2.02888,-2.44496 3.68648,-2.44496c1.68021,0 3.11842,1.03595 3.71082,2.50397c0.0805,0.19944 0.3354,0.28228 0.5295,0.18972c0.2604,-0.12418 0.5519,-0.19369 0.8597,-0.19369c1.1046,0 2,0.89543 2,2c0,1.10457 -0.8954,2 -2,2c-0.448,0 -0.8616,-0.14729 -1.195,-0.39609z"/>
</svg>