<svg width="16" height="16" xmlns="http://www.w3.org/2000/svg">
 <path d="m4,14c0,0.2652 0.10536,0.5196 0.29289,0.7071c0.18754,0.1875 0.44189,0.2929 0.70711,0.2929c0.26522,0 0.51957,-0.1054 0.70711,-0.2929c0.18753,-0.1875 0.29289,-0.4419 0.29289,-0.7071c0,-0.5 -0.55542,-1.395 -1,-2c-0.44458,0.605 -1,1.5 -1,2z"/>
 <path d="m11.294436,12.18512c0,-0.1933 0.1567,-0.35 0.35,-0.35c0.1933,0 0.35,0.1567 0.35,0.35l0,0.5438l0.47091,-0.2719c0.1674,-0.0967 0.3815,-0.0393 0.4781,0.1281c0.0967,0.1674 0.0393,0.3815 -0.1281,0.4781l-0.4709,0.2719l0.4709,0.2719c0.1674,0.0966 0.2248,0.3107 0.1281,0.4781c-0.0966,0.1674 -0.3107,0.2248 -0.4781,0.1281l-0.47091,-0.2719l0,0.5438c0,0.1933 -0.1567,0.35 -0.35,0.35c-0.1933,0 -0.35,-0.1567 -0.35,-0.35l0,-0.5438l-0.47093,0.2719c-0.1674,0.0967 -0.38146,0.0393 -0.47811,-0.1281c-0.09665,-0.1674 -0.03929,-0.3815 0.12811,-0.4781l0.47093,-0.2719l-0.47093,-0.2719c-0.1674,-0.0966 -0.22476,-0.3107 -0.12811,-0.4781c0.09665,-0.1674 0.31071,-0.2248 0.47811,-0.1281l0.47093,0.2719l0,-0.5438z"/>
 <path d="m7.89998,10c1.45314,0 2.76152,-0.6199 3.67502,-1.60968c0.0922,-0.09985 0.2374,-0.13118 0.3645,-0.08314c0.3297,0.12462 0.6872,0.19282 1.0605,0.19282c1.6569,0 3,-1.34315 3,-3c0,-1.65685 -1.3431,-3 -3,-3c-0.1685,0 -0.3337,0.01389 -0.4947,0.04059c-0.1338,0.0222 -0.2699,-0.03675 -0.3408,-0.15236c-0.8793,-1.432651 -2.46034,-2.38823 -4.26452,-2.38823c-1.79433,0 -3.3679,0.945171 -4.25001,2.3648c-0.06749,0.10862 -0.19313,0.16701 -0.32026,0.15311c-0.10828,-0.01184 -0.21828,-0.01791 -0.32971,-0.01791c-1.65685,0 -3,1.34315 -3,3c0,1.65685 1.34315,3 3,3c0.3231,0 0.63426,-0.05108 0.92586,-0.14559c0.12188,-0.03951 0.25703,-0.00778 0.34518,0.0852c0.9112,0.96103 2.20008,1.56039 3.62894,1.56039zm3.90502,-2.89609c-0.1721,-0.12844 -0.4376,-0.09679 -0.5552,0.08293c-0.7142,1.09181 -1.94777,1.81316 -3.34982,1.81316c-1.36775,0 -2.57517,-0.68649 -3.29649,-1.7337c-0.11235,-0.16311 -0.34776,-0.19705 -0.51374,-0.08899c-0.3135,0.2041 -0.68778,0.32269 -1.08975,0.32269c-1.10457,0 -2,-0.89543 -2,-2c0,-1.10457 0.89543,-2 2,-2c0.25671,0 0.50212,0.04836 0.72762,0.13648c0.18468,0.07216 0.40874,-0.00886 0.48588,-0.19152c0.60677,-1.43669 2.02888,-2.44496 3.68648,-2.44496c1.68021,0 3.11842,1.03595 3.71082,2.50397c0.0805,0.19944 0.3354,0.28228 0.5295,0.18972c0.2604,-0.12418 0.5519,-0.19369 0.8597,-0.19369c1.1046,0 2,0.89543 2,2c0,1.10457 -0.8954,2 -2,2c-0.448,0 -0.8616,-0.14729 -1.195,-0.39609z"/>
</svg>