<svg width="16" height="16" xmlns="http://www.w3.org/2000/svg">
 <path stroke="null" id="svg_1" fill="#ffebb9" d="m8.125144,1.221813c0.262573,-0.383338 0.862834,-0.188108 0.849883,0.276172a0.465898,0.465898 0 0 0 0.621953,0.453271c0.43773,-0.155731 0.809413,0.356142 0.525471,0.722967a0.465898,0.465898 0 0 0 0.23732,0.731062c0.445824,0.129506 0.445824,0.762467 0,0.893592a0.465898,0.465898 0 0 0 -0.23732,0.731062c0.284589,0.366826 -0.087093,0.877727 -0.524176,0.722967a0.465898,0.465898 0 0 0 -0.621953,0.451652c0.012951,0.464603 -0.58731,0.659509 -0.849883,0.276172a0.465898,0.465898 0 0 0 -0.768618,0c-0.262573,0.383338 -0.862834,0.188431 -0.850207,-0.276172a0.465574,0.465574 0 0 0 -0.621629,-0.451652c-0.43773,0.155731 -0.809413,-0.356142 -0.525471,-0.723291a0.465898,0.465898 0 0 0 -0.237644,-0.731062c-0.445501,-0.129506 -0.445501,-0.762467 0,-0.893592a0.465898,0.465898 0 0 0 0.237644,-0.731062c-0.283294,-0.368121 0.08774,-0.878698 0.525471,-0.722967a0.465898,0.465898 0 0 0 0.621629,-0.453271c-0.012627,-0.464279 0.587634,-0.659509 0.850207,-0.276172a0.465898,0.465898 0 0 0 0.767323,0.000324z"/>
 <circle stroke="null" id="svg_2" r="1.997307" fill="#f5d367" cy="3.850786" cx="7.74213"/>
 <path stroke="null" id="svg_3" fill="#74d1d1" d="m15.927882,9.36321l0,2.366075l-7.102758,-3.085157l2.246282,-1.98986a1.720164,1.720164 0 0 1 2.280601,0l2.253081,1.994393a0.953812,0.953812 0 0 1 0.322794,0.714549z"/>
 <path stroke="null" id="svg_4" fill="#90d1bb" d="m15.927882,11.729285l0,3.27197a0.925644,0.925644 0 0 1 -0.925644,0.925644l-13.702385,0a1.236459,1.236459 0 0 1 -1.236459,-1.238078l0,-4.62984a1.236783,1.236783 0 0 1 0.74466,-1.133178l3.647537,-1.584506a1.724696,1.724696 0 0 1 1.370821,0l10.10147,4.387988z"/>
 <path stroke="null" id="svg_5" fill="#88bfac" d="m6.437357,15.926899l-5.137504,0a1.236459,1.236459 0 0 1 -1.236459,-1.236459l0,-4.631459a1.236783,1.236783 0 0 1 0.213037,-0.694152a16.260453,16.260453 0 0 0 6.160925,6.56207z"/>
</svg>