<svg width="16" height="16" xmlns="http://www.w3.org/2000/svg">
 <path stroke="null" id="svg_6" fill="#619bbf" d="m8.94743,5.24143c-0.00919,-0.02751 -0.03476,-0.0463 -0.06394,-0.046l-0.00253,0c-0.43668,0 -0.85994,-0.15592 -1.19197,-0.43907l-0.14469,-0.13757c-0.32341,-0.34253 -0.50147,-0.7906 -0.50147,-1.26195c0,-0.53712 0.23404,-1.04593 0.64214,-1.39596c0.02201,-0.01888 0.02945,-0.04973 0.01849,-0.07657c-0.01098,-0.02683 -0.03787,-0.04362 -0.06683,-0.0417c-1.01012,0.06756 -1.8014,0.91411 -1.8014,1.92727c0,1.06511 0.86652,1.93164 1.93162,1.93164c0.42109,0 0.82122,-0.1331 1.15712,-0.38491c0.02319,-0.01739 0.03265,-0.04769 0.02346,-0.07518z"/>
 <path stroke="null" id="svg_7" opacity="0.1" fill="#231F20" d="m7.89588,5.61193c-1.0651,0 -1.93162,-0.86653 -1.93162,-1.93163c0,-0.62604 0.3022,-1.18837 0.77137,-1.54271c-0.54213,0.3443 -0.9004,0.95057 -0.9004,1.63229c0,1.06511 0.86652,1.93164 1.93162,1.93164c0.42109,0 0.82122,-0.1331 1.15712,-0.38491c0.00102,-0.00077 0.00187,-0.00169 0.00285,-0.00251c-0.30801,0.19528 -0.66139,0.29783 -1.03094,0.29783l0,0z"/>
 <path d="m15.92788,9.36321l0,2.36608l-7.10276,-3.08516l2.24629,-1.98986a1.72016,1.72016 0 0 1 2.2806,0l2.25308,1.99439a0.95381,0.95381 0 0 1 0.32279,0.71455z" fill="#7373ce" id="svg_3" stroke="null"/>
 <path d="m15.92788,11.72929l0,3.27197a0.92564,0.92564 0 0 1 -0.92564,0.92564l-13.70239,0a1.23646,1.23646 0 0 1 -1.23646,-1.23808l0,-4.62984a1.23678,1.23678 0 0 1 0.74466,-1.13318l3.64754,-1.5845a1.7247,1.7247 0 0 1 1.37082,0l10.10147,4.38799z" fill="#8ea3ce" id="svg_4" stroke="null"/>
 <path d="m6.43736,15.9269l-5.13751,0a1.23646,1.23646 0 0 1 -1.23646,-1.23646l0,-4.63146a1.23678,1.23678 0 0 1 0.21304,-0.69415a16.26045,16.26045 0 0 0 6.16093,6.56207l0,0z" fill="#8799bc" id="svg_5" stroke="null"/>
</svg>