<svg width="16" height="16" viewBox="0 0 16 16" xmlns="http://www.w3.org/2000/svg" stroke="null" fill="currentColor">
 <path d="m13.212831,9.005628c-0.643268,-3.940015 -5.414171,-8.550102 -5.628594,-8.737721c-0.107211,-0.107211 -0.268028,-0.107211 -0.37524,0c-0.241225,0.214423 -5.709002,5.467777 -5.709002,9.568609c0,3.243142 2.65348,5.896622 5.896622,5.896622c0.911296,0 1.795789,-0.214423 2.599874,-0.616465c0.562859,0.37524 1.23293,0.616465 1.956606,0.616465c1.929803,0 3.484367,-1.554564 3.484367,-3.484367c0,-1.474155 -0.911296,-2.733888 -2.224635,-3.243142zm-5.816213,6.191453c-2.948311,0 -5.360565,-2.412254 -5.360565,-5.360565c0,-3.457565 4.395664,-8.040848 5.360565,-9.00575c0.884493,0.884493 4.55648,4.717297 5.253354,8.014045c-0.241225,-0.053606 -0.455648,-0.080408 -0.696873,-0.080408c-1.929803,0 -3.484367,1.554564 -3.484367,3.484367c0,0.991705 0.402042,1.876198 1.072113,2.492663c-0.670071,0.294831 -1.393747,0.455648 -2.144226,0.455648zm4.55648,0c-1.634972,0 -2.948311,-1.313338 -2.948311,-2.948311s1.313338,-2.948311 2.948311,-2.948311s2.948311,1.313338 2.948311,2.948311s-1.313338,2.948311 -2.948311,2.948311z"/>
 <path d="m7.396618,13.85694c-2.224635,0 -4.020424,-1.795789 -4.020424,-4.020424c0,-0.160817 -0.107211,-0.268028 -0.268028,-0.268028s-0.268028,0.107211 -0.268028,0.268028c0,2.519466 2.037015,4.55648 4.55648,4.55648c0.160817,0 0.268028,-0.107211 0.268028,-0.268028s-0.107211,-0.268028 -0.268028,-0.268028z"/>
 <path d="m12.864394,10.131347c-0.134014,-0.053606 -0.294831,0 -0.348437,0.134014l-1.60817,3.752396c-0.053606,0.134014 0,0.294831 0.134014,0.348437c0.026803,0.026803 0.080408,0.026803 0.107211,0.026803c0.107211,0 0.214423,-0.053606 0.241225,-0.160817l1.60817,-3.752396c0.053606,-0.134014 0,-0.294831 -0.134014,-0.348437z"/>
 <path d="m11.68507,11.176657c0,-0.455648 -0.348437,-0.804085 -0.804085,-0.804085s-0.804085,0.348437 -0.804085,0.804085s0.348437,0.804085 0.804085,0.804085s0.804085,-0.348437 0.804085,-0.804085zm-1.072113,0c0,-0.160817 0.107211,-0.268028 0.268028,-0.268028s0.268028,0.107211 0.268028,0.268028s-0.107211,0.268028 -0.268028,0.268028s-0.268028,-0.107211 -0.268028,-0.268028z"/>
 <path d="m13.025211,12.516798c-0.455648,0 -0.804085,0.348437 -0.804085,0.804085s0.348437,0.804085 0.804085,0.804085s0.804085,-0.348437 0.804085,-0.804085s-0.348437,-0.804085 -0.804085,-0.804085zm0,1.072113c-0.160817,0 -0.268028,-0.107211 -0.268028,-0.268028s0.107211,-0.268028 0.268028,-0.268028s0.268028,0.107211 0.268028,0.268028s-0.107211,0.268028 -0.268028,0.268028z"/>
</svg>