<svg width="16" height="16" viewBox="0 0 16 16" xmlns="http://www.w3.org/2000/svg" stroke="null" fill="currentColor">
 <path d="m10.621633,6.751303l-2.277578,3.865888c-0.119873,0 -0.239745,-0.029968 -0.389586,-0.029968c-0.839108,0 -1.498406,0.659299 -1.498406,1.498406s0.659299,1.498406 1.498406,1.498406s1.498406,-0.659299 1.498406,-1.498406c0,-0.47949 -0.239745,-0.899044 -0.569394,-1.168757l2.187673,-3.716048c0.599363,0.689267 0.988948,1.558343 1.048884,2.517323c0,0.149841 0.149841,0.269713 0.299681,0.269713l1.018916,0c0.149841,0 0.239745,-0.089904 0.299681,-0.209777c0.149841,-0.509458 0.209777,-1.048884 0.209777,-1.588311c0,-3.296494 -2.697131,-5.993626 -5.993626,-5.993626s-5.993626,2.697131 -5.993626,5.993626c0,0.539426 0.059936,1.078853 0.209777,1.588311c0.029968,0.119873 0.149841,0.209777 0.299681,0.209777l0.988948,0c0.149841,0 0.299681,-0.119873 0.299681,-0.269713c0.149841,-2.217641 1.977896,-3.925825 4.195538,-3.925825c1.018916,0 1.947928,0.359618 2.667163,0.95898zm-2.667163,6.233371c-0.509458,0 -0.899044,-0.389586 -0.899044,-0.899044s0.389586,-0.899044 0.899044,-0.899044s0.899044,0.389586 0.899044,0.899044s-0.389586,0.899044 -0.899044,0.899044zm-1.858024,-7.402128l-0.869076,-2.007865c0,0 0,-0.029968 -0.029968,-0.029968c0.719235,-0.419554 1.558343,-0.689267 2.427418,-0.749203l0,2.39745c-0.509458,0.059936 -1.048884,0.179809 -1.528375,0.389586zm2.157705,-0.389586l0,-2.39745c0.899044,0.059936 1.708183,0.299681 2.427418,0.749203c0,0 0,0.029968 -0.029968,0.029968l-0.869076,2.007865c-0.449522,-0.209777 -0.988948,-0.329649 -1.528375,-0.389586zm4.974709,4.195538l-0.509458,0c-0.089904,-0.689267 -0.329649,-1.318598 -0.659299,-1.887992l1.078853,-0.809139c0.149841,0.47949 0.209777,0.95898 0.209777,1.498406c0,0.419554 -0.059936,0.809139 -0.119873,1.198725zm-0.299681,-3.266526c-0.029968,0 -0.059936,0.029968 -0.059936,0.029968l-1.168757,0.869076c-0.089904,-0.119873 -0.209777,-0.239745 -0.329649,-0.359618l0.419554,-0.719235c0.089904,-0.149841 0.029968,-0.329649 -0.119873,-0.419554c-0.149841,-0.089904 -0.329649,-0.029968 -0.419554,0.119873l-0.359618,0.599363c-0.179809,-0.149841 -0.389586,-0.269713 -0.569394,-0.389586l0.839108,-1.947928c0.809139,0.569394 1.408502,1.318598 1.76812,2.217641zm-9.739641,3.266526l-0.509458,0c-0.089904,-0.389586 -0.119873,-0.779171 -0.119873,-1.198725c0,-0.509458 0.089904,-1.018916 0.209777,-1.498406l1.078853,0.809139c-0.329649,0.569394 -0.569394,1.198725 -0.659299,1.887992zm1.018916,-2.367482l-1.168757,-0.869076c-0.029968,-0.029968 -0.029968,-0.029968 -0.059936,-0.029968c0.359618,-0.899044 0.988948,-1.648247 1.738151,-2.24761l0.839108,1.947928c-0.539426,0.329649 -0.988948,0.719235 -1.348566,1.198725z"/>
 <path d="m13.346072,13.840096c1.528375,-1.408502 2.487355,-3.446335 2.487355,-5.693944c0,-4.285442 -3.506271,-7.791713 -7.791713,-7.791713c-0.329649,0 -0.659299,0.029968 -0.988948,0.059936c-1.896039,0.289952 -1.974613,0.499729 -2.667163,0.839108c-0.329649,0.179809 -0.629331,0.359618 -0.929012,0.599363l-0.719235,0.599363c-1.528375,1.408502 -2.487355,3.446335 -2.487355,5.693944c0,4.285442 3.506271,7.791713 7.791713,7.791713c1.708183,0 3.296494,-0.569394 4.585124,-1.498406l0.719235,-0.599363zm-8.301171,-12.886295c0.899044,-0.329649 0.449522,-0.179809 0,0c0,0 0,0 0,0zm2.996813,14.384701c-3.955793,0 -7.192351,-3.236558 -7.192351,-7.192351c0,-2.307546 1.669352,-4.790697 2.817004,-5.693944c1.147652,-0.903247 2.052049,-1.207875 2.654972,-1.312112c0.602923,-0.104236 1.420694,-0.186295 1.720375,-0.186295c3.955793,0 7.192351,3.236558 7.192351,7.192351c0,2.307546 -1.108821,4.375347 -2.817004,5.693944l-0.899044,0.599363c-1.018916,0.569394 -2.217641,0.899044 -3.476303,0.899044z"/>
</svg>