<svg width="16" height="16" viewBox="0 0 16 16" xmlns="http://www.w3.org/2000/svg" stroke="null" fill="currentColor">
 <path d="m10.910521,8.940657c-0.049858,0 -0.098752,-0.000964 -0.148002,-0.003246l-10.229576,0.003246c-0.18026,0 -0.325979,-0.145719 -0.325979,-0.325979c0,-0.179956 0.145719,-0.325979 0.325979,-0.325979l10.243981,-0.002942c0.053764,0.001978 0.093528,0.002942 0.133952,0.002942c1.534695,0 2.783125,-1.24848 2.783125,-2.783125c0,-1.53434 -1.24848,-2.78282 -2.783125,-2.78282c-1.53434,0 -2.78282,1.24848 -2.78282,2.78282c0,0.377461 0.074305,0.743205 0.220025,1.086784c0.070755,0.165906 -0.006847,0.357274 -0.172094,0.427674c-0.165906,0.071059 -0.357578,-0.006847 -0.427674,-0.172094c-0.180564,-0.424732 -0.272165,-0.876193 -0.272165,-1.342009c0,-1.893896 1.540883,-3.434779 3.434779,-3.434779s3.435084,1.541187 3.435084,3.434779c-0.000406,1.893896 -1.541593,3.434729 -3.435489,3.434729zm4.974343,2.923671c0,-1.303208 -1.060054,-2.363313 -2.363313,-2.363313c-0.034236,0 -0.068117,0.000659 -0.088,0.001978l-12.900964,-0.001978l0,0c-0.179956,0 -0.325979,0.145719 -0.325979,0.325979c0,0.179956 0.146024,0.325979 0.325979,0.325979l12.914963,0.001623l0.074001,-0.001623c0.943702,0 1.711354,0.767652 1.711354,1.711354s-0.767652,1.711354 -1.711354,1.711354c-0.943702,0 -1.711354,-0.767652 -1.711354,-1.711354c0,-0.2324 0.045648,-0.45699 0.135271,-0.66824c0.070755,-0.165602 -0.006847,-0.357274 -0.172094,-0.427674c-0.165602,-0.071059 -0.356919,0.006188 -0.427674,0.172094c-0.124518,0.292048 -0.187412,0.603064 -0.187412,0.923465c0,1.303208 1.060054,2.363313 2.363313,2.363313c1.303208,0 2.363262,-1.05975 2.363262,-2.362958zm-15.352276,-4.196903l3.82071,-0.001319l0.07466,0.001319c1.04215,0 1.890295,-0.848196 1.890295,-1.890295s-0.848196,-1.890295 -1.890295,-1.890295c-1.042454,0 -1.89065,0.848196 -1.89065,1.890295c0,0.256188 0.050213,0.504921 0.149929,0.738995c0.0704,0.165602 0.262427,0.241885 0.427674,0.172094c0.165602,-0.070755 0.242849,-0.262072 0.172094,-0.427674c-0.064871,-0.152871 -0.097789,-0.315227 -0.097789,-0.483415c0,-0.682898 0.555438,-1.238387 1.238691,-1.238387c0.682898,0 1.238387,0.555438 1.238387,1.238387s-0.555438,1.238387 -1.238387,1.238387l-0.067458,-0.001319l-3.828217,0.001319c-0.179956,0 -0.325979,0.146024 -0.325979,0.325979c0.000355,0.180209 0.14643,0.325929 0.326334,0.325929l0,0zm4.944013,3.477131c0,-0.18026 -0.145719,-0.325979 -0.325979,-0.325979l-4.618033,0c-0.179956,0 -0.325979,0.145719 -0.325979,0.325979s0.146024,0.325979 0.325979,0.325979l4.618033,0c0.18026,0 0.325979,-0.145719 0.325979,-0.325979z"/>
</svg>