<svg width="24" height="24" viewBox="0 0 16 16" fill="none" xmlns="http://www.w3.org/2000/svg">
    <path fill-rule="evenodd"
            clip-rule="evenodd"
            d="M11.1171 9.5107L15.0655 13.3934C15.2415 13.5578 15.3369 13.8096 15.3333 14.0662C15.3285 14.4057 15.17 14.7558 14.9889 14.9434C14.6951 15.2478 14.2575 15.366 14.0395 15.3333C13.8215 15.3007 13.5531 15.1978 13.3658 15.0142L9.47317 11.1404C8.18624 11.9067 7.53573 11.9664 6.79607 12.0343C6.68905 12.0441 6.58016 12.0541 6.4672 12.0665C5.53163 12.1686 3.75434 11.7019 2.47645 10.5439C0.341584 8.60926 -0.13724 4.86336 2.31181 2.35885C3.35365 1.29341 4.87093 0.666748 6.35811 0.666748C7.84528 0.666748 9.2377 1.19694 10.4552 2.40316C12.2172 4.1488 12.6491 7.28044 11.1171 9.5107ZM3.85283 8.81058C4.52445 9.46583 5.38795 9.83342 6.33142 9.83342C7.25889 9.83342 8.15437 9.48182 8.81 8.81058C9.46562 8.13935 9.83342 7.27634 9.83342 6.33341C9.83342 5.39049 9.48162 4.5115 8.81 3.85625C8.13838 3.20099 7.27488 2.83341 6.33142 2.83341C5.38795 2.83341 4.50846 3.20099 3.85283 3.85625C2.49361 5.23067 2.49361 7.45214 3.85283 8.81058Z"
            fill="#232A31"/>
</svg>