<svg version="1.0" xmlns="http://www.w3.org/2000/svg"
 width="205" height="59" viewBox="0 0 348.000000 96.000000"
 preserveAspectRatio="xMidYMid meet">

<g transform="translate(0.000000,96.000000) scale(0.100000,-0.100000)"
fill="#6001d2" stroke="none">
<path d="M1250 580 l0 -380 95 0 95 0 0 164 0 165 26 20 c34 27 50 26 79 -4
24 -24 25 -28 25 -185 l0 -160 96 0 96 0 -4 198 c-5 218 -11 248 -67 295 -63
53 -148 57 -217 11 -19 -13 -37 -24 -39 -24 -3 0 -5 63 -5 140 l0 140 -90 0
-90 0 0 -380z"/>
<path d="M3257 953 c-4 -6 -154 -362 -194 -461 -4 -10 19 -12 107 -10 l112 3
49 120 c28 66 72 173 99 238 l49 117 -109 0 c-60 0 -111 -3 -113 -7z"/>
<path d="M790 725 c-137 -43 -212 -208 -164 -361 47 -151 223 -227 339 -148
34 22 35 23 35 4 0 -18 7 -20 90 -20 l90 0 0 260 0 260 -90 0 c-84 0 -90 -1
-90 -20 0 -21 0 -21 -28 0 -27 20 -89 40 -122 39 -8 0 -35 -7 -60 -14z m160
-170 c33 -17 60 -61 60 -97 0 -35 -34 -83 -69 -97 -101 -42 -197 78 -130 163
36 46 88 58 139 31z"/>
<path d="M2015 731 c-136 -34 -223 -151 -213 -288 11 -156 124 -257 283 -256
116 0 204 57 253 162 21 46 24 63 20 132 -4 71 -8 84 -41 132 -44 62 -90 96
-160 114 -55 14 -95 15 -142 4z m115 -176 c84 -44 72 -169 -19 -196 -93 -28
-167 70 -120 158 14 26 59 52 92 53 10 0 31 -7 47 -15z"/>
<path d="M2615 731 c-78 -20 -151 -77 -188 -146 -17 -32 -22 -57 -22 -125 0
-68 5 -93 22 -125 90 -168 323 -202 458 -67 54 55 77 111 77 191 0 154 -103
264 -259 276 -32 2 -71 1 -88 -4z m115 -176 c32 -17 60 -61 60 -95 0 -38 -30
-81 -67 -97 -44 -18 -79 -10 -115 25 -23 21 -28 34 -28 71 1 52 14 74 56 96
37 19 57 19 94 0z"/>
<path d="M10 712 c0 -5 43 -109 96 -233 52 -123 101 -238 109 -255 12 -29 10
-38 -26 -124 -21 -51 -39 -95 -39 -97 0 -1 44 -3 98 -3 l97 0 142 343 c78 188
145 350 149 360 6 16 -1 18 -92 15 l-98 -3 -58 -144 c-31 -79 -59 -145 -61
-147 -2 -2 -30 63 -63 146 l-59 150 -97 0 c-54 0 -98 -4 -98 -8z"/>
<path d="M3035 398 c-90 -83 -29 -219 92 -205 50 5 80 28 100 75 34 80 -24
162 -114 162 -35 0 -50 -6 -78 -32z"/>
</g>
</svg>
