<svg version="1.0" xmlns="http://www.w3.org/2000/svg"
 width="32" height="32" viewBox="0 0 1008.000000 1019.000000"
 preserveAspectRatio="xMidYMid meet">

<g transform="translate(0.000000,1019.000000) scale(0.100000,-0.100000)"
fill="#6001d2" stroke="none">
    <title>Yahoo</title>
<path d="M4875 10110 c-27 -4 -97 -9 -155 -9 -202 -2 -542 -46 -780 -102 -131
-30 -149 -36 -400 -117 -284 -91 -368 -122 -464 -168 -16 -8 -33 -14 -38 -14
-15 0 -317 -151 -385 -192 -35 -21 -65 -38 -68 -38 -8 0 -201 -117 -254 -155
-25 -17 -53 -35 -61 -38 -8 -4 -35 -22 -60 -41 -25 -19 -74 -55 -110 -80 -78
-55 -120 -86 -196 -146 -109 -85 -344 -299 -423 -385 -31 -33 -74 -78 -96
-100 -22 -22 -71 -76 -110 -120 -38 -44 -72 -82 -75 -85 -3 -3 -24 -30 -47
-60 -23 -30 -50 -64 -60 -75 -10 -11 -29 -36 -43 -55 -13 -19 -27 -37 -30 -40
-13 -12 -92 -125 -161 -230 -42 -63 -84 -128 -95 -144 -30 -46 -35 -54 -108
-186 -65 -116 -132 -247 -169 -330 -9 -19 -33 -73 -55 -120 -21 -47 -51 -121
-66 -165 -15 -44 -36 -97 -47 -118 -10 -22 -19 -45 -19 -52 0 -7 -20 -73 -43
-147 -43 -131 -60 -186 -78 -260 -5 -21 -13 -55 -18 -75 -10 -42 -45 -202 -61
-278 -43 -211 -80 -603 -80 -846 0 -195 22 -527 46 -689 34 -229 103 -534 173
-765 39 -128 44 -145 83 -255 22 -61 103 -265 139 -350 61 -143 246 -498 300
-576 16 -23 29 -45 29 -48 0 -3 25 -41 55 -85 30 -44 55 -82 55 -86 0 -3 22
-36 50 -73 179 -243 239 -318 341 -427 36 -38 90 -97 120 -129 30 -33 88 -91
129 -130 41 -39 101 -97 134 -128 32 -31 62 -58 66 -60 5 -2 33 -27 63 -55 31
-29 58 -53 62 -53 6 0 81 -60 135 -107 13 -13 28 -23 32 -23 4 0 42 -26 85
-58 43 -32 91 -67 107 -77 16 -11 39 -27 50 -35 12 -8 37 -24 55 -35 18 -11
45 -29 60 -41 14 -11 42 -28 61 -36 19 -9 52 -28 73 -42 21 -15 66 -41 100
-60 34 -18 78 -42 98 -54 20 -11 45 -25 55 -31 42 -23 256 -121 265 -121 5 0
17 -4 27 -8 60 -30 111 -53 137 -63 58 -22 320 -111 353 -120 17 -5 49 -14 70
-19 20 -6 44 -12 52 -14 8 -3 42 -12 75 -21 78 -21 275 -64 345 -75 100 -16
174 -29 235 -40 268 -50 866 -62 1240 -25 153 15 599 100 760 145 246 69 555
175 700 240 347 156 640 327 942 552 73 54 135 103 139 109 3 6 24 23 46 39
57 42 137 109 178 150 19 20 50 46 68 59 17 12 32 29 32 37 0 8 3 14 8 14 11
0 162 149 162 160 0 6 6 10 13 10 6 0 50 44 97 97 47 53 92 104 100 113 58 62
140 159 140 167 0 5 14 22 31 39 17 16 41 43 53 60 11 17 48 67 81 110 33 44
69 93 80 109 36 52 125 195 125 200 0 3 15 28 33 57 77 120 231 450 303 643 7
20 26 69 57 150 8 22 21 60 27 85 7 25 24 77 37 115 32 91 47 143 67 235 10
41 26 111 36 155 18 74 52 281 79 470 52 371 56 879 10 1265 -18 153 -60 396
-91 520 -48 202 -130 483 -158 545 -5 11 -25 63 -45 115 -77 201 -201 469
-279 605 -127 220 -243 401 -360 561 -73 101 -231 297 -270 333 -20 19 -36 39
-36 44 0 10 -335 346 -411 412 -135 119 -308 258 -371 299 -29 20 -78 54 -108
76 -73 54 -112 80 -270 177 -19 12 -42 25 -50 29 -8 4 -27 16 -42 26 -14 10
-59 35 -100 56 -40 21 -86 46 -103 55 -16 9 -66 33 -110 53 -44 20 -108 49
-142 66 -35 16 -64 28 -66 26 -2 -2 -11 3 -19 9 -8 7 -44 24 -79 37 -54 20
-143 55 -224 86 -68 27 -116 42 -250 80 -152 42 -179 49 -385 93 -184 39 -226
45 -385 62 -291 31 -667 49 -750 35z m-463 -3147 c2 -10 2 -82 0 -160 l-4
-143 -328 -2 -329 -3 218 -325 c226 -338 835 -1226 855 -1247 8 -9 86 57 336
288 179 166 416 385 527 487 l203 187 -313 3 -314 2 -41 150 c-23 82 -42 154
-42 160 0 7 378 10 1155 10 635 0 1155 -4 1155 -8 0 -12 -44 -67 -125 -158
-39 -44 -81 -96 -93 -116 l-24 -38 -218 0 c-330 0 -347 -6 -647 -226 -595
-437 -1236 -1004 -1327 -1173 l-29 -54 7 -456 c4 -251 11 -487 14 -526 l7 -70
460 -8 c253 -5 461 -10 463 -11 1 -2 -1 -67 -5 -146 l-8 -143 -1269 -5 -1269
-5 6 54 c4 30 7 100 7 157 l0 102 338 0 c472 0 559 13 583 87 17 54 24 605 10
839 -10 169 -13 191 -35 228 -63 108 -425 572 -741 951 -371 444 -579 680
-773 878 l-135 137 -393 0 -394 0 0 160 0 160 1254 0 c1186 0 1254 -1 1258
-17z m2863 -1272 c116 -12 288 -27 384 -36 96 -8 175 -16 177 -17 3 -4 -462
-1707 -467 -1711 -2 -2 -92 3 -200 12 l-196 15 -6 455 c-4 251 -7 649 -7 885
l0 429 53 -6 c28 -4 147 -15 262 -26z m-240 -2025 c66 -8 173 -18 238 -21 115
-7 118 -8 114 -29 -3 -11 -18 -103 -33 -203 -28 -182 -28 -183 -53 -183 -14 0
-107 7 -206 15 -99 8 -183 15 -187 15 -5 0 -8 95 -8 210 0 116 4 210 8 210 4
0 61 -6 127 -14z"/>
</g>
</svg>
