<svg width="16" height="16" xmlns="http://www.w3.org/2000/svg">
 <path stroke="none" d="m6.285415,0.256104l-0.095086,0.494449l-0.361328,1.80664c-0.580024,0.228207 -1.103001,0.549121 -1.578433,0.931846l-1.768606,-0.608553l-0.475432,-0.152138l-0.247224,0.437397l-1.217105,2.091899l-0.247224,0.437397l0.361328,0.323294l1.369243,1.198088c-0.04992,0.311408 -0.114104,0.622817 -0.114104,0.950863c0,0.328046 0.064184,0.639455 0.114104,0.950863l-1.369243,1.198088l-0.361328,0.323294l0.247224,0.437397l1.217105,2.091899l0.247224,0.437397l0.475432,-0.152138l1.768606,-0.608553c0.475432,0.382725 0.99841,0.703639 1.578433,0.931846l0.361328,1.80664l0.095086,0.494449l3.423108,0l0.095086,-0.494449l0.361328,-1.80664c0.58003,-0.228207 1.103001,-0.549121 1.578433,-0.931846l1.768606,0.608553l0.475432,0.152138l0.247224,-0.437397l1.217105,-2.091899l0.247224,-0.437397l-0.361328,-0.323294l-1.369243,-1.198088c0.04992,-0.311408 0.114104,-0.622817 0.114104,-0.950863c0,-0.328046 -0.064184,-0.639455 -0.114104,-0.950863l1.369243,-1.198088l0.361328,-0.323294l-0.247224,-0.437397l-1.217105,-2.091899l-0.247224,-0.437397l-0.475432,0.152138l-1.768606,0.608553c-0.475432,-0.382725 -0.998403,-0.703639 -1.578433,-0.931846l-0.361328,-1.80664l-0.095086,-0.494449l-3.423108,0zm0.988898,1.217105l1.445312,0l0.304276,1.578433l0.076069,0.361328l0.342311,0.114104c0.691754,0.216322 1.319324,0.582403 1.844675,1.064967l0.266242,0.247224l0.342311,-0.114104l1.540399,-0.532483l0.722656,1.236122l-1.217105,1.083984l-0.285259,0.228207l0.095086,0.361328c0.078449,0.347064 0.114104,0.701259 0.114104,1.064967c0,0.363707 -0.035655,0.717903 -0.114104,1.064967l-0.076069,0.361328l0.266242,0.228207l1.217105,1.083984l-0.722656,1.236122l-1.540399,-0.532483l-0.342311,-0.114104l-0.266242,0.247224c-0.525351,0.482564 -1.152921,0.848645 -1.844675,1.064967l-0.342311,0.114104l-0.076069,0.361328l-0.304276,1.578433l-1.445312,0l-0.304276,-1.578433l-0.076069,-0.361328l-0.342311,-0.114104c-0.691754,-0.216322 -1.319324,-0.582403 -1.844675,-1.064967l-0.266242,-0.247224l-0.342311,0.114104l-1.540399,0.532483l-0.722656,-1.236122l1.217105,-1.083984l0.285259,-0.228207l-0.095086,-0.361328c-0.078449,-0.347064 -0.114104,-0.701259 -0.114104,-1.064967c0,-0.363707 0.035655,-0.717903 0.114104,-1.064967l0.095086,-0.361328l-0.285259,-0.228207l-1.217105,-1.083984l0.722656,-1.236122l1.540399,0.532483l0.342311,0.114104l0.266242,-0.247224c0.525351,-0.482564 1.152921,-0.848645 1.844675,-1.064967l0.342311,-0.114104l0.076069,-0.361328l0.304276,-1.578433zm0.722656,3.651315c-1.673519,0 -3.042763,1.369243 -3.042763,3.042763c0,1.673519 1.369243,3.042763 3.042763,3.042763c1.673519,0 3.042763,-1.369243 3.042763,-3.042763c0,-1.673519 -1.369243,-3.042763 -3.042763,-3.042763zm0,1.217105c1.015047,0 1.825658,0.81061 1.825658,1.825658c0,1.015047 -0.81061,1.825658 -1.825658,1.825658c-1.015047,0 -1.825658,-0.81061 -1.825658,-1.825658c0,-1.015047 0.81061,-1.825658 1.825658,-1.825658z"/>
</svg>