<svg height="16" width="16" fill="currentColor" viewBox="0 0 68 68" xmlns="http://www.w3.org/2000/svg">
    <path d="m65.2068 25.4834-12.93-20.12c-1.48-2.3-4.57-2.97-6.87-1.49l-5.45 3.5c-.47.3-.6.92-.3 1.39.3.46.92.6 1.38.3l5.45-3.51c1.38-.88 3.22-.48 4.11.9l12.93 20.11c.43.67.58 1.46.41 2.24-.03.14-.08.28-.13.42-.89-.67-1.98-1.0699-3.17-1.0699h-5.21c-.04-.39-.03-.79.05-1.19.21-.98.8-1.82 1.65-2.37.22-.14.38-.3701.43-.63.06-.26.01-.53-.13-.75l-6.3199-9.82c-.29-.46-.91-.6-1.38-.3-.85.55-1.86.73-2.84.5099-.98-.21-1.82-.79-2.37-1.64-.14-.22-.37-.38-.63-.44s-.53-.01-.75.14l-25.65 16.4901h-6.14l25-16.08c.47-.3.6-.92.3-1.38-.29-.47-.91-.6-1.38-.3l-27.62 17.76h-.31c-2.94 0-5.33 2.39-5.33 5.34v26.08c0 2.95 2.39 5.34 5.33 5.34h36.17c.55 0 1-.45 1-1s-.45-1-1-1h-36.17c-1.84 0-3.33-1.5-3.33-3.34v-26.08c0-1.84 1.49-3.34 3.33-3.34h53.3c1.85 0 3.34 1.5 3.34 3.34v26.08c0 1.84-1.4901 3.34-3.34 3.34h-10.18c-.55 0-1 .45-1 1s.45 1 1 1h10.18c2.95 0 5.34-2.3899 5.34-5.34v-26.08c0-.99-.28-1.9-.75-2.69.9899-1.5901 1.0599-3.6501-.0201-5.3201zm-35.75 2.67c.26-.76.69-1.41 1.34-1.83.54-.35 1.16-.51 1.8101-.51 1.49 0 3.1299.86 4.39 2.34zm23.97 0h-13.98c-.05-.08-.09-.16-.14-.23-2.37-3.69-6.67-5.16-9.6-3.28-1.22.79-2.01 2.04-2.34 3.51h-6.18l22.26-14.32c.8.87 1.84 1.47 3.02 1.73 1.17.25 2.37.14 3.45-.32l5.33 8.28c-1.3 1.2-1.94 2.92-1.82 4.63z"/>
    <path d="m45.0778 27.0312c.2363.0508.4736.0757.71.0757.6367 0 1.2617-.1821 1.8096-.5347 1.5537-.9995 2.0078-3.0737 1.0117-4.6245-.001 0-.001-.0005-.001-.0005-.999-1.5542-3.0771-2.0059-4.6328-1.0063-.752.4834-1.2705 1.2319-1.461 2.1079-.1904.876-.0283 1.7725.4551 2.5244.4834.7524 1.2324 1.27 2.1084 1.458zm-.6094-3.5576c.0771-.354.2861-.6563.5889-.8506.2256-.1455.4785-.2144.7285-.2144.4453 0 .8818.2188 1.1406.6206.3994.623.2158 1.4575-.4111 1.8608-.3037.1953-.665.2617-1.0186.1855-.3515-.0755-.6513-.2831-.8457-.5843-.1943-.3023-.2588-.6636-.1826-1.0176z"/>
    <path d="m19.3561 33.9619h-5.3389c-.5527 0-1 .4478-1 1 0 2.3184-1.8857 4.2041-4.2041 4.2041-.5527 0-1 .4478-1 1v12.7358c0 .5522.4473 1 1 1 2.3184 0 4.2041 1.8857 4.2041 4.2041 0 .5522.4473 1 1 1h39.9473c.5527 0 1-.4478 1-1 0-2.3184 1.8857-4.2041 4.2041-4.2041.5527 0 1-.4478 1-1v-12.7358c0-.5522-.4473-1-1-1-2.3184 0-4.2041-1.8857-4.2041-4.2041 0-.5522-.4473-1-1-1h-29.5576c-.5527 0-1 .4478-1 1s.4473 1 1 1h28.6377c.4268 2.6216 2.502 4.6968 5.124 5.1235v10.897c-2.6221.4268-4.6973 2.502-5.124 5.1235h-38.1074c-.4268-2.6216-2.502-4.6968-5.124-5.1235v-10.897c2.6221-.4268 4.6973-2.502 5.124-5.1235h4.4189c.5527 0 1-.4478 1-1s-.4473-1-1-1z"/>
    <path d="m33.985 39.9516c.6025 0 1.1904.1553 1.749.4614.4844.2646 1.0928.0874 1.3574-.396.2656-.4844.0879-1.0923-.3965-1.3579-.8555-.4692-1.7676-.7075-2.71-.7075-3.7354 0-6.7734 3.8501-6.7734 8.582 0 4.7324 3.0381 8.5825 6.7734 8.5825 3.7412 0 6.7852-3.8501 6.7852-8.5825 0-1.2998-.2217-2.5469-.6602-3.7065-.1953-.5166-.7725-.7773-1.2891-.582s-.7773.7725-.582 1.2891c.3525.9331.5313 1.9419.5313 2.9995 0 3.6294-2.1465 6.5825-4.7852 6.5825-2.6318 0-4.7734-2.9531-4.7734-6.5825s2.1417-6.5821 4.7735-6.5821z"/>
    <path d="m52.8258 46.5385c0-1.9663-1.5996-3.5659-3.5664-3.5659-1.9658 0-3.5654 1.5996-3.5654 3.5659 0 1.9609 1.5996 3.5566 3.5654 3.5566 1.9668.0001 3.5664-1.5956 3.5664-3.5566zm-5.1318 0c0-.8633.7021-1.5659 1.5654-1.5659s1.5664.7026 1.5664 1.5659c0 .8584-.7031 1.5566-1.5664 1.5566s-1.5654-.6982-1.5654-1.5566z"/>
    <path d="m15.1559 46.5385c0 1.9609 1.5996 3.5566 3.5654 3.5566 1.9668 0 3.5664-1.5957 3.5664-3.5566 0-1.9663-1.5996-3.5659-3.5664-3.5659-1.9658 0-3.5654 1.5996-3.5654 3.5659zm5.1319 0c0 .8584-.7031 1.5566-1.5664 1.5566s-1.5654-.6982-1.5654-1.5566c0-.8633.7021-1.5659 1.5654-1.5659s1.5664.7027 1.5664 1.5659z"/>
</svg>