<svg width="16" height="16" xmlns="http://www.w3.org/2000/svg" fill="none" stroke-linecap="square" stroke="#000000">
 <path fill="none" d="m8.06251,13.4133a5.55625,5.55625 0 1 0 0,-11.1125a5.55625,5.55625 0 0 0 0,11.1125z"/>
 <path fill="none" d="m11.15734,8.66985a3.175,3.175 0 0 1 -3.80762,-3.80762a3.17659,3.17659 0 0 0 0.71279,6.26904c1.50812,0 2.77019,-1.05172 3.09483,-2.46142z"/>
 <path d="m8.06251,2.40002l0,-1.5875m0,14.2875l0,-1.5875"/>
 <path d="m2.50626,7.95627l-2.38125,0l2.38125,0zm13.49375,0l-2.38125,0l2.38125,0zm-4.00844,-3.92906l1.68275,-1.68275l-1.68275,1.68275zm-9.54167,9.54167l1.68354,-1.68354l-1.68275,1.68275l-0.00079,0.00079zm9.54167,-1.68354l1.68354,1.68354l-1.68354,-1.68354zm-9.54167,-9.54167l1.68354,1.68354l-1.68275,-1.68275l-0.00079,-0.00079z"/>
</svg>