<svg width="16" height="16" xmlns="http://www.w3.org/2000/svg" >
    <path stroke="none" d="m10.14249,5.86313c-0.06519,-0.00032 -0.13101,0.00255 -0.19763,0.00845c-0.74,-0.00367 -1.42279,0.37805 -1.88069,0.94194l2.49574,0a11.75749,11.75749 0 0 0 -0.06407,-0.91739a2.07019,2.07019 0 0 0 -0.35335,-0.03299zm0.35335,0.03299zm0.7451,0.28736c0.01594,0.20751 0.02821,0.41726 0.03395,0.63003l0.64852,0c-0.18903,-0.25118 -0.41917,-0.46746 -0.68247,-0.63003zm-3.17661,0.63003zm3.86083,0.00287zm0.11778,0.16926zm-4.11058,0.00478zm4.2188,0.17978zm-4.33403,0.00383zm-0.17022,0.35669a2.42083,2.42083 0 0 0 -0.11619,0.41646l0,0.98019c0.05929,0.32306 0.19269,0.61361 0.37773,0.86607c0.802,0.0459 1.56512,0.16576 2.2683,0.34936c0.21883,-0.7883 0.35526,-1.67349 0.38315,-2.61209l-2.913,0zm-0.11619,1.39681c-0.0059,-0.03251 -0.00924,-0.06598 -0.01371,-0.09898c0.00446,0.03299 0.00781,0.06646 0.01371,0.09882l0,0.00016zm0,-0.98019zm4.70921,-0.59911zm-0.96473,0.18249c-0.02773,1.00728 -0.17086,1.96038 -0.41025,2.81848a8.95877,8.95877 0 0 1 0.46571,0.17484a2.09426,2.09426 0 0 0 0.45328,-0.37853c0.76279,-0.68119 0.8648,-1.72705 0.53185,-2.61479l-1.04059,0zm-3.78242,0.72311c-0.00159,0.02869 -0.00191,0.05738 -0.00223,0.08622c0.00048,-0.02869 0.00048,-0.05754 0.00223,-0.08607l0,-0.00016zm0.41758,1.54248zm0.10678,0.13452zm0.11746,0.1275zm0.11858,0.11236zm0.14886,0.12177zm0.12671,0.09085zm0.1699,0.10471zm2.63073,0.03666zm-2.49032,0.03857zm0.14137,0.06598a2.85642,2.85642 0 0 0 0.96425,0.2276c0.00367,-0.00956 0.00749,-0.01849 0.011,-0.02805a10.48882,10.48882 0 0 0 -0.97541,-0.19954l0.00016,0zm0.96425,0.2276zm0.18185,0.00414zm0.18122,-0.00845zm0.17962,-0.0212zm0.68135,-0.21628zm-0.16129,0.07331zm-0.17835,0.06375z"/>
    <path stroke="none" d="m10.53967,4.38216c-1.02354,-0.13866 -2.09984,0.11189 -2.9836,0.78495c-1.76753,1.34581 -2.11131,3.88346 -0.76534,5.65099c1.2599,1.65437 3.56056,2.0533 5.2994,0.99406l0.33199,0.43606a0.42873,0.64565 52.712 0 0 0.01689,0.39749l2.40983,3.1645a0.42873,0.64565 52.712 0 0 0.77331,-0.05005a0.42873,0.64565 52.712 0 0 0.25405,-0.73235l-2.40983,-3.1645a0.42873,0.64565 52.712 0 0 -0.37869,-0.12193l-0.33215,-0.43622c1.48383,-1.39458 1.71127,-3.71834 0.45152,-5.37271c-0.67306,-0.88392 -1.64385,-1.41163 -2.66739,-1.55029zm-0.11954,0.88249a3.12657,3.12657 0 0 1 2.07402,1.21065a3.12943,3.12943 0 0 1 -0.59529,4.39523a3.12943,3.12943 0 0 1 -4.39507,-0.59529a3.12943,3.12943 0 0 1 0.59513,-4.39507a3.12609,3.12609 0 0 1 2.32122,-0.61553z"/>
    <path stroke="none" d="m7.17212,0c-3.95678,0 -7.17212,3.21534 -7.17212,7.17212s3.21534,7.17212 7.17212,7.17212c1.72481,0 3.30826,-0.61106 4.54601,-1.62807c-0.59162,0.25246 -1.22564,0.35335 -1.85646,0.32402c-0.15667,0.07188 -0.31557,0.13994 -0.47878,0.19923c0.06407,-0.07061 0.12639,-0.14504 0.18775,-0.22122a4.84421,4.84421 0 0 1 -0.8122,-0.16129c-0.38251,0.39224 -0.79913,0.64198 -1.22771,0.73156l0,-1.27106a4.88071,4.88071 0 0 1 -0.71721,-0.53297l0,1.80403c-0.73156,-0.15301 -1.42805,-0.76901 -1.98014,-1.77151c-0.16448,-0.299 -0.3135,-0.63051 -0.44467,-0.98816a10.73029,10.73029 0 0 1 1.46518,-0.26617a4.07217,4.07217 0 0 1 -0.22042,-0.48962c-0.02821,-0.06535 -0.05275,-0.13133 -0.0773,-0.19731a11.2156,11.2156 0 0 0 -1.38868,0.26712c-0.21883,-0.7883 -0.35526,-1.67349 -0.38315,-2.61209l1.61835,0a4.82811,4.82811 0 0 1 0.2099,-0.71721l-1.82809,0c0.02773,-0.93907 0.16416,-1.82443 0.38331,-2.61304c0.81268,0.21166 1.70537,0.33868 2.64571,0.36466l0,0.41678c0.76694,-0.74702 1.76976,-1.2395 2.87841,-1.27138c0.51097,-0.01929 1.02498,0.02502 1.51921,0.15874a7.80295,7.80295 0 0 0 0.95182,-0.44037c0.06471,-0.0357 0.12719,-0.07331 0.18966,-0.11061a6.43785,6.43785 0 0 1 0.90528,1.69931c0.46459,0.47384 0.82687,1.05207 1.06737,1.67796c-0.24624,-3.73476 -3.35687,-6.69557 -7.15315,-6.69557zm-0.35861,0.75578l0,3.09357c-0.86544,-0.0255 -1.68465,-0.14408 -2.42497,-0.3339c0.13133,-0.35765 0.28035,-0.68916 0.44483,-0.98816c0.55209,-1.0025 1.24875,-1.61851 1.98014,-1.77151zm0.71721,0c0.73156,0.15301 1.42805,0.76901 1.98014,1.77151c0.16448,0.299 0.3135,0.63051 0.44467,0.98816c-0.74032,0.18982 -1.55938,0.30824 -2.42481,0.3339l0,-3.09357zm-2.56937,0.34904c-0.28035,0.3092 -0.53392,0.67243 -0.75642,1.07646c-0.1903,0.34554 -0.35924,0.72422 -0.50619,1.12905c-0.42826,-0.14631 -0.82208,-0.31765 -1.17145,-0.51002c-0.02391,-0.01307 -0.04622,-0.02646 -0.06965,-0.03985a6.45108,6.45108 0 0 1 2.50371,-1.65564zm4.42153,0a6.45108,6.45108 0 0 1 2.50387,1.65564c-0.02359,0.01339 -0.0459,0.02678 -0.06981,0.03985c-0.34952,0.19253 -0.74335,0.36402 -1.17176,0.51018c-0.14663,-0.40483 -0.31557,-0.78367 -0.50587,-1.12921c-0.2225,-0.40403 -0.47607,-0.76726 -0.75642,-1.07646zm-7.39127,2.21348c0.06248,0.0373 0.12495,0.07491 0.18966,0.11061c0.39303,0.21644 0.8283,0.40594 1.29704,0.56564c-0.24003,0.8581 -0.38411,1.8112 -0.41184,2.81896l-2.33907,0a6.42542,6.42542 0 0 1 1.26421,-3.49521zm-1.26421,4.21242l2.33907,0c0.02773,1.0076 0.17181,1.9607 0.41184,2.8188c-0.46858,0.15986 -0.90401,0.34936 -1.29704,0.5658a6.41984,6.41984 0 0 0 -0.18966,0.11029a6.42431,6.42431 0 0 1 -1.26421,-3.49489zm2.97133,3.50318c0.14695,0.40483 0.31589,0.78351 0.50619,1.12905c0.2225,0.40403 0.47607,0.76726 0.75642,1.07646a6.45108,6.45108 0 0 1 -2.50387,-1.65564c0.02359,-0.01339 0.0459,-0.02678 0.06981,-0.03985c0.34936,-0.19237 0.74319,-0.36371 1.17145,-0.51002z"/>
</svg>