<svg width="14" height="14" viewBox="0 0 16 16" xmlns="http://www.w3.org/2000/svg" fill="#000">
 <path stroke="none" d="m15.11995,1.07229c-0.05952,-0.13392 -0.16368,-0.24552 -0.30504,-0.30504c-0.06696,-0.02232 -0.13392,-0.0372 -0.20832,-0.0372l-2.97597,0c-0.30504,0 -0.55799,0.25296 -0.55799,0.55799c0,0.30504 0.25296,0.55799 0.55799,0.55799l1.62934,0l-3.51164,3.51164c-0.21576,0.21576 -0.21576,0.57287 0,0.78863c0.1116,0.1116 0.25296,0.16368 0.39432,0.16368c0.14136,0 0.28272,-0.05208 0.39432,-0.16368l3.51164,-3.51164l0,1.62934c0,0.30504 0.25296,0.55799 0.55799,0.55799c0.30504,0 0.55799,-0.25296 0.55799,-0.55799l0,-2.97597c0,-0.0744 -0.01488,-0.14136 -0.04464,-0.21576z"/>
 <path stroke="none" d="m5.28333,9.82268l-3.51164,3.51164l0,-1.62934c0,-0.30504 -0.25296,-0.55799 -0.55799,-0.55799c-0.30504,0 -0.55799,0.25296 -0.55799,0.55799l0,2.97597c0,0.0744 0.01488,0.14136 0.04464,0.21576c0.05952,0.13392 0.16368,0.24552 0.30504,0.30504c0.05952,0.02232 0.13392,0.0372 0.20832,0.0372l2.97597,0c0.30504,0 0.55799,-0.25296 0.55799,-0.55799c0,-0.30504 -0.25296,-0.55799 -0.55799,-0.55799l-1.62934,0l3.51164,-3.51164c0.21576,-0.21576 0.21576,-0.57287 0,-0.78863c-0.21576,-0.21576 -0.57287,-0.21576 -0.78863,0z"/>
 <path stroke="none" d="m0.6185,10.02995c-0.2604,0 -0.49103,-0.186 -0.54311,-0.4464c-0.10416,-0.52079 -0.16368,-1.06391 -0.16368,-1.59958c0,-4.41187 3.58604,-7.99792 7.99792,-7.99792c0.54311,0 1.08623,0.05208 1.61446,0.16368c0.30504,0.05952 0.49847,0.35712 0.43896,0.65471c-0.05952,0.30504 -0.36456,0.49103 -0.65471,0.43896c-0.46872,-0.09672 -0.92999,-0.14136 -1.39871,-0.14136c-3.79436,0 -6.88193,3.08757 -6.88193,6.88193c0,0.46128 0.04464,0.92999 0.14136,1.37639c0.05952,0.30504 -0.13392,0.59519 -0.43896,0.65471c-0.0372,0.01488 -0.0744,0.01488 -0.1116,0.01488z"/>
 <path stroke="none" d="m7.91037,15.98063c-0.54311,0 -1.08623,-0.05208 -1.61446,-0.16368c-0.30504,-0.05952 -0.49847,-0.35712 -0.43896,-0.65471c0.05952,-0.30504 0.36456,-0.49103 0.65471,-0.43896c0.45384,0.08928 0.92255,0.14136 1.39127,0.14136c3.79436,0 6.88193,-3.08757 6.88193,-6.88193c0,-0.46128 -0.04464,-0.92255 -0.13392,-1.37639c-0.05952,-0.305 0.13392,-0.59516 0.43896,-0.65468c0.30504,-0.05952 0.59519,0.13392 0.65471,0.43896c0.10416,0.52076 0.15624,1.05643 0.15624,1.59211c0.00744,4.41187 -3.5786,7.99792 -7.99048,7.99792z"/>
</svg>