<svg width="16" height="16" xmlns="http://www.w3.org/2000/svg">
 <path stroke="none" d="m9.80777,9.02818l0.11411,0.10792l4.29933,4.32751l0.0076,-0.05717l0.00479,-0.09427l0,-4.05878c0,-0.30553 0.2477,-0.55323 0.55323,-0.55323c0.28008,0 0.51155,0.20816 0.54821,0.47821l0.00502,0.07502l0,4.05878c0,1.0788 -0.84216,1.96094 -1.90495,2.02474l-0.12355,0.00376l-4.05701,0c-0.30553,0 -0.55323,-0.2477 -0.55323,-0.55323c0,-0.28008 0.20816,-0.51155 0.47814,-0.54821l0.07509,-0.00502l4.05701,0c0.03644,0 0.07244,-0.00214 0.10777,-0.00627l-4.27985,-4.30943c-0.61726,-0.61733 -1.59979,-0.64669 -2.25186,-0.08822l-0.09523,0.08822l-4.32732,4.30338l0.05646,0.00752l0.09428,0.00479l4.05701,0l0.07509,0.00502c0.26998,0.03666 0.47814,0.26813 0.47814,0.54821c0,0.28008 -0.20816,0.51155 -0.47814,0.54814l-0.07509,0.00509l-4.05701,0l-0.12357,-0.00376c-1.02026,-0.0613 -1.83721,-0.87668 -1.90093,-1.89632l-0.00401,-0.12842l0,-4.05878l0.00505,-0.07502c0.03663,-0.27005 0.26809,-0.47821 0.54818,-0.47821c0.28008,0 0.51155,0.20816 0.54818,0.47821l0.00505,0.07502l0,4.05878l0.00664,0.10814l4.30959,-4.28421c1.04301,-1.04302 2.7117,-1.07894 3.7978,-0.10792zm1.12379,-5.48193c0.8176,0 1.48037,0.66278 1.48037,1.48037c0,0.81758 -0.66277,1.48038 -1.48037,1.48038c-0.81753,0 -1.48037,-0.6628 -1.48037,-1.48038c0,-0.81759 0.66284,-1.48037 1.48037,-1.48037zm-4.25876,-2.96011c0.30553,0 0.55323,0.24769 0.55323,0.55323c0,0.28008 -0.20816,0.51155 -0.47814,0.54818l-0.07509,0.00505l-4.05701,0c-0.47741,0 -0.87007,0.36283 -0.91729,0.82778l-0.00476,0.09427l0,4.05877c0,0.30553 -0.24769,0.55323 -0.55323,0.55323c-0.28008,0 -0.51155,-0.20816 -0.54818,-0.47821l-0.00505,-0.07502l0,-4.05877c0,-1.07882 0.84216,-1.96094 1.90494,-2.0248l0.12357,-0.0037l4.05701,0zm6.63875,0l0.12355,0.0037c1.0203,0.06131 1.83724,0.87673 1.90097,1.89633l0.00398,0.12847l0,4.05877l-0.00502,0.07502c-0.03666,0.27005 -0.26813,0.47821 -0.54821,0.47821c-0.28008,0 -0.51155,-0.20816 -0.54821,-0.47821l-0.00502,-0.07502l0,-4.05877l-0.00479,-0.09427c-0.04404,-0.43395 -0.38903,-0.77895 -0.82298,-0.82301l-0.09427,-0.00477l-4.05701,0l-0.07509,-0.00505c-0.26998,-0.03664 -0.47814,-0.2681 -0.47814,-0.54818c0,-0.28007 0.20816,-0.51155 0.47814,-0.54818l0.07509,-0.00505l4.05701,0zm-2.37999,4.06657c-0.20647,0 -0.37391,0.16741 -0.37391,0.37392c0,0.2065 0.16744,0.37391 0.37391,0.37391c0.20654,0 0.37391,-0.16741 0.37391,-0.37391c0,-0.20651 -0.16737,-0.37392 -0.37391,-0.37392z"/>
</svg>