<svg height="16" width="16" xmlns="http://www.w3.org/2000/svg" stroke="currentColor" viewBox="0 0 512 512">
<path d="M227.746,480.465c0,7.799,3.162,14.92,8.25,20.006c5.084,5.084,12.205,8.25,20.004,8.25
		c15.707,0,28.252-12.66,28.252-28.256v-62.772h-56.506V480.465z"/>
	<path d="M0,266.902c16.392-6.127,36.713-9.74,58.709-9.74c35.981,0,67.455,9.74,84.688,24.195
		c7.227-86.468,28.49-173.302,63.215-216.562C103.488,84.486,21.84,164.617,0,266.902z"/>
	<path d="M277.394,24.658c0-11.715-9.576-21.379-21.379-21.379c-11.715,0-21.379,9.664-21.379,21.379V73.06
		c-28.219,26.082-56.268,101.08-65.162,209.942c13.426-12.314,37.113-21.465,65.162-24.543v139.133h42.758V258.459
		c28.137,3.164,51.824,12.229,65.25,24.629c-8.98-108.864-37.029-183.946-65.25-210.028V24.658z"/>
	<path d="M305.543,64.795c34.619,43.26,55.883,130.094,63.112,216.51c17.23-14.455,48.654-24.143,84.635-24.143
		c21.943,0,42.316,3.613,58.711,9.74C490.158,164.668,408.562,84.537,305.543,64.795z"/>
</svg>