<svg width="205" height="163" xmlns="http://www.w3.org/2000/svg" xmlns:xlink="http://www.w3.org/1999/xlink" preserveAspectRatio="xMidYMid meet">
 <defs>
  <clipPath id="a">
   <circle id="svg_1" r="52" cy="60.001" cx="104.83"/>
  </clipPath>
  <path d="m22.56,180.351l0,-24.6l8.92,0c8.49,0 12.35,6.24 12.35,12.04c0,6.25 -3.82,12.56 -12.35,12.56l-8.92,0zm2.84,-2.83l6.08,0c6.57,0 9.52,-4.9 9.52,-9.77c0,-4.46 -2.98,-9.27 -9.52,-9.27l-6.08,0l0,19.04zm29.66,3.12c-4.56,0 -7.5,-3.14 -7.5,-8l0,-9.55l2.65,0l0,9.52c0,3.5 2.04,5.58 5.45,5.58c3.2,-0.03 5.51,-2.48 5.51,-5.83l0,-9.27l2.66,0l0,17.26l-2.43,0l-0.15,-3l-0.41,0.52a7.2,7.2 0 0 1 -5.8,2.77l0.02,0zm21.73,0.03c-4.5,0 -9.02,-2.77 -9.02,-8.95c0,-5.35 3.62,-8.94 9.02,-8.94c2.36,0 4.43,0.84 6.16,2.5l-1.67,1.73a6.53,6.53 0 0 0 -4.42,-1.72c-3.77,0 -6.4,2.65 -6.4,6.43c0,4.45 3.2,6.44 6.36,6.44c1.78,0 3.4,-0.63 4.58,-1.79l1.73,1.74a8.8,8.8 0 0 1 -6.34,2.56zm20.9,-0.32l-8.44,-8.43l0,8.43l-2.62,0l0,-24.56l2.62,0l0,14.86l7.37,-7.56l3.44,0l-8.14,8.14l9.13,9.09l0,0.03l-3.36,0z" id="d"/>
  <linearGradient y2="0.50017" x2="1" y1="0.50017" x1="0" id="b">
   <stop stop-color="#6176b9" offset="0.01"/>
   <stop stop-color="#394a9f" offset="0.69"/>
  </linearGradient>
  <linearGradient y2="0.50026" x2="1" y1="0.50026" x1="0" id="c">
   <stop stop-color="#6176b9" offset="0.01"/>
   <stop stop-color="#394a9f" offset="0.69"/>
  </linearGradient>
 </defs>
 <g>
  <title>Layer 1</title>
  <g id="svg_23" fill="#4C4C4C">
   <use id="svg_20" x="-22.5" y="-18.969" xlink:href="#d"/>
   <use id="svg_21" y="-18.969" x="59.2" xlink:href="#d"/>
   <path id="svg_22" d="m174.22,162.061c-9.46,0 -12.81,-6.75 -12.81,-12.52c-0.02,-3.77 1.25,-7.13 3.58,-9.47c2.3,-2.3 5.47,-3.52 9.2,-3.52c3.36,0 6.53,1.27 8.93,3.6l-1.6,1.87a11.12,11.12 0 0 0 -7.33,-2.85c-6.86,0 -9.98,5.37 -9.98,10.36c0,4.91 3.1,9.88 10.05,9.88c2.53,0 4.88,-0.87 6.81,-2.52l0.1,-0.07l0,-6.07l-7.74,0l0,-2.48l10.28,0l0,9.65a12.47,12.47 0 0 1 -9.5,4.14l0.01,0zm21.73,-0.14c-5.18,0 -8.95,-3.74 -8.95,-8.91c0,-5.25 3.77,-9.06 8.95,-9.06c5.3,0 8.99,3.73 8.99,9.06c0,5.17 -3.78,8.91 -8.99,8.91zm0.04,-15.56c-3.73,0 -6.33,2.74 -6.33,6.65c0,3.73 2.65,6.43 6.3,6.43c3.7,0 6.32,-2.64 6.35,-6.43c0,-3.85 -2.66,-6.65 -6.32,-6.65z"/>
  </g>
  <g id="svg_24">
   <circle id="svg_2" fill="#DE5833" r="57.5" cy="60" cx="104.83" stroke-width="5" stroke="#DE5833"/>
   <g id="svg_3">
    <g id="svg_4" clip-path="url(#a)">
     <path id="svg_5" fill="#D5D7D8" d="m115.96,113.561c-2.51,-4.88 -4.91,-9.37 -6.4,-12.34c-3.96,-7.93 -7.94,-19.11 -6.13,-26.32c0.33,-1.31 -3.73,-48.51 -6.6,-50.03c-3.19,-1.7 -10.12,-3.94 -13.71,-4.54c-2.5,-0.4 -3.07,0.3 -4.12,0.46c0.99,0.1 5.7,2.42 6.61,2.55c-0.91,0.62 -3.6,-0.02 -5.32,0.74c-0.87,0.4 -1.52,1.88 -1.5,2.58c4.9,-0.5 12.56,-0.01 17.1,2c-3.61,0.41 -9.09,0.87 -11.45,2.11c-6.84,3.6 -9.86,12.03 -8.06,22.13c1.79,10.08 9.72,46.85 12.25,59.13c2.52,12.27 31.51,9.7 27.32,1.53l0.01,0z"/>
     <path id="svg_6" fill="#FFF" d="m119.6,114.751c-3.01,-5.97 -6.08,-11.68 -7.86,-15.22c-3.97,-7.94 -7.93,-19.11 -6.13,-26.32c0.34,-1.31 0.34,-6.67 1.43,-7.38c8.41,-5.5 7.81,-0.19 11.19,-2.65c1.74,-1.27 3.13,-2.8 3.74,-4.9c2.16,-7.58 -3,-20.77 -8.78,-26.54c-1.88,-1.88 -4.76,-3.06 -8.02,-3.68c-1.25,-1.72 -3.27,-3.36 -6.13,-4.89a28.86,28.86 0 0 0 -18.27,-2.88c1,0.1 3.26,2.14 4.17,2.27c-1.38,0.94 -5.05,0.82 -5.03,2.9c4.92,-0.5 10.3,0.28 14.84,2.3c-3.6,0.4 -6.96,1.3 -9.31,2.54c-6.86,3.6 -8.66,10.81 -6.86,20.91c1.81,10.1 9.74,46.88 12.26,59.13c2.53,12.26 32.5,11.8 28.77,4.41l-0.01,0z"/>
    </g>
    <circle id="svg_7" fill="#2D4F8E" cy="51.721" cx="90.3" r="3.79"/>
    <circle id="svg_8" fill="#FFF" cy="50.461" cx="91.99" r="0.98"/>
    <circle id="svg_9" fill="#2D4F8E" cy="49.471" cx="115.62" r="3.25"/>
    <circle id="svg_10" fill="#FFF" cy="48.391" cx="117.07" r="0.84"/>
    <path id="svg_11" d="m91.39,40.751s-2.86,-1.3 -5.63,0.45c-2.77,1.74 -2.67,3.52 -2.67,3.52s-1.47,-3.28 2.45,-4.89c3.93,-1.6 5.85,0.92 5.85,0.92z" fill="url(#b)"/>
    <path id="svg_12" d="m117.58,40.491s-2.05,-1.17 -3.65,-1.15c-3.27,0.04 -4.16,1.48 -4.16,1.48s0.55,-3.44 4.73,-2.75a4.2,4.2 0 0 1 3.08,2.42z" fill="url(#c)"/>
    <path id="svg_13" d="m101.9,66.331c0.38,-2.3 6.3,-6.63 10.5,-6.9c4.2,-0.26 5.5,-0.2 9,-1.04c3.51,-0.83 12.54,-3.08 15.03,-4.24c2.5,-1.15 13.1,0.57 5.63,4.74c-3.23,1.81 -11.94,5.13 -18.17,6.99c-6.22,1.86 -9.99,-1.78 -12.06,1.28c-1.64,2.43 -0.33,5.76 7.1,6.45c10.04,0.93 19.66,-4.52 20.72,-1.62c1.06,2.9 -8.62,6.5 -14.52,6.62c-5.9,0.11 -17.78,-3.9 -19.56,-5.14c-1.79,-1.23 -4.16,-4.13 -3.67,-7.14z" fill="#FDD20A"/>
    <g id="svg_14">
     <path id="svg_15" d="m106.44,96.631s-14.1,-7.53 -14.33,-4.48c-0.24,3.06 0,15.51 1.64,16.45c1.65,0.94 13.4,-6.1 13.4,-6.1l-0.7,-5.88l-0.01,0.01zm5.4,-0.48s9.64,-7.29 11.76,-6.82c2.11,0.48 2.58,15.51 0.7,16.23c-1.88,0.7 -12.9,-3.81 -12.9,-3.81l0.45,-5.6l-0.01,0z" fill="#65BC46"/>
     <path id="svg_16" d="m103.03,97.421c0,4.93 -0.71,7.05 1.4,7.52c2.12,0.47 6.11,0 7.53,-0.94c1.4,-0.94 0.23,-7.28 -0.24,-8.46c-0.47,-1.18 -8.7,-0.24 -8.7,1.88l0.01,0z" fill="#43A244"/>
     <path id="svg_17" d="m103.93,96.331c0,4.93 -0.71,7.04 1.4,7.51c2.11,0.48 6.1,0 7.52,-0.94c1.41,-0.94 0.24,-7.28 -0.23,-8.46c-0.47,-1.18 -8.7,-0.23 -8.7,1.88l0.01,0.01z" fill="#65BC46"/>
    </g>
   </g>
   <circle id="svg_18" stroke-width="3.85" stroke="#FFF" fill="none" r="53.1" cy="60.03" cx="104.8"/>
  </g>
 </g>
</svg>