<svg width="205" height="44" xmlns="http://www.w3.org/2000/svg" fill="#315efb">
 <path d="m180.94682,43.4509l6.50505,0l15.90155,-43.35462l-6.50505,0l-15.90186,43.35462l0.00031,0zm-14.89107,-15.17412c-4.19177,0 -6.50443,-3.46837 -6.50443,-6.93674s2.31266,-6.93674 6.50443,-6.93674c4.04746,0 6.35981,3.03482 6.35981,6.93674c0,3.7573 -2.16804,6.93674 -6.35981,6.93674zm-6.36043,-15.75228l0,-2.45666l-6.07058,0l0,33.38306l6.21519,0l0,-13.00639c0.72278,0.72247 3.18006,2.7459 6.93829,2.7459c5.78165,0 11.12975,-4.33546 11.12975,-11.85037c0.14462,-7.94845 -5.78165,-11.85037 -11.12975,-11.85037c-4.04746,0 -6.36012,2.16773 -7.08291,3.03482zm-20.67117,1.73418c4.19208,0 4.91487,3.32406 5.05948,4.6247l-10.55282,0c0.14462,-1.58988 1.7348,-4.6247 5.49334,-4.6247zm-11.70915,7.08136c0,6.64781 4.77056,11.85037 11.99839,11.85037c7.22783,0 10.2639,-5.05825 10.2639,-5.05825l-4.62594,-3.03482s-1.59019,3.17944 -5.63796,3.17944c-4.19208,0 -5.92689,-3.61299 -5.92689,-4.91363l16.62433,0s0.14462,-1.0114 0.14462,-1.30064l0,-0.72247c0,-6.79212 -4.04746,-11.85037 -10.98637,-11.85037c-7.08353,0 -11.85408,5.20255 -11.85408,11.85037zm-0.43355,11.2722l-8.23986,-22.5444l-6.50536,0l-8.38447,22.5444l6.79429,0l4.77056,-14.30702l0.14462,0l4.77056,14.30702l6.64967,0zm-35.2727,-4.33546c-4.19208,0 -5.92689,-3.32375 -5.92689,-6.50319s1.7348,-6.06965 5.9272,-6.06965c4.19208,0 5.63765,3.61299 5.63765,6.21427s-1.44557,6.35857 -5.63796,6.35857zm-5.2041,-16.33014c0.14462,-0.72278 0.8674,-6.79243 8.96264,-6.79243l5.05979,0l1.87911,-5.05794l-6.79429,0c-8.96264,0 -15.90155,4.19084 -15.90155,18.78711c0,7.94814 3.46961,14.45133 11.85377,14.45133c7.95093,0 11.9987,-5.78041 11.9987,-11.56113c0,-8.382 -6.21612,-11.70575 -11.27561,-11.70575c-3.03575,0 -5.20441,1.44526 -5.78258,1.8788zm-31.65847,-1.73418l-0.14462,-0.14462l-5.34872,0l0,22.5444l6.21612,0l0,-13.151l6.0715,7.65952l0.14462,0.28893l1.59019,0l6.21581,-7.94845l0,13.151l6.21612,0l0,-22.5444l-5.34872,0l-7.806,9.53802l-7.80631,-9.3934zm-21.5395,18.20894c-3.18037,0 -3.4693,-1.8788 -3.4693,-2.60128c0,-1.73418 1.44557,-2.7459 5.05948,-3.17944c1.01202,-0.14462 2.02404,-0.14462 3.03575,-0.14462l0.43355,0l0,0.72278c0,3.03482 -1.73449,5.20255 -5.05948,5.20255zm10.84206,-7.65952l0,-1.30064c-0.28924,-7.08105 -3.32499,-9.97156 -9.68542,-9.97156c-4.33701,0 -7.22783,1.73418 -8.23986,2.45697l1.73449,4.62439s2.60221,-2.31235 5.9272,-2.31235c4.77025,0 4.19208,3.90192 4.19208,3.90192c-1.59019,0 -14.45567,-0.72247 -14.45567,7.65952c0,4.62439 3.90254,7.22567 8.09493,7.22567c3.75854,0 5.9272,-1.8788 6.50536,-2.60128c0,0.14462 0.14462,2.16773 0.14462,2.16773l5.78227,0c0.28924,0 0,-1.8788 0,-5.05794l0,-6.79243zm-33.68251,-5.05794l-3.18006,0l0,-10.26049l3.18037,0c2.45759,0.14431 6.0715,1.44495 6.0715,5.20255c-0.00031,3.7573 -3.61423,5.05794 -6.0715,5.05794l-0.00031,0zm-9.5408,-15.60766l0,32.66058l6.50505,0l0,-11.56144l3.46961,0c6.64967,0 12.14301,-3.46837 12.14301,-10.54942c0,-6.93674 -5.49334,-10.54973 -11.99839,-10.54973l-10.11928,0z"/>
</svg>