<svg width="205" height="44" xmlns="http://www.w3.org/2000/svg" fill="#315efb">
 <path d="m145.08604,11.81556c-6.97771,0 -11.62962,5.03312 -11.62962,11.50462c0,6.61516 4.65191,11.50462 11.77514,11.50462c7.12354,0 10.03079,-4.88947 10.03079,-4.88947l-4.5067,-2.87616s-1.59914,3.01981 -5.52409,3.01981c-4.07015,0 -5.81481,-3.45139 -5.81481,-4.7455l16.28153,0s0.14552,-1.00681 0.14552,-1.29443l0,-0.71888c0,-6.61516 -4.07015,-11.50462 -10.75776,-11.50462zm-5.52409,8.91608c0.14552,-1.58173 1.74435,-4.45789 5.37888,-4.45789c4.07015,0 4.79743,3.16377 4.94264,4.45789l-10.32151,0zm36.8036,-8.18228c-1.31401,-0.5771 -2.62803,-0.72137 -3.94204,-0.72137c-3.35811,-0.14459 -5.25637,1.01054 -6.71621,2.16505l-0.43811,-2.16536l-5.69417,0l0,22.37525l5.98614,0l0,-11.69274c0.29228,-3.46445 2.33606,-5.77408 5.69417,-5.77408c1.16819,0 2.19023,0.28855 3.06614,0.5771l2.04409,-4.76354l0,-0.00031zm-52.85908,-9.75095l0,31.09358l6.07413,0l0.14459,-31.09358l-6.21872,0zm70.86693,-2.79842l-15.8313,43.53101l6.39066,0l15.68578,-43.53101l-6.24515,0zm-152.87095,30.33863c-3.23498,0 -3.52912,-1.88116 -3.52912,-2.60471c0,-1.73658 1.61749,-2.74961 5.14661,-3.18367c1.0292,-0.14459 2.05839,-0.14459 3.0879,-0.14459l0.58829,0l0,0.86813c-0.14707,3.03909 -2.20578,5.06514 -5.29368,5.06514m5.14661,3.76232l5.58752,0c0.14738,-0.14459 0,-0.72355 0,-1.59199c0,-0.86813 -0.14676,-1.88116 -0.14676,-3.03878l0,-7.95933c-0.14707,-6.80141 -3.0879,-9.6956 -9.41109,-9.6956c-4.26448,0 -7.05824,1.59199 -8.08744,2.31554l1.61749,4.34129c0.58798,-0.43407 2.94083,-2.17064 5.88166,-2.17064c1.6178,0 2.79407,0.43407 3.52912,1.3022c1.0292,1.15792 0.73536,2.60502 0.73536,2.74961l0,0.1449l-1.17627,0c-5.44075,0 -9.26402,1.01272 -11.32273,3.03878c-1.17627,1.15761 -1.76456,2.60471 -1.76456,4.34129c0,4.63077 3.97034,6.94631 7.94068,6.94631c4.26417,0 6.32288,-2.46012 6.46995,-2.46012l0.14707,-0.14459l0,0.28917c-0.14707,-0.14459 -0.14707,0.86844 0,1.59199m33.5338,-16.66896c1.88614,0 3.19207,1.59013 3.19207,3.90349l0,12.86714l6.23955,0l0,-13.01173c0,-5.92768 -3.48248,-9.68658 -8.7062,-9.68658c-1.88645,0 -4.6432,0.57834 -6.81975,3.03598l-0.14521,0l-0.14521,-0.14459c-1.88614,-2.02388 -3.62738,-2.89139 -5.51382,-2.89139c-2.32176,0 -3.91779,0.72293 -5.36893,2.31336l-0.1449,0.14427l-0.14521,-2.02419l-5.65903,0l0,22.26487l6.23955,0l0,-11.85505c0,-3.18087 1.30593,-5.06017 3.62738,-5.06017c2.03165,0 3.48248,1.73502 3.48248,4.19266l0,12.72256l6.23955,0l0,-12.2888c-0.14521,-2.02419 0.87062,-4.48183 3.62769,-4.48183m26.77126,-0.4322c3.34038,0 5.95442,2.89823 5.95442,6.52126s-2.03321,5.94167 -5.51849,6.23115c-3.6308,0 -6.68046,-2.75303 -6.68046,-5.94136c0.14521,-4.20261 2.46883,-6.81105 6.24452,-6.81105zm-6.09932,15.07106c0.43531,0.435 2.46883,2.75365 6.97087,2.75365c3.19487,0 6.24483,-1.30438 8.27804,-3.33323c2.0329,-2.02823 3.04966,-4.78219 3.04966,-8.1148c0,-5.65157 -3.9209,-11.73814 -11.18249,-11.73814c-3.9209,0 -6.38973,2.31865 -6.82566,2.75334l-0.29041,0.28979l0,-11.88334l-5.95442,0l0,31.4468l5.5188,0l0.29041,-2.31865l0.14521,0.1449l0,-0.00031zm-71.56187,1.82084l-6.78151,-13.31676c3.75144,-1.44741 6.49296,-4.6317 6.49296,-9.55319c0,-6.80265 -5.33877,-10.71112 -11.83173,-10.71112l-9.95616,0l0,33.58106l6.06014,0l0,-12.448l3.31862,0l5.62732,12.448l7.07037,0m-6.63724,-23.01453c0,3.76326 -3.60748,5.06608 -5.91618,5.06608l-3.60686,0l0,-10.13215l3.46258,0c2.45328,0 5.91618,1.73689 5.91618,5.50045"/>
</svg>