<svg width="205" height="49" xmlns="http://www.w3.org/2000/svg" color="#BEC9DCFF">
    <g transform="matrix(0.85 0 0 0.85 202 65)" fill="currentColor">
        <linearGradient y2="0.50091" x2="0.99313" y1="1.05459" x1="0.02466" spreadMethod="pad" id="__lottie_element_7">
            <stop stop-color="rgb(102,119,251)" offset="0%"/>
            <stop stop-color="rgb(71,170,227)" offset="50%"/>
            <stop stop-color="rgb(41,221,204)" offset="100%"/>
        </linearGradient>
        <path fill="url(#__lottie_element_7)" d="m-124.194,-29.693c-36.328,-5.845 -73.15601,-5.803 -109.48399,0.167c-1.28901,0.209 -2.24401,0.752 -2.82601,1.587c-0.49901,0.71 -0.666,1.67 -0.541,2.672c0.20799,1.002 0.74899,1.878 1.58,2.421c0.374,0.25 0.997,0.543 1.87,0.585c0,0 0.291,0 0.291,0c0.291,0 0.623,-0.042 0.95599,-0.084c35.49701,-7.223 71.74301,-8.642 107.73801,-4.258c0.998,0.125 1.663,0.041 2.079,-0.167c0.332,-0.167 0.54,-0.46 0.623,-0.919c0.083,-0.543 -0.041,-0.918 -0.332,-1.21c-0.333,-0.334 -0.956,-0.627 -1.954,-0.794z"/>
        <path d="m-194.52299,-38.376c0.83099,0 1.58,-0.042 2.32798,-0.167c0.707,-0.083 1.45401,-0.293 2.16101,-0.585c0,0 0,-5.97 0,-5.97c-0.499,0.083 -0.95601,0.168 -1.37201,0.251c-0.37399,0.042 -0.789,0.083 -1.20498,0.083c-0.707,0 -1.371,-0.126 -1.99501,-0.376c-0.623,-0.25 -1.123,-0.71 -1.497,-1.336c-0.37401,-0.626 -0.582,-1.461 -0.582,-2.463c0,0 0,-10.229 0,-10.229c0,0 6.651,0 6.651,0c0,0 0,-5.844 0,-5.844c0,0 -6.651,0 -6.651,0c0,0 0,-8.629 0,-8.629c0,0 -7.731,2.533 -7.731,2.533c0,0 0,6.137 0,6.137c0,0 0,5.845 0,5.845c0,0 0,10.312 0,10.312c0,3.256 0.832,5.845 2.536,7.682c1.70401,1.837 4.156,2.756 7.35701,2.756z" />
        <path d="m-196.685,-73.654c0,0 0,0.013 0,0.013c0,0 0.04199,-0.013 0.04199,-0.013c0,0 -0.04199,0 -0.04199,0z" />
        <path d="m-153.62199,-57.498c0,0 0,18.704 0,18.704c0,0 7.77198,0 7.77198,0c0,0 0,-13.694 0,-13.694c0,-1.294 0.25,-2.422 0.74901,-3.382c0.49899,-0.96 1.205,-1.669 2.11901,-2.212c0.914,-0.501 2.07798,-0.794 3.44999,-0.794c0.831,0 1.663,0.126 2.49401,0.376c0,0 0,-6.972 0,-6.972c-0.41501,-0.083 -0.87301,-0.125 -1.41301,-0.125c-1.995,0 -3.782,0.584 -5.32,1.795c-1.08101,0.835 -1.871,1.962 -2.41101,3.34c0,0 -0.541,-4.551 -0.541,-4.551c0,0 -7.31498,0 -7.31498,0c0.166,1.252 0.28999,2.506 0.332,3.758c0.04199,1.252 0.084,2.505 0.084,3.757z" />
        <path d="m-217.8,-45.766c-1.247,0.751 -3.034,1.127 -5.362,1.127c-2.161,0 -4.198,-0.292 -6.151,-0.918c-1.954,-0.626 -3.82399,-1.587 -5.653,-2.839c0,0 -2.61901,5.803 -2.61901,5.803c1.12201,0.877 2.45201,1.67 3.99001,2.296c1.53799,0.626 3.201,1.127 4.94701,1.461c1.746,0.334 3.57398,0.501 5.40299,0.501c3.20099,0 5.903,-0.459 8.189,-1.377c2.245,-0.918 3.99001,-2.213 5.19501,-3.883c1.20498,-1.67 1.78799,-3.674 1.78799,-5.97c0,-1.461 -0.25,-2.714 -0.79001,-3.841c-0.457,-1.085 -1.24699,-2.088 -2.32798,-2.923c-1.08101,-0.835 -2.45202,-1.586 -4.15601,-2.254c-1.66299,-0.668 -3.658,-1.211 -5.944,-1.712c-1.954,-0.459 -3.492,-0.877 -4.614,-1.336c-1.12199,-0.417 -1.912,-0.919 -2.41099,-1.461c-0.49901,-0.543 -0.707,-1.211 -0.707,-2.004c0,-1.461 0.62399,-2.588 1.871,-3.423c1.24699,-0.835 2.90999,-1.253 4.98799,-1.253c1.86999,0 3.658,0.293 5.44501,0.919c1.78698,0.626 3.49099,1.587 5.15399,2.839c0,0 2.57699,-5.804 2.57699,-5.804c-0.95599,-0.877 -2.16099,-1.67 -3.53299,-2.254c-1.41301,-0.626 -2.951,-1.085 -4.61399,-1.461c-1.66301,-0.334 -3.36602,-0.501 -5.112,-0.501c-2.91001,0 -5.44501,0.501 -7.64801,1.503c-2.161,1.002 -3.866,2.379 -5.113,4.091c-1.205,1.754 -1.82901,3.674 -1.82901,5.845c0,1.503 0.25,2.839 0.70701,4.008c0.499,1.169 1.247,2.171 2.28601,3.006c1.039,0.877 2.40998,1.628 4.07299,2.254c1.663,0.668 3.7,1.211 6.069,1.712c1.87,0.417 3.409,0.836 4.53099,1.253c1.12201,0.417 1.95301,0.877 2.45202,1.461c0.49899,0.543 0.78999,1.211 0.78999,2.004c0,1.336 -0.62399,2.38 -1.871,3.131z" />
        <path d="m-181.638,-40.005c1.746,1.085 3.741,1.67 6.02701,1.67c2.07799,0 3.94899,-0.501 5.56999,-1.503c1.164,-0.71 2.036,-1.67 2.66,-2.797c0,0 0,3.883 0,3.883c0,0 7.648,0 7.648,0c0,0 0,-26.219 0,-26.219c0,0 -7.648,0 -7.648,0c0,0 0,3.674 0,3.674c0,0 -0.041,0 -0.041,0c-0.623,-1.127 -1.49701,-2.046 -2.66099,-2.797c-1.621,-1.044 -3.44901,-1.545 -5.569,-1.545c-2.24501,0 -4.24001,0.585 -5.98601,1.712c-1.746,1.169 -3.075,2.756 -4.073,4.843c-0.99699,2.087 -1.455,4.466 -1.455,7.222c0,2.714 0.49899,5.094 1.455,7.139c0.956,2.046 2.327,3.591 4.073,4.718zm3.783,-17.576c1.081,-1.378 2.577,-2.046 4.447,-2.046c1.87001,0 3.367,0.668 4.406,2.004c1.039,1.336 1.58,3.215 1.58,5.72c0,2.421 -0.541,4.3 -1.58,5.594c-1.039,1.294 -2.494,1.962 -4.406,1.962c-1.954,0 -3.45,-0.626 -4.489,-1.92c-1.039,-1.294 -1.579,-3.174 -1.579,-5.595c0,-2.463 0.54,-4.341 1.621,-5.719z" />
        <path d="m-125.524,-73.641c0,0 -7.731,2.533 -7.731,2.533c0,0 0,6.137 0,6.137c0,0 0,5.845 0,5.845c0,0 0,10.312 0,10.312c0,3.256 0.831,5.845 2.535,7.682c1.704,1.837 4.157,2.756 7.357,2.756c0.832,0 1.58,-0.042 2.328,-0.167c0.707,-0.083 1.455,-0.293 2.161,-0.585c0,0 0,-5.97 0,-5.97c-0.498,0.083 -0.956,0.168 -1.371,0.251c-0.374,0.042 -0.79,0.083 -1.206,0.083c-0.706,0 -1.371,-0.126 -1.995,-0.376c-0.623,-0.25 -1.122,-0.71 -1.496,-1.336c-0.374,-0.626 -0.582,-1.461 -0.582,-2.463c0,0 0,-10.229 0,-10.229c0,0 6.65,0 6.65,0c0,0 0,-5.844 0,-5.844c0,0 -6.65,0 -6.65,0c0,0 0,-8.629 0,-8.629z" />
        <path d="m2.415,-52.488c0,-2.714 -0.499,-5.052 -1.455,-7.056c-0.956,-2.004 -2.327,-3.507 -4.115,-4.592c-1.787,-1.085 -3.907,-1.628 -6.318,-1.628c-2.535,0 -4.738,0.585 -6.65,1.712c-1.912,1.169 -3.409,2.755 -4.489,4.843c-1.081,2.046 -1.663,4.425 -1.663,7.139c0,2.797 0.582,5.218 1.704,7.222c1.122,2.046 2.744,3.591 4.863,4.718c2.12,1.085 4.614,1.67 7.524,1.67c1.87,0 3.699,-0.292 5.486,-0.835c1.829,-0.584 3.367,-1.336 4.614,-2.338c0,0 -2.037,-5.26 -2.037,-5.26c-1.122,0.835 -2.369,1.461 -3.699,1.92c-1.33,0.459 -2.702,0.668 -4.073,0.668c-2.37,0 -4.115,-0.668 -5.279,-1.962c-0.748,-0.877 -1.247,-2.087 -1.497,-3.632c0,0 17.001,0 17.001,0c0,0 0.083,-2.589 0.083,-2.589zm-17.084,-2.713c0.25,-1.294 0.666,-2.297 1.247,-3.132c0.998,-1.294 2.37,-1.92 4.157,-1.92c1.663,0 2.91,0.543 3.783,1.67c0.665,0.835 1.039,1.963 1.205,3.382c0,0 -10.392,0 -10.392,0z" />
        <path d="m-33.706,-61.255c-0.623,-1.127 -1.538,-2.046 -2.701,-2.798c-1.621,-1.044 -3.492,-1.586 -5.612,-1.586c-2.244,0 -4.281,0.543 -6.027,1.67c-1.746,1.086 -3.117,2.63 -4.115,4.551c-0.997,1.962 -1.496,4.217 -1.496,6.847c0,2.63 0.499,4.926 1.496,6.888c0.998,1.962 2.369,3.466 4.115,4.551c1.746,1.085 3.741,1.628 6.027,1.628c1.413,0 2.702,-0.25 3.949,-0.793c1.205,-0.543 2.244,-1.211 3.117,-2.088c0.499,-0.501 0.915,-1.043 1.289,-1.586c0,0 0,4.592 0,4.592c0,2.129 -0.54,3.716 -1.663,4.76c-1.08,1.044 -2.743,1.544 -4.988,1.544c-1.538,0 -3.117,-0.208 -4.697,-0.584c-1.579,-0.376 -3.117,-0.96 -4.696,-1.753c0,0 -1.164,5.803 -1.164,5.803c3.076,1.628 6.692,2.421 10.807,2.421c4.614,0 8.147,-1.085 10.516,-3.256c2.369,-2.171 3.575,-5.344 3.575,-9.561c0,0 0,-24.966 0,-24.966c0,0 -7.732,0 -7.732,0c0,0 0,3.716 0,3.716zm-1.621,13.902c-1.08,1.253 -2.577,1.879 -4.447,1.879c-1.871,0 -3.367,-0.627 -4.489,-1.921c-1.123,-1.252 -1.663,-3.005 -1.663,-5.218c0,-2.213 0.54,-3.925 1.663,-5.177c1.08,-1.252 2.618,-1.879 4.53,-1.879c1.912,0 3.409,0.627 4.489,1.921c1.081,1.252 1.58,3.006 1.58,5.177c-0.042,2.213 -0.582,3.966 -1.663,5.218z" />
        <path d="m-125.524,-73.654c0,0 0,0.013 0,0.013c0,0 0.041,-0.013 0.041,-0.013c0,0 -0.041,0 -0.041,0z" />
        <path d="m-92.978,-63.927c-1.746,-1.169 -3.741,-1.712 -5.986,-1.712c-2.119,0 -3.99,0.501 -5.569,1.545c-1.414,0.918 -2.37,2.129 -2.952,3.59c0,0 -0.498,-4.467 -0.498,-4.467c0,0 -7.316,0 -7.316,0c0.166,1.252 0.291,2.506 0.333,3.758c0,0 0,0 0,0c0.041,1.252 0.083,2.505 0.083,3.757c0,0 0,30.268 0,30.268c0,0 7.773,0 7.773,0c0,0 0,-15.447 0,-15.447c0.623,1.127 1.454,2.045 2.577,2.755c1.579,1.002 3.45,1.503 5.569,1.503c2.245,0 4.24,-0.543 5.986,-1.67c1.746,-1.085 3.076,-2.671 4.073,-4.717c0.998,-2.046 1.497,-4.425 1.497,-7.139c0,-2.714 -0.499,-5.136 -1.497,-7.223c-0.997,-2.046 -2.327,-3.632 -4.073,-4.801zm-3.783,17.66c-1.039,1.294 -2.494,1.92 -4.406,1.92c-1.953,0 -3.45,-0.668 -4.489,-1.962c-1.039,-1.294 -1.538,-3.215 -1.538,-5.678c0,-2.463 0.499,-4.384 1.538,-5.72c1.039,-1.336 2.536,-2.003 4.489,-2.003c1.871,0 3.367,0.709 4.406,2.045c1.04,1.378 1.58,3.298 1.58,5.72c-0.042,2.505 -0.54,4.384 -1.58,5.678z" />
        <path d="m-65.088,-61.297c-0.623,-1.127 -1.496,-2.046 -2.66,-2.797c-1.621,-1.044 -3.45,-1.545 -5.57,-1.545c-2.244,0 -4.239,0.585 -5.985,1.712c-1.746,1.169 -3.076,2.756 -4.074,4.843c-0.997,2.087 -1.454,4.466 -1.454,7.222c0,2.714 0.498,5.094 1.454,7.139c0.956,2.046 2.328,3.591 4.074,4.718c1.746,1.085 3.741,1.67 6.027,1.67c2.078,0 3.949,-0.501 5.57,-1.503c1.164,-0.71 2.036,-1.67 2.66,-2.797c0,0 0,3.883 0,3.883c0,0 7.648,0 7.648,0c0,0 0,-26.219 0,-26.219c0,0 -7.69,0 -7.69,0c0,0 0,3.674 0,3.674zm-1.538,14.988c-1.039,1.294 -2.494,1.962 -4.406,1.962c-1.953,0 -3.45,-0.626 -4.489,-1.92c-1.039,-1.294 -1.579,-3.174 -1.579,-5.595c0,-2.422 0.54,-4.341 1.621,-5.719c1.081,-1.378 2.577,-2.046 4.447,-2.046c1.871,0 3.367,0.668 4.406,2.004c1.04,1.336 1.58,3.215 1.58,5.72c-0.042,2.421 -0.54,4.3 -1.58,5.594z"/>
    </g>
</svg>