<svg width="205" height="62" xmlns="http://www.w3.org/2000/svg">
 <defs>
  <clipPath id="a">
   <path fill="#fff" d="m0,0l487,0l0,144l-487,0l0,-144z" id="svg_1"/>
  </clipPath>
  <linearGradient id="b" x1="0.5" y1="0.999265" x2="0.5" y2="0.001672">
   <stop stop-color="#973BED"/>
   <stop offset="1" stop-color="#007CFF"/>
  </linearGradient>
  <linearGradient id="c" x1="0.496774" y1="0.997391" x2="0.496774" y2="0.000007">
   <stop stop-color="#FFC800"/>
   <stop offset="1" stop-color="#F0F"/>
  </linearGradient>
  <linearGradient id="d" x1="0.5" y1="0.999211" x2="0.5" y2="0.000735">
   <stop stop-color="#00E0ED"/>
   <stop offset="1" stop-color="#00DA72"/>
  </linearGradient>
 </defs>
 <g>
  <title>background</title>
  <rect x="-1" y="-1" width="207" height="64" id="canvas_background" fill="none"/>
 </g>
 <g>
  <title>Layer 1</title>
  <g stroke="null" clip-path="url(#a)" id="svg_2">
   <path stroke="null" d="m28.437624,57.301452a1.685353,1.685353 0 0 0 1.685353,1.685353l5.05606,0a1.685353,1.685353 0 0 0 1.685353,-1.685353l0,-27.386993a28.651008,28.651008 0 0 0 24.437624,-26.544316a1.685353,1.685353 0 0 0 -1.685353,-1.685353l-5.05606,0a1.685353,1.685353 0 0 0 -2.106692,1.685353a19.802902,19.802902 0 0 1 -19.802902,18.117549a20.224241,20.224241 0 0 1 -19.802902,-18.117549a1.685353,1.685353 0 0 0 -1.685353,-1.685353l-5.477399,0a1.685353,1.685353 0 0 0 -1.685353,1.685353a28.651008,28.651008 0 0 0 24.437624,26.544316l0,27.386993z" fill="url(#b)" id="svg_3"/>
   <path stroke="null" d="m92.059715,-0.000563a30.336361,30.336361 0 0 0 -29.915023,36.235098a30.336361,30.336361 0 0 0 41.291158,22.330933a30.336361,30.336361 0 0 0 10.11212,-49.717925a30.336361,30.336361 0 0 0 -21.488256,-8.848105zm0,51.824617a21.909594,21.909594 0 0 1 -21.488256,-25.701639a21.488256,21.488256 0 0 1 29.493684,-16.010857a21.909594,21.909594 0 0 1 7.162752,35.392421a21.909594,21.909594 0 0 1 -15.168181,6.320075z" fill="url(#c)" id="svg_4"/>
   <path stroke="null" d="m137.985595,30.335798a19.802902,19.802902 0 0 0 20.224241,19.802902a20.224241,20.224241 0 0 0 19.802902,-19.802902l0,-26.965654a1.685353,1.685353 0 0 1 1.685353,-1.685353l5.477399,0a1.685353,1.685353 0 0 1 1.685353,1.685353l0,26.965654a28.651008,28.651008 0 0 1 -28.651008,28.651008a28.651008,28.651008 0 0 1 -29.072346,-28.651008l0,-26.965654a1.685353,1.685353 0 0 1 1.685353,-1.685353l5.477399,0a1.685353,1.685353 0 0 1 1.685353,1.685353l0,26.965654z" fill="url(#d)" id="svg_5"/>
   <path stroke="null" d="m197.815641,13.482264a4.213383,4.213383 0 0 0 -4.213383,5.05606a4.213383,4.213383 0 0 0 3.370707,3.370707a4.213383,4.213383 0 0 0 5.05606,-4.213383a4.213383,4.213383 0 0 0 -4.213383,-4.213383zm0,6.741414a2.106692,2.106692 0 0 1 -2.106692,-1.685353a2.106692,2.106692 0 0 1 1.685353,-2.949368a2.106692,2.106692 0 0 1 2.949368,2.106692a2.106692,2.106692 0 0 1 -2.52803,2.52803zm2.949368,9.690782a1.264015,1.264015 0 0 0 -1.264015,1.264015a1.264015,1.264015 0 0 0 1.685353,0.842677a1.264015,1.264015 0 0 0 0.842677,-1.264015a1.264015,1.264015 0 0 0 -1.264015,-0.842677zm-0.421338,-7.162752l-0.421338,0.421338a0.421338,0.421338 0 0 0 0,0.842677a2.106692,2.106692 0 0 1 -3.370707,2.949368a2.106692,2.106692 0 0 1 -0.421338,-2.949368a0.421338,0.421338 0 0 0 -0.421338,-0.842677l-0.421338,-0.421338a0.421338,0.421338 0 0 0 -0.842677,0a4.213383,4.213383 0 0 0 3.370707,6.741414a4.213383,4.213383 0 0 0 4.213383,-4.634722l-0.842677,-2.106692a0.421338,0.421338 0 0 0 -0.421338,-0.421338a0.421338,0.421338 0 0 0 -0.421338,0.421338zm-3.370707,-19.381564l4.634722,0a0.421338,0.421338 0 0 0 0.421338,-0.421338l0,-0.842677a0.421338,0.421338 0 0 0 -0.421338,-0.421338l-4.634722,0a3.370707,3.370707 0 0 0 -3.370707,3.792045l1.264015,1.685353a3.370707,3.370707 0 0 0 -0.842677,3.792045a0.421338,0.421338 0 0 0 -0.421338,0.421338l0,0.842677a0.421338,0.421338 0 0 0 0.421338,0.421338l7.58409,0a0.421338,0.421338 0 0 0 0.421338,-0.421338l0,-0.842677a0.421338,0.421338 0 0 0 -0.421338,-0.421338l-4.634722,0a1.264015,1.264015 0 0 1 -1.264015,-1.264015a1.264015,1.264015 0 0 1 1.264015,-1.685353l4.634722,0a0.421338,0.421338 0 0 0 0.421338,-0.421338l0,-0.842677a0.421338,0.421338 0 0 0 -0.421338,-0.421338l-4.634722,0a1.264015,1.264015 0 0 1 -1.264015,-1.264015a1.264015,1.264015 0 0 1 1.264015,-1.685353z" fill="#B8B8BF" id="svg_6"/>
  </g>
 </g>
</svg>