<svg width="16" height="16" viewBox="0 0 20 20" fill="none" xmlns="http://www.w3.org/2000/svg">
<path d="M8.06812 15.4984C3.92571 15.4984 0.507751 12.0991 0.507751 7.95664C0.507751 3.79565 3.92571 0.377695 8.06812 0.377695C12.2291 0.377695 15.6285 3.77708 15.6285 7.95664C15.6285 9.47986 15.1455 10.9102 14.3653 12.0991L18.935 16.7059C19.2508 17.0217 19.4551 17.4303 19.4551 17.8576C19.4551 18.8049 18.805 19.4922 17.8947 19.4922C17.356 19.4922 16.966 19.3065 16.5759 18.8978L12.0248 14.3653C10.8731 15.0712 9.51704 15.4984 8.06812 15.4984ZM8.06812 12.9535C10.8173 12.9535 13.065 10.6873 13.065 7.93807C13.065 5.18884 10.8173 2.94116 8.06812 2.94116C5.3189 2.94116 3.07122 5.20742 3.07122 7.93807C3.07122 10.6873 5.3189 12.9535 8.06812 12.9535Z" fill="white"/>
</svg>
