<svg width="16px" height="17px" viewBox="0 0 16 17" fill="none" xmlns="http://www.w3.org/2000/svg">
<path d="M9.51649 16.6172C9.82636 16.6172 10.089 16.5069 10.3043 16.2863C10.5249 16.071 10.7034 15.7821 10.84 15.4197L15.8109 2.43698C15.8687 2.27417 15.9133 2.12187 15.9449 1.98006C15.9816 1.83826 16 1.70696 16 1.58617C16 1.28681 15.9107 1.05047 15.7322 0.877158C15.5588 0.703844 15.3251 0.617188 15.031 0.617188C14.905 0.617188 14.771 0.632943 14.6292 0.664455C14.4874 0.695966 14.3378 0.743234 14.1802 0.806257L1.15805 5.78509C0.821927 5.91638 0.543575 6.0897 0.322994 6.30503C0.107665 6.52036 0 6.78295 0 7.09282C0 7.4657 0.120794 7.74405 0.362383 7.92787C0.609224 8.11169 0.921713 8.26137 1.29985 8.37691L4.93944 9.50345C5.22829 9.59273 5.47251 9.6295 5.67208 9.61374C5.87691 9.59273 6.08699 9.48507 6.30231 9.29075L14.7474 1.53102C14.8052 1.48376 14.8656 1.46275 14.9286 1.468C14.9916 1.468 15.0441 1.48638 15.0862 1.52315C15.1282 1.57041 15.1492 1.62556 15.1492 1.68858C15.1544 1.7516 15.1308 1.80938 15.0783 1.86189L7.33432 10.3149C7.15575 10.5144 7.05334 10.7219 7.02708 10.9372C7.00082 11.1473 7.02971 11.3941 7.11374 11.6777L8.21664 15.2701C8.33744 15.6587 8.48974 15.9791 8.67356 16.2312C8.86263 16.4885 9.14361 16.6172 9.51649 16.6172Z" fill="white"/>
</svg>
