<svg width="205.00000000000003" height="62" xmlns="http://www.w3.org/2000/svg" fill="none">
 <defs>
  <linearGradient y2="1" x2="0.5" y1="0" x1="0.5" id="paint0_linear_1197_20401">
   <stop stop-color="#3A4BE8"/>
   <stop stop-color="#2436D7" offset="1"/>
  </linearGradient>
 </defs>
 <path stroke="null" id="svg_1" fill="url(#paint0_linear_1197_20401)" d="m90.58445,0.06226c-6.17442,0 -12.21007,1.82369 -17.34364,5.24046c-5.13292,3.4168 -9.13434,8.27313 -11.49704,13.95502c-2.36277,5.68188 -2.98092,11.93407 -1.77645,17.96588c1.20453,6.03188 4.17761,11.57246 8.54329,15.92121c4.36574,4.34869 9.92798,7.31022 15.98373,8.51002c6.0551,1.1998 12.33199,0.58404 18.03625,-1.76945c5.70361,-2.35356 10.57908,-6.33908 14.00903,-11.45261c3.4306,-5.11353 5.26133,-11.12544 5.26133,-17.27548c0,-8.24692 -3.28922,-16.15603 -9.14329,-21.98753c-5.85406,-5.83144 -13.79437,-9.10751 -22.0732,-9.10751zm0,53.30579c-4.41049,0 -8.72111,-1.30265 -12.38841,-3.74318c-3.66665,-2.44052 -6.52462,-5.90938 -8.21203,-9.96786c-1.68806,-4.05848 -2.12904,-8.52435 -1.26913,-12.83283c0.86057,-4.30841 2.98442,-8.26599 6.10244,-11.37226c3.11866,-3.10621 7.09141,-5.22158 11.41695,-6.07858c4.32489,-0.857 8.80866,-0.41718 12.88257,1.26394c4.07456,1.68106 7.55704,4.52787 10.00709,8.18038c2.45006,3.65258 3.75809,7.94679 3.75809,12.33964c0,5.89064 -2.34954,11.54003 -6.5311,15.70539c-4.18157,4.16529 -9.85275,6.50536 -15.76648,6.50536zm-65.12491,5.33007c0,0.47127 0.18787,0.92321 0.52244,1.25642c0.3345,0.33327 0.78826,0.52043 1.26134,0.52043l5.35141,0c0.47309,0 0.92684,-0.18716 1.26134,-0.52043c0.33456,-0.3332 0.5225,-0.78515 0.5225,-1.25642l0,-27.88686c6.63019,-1.01433 12.71402,-4.25329 17.24462,-9.18083c4.53053,-4.92761 7.23622,-11.24834 7.66923,-17.91625c0.01388,-0.24139 -0.02198,-0.48305 -0.10525,-0.71014c-0.08333,-0.2271 -0.21232,-0.43484 -0.37918,-0.61048c-0.1668,-0.17564 -0.3679,-0.31547 -0.59092,-0.41089c-0.22302,-0.09543 -0.46323,-0.14445 -0.70596,-0.14406l-5.36133,0c-0.45,0.00185 -0.88275,0.17256 -1.21199,0.4781c-0.32918,0.30554 -0.53074,0.72346 -0.56439,1.17043c-0.41595,5.11916 -2.75122,9.89475 -6.54128,13.37678c-3.79006,3.48209 -8.7571,5.41535 -13.91305,5.41535c-5.15601,0 -10.12305,-1.93326 -13.91311,-5.41535c-3.79,-3.48202 -6.12527,-8.25762 -6.54128,-13.37678c-0.03366,-0.44697 -0.23515,-0.86489 -0.56439,-1.17043c-0.32925,-0.30554 -0.76199,-0.47625 -1.21199,-0.4781l-5.37865,0c-0.24273,-0.0004 -0.48297,0.04862 -0.706,0.14406c-0.22301,0.09543 -0.4241,0.23525 -0.59092,0.41089c-0.16681,0.17563 -0.29583,0.38338 -0.37913,0.61048c-0.0833,0.22709 -0.11913,0.46875 -0.10529,0.71014c0.43165,6.6722 3.13884,12.99721 7.67302,17.92708c4.53422,4.92994 10.62324,8.16878 17.25823,9.17993l0,27.87694zm118.41978,-13.08892c-3.84823,-3.83299 -6.0097,-9.03168 -6.0097,-14.45241l0.00713,-27.54133c0.00065,-0.23322 -0.0454,-0.46422 -0.13489,-0.67979c-0.08885,-0.21556 -0.22049,-0.41146 -0.38586,-0.57649c-0.16537,-0.16503 -0.36187,-0.29595 -0.57782,-0.38528c-0.2166,-0.08933 -0.44812,-0.1353 -0.68223,-0.1353l-5.36898,0c-0.23411,0 -0.46563,0.046 -0.68223,0.13535c-0.21595,0.08936 -0.41245,0.22032 -0.57717,0.38538c-0.16537,0.16506 -0.29637,0.36098 -0.38586,0.57653c-0.08885,0.21555 -0.13424,0.4465 -0.13359,0.6796l0,27.54133c0,7.77766 3.1018,15.23671 8.62253,20.7363c5.52138,5.49965 13.00968,8.58927 20.81769,8.58927c7.80801,0 15.29631,-3.08961 20.81769,-8.58927c5.52073,-5.49959 8.62253,-12.95864 8.62253,-20.7363l0,-27.54133c0.00065,-0.23322 -0.0454,-0.46422 -0.13489,-0.67979c-0.08949,-0.21556 -0.22049,-0.41146 -0.38586,-0.57649c-0.16537,-0.16503 -0.36187,-0.29595 -0.57847,-0.38528c-0.21595,-0.08933 -0.44812,-0.1353 -0.68223,-0.1353l-5.3586,0c-0.23411,0 -0.46628,0.04598 -0.68223,0.1353c-0.2166,0.08933 -0.4131,0.22025 -0.57847,0.38528c-0.16537,0.16503 -0.29637,0.36093 -0.38586,0.57649c-0.08949,0.21557 -0.13489,0.44657 -0.13489,0.67979l0,27.54133c0,5.42073 -2.16147,10.61941 -6.0097,14.45241c-3.84823,3.83306 -9.06741,5.98642 -14.50902,5.98642c-5.44161,0 -10.66079,-2.15336 -14.50902,-5.98642z" clip-rule="evenodd" fill-rule="evenodd"/>
 <path stroke="null" id="svg_2" fill="#B5B5B5" d="m199.21698,14.08811c-0.84176,0.00026 -1.66471,0.24916 -2.36445,0.71524c-0.69974,0.46608 -1.24513,1.1284 -1.56744,1.90324c-0.32166,0.77483 -0.40596,1.62736 -0.24124,2.4498c0.16407,0.82244 0.56939,1.57781 1.16537,2.17068c0.59533,0.59293 1.35343,0.99662 2.17898,1.16011c0.8262,0.16349 1.68158,0.07944 2.45978,-0.2415c0.77756,-0.32095 1.44228,-0.86446 1.90985,-1.56173c0.46757,-0.69727 0.71725,-1.51705 0.71725,-2.35563c0,-0.55694 -0.1096,-1.10843 -0.3236,-1.62295c-0.21401,-0.51452 -0.52788,-0.98203 -0.92347,-1.37581c-0.39559,-0.39371 -0.86511,-0.70603 -1.38132,-0.91906c-0.51686,-0.21303 -1.07068,-0.32257 -1.6297,-0.32237zm0,6.59589c-0.46757,0 -0.92477,-0.13813 -1.31387,-0.39702c-0.38846,-0.25882 -0.69196,-0.62672 -0.87094,-1.05719c-0.17899,-0.43041 -0.22568,-0.90408 -0.13424,-1.36102c0.09079,-0.457 0.31647,-0.87672 0.64721,-1.20616c0.33074,-0.32944 0.75162,-0.55382 1.21076,-0.64468c0.45849,-0.09092 0.93385,-0.04429 1.3664,0.13405c0.4319,0.17827 0.80155,0.48022 1.06096,0.86757c0.26005,0.38742 0.39883,0.84286 0.39883,1.30875c0,0.62477 -0.24903,1.22399 -0.6926,1.66575c-0.44358,0.44176 -1.04539,0.68995 -1.6725,0.68995zm3.07586,9.89387c-0.23411,0 -0.46238,0.06913 -0.65694,0.19851c-0.19455,0.12944 -0.3463,0.31342 -0.4358,0.5286c-0.08949,0.21524 -0.11284,0.45207 -0.0668,0.68054c0.0454,0.22847 0.15824,0.43839 0.3236,0.60311c0.16537,0.16472 0.37613,0.27685 0.60506,0.32231c0.22957,0.04546 0.46757,0.02211 0.68353,-0.06699c0.21595,-0.08917 0.40078,-0.24014 0.53048,-0.43385c0.1297,-0.19371 0.19909,-0.4214 0.19909,-0.65434c0,-0.31193 -0.12386,-0.61115 -0.34501,-0.83197c-0.22114,-0.22082 -0.5214,-0.3452 -0.83463,-0.34591l-0.00259,0zm-0.41893,-7.35497l-0.67704,0.67529c-0.07912,0.08022 -0.12711,0.18586 -0.13489,0.29805c-0.00843,0.11226 0.02399,0.22373 0.09014,0.31446c0.25032,0.35344 0.39753,0.76848 0.42607,1.19967c0.02918,0.43126 -0.06226,0.86212 -0.26264,1.24533c-0.20039,0.38327 -0.50324,0.70415 -0.87483,0.92749c-0.37095,0.22341 -0.79701,0.34073 -1.23086,0.3391c-0.43385,-0.00162 -0.85927,-0.12211 -1.22892,-0.34825c-0.36965,-0.2262 -0.66991,-0.54928 -0.8677,-0.93404c-0.19715,-0.38469 -0.28534,-0.81621 -0.25292,-1.24721c0.03178,-0.431 0.18223,-0.84494 0.4345,-1.19649c0.06355,-0.09137 0.09274,-0.2022 0.08236,-0.31284c-0.01102,-0.11064 -0.06031,-0.21401 -0.14008,-0.29176l-0.6725,-0.6714c-0.04734,-0.04689 -0.10376,-0.0834 -0.16602,-0.10707c-0.06226,-0.02361 -0.1284,-0.03398 -0.1952,-0.03022c-0.06615,0.0037 -0.131,0.02134 -0.19001,0.05175c-0.05966,0.03041 -0.11154,0.07296 -0.15305,0.12477c-0.48962,0.62646 -0.79312,1.3773 -0.87548,2.16711c-0.08301,0.78975 0.05901,1.58676 0.40921,2.30019c0.34954,0.71349 0.89364,1.31465 1.57003,1.73521c0.67639,0.42056 1.45719,0.64351 2.25421,0.64351c0.79766,0 1.57846,-0.22296 2.25486,-0.64351c0.67574,-0.42056 1.21984,-1.02172 1.57003,-1.73521c0.35019,-0.71342 0.49157,-1.51044 0.40921,-2.30019c-0.08236,-0.78982 -0.38586,-1.54066 -0.87548,-2.16711c-0.04215,-0.05117 -0.09403,-0.09313 -0.1524,-0.12302c-0.05901,-0.02996 -0.12386,-0.04715 -0.19001,-0.05065c-0.0655,-0.00344 -0.13165,0.007 -0.19325,0.03061c-0.06226,0.02361 -0.11803,0.05986 -0.16472,0.10642l-0.00259,0zm-3.60245,-19.49982l4.72955,0c0.12516,0 0.24578,-0.04964 0.33463,-0.138c0.0882,-0.08835 0.13813,-0.20819 0.13813,-0.33314l0,-0.94227c0,-0.12495 -0.04993,-0.24479 -0.13813,-0.33314c-0.08885,-0.08836 -0.20947,-0.138 -0.33463,-0.138l-4.72955,0c-0.65823,-0.00059 -1.30155,0.19427 -1.84759,0.55969c-0.54604,0.36542 -0.97081,0.88479 -1.21919,1.49172c-0.24838,0.60693 -0.30934,1.27385 -0.1751,1.91552c0.13424,0.64167 0.4572,1.22892 0.92801,1.6867c-0.4974,0.48268 -0.82944,1.10914 -0.94876,1.7904c-0.11933,0.68132 -0.02075,1.38281 0.28275,2.00492c-0.09598,0.02977 -0.17964,0.08923 -0.2393,0.16971c-0.05966,0.08054 -0.09144,0.17782 -0.09209,0.27782l0,0.94228c0,0.12497 0.04993,0.24481 0.13878,0.33314c0.08885,0.08839 0.20882,0.138 0.33463,0.138l7.56871,0c0.12516,0 0.24578,-0.04961 0.33463,-0.138c0.08885,-0.08833 0.13813,-0.20817 0.13813,-0.33314l0,-0.94228c0,-0.12497 -0.04929,-0.24475 -0.13813,-0.33314c-0.08885,-0.08833 -0.20947,-0.138 -0.33463,-0.138l-4.72955,0c-0.37678,0 -0.73735,-0.1489 -1.00389,-0.41394c-0.26589,-0.26511 -0.41504,-0.62458 -0.41504,-0.99948c0,-0.37484 0.14916,-0.73437 0.41504,-0.99941c0.26654,-0.26504 0.62711,-0.41394 1.00389,-0.41394l4.72955,0c0.12516,0 0.24578,-0.04968 0.33463,-0.138c0.08885,-0.08839 0.13813,-0.20824 0.13813,-0.33314l0,-0.94228c0,-0.12497 -0.04929,-0.24481 -0.13813,-0.33314c-0.08885,-0.08839 -0.20947,-0.138 -0.33463,-0.138l-4.72955,0c-0.37678,0 -0.73735,-0.14894 -1.00389,-0.414c-0.26589,-0.26506 -0.41504,-0.62457 -0.41504,-0.99943c0,-0.37486 0.14916,-0.73437 0.41504,-0.99943c0.26654,-0.26507 0.62711,-0.41398 1.00389,-0.41398l-0.0013,-0.00261z"/>
</svg>