<svg width="32" height="32" viewBox="0 0 400 400" xmlns="http://www.w3.org/2000/svg">
 <defs>
  <clipPath id="a">
   <path id="svg_1" d="m0,0l487,0l0,144l-487,0l0,-144z" fill="#fff"/>
  </clipPath>
  <linearGradient y2="0.001672" x2="0.5" y1="0.999265" x1="0.5" id="b">
   <stop stop-color="#973BED"/>
   <stop stop-color="#007CFF" offset="1"/>
  </linearGradient>
  <linearGradient y2="0.000007" x2="0.496774" y1="0.997391" x1="0.496774" id="c">
   <stop stop-color="#FFC800"/>
   <stop stop-color="#F0F" offset="1"/>
  </linearGradient>
  <linearGradient y2="0.000735" x2="0.5" y1="0.999211" x1="0.5" id="d">
   <stop stop-color="#00E0ED"/>
   <stop stop-color="#00DA72" offset="1"/>
  </linearGradient>
 </defs>
 <g>
  <title>You.com</title>
  <ellipse stroke="null" ry="198.99999" rx="198.499999" id="svg_8" cy="200.00001" cx="199.999989" stroke-opacity="null" stroke-width="null" fill="#dedeed"/>
  <g stroke="null" id="svg_7">
   <path stroke="null" id="svg_10" fill="url(#b)" d="m62.609429,255.158506a3.457552,3.457552 0 0 0 3.457552,3.457552l10.372665,0a3.457552,3.457552 0 0 0 3.457552,-3.457552l0,-56.185239a58.778398,58.778398 0 0 0 50.13451,-54.456454a3.457552,3.457552 0 0 0 -3.457552,-3.457552l-10.372655,0a3.457552,3.457552 0 0 0 -4.321944,3.457552a40.626247,40.626247 0 0 1 -40.626247,37.168695a41.49063,41.49063 0 0 1 -40.626238,-37.168695a3.457552,3.457552 0 0 0 -3.457561,-3.457552l-11.237038,0a3.457552,3.457552 0 0 0 -3.457561,3.457552a58.778398,58.778398 0 0 0 50.134519,54.456454l0,56.185239z"/>
   <path stroke="null" id="svg_11" fill="url(#c)" d="m193.13205,137.601709a62.23595,62.23595 0 0 0 -61.371557,74.337381a62.23595,62.23595 0 0 0 84.710036,45.812575a62.23595,62.23595 0 0 0 20.74532,-101.997804a62.23595,62.23595 0 0 0 -44.083799,-18.152151zm0,106.319749a44.948191,44.948191 0 0 1 -44.083799,-52.727688a44.083799,44.083799 0 0 1 60.507174,-32.846751a44.948191,44.948191 0 0 1 14.6946,72.608615a44.948191,44.948191 0 0 1 -31.117975,12.965824z"/>
   <path stroke="null" id="svg_12" fill="url(#d)" d="m287.350367,199.837659a40.626247,40.626247 0 0 0 41.49063,40.626247a41.49063,41.49063 0 0 0 40.626247,-40.626247l0,-55.320847a3.457552,3.457552 0 0 1 3.457552,-3.457552l11.237048,0a3.457552,3.457552 0 0 1 3.457552,3.457552l0,55.320847a58.778398,58.778398 0 0 1 -58.778398,58.778398a58.778398,58.778398 0 0 1 -59.642782,-58.778398l0,-55.320847a3.457552,3.457552 0 0 1 3.457552,-3.457552l11.237048,0a3.457552,3.457552 0 0 1 3.457552,3.457552l0,55.320847z"/>
  </g>
 </g>
</svg>