<svg width="140" height="40" xmlns="http://www.w3.org/2000/svg" viewBox="0 0 140 40" fill="#008009">
 <g class="layer">
  <title>Layer 1</title>
  <path d="m126.56,9.06l2.56,15.84l-5.12,0l2.56,-15.84zm13.74,27.69l-5.92,-33.44l-15.64,0l-5.89,33.44l9.23,0l1.24,-7.7l6.5,0l1.24,7.7l9.23,0l0.03,0zm-39.67,0l9.83,0l0,-33.44l-9.83,0l0,33.44zm-13.34,-18.43c-2.64,-1.01 -3.19,-1.58 -3.19,-2.5c0,-1.15 0.98,-1.81 3.05,-1.81c2.85,0 5.98,0.95 9.03,2.19l0,-10.81c-2.1,-1.75 -5.89,-2.82 -9.78,-2.82c-6.76,0 -10.75,3.22 -10.75,8.88c0,4.94 2.56,7.27 8.39,9.4l2.16,0.78c2.36,0.86 3.13,1.49 3.13,2.56c0,0.83 -0.49,1.84 -2.93,1.84c-3.39,0 -7.47,-1.64 -10.29,-3.13l0,12.08c2.67,1.35 6.84,2.53 10.95,2.53c7.04,0 11.07,-2.9 11.07,-9.11c0,-4.2 -1.72,-6.58 -8.31,-9.06l-2.56,-0.98l0.03,-0.03zm-21.48,1.7c0,3.82 -1.52,6.07 -5.06,6.07c-3.54,0 -5.06,-2.21 -5.06,-6.07c0,-3.82 1.55,-6.07 5.06,-6.07c3.54,0 5.06,2.21 5.06,6.07zm-5.06,-17.45c-10.32,0 -12.94,7.85 -12.94,17.45c0,9.63 2.62,17.45 12.94,17.45c10.32,0 12.94,-7.82 12.94,-17.45c0,-9.6 -2.62,-17.45 -12.94,-17.45l0,0zm-23.86,11.87c2.93,0 5.18,0.86 8.31,2.56l0,-11.01c-1.81,-1.98 -5.52,-3.45 -9.2,-3.45c-8.45,0 -12.99,5.32 -12.99,17.45c0,10.95 3.68,17.45 13.05,17.45c3.62,0 7.3,-1.47 9.14,-3.48l0,-10.95c-3.13,1.7 -5.35,2.56 -8.31,2.56c-3.88,0 -5.98,-1.35 -5.98,-5.61s2.9,-5.52 5.98,-5.52l0,0zm-16.13,-11.15l-20.76,0l0,33.44l20.76,0l0,-10.67l-12.88,0l0,-4l8.34,0l0,-4.08l-8.34,0l0,-4l12.88,0l0.03,-10.67l-0.03,-0.03z" id="svg_1"/>
 </g>
</svg>