<svg width="32" height="32" xmlns="http://www.w3.org/2000/svg">
    <path stroke="null" d="m26.140362,23.69587c-1.082682,-0.721962 -1.62492,-0.360466 -1.62492,-0.360466s0.022496,0.834694 0.834708,1.533907s1.894387,0.608962 1.894387,0.608962s-0.022242,-1.060187 -1.105192,-1.781895l0.001016,-0.000508zm-16.197134,4.196278c-0.766968,1.308443 -0.428729,2.413367 -0.428729,2.413367s0.879446,0.247988 1.985132,-1.195428s0.654475,-2.864845 0.654475,-2.864845s-1.44367,0.338224 -2.210624,1.646399l-0.000254,0.000508zm-3.40632,-3.29332c-0.811959,0.699213 -0.834708,1.533921 -0.834708,1.533921s0.541221,0.360466 1.624934,-0.360466s1.105178,-1.781909 1.105178,-1.781909s-1.059933,-0.112478 -1.894387,0.60923l-0.001016,-0.000776zm10.015457,2.887355s-0.879446,0.676703 -0.992446,2.120373s0.857204,2.503871 0.857204,2.503871s1.127942,-0.857204 1.037945,-2.594108c-0.067487,-1.759399 -0.902449,-2.029883 -0.902449,-2.029883l-0.000254,-0.000254zm5.887682,-0.022496s-0.247988,0.789449 0.293233,1.714408s1.600392,1.172933 1.600392,1.172933s0.315729,-1.014941 -0.473734,-2.029883c-0.812199,-1.037959 -1.421429,-0.857204 -1.421429,-0.857204l0.001538,-0.000254zm3.6993,-19.963172c1.082936,-0.721962 1.105432,-1.781895 1.105432,-1.781895s-1.060187,-0.112492 -1.894895,0.608962c-0.811945,0.699213 -0.834708,1.533921 -0.834708,1.533921s0.541475,0.360466 1.624934,-0.36048l-0.000762,-0.000508zm-18.995015,1.421429s-0.022496,-1.060187 -1.105178,-1.781895s-1.624934,-0.360466 -1.624934,-0.360466s0.022496,0.834694 0.834708,1.533907c0.811945,0.721708 1.894387,0.608962 1.894387,0.608962l0.001016,-0.000508zm3.586808,-3.92427s0.315743,-1.014941 -0.47372,-2.031153c-0.789449,-1.037451 -1.421429,-0.857204 -1.421429,-0.857204s-0.247988,0.789449 0.293233,1.714408c0.562941,0.94744 1.601662,1.172933 1.601662,1.172933l0.000254,0.001016zm12.226095,-1.262929c1.105192,-1.421429 0.654475,-2.81984 0.654475,-2.81984s-1.443685,0.338478 -2.210638,1.62492s-0.405979,2.391125 -0.405979,2.391125s0.85695,0.247988 1.962396,-1.195428l-0.000254,-0.000776zm-6.60939,-1.262915c0.067741,-1.601662 -0.96995,-2.391125 -0.96995,-2.391125s-0.879446,0.96995 -0.789463,2.300874c0.112492,1.330924 0.924705,1.93887 0.924705,1.93887s0.766953,-0.247974 0.834708,-1.84965l0,0.00103z" fill="#36acb8" id="svg_1"/>
    <path stroke="null" d="m16.643377,7.34176c-4.624245,0 -8.368804,3.744545 -8.368804,8.368789s3.744559,8.368804 8.368804,8.368804s8.368789,-3.744545 8.368789,-8.368804s-3.744545,-8.368789 -8.368789,-8.368789zm0,15.767643c-4.082783,0 -7.37712,-3.315816 -7.37712,-7.398599s3.29332,-7.398585 7.37712,-7.398585s7.37712,3.315816 7.37712,7.398585s-3.29332,7.398599 -7.37712,7.398599z" fill="#dc7e58" id="svg_2"/>
    <path stroke="null" d="m16.733882,9.642635c-3.407097,0 -6.13567,2.774595 -6.13567,6.13567a6.112652,6.112652 0 0 0 6.135402,6.13567c3.383571,0 6.112158,-2.752113 6.112158,-6.13567s-2.729349,-6.13567 -6.112158,-6.13567l0.000268,0z" fill="#36acb8" id="svg_3"/>
    <path stroke="null" d="m22.711546,16.996229c0,0.044991 0,0.090251 0.022496,0.135496c0.02251,-0.067741 0.02251,-0.135496 0.045005,-0.225478c-0.045005,0.022496 -0.045005,0.067487 -0.067501,0.090236l0,-0.000254zm-4.218265,1.127688c-0.202997,0.135496 -0.338224,0.270992 -0.383484,0.609216c0.046021,0.067755 0.067755,0.113 0.156975,0.156975c0.247988,-0.089997 0.51898,-0.495962 0.338478,-0.74395c-0.046007,-0.023018 -0.067741,-0.023018 -0.112478,-0.023018l0.000508,0.000776zm-2.932346,-7.782069c-0.112478,-0.045005 -0.247974,-0.067755 -0.360466,-0.112492c-0.293233,0.067741 -0.653953,0 -0.992446,-0.067755c-0.247988,0.112492 -0.495962,0.247988 -0.721708,0.383484c0.044991,0.046021 0.090251,0.112492 0.112492,0.180487c-0.044991,0.156975 -0.202997,0.315743 -0.135496,0.495976c0.023004,0.112478 0.067741,0.156961 0.156975,0.225478c0.293233,0.022496 0.451225,-0.156975 0.676703,-0.225478l0.699213,-0.112492c0.270992,-0.067487 0.744458,-0.450971 0.563209,-0.766953l0.001538,-0.000268l-0.000014,0.000014zm-3.586808,5.639694l-0.338478,-0.495962c-0.293233,-0.293233 -0.586466,-0.541221 -0.96995,-0.631458c-0.046021,0.293233 -0.067741,0.608962 -0.067741,0.924691c0,1.037945 0.247974,2.029883 0.721962,2.887341c0.067741,-0.067741 0.135496,-0.112492 0.203237,-0.180487c0.090251,-0.156975 0.202997,-0.315729 0.293233,-0.47372c0.156975,-0.156975 0.405979,-0.203251 0.541221,-0.383484c0.046021,-0.135496 0.112492,-0.293233 0.156975,-0.428729c0.090236,-0.180501 0.315729,-0.315729 0.270992,-0.563971c-0.112492,-0.36048 -0.563971,-0.405979 -0.811959,-0.654475l0.000508,0.000254zm0.135496,-3.78979c0.203251,-0.089997 0.315729,0.156961 0.473734,-0.022496c0.203237,-0.203251 -0.067501,-0.541475 -0.067501,-0.766968c0,-0.046021 0.022496,-0.112492 0.046021,-0.156975c-0.405979,0.36048 -0.744458,0.789463 -1.037959,1.240688c0.090505,-0.022496 0.180501,-0.022496 0.249272,-0.046021c0.135496,-0.067487 0.22497,-0.156961 0.338224,-0.247974l-0.001792,-0.000254zm9.045506,-0.676717c-0.135496,0 -0.270992,0 -0.405965,0.023004c-0.60923,0.090251 -1.218192,0.180501 -1.917405,0.203251c-0.609216,0 -0.924945,-0.496484 -1.511411,-0.360466c-0.225492,0.046007 -0.653967,0.293233 -0.766968,0.47372c-0.156961,0.249258 0.045005,0.405979 -0.247974,0.541475c-0.203251,-0.046021 -0.270992,-0.203251 -0.451239,-0.293233c-0.156961,0.022496 -0.225478,0.067741 -0.315729,0.180487c-0.022496,0.270992 0.180487,0.315729 0.180487,0.586466c-0.112478,0.156975 -0.38347,0.180487 -0.451225,0.360466c-0.090236,0.202997 0,0.428475 -0.135496,0.586212c-0.202983,0.180501 -0.405979,0.383484 -0.586212,0.563209c-0.38347,0.47372 -0.203237,1.240434 0.089997,1.533921c0.270992,0.270992 0.676703,0.046007 1.037945,0.203237c0.270484,0.112492 0.315729,0.631458 0.383484,0.879446c0.135496,0.405979 -0.112492,0.586212 -0.112492,0.96995s0.135496,1.488916 0.676717,1.466166c0.608962,-0.022496 0.74395,-0.631458 1.082682,-1.037437c0.112492,-0.135496 0.293233,-0.203251 0.383484,-0.405979c0,-0.203237 0.022496,-0.428729 0.022496,-0.631458c0.135496,-0.360466 0.563209,-0.47372 0.789971,-0.744458c0.225478,-0.247988 0.022496,-0.451239 0.135496,-0.654475c0,0 0.022496,0 0.022496,-0.022496c0.180487,-0.112492 0.360466,-0.202997 0.563971,-0.315729c0.090251,-0.112492 0.180487,-0.225492 0.270992,-0.315743l0.203237,-0.067741c0.699213,0.360466 0.450985,1.082682 0.947201,1.466166c0.044991,-0.022496 0.067487,-0.044991 0.112492,-0.067487c0.067487,-0.090251 0.022496,-0.180501 0.067487,-0.315729c0.090251,-0.270992 0.405979,-0.541475 0.744458,-0.473734c0.156975,0.202743 0.428475,0.473734 0.473734,0.766968c0.046007,0.270992 -0.135496,0.428475 -0.135496,0.654461c0,0.156975 0.090236,0.36048 0.225478,0.563971c0.090251,-0.225478 0.156975,-0.47372 0.203251,-0.721708c0,-0.046007 0,-0.090236 -0.02251,-0.135496c0.02251,-0.022496 0.02251,-0.044991 0.045005,-0.090236c0.067741,-0.36048 0.112478,-0.744458 0.112478,-1.127942c0,-1.624934 -0.654461,-3.135583 -1.714408,-4.241283l-0.000508,0.000254zm-3.361061,2.819854c-0.135496,0.022496 -0.270992,-0.067755 -0.360466,-0.112492c-0.156975,-0.022496 -0.338239,-0.022496 -0.495976,-0.044991c-0.022496,0 -0.811945,-0.631472 -0.834708,-0.676717c0.046021,-0.112492 0.090251,-0.112492 0.156975,-0.156975c0.293233,0.067755 0.360466,0.247988 0.563971,0.338493l0.315729,0.067741c0.112492,0.090251 0.225492,0.156975 0.338493,0.247988c0.135496,0.067741 0.315729,0.067741 0.428729,0.090251c0,0.022496 0.022496,0.046007 0.022496,0.067741l0,0.112492c-0.067755,0.022496 -0.090251,0.044991 -0.135496,0.067487l0.000254,-0.001016zm-0.879954,-0.156975l-0.834708,-0.676717c0.046021,0.046021 0.812213,0.676717 0.834708,0.676717z" fill="#d4db34" id="svg_5"/>
</svg>