<svg width="16" height="16" viewBox="0 0 24 24" xmlns="http://www.w3.org/2000/svg" >
    <path opacity=".7" fill-rule="evenodd" clip-rule="evenodd" d="M24 12c0-6.627-5.373-12-12-12S0 5.373 0 12s5.373 12 12 12 12-5.373 12-12zM12 2.88a9.08 9.08 0 0 1 5.35 1.733l-6.029 6.03-.902-.902-.678.678.901.902-2.2 2.201L6.918 12l1.58-1.58-.678-.68-1.581 1.581-1.58-1.58-.68.678L5.562 12l-1.58 1.58.678.68 1.581-1.581L7.762 14.2l-3.149 3.15A9.12 9.12 0 0 1 12 2.88zm4.238 6.919l3.149-3.15A9.12 9.12 0 0 1 6.65 19.387l6.029-6.028.902.901.678-.678-.901-.902 2.2-2.201L17.082 12l-1.58 1.58.678.68 1.581-1.581 1.58 1.58.68-.678L18.438 12l1.58-1.58-.678-.68-1.581 1.581L16.238 9.8z" fill="#fff"/>
</svg>