<svg width="16" height="16" viewBox="0 0 24 24" xmlns="http://www.w3.org/2000/svg" >
    <g opacity=".7" fill="#fff">
        <path d="M8.444 11.587c.982 0 1.778-.409 1.778-.913s-.796-.913-1.778-.913c-.981 0-1.777.409-1.777.913s.796.913 1.777.913zM17.333 10.674c0 .504-.796.913-1.777.913-.982 0-1.778-.409-1.778-.913s.796-.913 1.778-.913c.981 0 1.777.409 1.777.913zM9.778 14.326c-.932 0-1.334-.588-1.334-.913H6.667c0 1.692 1.588 2.74 3.11 2.74.804 0 1.626-.292 2.223-.816.597.524 1.419.815 2.222.815 1.523 0 3.111-1.047 3.111-2.739h-1.777c0 .325-.402.913-1.334.913-.931 0-1.333-.588-1.333-.913H11.11c0 .325-.402.913-1.333.913zM5.286 6.205c.87.447 1.707.817 2.714.817.501 0 .81-.092 1.02-.195.212-.106.377-.25.574-.45l1.257 1.29c-.248.255-.58.568-1.061.805-.485.24-1.064.376-1.79.376-1.448 0-2.601-.544-3.509-1.01l.795-1.633zM16 7.022c1.007 0 1.843-.37 2.714-.817l.795 1.633c-.908.466-2.061 1.01-3.509 1.01-.726 0-1.305-.136-1.79-.376-.48-.237-.813-.55-1.06-.805l1.256-1.29c.197.2.362.344.574.45.21.103.518.195 1.02.195z"/>
        <path fill-rule="evenodd" clip-rule="evenodd" d="M24 2H0v8.674C0 17.48 5.373 23 12 23s12-5.519 12-12.326V2zM2.667 10.674V4.739h18.666v5.935c0 4.987-3.706 9.084-8.444 9.544v-3.153H11.11v3.153c-4.738-.46-8.444-4.557-8.444-9.544z"/>
    </g>
</svg>