<svg width="1120" height="160" viewBox="0 0 1120 160" fill="none" xmlns="http://www.w3.org/2000/svg">
<rect width="1120" height="160" fill="url(#paint0_linear_1952_180)"/>
<path d="M0 119.472V160H1120V121.512L1067.89 94.176L1002.94 128.244L917.778 83.568L840.778 123.96L747.444 75L706.222 96.624L695.333 90.912L603.167 139.26L558.444 115.8L526.556 132.528L478.333 107.232L463.556 114.984L403.667 83.568L335.611 119.268L289.333 94.992L225.944 128.244L124.444 75L88.2777 93.972L68.4445 83.568L0 119.472Z" fill="#A01515"/>
<path d="M0 83.7029V160.5H1120V139.277L1033.67 94.253L1018.53 102.145L968.333 76L879.605 122.209L851.667 107.639L796.444 136.438L743.556 108.855L693.389 135.018L667.333 121.43L656.444 127.108L604.333 99.9317L549.12 128.726L536.667 122.241L481.795 150.818L438.667 128.325L400.556 148.201L322.778 107.639L277.726 131.134L192.111 86.5462L155.141 105.8L133.778 94.6586L77.4462 124.036L0 83.7029Z" fill="url(#paint1_linear_1952_180)"/>
<defs>
<linearGradient id="paint0_linear_1952_180" x1="560" y1="0" x2="560" y2="160" gradientUnits="userSpaceOnUse">
<stop stop-color="#DC2F2F"/>
<stop offset="1" stop-color="#942222"/>
</linearGradient>
<linearGradient id="paint1_linear_1952_180" x1="560" y1="76" x2="560" y2="160" gradientUnits="userSpaceOnUse">
<stop offset="0.0260417" stop-color="#CB3939"/>
<stop offset="0.489583" stop-color="#B43437"/>
<stop offset="1" stop-color="#B62A2A"/>
</linearGradient>
</defs>
</svg>
