<svg width="32" height="32" viewBox="0 0 50 50" fill="none" xmlns="http://www.w3.org/2000/svg">
<path fill="#dc2f2f" fill-rule="evenodd" clip-rule="evenodd" d="M12.4515 49L13.0292 46.0381C12.8944 43.2528 12.4571 40.5633 11.3839 38.1594C12.188 36.8911 12.4767 34.7223 12.7097 32.4565L9.33731 26.9236C9.2392 26.9454 8.74484 26.4494 8.49055 26.1025C8.37261 26.113 8.2516 26.1228 8.12609 26.131C2.67524 26.5218 2.57229 21.0114 3.34017 16.8158C4.09099 13.9668 -0.309525 15.5842 0.0554889 15.4066C-0.260814 14.5159 0.820007 13.0691 2.15688 12.5768C2.65505 12.995 4.86008 13.3579 4.25267 16.693C3.13187 18.6442 4.1113 27.6317 10.0011 23.3895L10.8763 22.1179C13.4293 20.5893 15.1597 19.5951 18.4498 18.2945C19.4528 17.0224 21.6282 14.2857 22.1439 13.7864C22.2678 13.6648 22.9134 13.1315 23.8205 12.5417C25.2456 10.6864 26.7013 7.25329 26.5632 5.824C25.918 6.38682 25.2362 7.00052 24.396 5.66697C23.7306 4.61303 25.3114 3.5022 26.824 3.68928L26.903 3.60034C25.849 2.00922 29.1402 -0.681518 29.1759 0.158911C28.4053 0.816673 27.6664 1.56857 28.2436 2.77914C29.1402 2.08573 29.9301 2.02885 30.715 2.32328L31.5212 2.62532C34.1799 3.18654 37.2356 0.749775 37.2925 2.67219L37.3128 3.34878C36.8918 3.7033 36.369 4.02617 35.7754 4.32621C36.2709 4.36266 36.8568 4.20523 37.3315 4.00133L37.349 4.61543L36.3208 5.5556C35.4164 6.9216 34.3044 8.26557 32.9593 9.19613C32.9972 9.40243 32.99 9.7902 32.9873 10.2709C34.562 10.4251 36.2183 10.2076 37.5808 9.77297C37.5715 9.75855 37.5622 9.74413 37.5534 9.72891C37.1199 9.02187 37.6499 7.57055 38.3285 6.83227C38.5296 6.61275 38.939 6.54024 39.0924 6.47094L41.2179 8.41098C41.1682 8.70781 41.1346 8.94376 40.9816 9.1108C40.0702 10.1079 38.6185 10.613 37.8461 10.0498C36.5455 11.5628 35.0629 12.6092 33.2328 13.0674C33.2663 13.1923 33.3046 13.314 33.3479 13.4318C33.6023 13.7404 33.8072 14.0808 33.9453 14.4612C34.1328 14.8377 34.2846 15.1934 34.4096 15.5355C35.7042 15.4384 36.8568 15.491 38.7463 15.2526L43.5449 16.7631L47.0576 17.8253L45.0211 18.928L43.1019 17.9908C41.6061 17.6883 40.2401 18.8289 38.3653 17.725C37.9864 17.8895 37.5523 18.1268 37.0755 18.4139C37.8872 18.676 38.7779 18.9971 40.0101 19.321L43.0041 24.2801L44.2295 27.117L42.084 26.5903L41.7907 24.7454C40.3887 22.4034 39.0243 22.5925 37.7348 21.6954C36.6912 21.9404 35.3435 22.4002 33.9234 22.8327C33.1704 24.2313 32.2057 25.8159 30.7517 27.0891L25.6123 29.6366C25.6429 29.7199 25.6709 29.8043 25.6956 29.8904C25.7273 30.0038 25.7536 30.1173 25.7739 30.2307C26.4963 30.5574 27.2549 31.1575 26.5856 31.505C26.3423 31.6322 26.0441 31.6585 25.735 31.6382C25.7212 31.6958 25.706 31.7533 25.6895 31.8103C26.2327 32.2839 26.6416 32.9038 25.9893 33.0714C25.7087 33.1438 25.3941 33.0928 25.08 32.9914C25.0182 33.0698 24.9534 33.1455 24.8849 33.2183C25.1776 33.8689 25.2861 34.5869 24.629 34.4718C24.3314 34.4203 24.0551 34.2301 23.8024 33.995C23.774 34.0081 23.7454 34.0207 23.7164 34.0333C23.8101 34.7919 23.6989 35.6447 23.0734 35.2917C22.7381 35.1027 22.5101 34.7147 22.3303 34.3096C22.2492 34.309 22.1691 34.3058 22.0891 34.2992C21.5372 35.6678 20.8028 36.9601 19.9554 37.9599L24.2004 38.9169L25.7202 40.4099L23.484 41.5099L22.6729 39.7825C21.1903 39.8394 18.2246 39.9512 18.1528 39.8242C18.1138 39.7553 17.6644 38.4422 17.1366 36.8943C16.554 37.3882 15.9023 37.8958 15.1756 38.4141C15.1186 41.4542 14.3924 43.8857 14.2054 45.9428C14.6226 46.7844 14.6094 47.6677 14.7431 48.5205L12.4515 49ZM35.5781 11.0893C34.4677 11.2291 33.6429 11.1923 32.9911 11.0476C33.0015 11.5114 33.0317 12.0095 33.1101 12.4896C33.8911 12.174 34.6952 11.7519 35.5781 11.0893Z" />
</svg>
