<svg width="205" height="75" viewBox="0 0 340 120" fill="none" xmlns="http://www.w3.org/2000/svg">
<path d="M255.059 68.5068C252.962 68.5108 251.016 68.8779 249.222 69.6085C247.427 70.3404 245.857 71.4145 244.512 72.8312C243.164 74.2476 242.116 75.9853 241.364 78.0447C240.612 80.104 240.23 82.4636 240.217 85.1235C240.23 87.6705 240.595 89.9423 241.317 91.9398C242.038 93.9348 243.048 95.6277 244.346 97.0168C245.645 98.4058 247.166 99.4632 248.908 100.19C250.651 100.914 252.549 101.28 254.602 101.284C256.393 101.289 258.155 100.976 259.89 100.342C261.623 99.7095 263.199 98.725 264.62 97.3887C266.039 96.0514 267.174 94.3326 268.022 92.2283C268.871 90.1246 269.306 87.6037 269.327 84.6669C269.311 81.4274 268.716 78.6008 267.545 76.1863C266.373 73.7717 264.721 71.8934 262.59 70.5515C260.46 69.2084 257.949 68.5277 255.059 68.5068ZM97.186 70.3324C96.3175 69.8328 95.2419 69.4078 93.9593 69.0564C92.6785 68.7062 91.2598 68.5225 89.7059 68.5068C87.4867 68.5264 85.5627 68.95 83.9348 69.7816C82.3073 70.6119 81.0467 71.7347 80.1549 73.1499C79.2629 74.5651 78.8117 76.1573 78.7984 77.928C78.7855 79.7643 79.4268 81.4458 80.7267 82.9751C82.0265 84.5044 84.0672 85.8305 86.8518 86.953C88.1005 87.4778 89.0973 87.9958 89.8437 88.5074C90.5886 89.0201 91.1264 89.5763 91.4534 90.1771C91.7794 90.7792 91.9394 91.4742 91.9327 92.2652C91.9346 93.4863 91.5014 94.4716 90.6333 95.2213C89.7649 95.9709 88.4467 96.3572 86.6801 96.3783C85.7763 96.3707 84.8753 96.2595 83.9768 96.0466C83.0797 95.8329 82.2415 95.5654 81.4637 95.2433C80.6873 94.9222 80.0277 94.5953 79.4846 94.2646L78 99.1737C79.074 99.8112 80.3514 100.32 81.8337 100.7C83.3144 101.08 84.8923 101.275 86.5659 101.284C88.9583 101.277 91.032 100.892 92.7878 100.128C94.5431 99.3644 95.9014 98.2649 96.8658 96.8279C97.8273 95.3919 98.3153 93.662 98.3287 91.637C98.322 89.3717 97.649 87.4751 96.3088 85.9458C94.9668 84.4165 92.9939 83.1337 90.3905 82.0976C89.121 81.556 88.1019 81.0455 87.3293 80.5697C86.5568 80.0934 85.9967 79.5885 85.6504 79.0546C85.3028 78.5208 85.1325 77.8978 85.1376 77.1843C85.1403 76.4708 85.3147 75.8283 85.6635 75.2523C86.0111 74.6779 86.5239 74.2199 87.2021 73.8803C87.8802 73.5393 88.7157 73.365 89.7059 73.3571C90.5663 73.365 91.3719 73.458 92.1235 73.639C92.8751 73.8188 93.5538 74.0444 94.1606 74.3133C94.7664 74.5834 95.2802 74.8549 95.7011 75.1291L97.186 70.3324ZM182.74 70.3324C181.873 69.8328 180.796 69.4078 179.514 69.0564C178.233 68.7062 176.815 68.5225 175.26 68.5068C173.041 68.5264 171.117 68.95 169.489 69.7816C167.861 70.6119 166.601 71.7347 165.709 73.1499C164.818 74.5651 164.366 76.1573 164.353 77.928C164.339 79.7643 164.982 81.4458 166.282 82.9751C167.581 84.5044 169.622 85.8305 172.406 86.953C173.655 87.4778 174.651 87.9958 175.398 88.5074C176.143 89.0201 176.681 89.5763 177.008 90.1771C177.335 90.7792 177.495 91.4742 177.488 92.2652C177.489 93.4863 177.057 94.4716 176.188 95.2213C175.32 95.9709 174.001 96.3572 172.235 96.3783C171.331 96.3707 170.43 96.2595 169.531 96.0466C168.634 95.8329 167.796 95.5654 167.018 95.2433C166.241 94.9222 165.582 94.5953 165.039 94.2646L163.554 99.1737C164.628 99.8112 165.906 100.32 167.388 100.7C168.869 101.08 170.447 101.275 172.121 101.284C174.512 101.277 176.587 100.892 178.343 100.128C180.097 99.3644 181.457 98.2649 182.421 96.8279C183.382 95.3919 183.87 93.662 183.883 91.637C183.876 89.3717 183.203 87.4751 181.863 85.9458C180.521 84.4165 178.549 83.1337 175.945 82.0976C174.675 81.556 173.656 81.0455 172.884 80.5697C172.111 80.0934 171.551 79.5885 171.205 79.0546C170.857 78.5208 170.687 77.8978 170.692 77.1843C170.695 76.4708 170.87 75.8283 171.218 75.2523C171.566 74.6779 172.078 74.2199 172.756 73.8803C173.435 73.5393 174.27 73.365 175.26 73.3571C176.121 73.365 176.926 73.458 177.678 73.639C178.429 73.8188 179.109 74.0444 179.715 74.3133C180.321 74.5834 180.835 74.8549 181.255 75.1291L182.74 70.3324ZM207.476 70.3324C206.608 69.8328 205.533 69.4078 204.25 69.0564C202.968 68.7062 201.55 68.5225 199.995 68.5068C197.776 68.5264 195.852 68.95 194.225 69.7816C192.597 70.6119 191.337 71.7347 190.445 73.1499C189.553 74.5651 189.102 76.1573 189.088 77.928C189.076 79.7643 189.717 81.4458 191.017 82.9751C192.316 84.5044 194.357 85.8305 197.142 86.953C198.391 87.4778 199.388 87.9958 200.134 88.5074C200.878 89.0201 201.416 89.5763 201.743 90.1771C202.07 90.7792 202.23 91.4742 202.223 92.2652C202.224 93.4863 201.791 94.4716 200.923 95.2213C200.055 95.9709 198.737 96.3572 196.97 96.3783C196.066 96.3707 195.165 96.2595 194.267 96.0466C193.369 95.8329 192.532 95.5654 191.754 95.2433C190.978 94.9222 190.317 94.5953 189.775 94.2646L188.29 99.1737C189.364 99.8112 190.641 100.32 192.124 100.7C193.604 101.08 195.182 101.275 196.856 101.284C199.248 101.277 201.322 100.892 203.078 100.128C204.833 99.3644 206.192 98.2649 207.156 96.8279C208.117 95.3919 208.605 93.662 208.618 91.637C208.612 89.3717 207.939 87.4751 206.598 85.9458C205.256 84.4165 203.285 83.1337 200.681 82.0976C199.411 81.556 198.392 81.0455 197.619 80.5697C196.846 80.0934 196.287 79.5885 195.941 79.0546C195.593 78.5208 195.422 77.8978 195.428 77.1843C195.431 76.4708 195.605 75.8283 195.954 75.2523C196.301 74.6779 196.814 74.2199 197.493 73.8803C198.17 73.5393 199.005 73.365 199.995 73.3571C200.856 73.365 201.662 73.458 202.413 73.639C203.165 73.8188 203.844 74.0444 204.45 74.3133C205.056 74.5834 205.57 74.8549 205.992 75.1291L207.476 70.3324ZM338.707 70.3324C337.839 69.8328 336.763 69.4078 335.481 69.0564C334.199 68.7062 332.781 68.5225 331.227 68.5068C329.008 68.5264 327.084 68.95 325.456 69.7816C323.829 70.6119 322.568 71.7347 321.676 73.1499C320.784 74.5651 320.332 76.1573 320.32 77.928C320.307 79.7643 320.948 81.4458 322.248 82.9751C323.548 84.5044 325.589 85.8305 328.373 86.953C329.622 87.4778 330.618 87.9958 331.364 88.5074C332.11 89.0201 332.647 89.5763 332.974 90.1771C333.301 90.7792 333.461 91.4742 333.454 92.2652C333.455 93.4863 333.023 94.4716 332.154 95.2213C331.286 95.9709 329.968 96.3572 328.201 96.3783C327.298 96.3707 326.397 96.2595 325.498 96.0466C324.601 95.8329 323.762 95.5654 322.985 95.2433C322.208 94.9222 321.549 94.5953 321.005 94.2646L319.521 99.1737C320.595 99.8112 321.873 100.32 323.355 100.7C324.836 101.08 326.413 101.275 328.087 101.284C330.48 101.277 332.553 100.892 334.309 100.128C336.064 99.3644 337.423 98.2649 338.387 96.8279C339.349 95.3919 339.837 93.662 339.85 91.637C339.843 89.3717 339.17 87.4751 337.829 85.9458C336.488 84.4165 334.515 83.1337 331.912 82.0976C330.641 81.556 329.622 81.0455 328.85 80.5697C328.078 80.0934 327.518 79.5885 327.171 79.0546C326.824 78.5208 326.654 77.8978 326.658 77.1843C326.661 76.4708 326.836 75.8283 327.185 75.2523C327.533 74.6779 328.045 74.2199 328.723 73.8803C329.401 73.5393 330.237 73.365 331.227 73.3571C332.087 73.365 332.892 73.458 333.644 73.639C334.395 73.8188 335.075 74.0444 335.681 74.3133C336.287 74.5834 336.802 74.8549 337.222 75.1291L338.707 70.3324ZM235.349 94.718C234.615 95.0449 233.77 95.3334 232.808 95.5807C231.847 95.83 230.714 95.9613 229.41 95.9747C227.567 95.9661 225.93 95.5242 224.501 94.6509C223.071 93.7785 221.947 92.5224 221.127 90.8813C220.308 89.2393 219.889 87.2639 219.874 84.9529C219.874 83.4013 220.086 81.9506 220.504 80.6024C220.924 79.254 221.542 78.0684 222.357 77.0452C223.173 76.0208 224.175 75.2209 225.365 74.6424C226.556 74.0653 227.924 73.7717 229.466 73.7609C230.806 73.7781 231.942 73.9158 232.872 74.1754C233.804 74.4351 234.554 74.7158 235.12 75.0176L236.434 69.9351C235.732 69.5757 234.768 69.253 233.543 68.9631C232.319 68.6773 230.942 68.5239 229.41 68.5068C226.877 68.5199 224.608 68.9449 222.604 69.7804C220.598 70.617 218.892 71.7897 217.485 73.2968C216.076 74.8051 215.002 76.5731 214.261 78.602C213.52 80.6299 213.146 82.8426 213.141 85.2389C213.156 88.5283 213.782 91.3707 215.015 93.7642C216.247 96.1569 217.984 98.0051 220.226 99.3069C222.468 100.608 225.11 101.268 228.153 101.284C229.377 101.277 230.508 101.19 231.551 101.021C232.592 100.855 233.513 100.649 234.312 100.405C235.113 100.161 235.764 99.9214 236.263 99.6846L235.349 94.718ZM157.086 69.1351V100.657H150.464V69.1351H157.086ZM279.488 69.1901L282.972 84.2655C283.347 85.9511 283.711 87.6339 284.065 89.3114C284.419 90.9915 284.74 92.6586 285.028 94.3163H285.142C285.465 92.6797 285.848 91.0138 286.292 89.3192C286.737 87.6247 287.19 85.959 287.656 84.3234L291.996 69.1901H297.42L301.532 83.9798C302.02 85.8015 302.472 87.5684 302.888 89.2759C303.305 90.9849 303.672 92.6652 303.988 94.3163H304.16C304.419 92.6914 304.727 91.0283 305.087 89.3258C305.446 87.6247 305.842 85.8605 306.272 84.0376L309.928 69.1901L316.495 69.1915L306.957 100.656H300.962L296.907 86.7222C296.427 85.088 296.002 83.4616 295.629 81.8484C295.257 80.2338 294.902 78.5103 294.565 76.674H294.393C294.077 78.5484 293.712 80.3098 293.294 81.9625C292.878 83.6138 292.426 85.2192 291.938 86.7774L287.656 100.656H281.659L272.635 69.1901H279.488ZM108.379 69.1901L111.863 84.2655C112.238 85.9511 112.603 87.6339 112.955 89.3114C113.31 90.9915 113.631 92.6586 113.92 94.3163H114.034C114.356 92.6797 114.739 91.0138 115.182 89.3192C115.627 87.6247 116.08 85.959 116.546 84.3234L120.887 69.1901H126.312L130.423 83.9798C130.911 85.8015 131.364 87.5684 131.78 89.2759C132.197 90.9849 132.563 92.6652 132.878 94.3163H133.051C133.31 92.6914 133.618 91.0283 133.978 89.3258C134.337 87.6247 134.733 85.8605 135.164 84.0376L138.819 69.1901L145.387 69.1915L135.848 100.656H129.853L125.797 86.7222C125.319 85.088 124.892 83.4616 124.52 81.8484C124.147 80.2338 123.793 78.5103 123.456 76.674H123.285C122.968 78.5484 122.602 80.3098 122.185 81.9625C121.77 83.6138 121.316 85.2192 120.829 86.7774L116.546 100.656H110.55L101.526 69.1901H108.379ZM262.54 84.8389C262.537 86.4206 262.358 87.9013 262 89.2838C261.644 90.6663 261.129 91.8834 260.454 92.9368C259.781 93.9894 258.965 94.8148 258.01 95.412C257.053 96.0083 255.975 96.3112 254.772 96.3218C253.557 96.3112 252.47 96.0083 251.51 95.4139C250.553 94.8177 249.738 93.9981 249.068 92.9511C248.399 91.9044 247.889 90.6991 247.537 89.3323C247.185 87.9671 247.007 86.5059 247.006 84.9529C247.003 83.5784 247.144 82.217 247.434 80.8687C247.722 79.5204 248.176 78.2887 248.798 77.1752C249.418 76.0616 250.226 75.1697 251.221 74.5008C252.217 73.8304 253.421 73.4868 254.83 73.4685C256.211 73.4868 257.392 73.8357 258.372 74.5138C259.352 75.1919 260.147 76.0893 260.763 77.2039C261.376 78.3188 261.828 79.5413 262.113 80.8687C262.401 82.1972 262.543 83.5206 262.54 84.8389ZM157.658 60.5112C157.641 59.374 157.289 58.4493 156.601 57.7344C155.913 57.0197 154.991 56.6511 153.832 56.6289C152.67 56.6511 151.738 57.0197 151.034 57.7344C150.329 58.4493 149.968 59.374 149.95 60.5112C149.952 61.2235 150.114 61.8673 150.433 62.4419C150.75 63.0163 151.195 63.4741 151.768 63.8138C152.338 64.1536 153.008 64.328 153.774 64.3359C154.578 64.328 155.269 64.1536 155.847 63.8138C156.426 63.4741 156.871 63.0163 157.184 62.4419C157.495 61.8673 157.653 61.2235 157.658 60.5112Z" fill="#BF0000"/>
<path fill-rule="evenodd" clip-rule="evenodd" d="M29.7972 117.26L31.1796 110.172C30.857 103.506 29.8104 97.0701 27.2422 91.3174C29.1664 88.2823 29.8575 83.0924 30.4149 77.6702L22.3447 64.4296C22.1099 64.4819 20.9269 63.2949 20.3183 62.4647C20.0361 62.4897 19.7465 62.5133 19.4462 62.5329C6.40199 63.4681 6.15563 50.2813 7.99321 40.241C9.78996 33.4233 -0.74071 37.2937 0.132788 36.8688C-0.624141 34.7374 1.96232 31.275 5.16153 30.0968C6.35368 31.0978 11.6304 31.9661 10.1769 39.9473C7.49473 44.6165 9.83856 66.1241 23.9332 55.9724L26.0276 52.9293C32.137 49.2713 36.2779 46.8921 44.1514 43.7798C46.5515 40.7355 51.7574 34.1865 52.9916 32.9917C53.288 32.7006 54.833 31.4243 57.0038 30.0131C60.414 25.5732 63.8976 17.3575 63.5671 13.9371C62.0233 15.284 60.3917 16.7526 58.381 13.5614C56.7887 11.0392 60.5714 8.38096 64.1914 8.82863L64.3802 8.61582C61.8581 4.80817 69.7341 -1.63091 69.8194 0.380283C67.9753 1.95434 66.2072 3.75368 67.5884 6.65064C69.7341 4.99126 71.6242 4.85514 73.5026 5.55973L75.4318 6.28253C81.7944 7.62556 89.1067 1.79425 89.243 6.39469L89.2915 8.0138C88.2842 8.86218 87.033 9.63483 85.6124 10.3528C86.7981 10.4401 88.2003 10.0633 89.3362 9.5754L89.3781 11.045L86.9175 13.2949C84.7534 16.5638 82.0922 19.7799 78.8735 22.0068C78.964 22.5005 78.9468 23.4285 78.9404 24.5788C82.7086 24.9479 86.6722 24.4274 89.9328 23.3872C89.9106 23.3527 89.8883 23.3182 89.8673 23.2818C88.8299 21.5898 90.0983 18.1167 91.7221 16.35C92.2033 15.8247 93.183 15.6512 93.5502 15.4853L98.6366 20.1279C98.5178 20.8383 98.4372 21.4029 98.071 21.8026C95.8902 24.1887 92.4161 25.3976 90.5677 24.0497C87.4553 27.6705 83.9074 30.1745 79.5278 31.2709C79.608 31.5699 79.6997 31.861 79.8034 32.143C80.412 32.8815 80.9025 33.696 81.233 34.6064C81.6816 35.5074 82.0449 36.3586 82.3441 37.1772C85.442 36.9449 88.2003 37.0708 92.7219 36.5004L104.205 40.1149L112.611 42.657L107.738 45.2958L103.145 43.0529C99.5655 42.329 96.2966 45.0585 91.8103 42.4169C90.9034 42.8105 89.8646 43.3783 88.7237 44.0655C90.6661 44.6926 92.7976 45.4611 95.7464 46.2362L102.911 58.1036L105.844 64.8925L100.709 63.6321L100.007 59.2171C96.6523 53.6127 93.3872 54.0651 90.3015 51.9182C87.8041 52.5045 84.579 53.6049 81.1806 54.6398C79.3786 57.9868 77.07 61.7788 73.5904 64.8257L61.2915 70.922C61.3648 71.1213 61.4318 71.3233 61.4909 71.5293C61.5668 71.8008 61.6298 72.0722 61.6783 72.3437C63.407 73.1255 65.2224 74.5615 63.6208 75.3932C63.0385 75.6975 62.3249 75.7605 61.5853 75.712C61.5523 75.8496 61.5158 75.9874 61.4764 76.1238C62.7761 77.257 63.7547 78.7405 62.1938 79.1417C61.5223 79.3149 60.7695 79.1929 60.0177 78.9502C59.8698 79.1378 59.7148 79.3189 59.551 79.4933C60.2514 81.0501 60.5109 82.7683 58.9385 82.4929C58.2262 82.3696 57.5651 81.9145 56.9605 81.3518C56.8924 81.3833 56.8241 81.4134 56.7546 81.4435C56.9789 83.2589 56.7127 85.2998 55.216 84.455C54.4136 84.0025 53.8678 83.074 53.4376 82.1048C53.2435 82.1033 53.0519 82.0956 52.8603 82.0798C51.5396 85.3549 49.7822 88.4476 47.7544 90.84L57.9128 93.1302L61.5498 96.703L56.1984 99.3354L54.2573 95.2018C50.7095 95.3379 43.6124 95.6053 43.4405 95.3015C43.3473 95.1366 42.272 91.9942 41.0089 88.2901C39.6146 89.472 38.055 90.6866 36.316 91.9271C36.1796 99.2021 34.4417 105.021 33.9943 109.943C34.9926 111.958 34.961 114.071 35.2809 116.112L29.7972 117.26ZM85.1403 26.5373C82.4832 26.8717 80.5092 26.7838 78.9496 26.4376C78.9744 27.5473 79.0466 28.7394 79.2343 29.8883C81.1032 29.133 83.0274 28.1229 85.1403 26.5373Z" fill="black"/>
</svg>
