<svg width="16" height="16" viewBox="0 0 24 24" xmlns="http://www.w3.org/2000/svg" >
    <path opacity=".7" fill-rule="evenodd" clip-rule="evenodd" d="M7.403 19.011L4.061 22.5l-2.122-2.214 2.648-2.763C2.556 16.1 1.002 14.14 0 12c2-3.558 6-7.827 12-7.828 1.666 0 3.177.33 4.535.881L19.939 1.5l2.122 2.214L19.295 6.6C21.398 8.132 22.966 10.16 24 12c-2 4.27-6.199 7.828-12 7.828a13.01 13.01 0 0 1-4.597-.817zm-1.099-3.28A12.402 12.402 0 0 1 2.52 12c1.342-.877 3.494-1.754 5.754-2.267A4.512 4.512 0 0 0 8 11.29c0 .772.192 1.496.528 2.12L6.304 15.73zm4.572-.344L9.273 17.06c.875.245 1.789.38 2.727.38 4 0 7.558-2.456 9.48-5.44-1.25-.817-3.203-1.634-5.292-2.157l-.324.338c.089.353.136.725.136 1.108 0 2.357-1.79 4.27-4 4.27-.39 0-.768-.06-1.124-.172z" fill="#fff"/>
</svg>