<svg width="32" height="32" xmlns="http://www.w3.org/2000/svg" version="1.1">
 <path d="m15.9,24.95c0,-1.1 1.37,-2 3.06,-2c1.69,0 3.06,0.89 3.06,2c0,1.1 -1.37,2 -3.06,2c-1.69,0 -3.06,-0.89 -3.06,-2z" fill="#ffffff" stroke="#000000" stroke-width="0"/>
 <path d="m9.38,11.47c0,-1.93 1.54,-3.5 3.44,-3.5c1.9,0 3.44,1.56 3.44,3.5c0,1.93 -1.54,3.5 -3.44,3.5c-1.9,0 -3.44,-1.56 -3.44,-3.5z" fill="#ffffff" stroke="#000000" stroke-width="0"/>
 <path d="m17.9,17.05c0,-1.9 1.54,-3.44 3.44,-3.44c1.9,0 3.44,1.54 3.44,3.44c0,1.9 -1.54,3.44 -3.44,3.44c-1.9,0 -3.44,-1.54 -3.44,-3.44z" fill="#ffffff" stroke="#000000" stroke-width="0"/>
 <path d="m12.82,17.08c0,-1.9 1.54,-3.44 3.44,-3.44c1.9,0 3.44,1.54 3.44,3.44c0,1.9 -1.54,3.44 -3.44,3.44c-1.9,0 -3.44,-1.54 -3.44,-3.44z" fill="#ffffff" stroke="#000000" stroke-width="0"/>
 <g id="svg_6" transform="matrix(1 0 0 1 0 0)">
  <path d="m17.86,23.24c-1.07,0.22 -1.64,0.66 -1.7,1.32c-0.03,0.45 0.14,0.81 0.6,1.24c0.43,0.39 0.79,0.58 1.51,0.78c1.23,0.36 2.55,0.2 3.21,-0.4c0.59,-0.53 0.57,-1.16 -0.05,-1.83c-0.62,-0.67 -1.62,-1.07 -2.78,-1.12c-0.35,-0.01 -0.7,-0.01 -0.79,0.01m-0.02,0.32c-0.02,0.02 -0.12,0.05 -0.22,0.06c-0.09,0 -0.18,0.02 -0.19,0.03c-0.01,0 -0.04,0.01 -0.06,0.02c-0.12,0.02 -0.21,0.12 -0.16,0.18c0.03,0.06 0.01,0.06 -0.06,0c-0.08,-0.06 -0.12,-0.05 -0.22,0.06c-0.12,0.14 -0.15,0.22 -0.15,0.52c0,0.1 -0.01,0.11 -0.06,0.04c-0.03,-0.05 -0.03,-0.14 0,-0.2c0.04,-0.08 0.04,-0.13 -0.02,-0.16c-0.04,-0.02 -0.05,-0.02 -0.03,0.01c0.02,0.02 0.02,0.1 -0.01,0.16c-0.05,0.08 -0.03,0.15 0.07,0.26c0.07,0.08 0.11,0.11 0.09,0.07c-0.02,-0.04 -0.01,-0.09 0.03,-0.11c0.03,-0.02 0.06,-0.01 0.06,0.04c0,0.04 0.04,0.02 0.09,-0.04c0.05,-0.07 0.07,-0.15 0.06,-0.18c-0.02,-0.02 0.01,-0.04 0.06,-0.04c0.05,0 0.13,-0.05 0.17,-0.1c0.04,-0.05 0.1,-0.08 0.13,-0.06c0.02,0.02 0.03,-0.03 0.02,-0.11c-0.03,-0.12 -0.02,-0.13 0.03,-0.05c0.05,0.07 0.07,0.07 0.07,0.01c0,-0.04 0.05,-0.07 0.11,-0.06c0.08,0.01 0.11,-0.02 0.11,-0.12c-0.01,-0.16 0.07,-0.2 0.12,-0.07c0.02,0.05 0.03,0.02 0.02,-0.06c-0.01,-0.16 -0.01,-0.16 -0.06,-0.1m0.69,0.39c-0.05,0.04 -0.07,0.05 -0.23,0.07c-0.04,0 -0.05,0.04 -0.02,0.08c0.04,0.07 0.02,0.06 -0.05,0c-0.08,-0.06 -0.12,-0.06 -0.17,0.01c-0.04,0.05 -0.05,0.11 -0.03,0.14c0.03,0.03 0,0.02 -0.06,-0.03c-0.12,-0.09 -0.21,0.01 -0.13,0.14c0.03,0.06 0.02,0.05 -0.06,-0.01c-0.08,-0.07 -0.11,-0.06 -0.19,0.05c-0.05,0.07 -0.1,0.12 -0.12,0.1c-0.02,-0.02 -0.03,0.06 -0.04,0.16c-0.01,0.12 0.01,0.18 0.05,0.15c0.03,-0.02 0.05,-0.06 0.03,-0.09c-0.02,-0.04 0.01,-0.13 0.06,-0.2c0.05,-0.08 0.1,-0.11 0.1,-0.07c0,0.04 -0.03,0.09 -0.07,0.11c-0.04,0.03 -0.05,0.08 -0.03,0.13c0.01,0.04 0.01,0.1 -0.01,0.12c-0.06,0.06 -0.08,0.24 -0.05,0.34c0.03,0.08 0.05,0.08 0.14,0c0.09,-0.06 0.09,-0.05 -0.01,0.06c-0.15,0.18 -0.31,0.08 -0.22,-0.14c0.04,-0.11 0.03,-0.17 -0.04,-0.22c-0.14,-0.12 -0.21,-0.03 -0.15,0.19c0.05,0.18 0.03,0.21 -0.1,0.19c-0.03,-0.01 -0.04,0.01 -0.01,0.04c0.03,0.03 0.09,0.05 0.13,0.05c0.04,0 0.06,0.05 0.05,0.09c-0.01,0.07 0,0.08 0.08,0.01c0.12,-0.1 0.13,-0.01 0.02,0.12c-0.04,0.05 0.01,0.02 0.11,-0.08c0.19,-0.17 0.2,-0.17 0.21,-0.03c0,0.1 -0.01,0.12 -0.05,0.06c-0.04,-0.07 -0.05,-0.07 -0.08,0.01c-0.03,0.06 0,0.09 0.1,0.08c0.08,0 0.13,0.03 0.12,0.08c-0.01,0.04 0.01,0.06 0.05,0.04c0.05,-0.03 0.04,-0.08 -0.01,-0.15c-0.08,-0.09 -0.07,-0.09 0.01,-0.02c0.06,0.04 0.13,0.05 0.15,0.03c0.02,-0.03 0.03,0 0.01,0.06c-0.03,0.05 -0.01,0.12 0.03,0.15c0.05,0.03 0.06,0.02 0.04,-0.03c-0.03,-0.04 -0.02,-0.07 0.02,-0.07c0.03,0 0.07,0.05 0.07,0.11c0,0.07 0.02,0.08 0.04,0.03c0.02,-0.06 0.05,-0.06 0.12,0.03c0.06,0.06 0.08,0.07 0.05,0.02c-0.03,-0.05 0.04,-0.03 0.14,0.06c0.12,0.11 0.15,0.12 0.09,0.03c-0.09,-0.12 -0.09,-0.12 0.06,-0.02c0.11,0.07 0.21,0.08 0.33,0.05c0.12,-0.03 0.16,-0.03 0.14,0.02c-0.03,0.04 0,0.04 0.08,-0.01c0.09,-0.04 0.15,-0.04 0.21,0.01c0.06,0.06 0.07,0.06 0.03,-0.01c-0.04,-0.07 -0.02,-0.08 0.09,-0.05c0.07,0.02 0.12,0.01 0.1,-0.02c-0.02,-0.03 0.01,-0.07 0.07,-0.09c0.06,-0.02 0.08,-0.01 0.06,0.04c-0.03,0.05 0.02,0.01 0.09,-0.08c0.08,-0.08 0.12,-0.11 0.09,-0.06c-0.04,0.08 -0.03,0.08 0.06,0.01c0.06,-0.05 0.11,-0.06 0.11,-0.04c0,0.03 0.05,0 0.13,-0.07c0.08,-0.07 0.12,-0.17 0.1,-0.26c-0.03,-0.18 0.01,-0.19 0.08,0c0.05,0.13 0.06,0.13 0.06,0.01c0,-0.07 -0.03,-0.16 -0.06,-0.2c-0.05,-0.05 -0.05,-0.08 0,-0.11c0.05,-0.03 0.05,-0.07 -0.01,-0.15c-0.06,-0.07 -0.04,-0.07 0.06,0.01c0.17,0.15 0.18,0.11 0.03,-0.16c-0.07,-0.12 -0.11,-0.24 -0.1,-0.28c0.04,-0.1 -0.13,-0.07 -0.27,0.04c-0.1,0.08 -0.1,0.07 0.01,-0.07c0.08,-0.11 0.14,-0.15 0.17,-0.1c0.03,0.06 0.05,0.06 0.05,0c0,-0.09 -0.13,-0.19 -0.25,-0.18c-0.06,0 -0.12,-0.02 -0.15,-0.06c-0.03,-0.04 -0.04,-0.03 -0.03,0.03c0.02,0.05 0.06,0.1 0.1,0.1c0.08,0 0.11,0.08 0.05,0.13c-0.01,0.02 -0.09,-0.05 -0.17,-0.16c-0.11,-0.15 -0.16,-0.18 -0.23,-0.12c-0.06,0.05 -0.09,0.04 -0.12,-0.04c-0.03,-0.09 -0.05,-0.09 -0.09,-0.03c-0.04,0.07 -0.06,0.06 -0.06,-0.03c0,-0.13 0,-0.13 -0.1,0c-0.06,0.08 -0.08,0.08 -0.06,0.02c0.03,-0.08 -0.01,-0.1 -0.17,-0.09c-0.11,0.01 -0.22,0.02 -0.22,0.03c-0.04,0.04 -0.18,0.03 -0.25,-0.01c-0.03,-0.03 -0.09,-0.03 -0.11,0m1.9,0.26c0.03,0.06 0.06,0.16 0.06,0.22c0,0.07 0.04,0.23 0.11,0.34c0.11,0.21 0.1,0.29 -0.03,0.31c-0.03,0 -0.07,0.01 -0.09,0.01c-0.03,0.01 -0.01,0.05 0.04,0.11c0.07,0.08 0.09,0.08 0.19,-0.01c0.06,-0.06 0.1,-0.15 0.07,-0.2c-0.02,-0.06 -0.01,-0.09 0.04,-0.06c0.03,0.03 0.09,0.01 0.11,-0.03c0.03,-0.05 0.02,-0.06 -0.03,-0.03c-0.09,0.06 -0.2,-0.22 -0.12,-0.32c0.05,-0.06 0.03,-0.07 -0.08,-0.05c-0.09,0.02 -0.12,0 -0.1,-0.06c0.02,-0.05 -0.03,-0.14 -0.1,-0.2c-0.09,-0.07 -0.11,-0.08 -0.07,-0.03m0.77,1.16c0,0.04 0,0.1 0,0.13c0.01,0.03 -0.02,0.03 -0.05,0.01c-0.04,-0.02 -0.05,-0.07 -0.03,-0.11c0.02,-0.05 -0.01,-0.03 -0.06,0.04c-0.05,0.07 -0.09,0.14 -0.07,0.16c0.01,0.03 -0.02,0.05 -0.07,0.05c-0.07,0 -0.07,-0.02 -0.01,-0.1c0.07,-0.09 0.07,-0.09 -0.03,-0.01c-0.07,0.05 -0.1,0.13 -0.08,0.18c0.03,0.08 0.02,0.08 -0.07,0c-0.1,-0.07 -0.1,-0.07 -0.06,0.01c0.04,0.06 0.03,0.08 -0.04,0.05c-0.11,-0.04 -0.12,0.05 -0.02,0.2c0.03,0.06 -0.01,0.04 -0.09,-0.03l-0.14,-0.12l0.04,0.25c0.02,0.13 0.02,0.23 0,0.21c-0.04,-0.04 -0.07,-0.14 -0.09,-0.34c-0.01,-0.03 -0.04,0 -0.06,0.07c-0.03,0.07 -0.03,0.15 0,0.19c0.03,0.04 0.02,0.07 -0.03,0.07c-0.05,0 -0.08,-0.05 -0.07,-0.11c0.01,-0.05 -0.02,-0.1 -0.06,-0.1c-0.05,0 -0.07,0.05 -0.05,0.13c0.03,0.13 0.03,0.13 -0.07,0.01c-0.09,-0.11 -0.1,-0.11 -0.07,-0.02c0.02,0.07 0.02,0.11 -0.01,0.1c-0.03,-0.01 -0.07,0 -0.07,0.03c-0.04,0.11 -0.01,0.12 0.09,0.04c0.09,-0.08 0.1,-0.08 0.06,0.04c-0.04,0.12 -0.04,0.12 0.04,0.01c0.06,-0.08 0.11,-0.09 0.14,-0.05c0.03,0.05 0.06,0.05 0.13,0c0.05,-0.04 0.09,-0.05 0.09,-0.03c0,0.03 0.04,0.02 0.08,-0.02c0.05,-0.04 0.1,-0.06 0.12,-0.04c0.02,0.02 0.07,-0.02 0.12,-0.08c0.08,-0.1 0.08,-0.1 -0.02,-0.03c-0.08,0.07 -0.11,0.07 -0.15,0.01c-0.03,-0.05 -0.02,-0.06 0.02,-0.04c0.04,0.03 0.09,0.02 0.12,-0.02c0.02,-0.05 0.08,-0.03 0.17,0.04l0.13,0.12l-0.11,-0.19c-0.07,-0.1 -0.08,-0.15 -0.03,-0.11c0.09,0.09 0.21,0.11 0.15,0.02c-0.02,-0.03 0,-0.08 0.04,-0.11c0.04,-0.02 0.06,-0.01 0.03,0.03c-0.02,0.04 -0.01,0.08 0.02,0.11c0.06,0.03 0.1,-0.09 0.08,-0.24c-0.01,-0.02 0.03,-0.03 0.08,-0.01c0.05,0.02 0.14,-0.01 0.2,-0.06c0.09,-0.1 0.05,-0.14 -0.11,-0.11c-0.06,0 -0.03,-0.17 0.03,-0.23c0.03,-0.03 0.04,-0.01 0.03,0.04c-0.01,0.05 0.02,0.1 0.07,0.11c0.08,0.03 0.08,0.02 0.01,-0.03c-0.04,-0.03 -0.07,-0.08 -0.06,-0.11c0.01,-0.02 -0.03,-0.05 -0.09,-0.06c-0.06,-0.01 -0.11,0.01 -0.12,0.05" fill="#b4f5ff" fill-rule="evenodd"/>
  <path d="m18.53,23.95c-0.05,0.04 -0.07,0.05 -0.23,0.07c-0.04,0 -0.05,0.04 -0.02,0.08c0.04,0.07 0.02,0.06 -0.05,0c-0.08,-0.06 -0.12,-0.06 -0.17,0.01c-0.04,0.04 -0.05,0.11 -0.03,0.14c0.03,0.03 0,0.02 -0.06,-0.03c-0.12,-0.09 -0.21,0.01 -0.13,0.14c0.03,0.06 0.02,0.05 -0.06,-0.01c-0.08,-0.07 -0.11,-0.06 -0.19,0.05c-0.05,0.07 -0.1,0.12 -0.12,0.1c-0.02,-0.02 -0.03,0.06 -0.04,0.16c-0.01,0.12 0.01,0.18 0.05,0.15c0.03,-0.02 0.05,-0.06 0.03,-0.09c-0.02,-0.04 0.01,-0.13 0.06,-0.2c0.05,-0.08 0.1,-0.11 0.1,-0.07c0,0.04 -0.03,0.09 -0.07,0.11c-0.04,0.03 -0.05,0.08 -0.03,0.13c0.01,0.04 0.01,0.1 -0.01,0.12c-0.06,0.06 -0.08,0.24 -0.05,0.34c0.03,0.08 0.05,0.08 0.14,0c0.09,-0.06 0.09,-0.05 -0.01,0.06c-0.15,0.18 -0.31,0.08 -0.22,-0.14c0.04,-0.11 0.03,-0.17 -0.04,-0.22c-0.14,-0.12 -0.21,-0.03 -0.15,0.19c0.05,0.18 0.03,0.21 -0.1,0.19c-0.03,-0.01 -0.04,0.01 -0.01,0.04c0.03,0.03 0.09,0.05 0.13,0.05c0.04,0 0.06,0.05 0.05,0.09c-0.01,0.07 0,0.08 0.08,0.01c0.12,-0.1 0.13,-0.01 0.02,0.12c-0.04,0.05 0.01,0.02 0.11,-0.08c0.19,-0.17 0.2,-0.17 0.21,-0.03c0,0.1 -0.01,0.12 -0.05,0.06c-0.04,-0.07 -0.05,-0.07 -0.08,0.01c-0.03,0.06 0,0.09 0.1,0.08c0.08,0 0.13,0.03 0.12,0.08c-0.01,0.04 0.01,0.06 0.05,0.04c0.05,-0.03 0.04,-0.08 -0.01,-0.15c-0.08,-0.09 -0.07,-0.09 0.01,-0.02c0.06,0.04 0.13,0.05 0.15,0.03c0.02,-0.03 0.03,0 0.01,0.06c-0.03,0.05 -0.01,0.12 0.03,0.15c0.05,0.03 0.06,0.02 0.04,-0.03c-0.03,-0.04 -0.02,-0.07 0.02,-0.07c0.03,0 0.07,0.05 0.07,0.11c0,0.07 0.02,0.08 0.04,0.03c0.02,-0.06 0.05,-0.06 0.12,0.03c0.06,0.06 0.08,0.07 0.05,0.02c-0.03,-0.05 0.04,-0.03 0.14,0.06c0.12,0.11 0.15,0.12 0.09,0.03c-0.09,-0.12 -0.09,-0.12 0.06,-0.02c0.11,0.07 0.21,0.08 0.33,0.05c0.12,-0.03 0.16,-0.03 0.14,0.02c-0.03,0.04 0,0.04 0.08,-0.01c0.09,-0.04 0.15,-0.04 0.21,0.01c0.06,0.06 0.07,0.06 0.03,-0.01c-0.04,-0.07 -0.02,-0.08 0.09,-0.05c0.07,0.02 0.12,0.01 0.1,-0.02c-0.02,-0.03 0.01,-0.07 0.07,-0.09c0.06,-0.02 0.08,-0.01 0.06,0.04c-0.03,0.05 0.02,0.01 0.09,-0.08c0.08,-0.08 0.12,-0.11 0.09,-0.06c-0.04,0.08 -0.03,0.08 0.06,0.01c0.06,-0.05 0.11,-0.06 0.11,-0.04c0,0.03 0.05,0 0.13,-0.07c0.08,-0.07 0.12,-0.17 0.1,-0.26c-0.03,-0.18 0.01,-0.19 0.08,0c0.05,0.13 0.06,0.13 0.06,0.01c0,-0.07 -0.03,-0.16 -0.06,-0.2c-0.05,-0.05 -0.05,-0.08 0,-0.11c0.05,-0.03 0.05,-0.07 -0.01,-0.15c-0.06,-0.07 -0.04,-0.07 0.06,0.01c0.17,0.15 0.18,0.11 0.03,-0.16c-0.07,-0.12 -0.11,-0.24 -0.1,-0.28c0.04,-0.1 -0.13,-0.07 -0.27,0.04c-0.1,0.08 -0.1,0.07 0.01,-0.07c0.08,-0.11 0.14,-0.15 0.17,-0.1c0.03,0.06 0.05,0.06 0.05,0c0,-0.09 -0.13,-0.19 -0.25,-0.18c-0.06,0 -0.12,-0.02 -0.15,-0.06c-0.03,-0.04 -0.04,-0.03 -0.03,0.03c0.02,0.05 0.06,0.1 0.1,0.1c0.08,0 0.11,0.08 0.05,0.13c-0.01,0.02 -0.09,-0.05 -0.17,-0.16c-0.11,-0.15 -0.16,-0.18 -0.23,-0.12c-0.06,0.05 -0.09,0.04 -0.12,-0.04c-0.03,-0.09 -0.05,-0.09 -0.09,-0.03c-0.04,0.07 -0.06,0.06 -0.06,-0.03c0,-0.13 0,-0.13 -0.1,0c-0.06,0.08 -0.08,0.08 -0.06,0.02c0.03,-0.08 -0.01,-0.1 -0.17,-0.09c-0.11,0.01 -0.22,0.02 -0.22,0.03c-0.04,0.04 -0.18,0.03 -0.25,-0.01c-0.03,-0.03 -0.09,-0.03 -0.11,0m1.9,0.26c0.03,0.06 0.06,0.16 0.06,0.22c0,0.07 0.04,0.23 0.11,0.34c0.11,0.21 0.1,0.29 -0.03,0.31c-0.03,0 -0.07,0.01 -0.09,0.01c-0.03,0.01 -0.01,0.05 0.04,0.11c0.07,0.08 0.09,0.08 0.19,-0.01c0.06,-0.06 0.1,-0.15 0.07,-0.2c-0.02,-0.06 -0.01,-0.09 0.04,-0.06c0.03,0.03 0.09,0.01 0.11,-0.03c0.03,-0.05 0.02,-0.06 -0.03,-0.03c-0.09,0.06 -0.2,-0.22 -0.12,-0.32c0.05,-0.06 0.03,-0.07 -0.08,-0.05c-0.09,0.02 -0.12,0 -0.1,-0.06c0.02,-0.05 -0.03,-0.14 -0.1,-0.2c-0.09,-0.07 -0.11,-0.08 -0.07,-0.03" fill="#64cdff" fill-rule="evenodd"/>
  <path d="m14.67,6.85c-0.81,0.21 -1.9,0.88 -2.57,1.59c-0.15,0.17 -0.23,0.26 -0.17,0.22c0.11,-0.08 0.11,-0.08 0.08,0.08c-0.02,0.14 -0.01,0.16 0.05,0.11c0.06,-0.05 0.11,-0.04 0.2,0.05c0.06,0.07 0.16,0.11 0.23,0.1c0.1,-0.02 0.12,0 0.09,0.07c-0.02,0.05 -0.01,0.08 0.02,0.06c0.07,-0.04 0.34,0.25 0.28,0.31c-0.03,0.03 -0.01,0.04 0.03,0.01c0.1,-0.06 0.1,-0.07 -0.02,-0.19c-0.07,-0.07 -0.07,-0.1 -0.03,-0.1c0.06,0 0.06,-0.03 -0.01,-0.11c-0.07,-0.1 -0.06,-0.1 0.06,0c0.08,0.08 0.12,0.16 0.09,0.23c-0.03,0.09 -0.02,0.09 0.08,0.01c0.12,-0.1 0.12,-0.09 0.01,0.07c-0.09,0.14 -0.09,0.17 -0.01,0.24c0.05,0.04 0.08,0.11 0.06,0.14c-0.02,0.03 0,0.05 0.05,0.04c0.05,-0.01 0.08,0.03 0.08,0.11c-0.01,0.07 0.03,0.13 0.07,0.13c0.05,0 0.07,-0.02 0.05,-0.05c-0.02,-0.03 0.01,-0.05 0.05,-0.05c0.05,0 0.02,-0.05 -0.06,-0.1c-0.08,-0.06 -0.12,-0.13 -0.1,-0.17c0.03,-0.04 0.01,-0.05 -0.04,-0.02c-0.06,0.04 -0.07,0.03 -0.03,-0.03c0.04,-0.06 0.03,-0.07 -0.03,-0.03c-0.06,0.04 -0.07,0.03 -0.03,-0.03c0.03,-0.06 0.02,-0.07 -0.04,-0.03c-0.08,0.04 -0.08,0.04 0,-0.05c0.1,-0.13 0.14,-0.14 0.12,-0.03c-0.01,0.04 0.01,0.07 0.05,0.06c0.05,-0.01 0.07,0.04 0.06,0.11c-0.03,0.13 0.16,0.29 0.25,0.21c0.03,-0.03 0.01,0.02 -0.04,0.11c-0.05,0.08 -0.11,0.17 -0.14,0.19c-0.03,0.03 -0.01,0.06 0.04,0.08c0.06,0.02 0.09,0.09 0.08,0.17c-0.02,0.07 0,0.14 0.03,0.16c0.04,0.02 0.04,0.07 0.02,0.11c-0.02,0.04 -0.01,0.05 0.02,0.03c0.08,-0.05 0.25,0.38 0.24,0.61c-0.01,0.12 0.01,0.15 0.05,0.11c0.08,-0.08 0.12,-0.27 0.05,-0.23c-0.06,0.04 -0.04,-0.26 0.01,-0.32c0.02,-0.02 0.05,0.01 0.07,0.07c0.03,0.06 0.02,0.08 -0.03,0.06c-0.04,-0.03 -0.06,-0.01 -0.04,0.04c0.02,0.05 0.06,0.08 0.1,0.07c0.07,-0.01 0.07,0.1 0,0.21c-0.11,0.17 -0.18,0.42 -0.1,0.37c0.04,-0.02 0.05,-0.01 0.03,0.05c-0.01,0.04 -0.07,0.07 -0.11,0.06c-0.06,-0.01 -0.05,0.02 0.02,0.1c0.16,0.18 0.13,0.25 -0.03,0.11l-0.14,-0.12l0.12,0.16c0.13,0.15 0.15,0.48 0.03,0.4c-0.04,-0.02 -0.04,-0.06 -0.02,-0.1c0.03,-0.05 0.01,-0.05 -0.04,-0.02c-0.05,0.03 -0.05,0.07 -0.01,0.11c0.13,0.14 0.07,0.19 -0.07,0.07c-0.13,-0.11 -0.14,-0.11 -0.05,0c0.1,0.12 0.1,0.14 0.12,0.42c0.01,0.16 0.09,0.13 0.11,-0.05c0.07,-0.46 0.1,-0.62 0.15,-0.67c0.04,-0.03 0.03,-0.11 -0.01,-0.18c-0.05,-0.1 -0.04,-0.12 0.02,-0.08c0.05,0.04 0.06,0.03 0.02,-0.03c-0.09,-0.15 -0.09,-0.43 0,-0.5c0.06,-0.05 0.08,-0.05 0.08,0.02c0,0.05 -0.03,0.08 -0.05,0.06c-0.03,-0.02 -0.06,0.01 -0.06,0.07c0,0.06 0.03,0.09 0.07,0.06c0.03,-0.02 0.04,0.01 0.02,0.07c-0.03,0.08 -0.02,0.1 0.04,0.06c0.06,-0.04 0.07,-0.03 0.03,0.04c-0.03,0.05 -0.07,0.14 -0.08,0.21c-0.01,0.09 0,0.1 0.07,0.04c0.06,-0.05 0.09,-0.04 0.09,0.02c0,0.05 -0.03,0.09 -0.05,0.08c-0.03,0 -0.05,0.02 -0.05,0.05c0,0.04 0.03,0.06 0.06,0.05c0.03,-0.01 0,0.08 -0.07,0.19c-0.09,0.15 -0.1,0.23 -0.06,0.33c0.06,0.12 0.06,0.12 -0.02,0.02c-0.09,-0.1 -0.1,-0.11 -0.13,-0.01c-0.06,0.13 -0.05,0.16 0.01,0.13c0.03,-0.02 0.05,0 0.05,0.05c0,0.05 -0.02,0.08 -0.05,0.06c-0.07,-0.04 -0.24,0.24 -0.2,0.32c0.03,0.03 0,0.03 -0.05,-0.01c-0.08,-0.07 -0.12,-0.06 -0.24,0.07c-0.07,0.08 -0.11,0.17 -0.09,0.19c0.03,0.03 0.02,0.04 -0.03,0.01c-0.04,-0.02 -0.06,-0.07 -0.04,-0.1c0.02,-0.04 0.01,-0.06 -0.02,-0.06c-0.11,0 -0.14,0.08 -0.06,0.18c0.07,0.09 0.06,0.09 -0.03,0.01c-0.11,-0.08 -0.15,-0.05 -0.12,0.09c0.01,0.03 -0.04,0.01 -0.1,-0.04c-0.1,-0.08 -0.1,-0.07 -0.07,0.04c0.05,0.13 0.05,0.13 -0.05,0.01c-0.09,-0.12 -0.12,-0.1 -0.09,0.05c0,0.04 -0.03,0.03 -0.07,-0.01c-0.08,-0.07 -0.12,-0.19 -0.14,-0.38c0,-0.04 -0.03,-0.06 -0.06,-0.04c-0.02,0.02 -0.02,0.09 0.02,0.15c0.04,0.08 0.04,0.13 0,0.13c-0.03,0 -0.07,-0.04 -0.09,-0.08c-0.02,-0.06 -0.03,-0.06 -0.04,0c0,0.05 -0.03,0.07 -0.07,0.04c-0.04,-0.02 -0.04,-0.07 0.02,-0.14c0.07,-0.09 0.07,-0.1 -0.02,-0.03c-0.06,0.04 -0.13,0.06 -0.16,0.03c-0.03,-0.02 -0.01,0.01 0.03,0.07c0.06,0.06 0.06,0.11 0.02,0.11c-0.04,0 -0.1,-0.05 -0.14,-0.11c-0.07,-0.11 -0.07,-0.11 -0.03,0c0.02,0.08 0.01,0.11 -0.05,0.09c-0.04,-0.01 -0.08,-0.06 -0.08,-0.09c0,-0.04 -0.02,-0.09 -0.04,-0.12c-0.08,-0.07 -0.01,0.15 0.07,0.25c0.07,0.09 0.1,0.09 0.14,0.03c0.04,-0.07 0.05,-0.07 0.05,0c0.01,0.05 0.04,0.06 0.08,0.03c0.15,-0.09 0.23,-0.07 0.35,0.07l0.11,0.13l-0.14,-0.12c-0.13,-0.11 -0.2,-0.07 -0.09,0.06c0.02,0.04 -0.01,0.01 -0.07,-0.05c-0.1,-0.12 -0.14,-0.1 -0.11,0.05c0.01,0.03 -0.02,0.03 -0.07,-0.02c-0.06,-0.05 -0.1,-0.06 -0.16,0c-0.07,0.05 -0.09,0.05 -0.07,-0.01c0.01,-0.05 -0.02,-0.1 -0.06,-0.11c-0.05,-0.02 -0.07,0.02 -0.05,0.1c0.01,0.08 0,0.12 -0.03,0.1c-0.03,-0.02 -0.05,-0.09 -0.03,-0.16c0.01,-0.06 -0.03,-0.18 -0.1,-0.26c-0.08,-0.09 -0.12,-0.11 -0.11,-0.05c0.01,0.06 -0.02,0.09 -0.09,0.07c-0.06,-0.01 -0.11,0.01 -0.11,0.05c0,0.06 0.11,0.06 0.23,-0.02c0.11,-0.07 0.1,0.01 -0.01,0.13c-0.08,0.07 -0.1,0.07 -0.1,0.01c0,-0.06 -0.01,-0.06 -0.06,0.01c-0.04,0.07 -0.06,0.07 -0.06,0.01c0,-0.04 -0.03,-0.06 -0.07,-0.04c-0.03,0.02 -0.04,0.07 -0.02,0.11c0.03,0.04 0.01,0.05 -0.03,0.02c-0.04,-0.02 -0.06,-0.07 -0.05,-0.09c0.02,-0.03 0.01,-0.09 -0.02,-0.14c-0.04,-0.05 -0.03,-0.12 0.02,-0.18c0.06,-0.08 0.05,-0.08 -0.02,-0.04c-0.21,0.13 -0.36,0.08 -0.32,-0.12c0,-0.03 -0.04,-0.02 -0.09,0.02c-0.06,0.05 -0.1,0.12 -0.1,0.16c0,0.04 0.03,0.03 0.06,-0.02c0.04,-0.07 0.06,-0.07 0.08,0c0.02,0.05 0.08,0.09 0.15,0.09c0.06,0 0.12,0.03 0.13,0.08c0.01,0.04 0,0.05 -0.02,0.02c-0.02,-0.04 -0.06,-0.07 -0.09,-0.07c-0.04,0 -0.05,0.02 -0.03,0.05c0.02,0.03 -0.01,0.06 -0.06,0.06c-0.05,0 -0.07,-0.03 -0.06,-0.05c0.02,-0.03 0,-0.07 -0.03,-0.09c-0.04,-0.02 -0.07,0 -0.07,0.04c0,0.05 -0.03,0.03 -0.07,-0.04c-0.05,-0.09 -0.05,-0.15 0.01,-0.25c0.08,-0.12 0.08,-0.12 -0.03,-0.04c-0.11,0.09 -0.12,0.09 -0.08,-0.01c0.02,-0.06 0.02,-0.12 -0.01,-0.14c-0.03,-0.02 -0.05,0.08 -0.04,0.22c0.01,0.13 -0.01,0.23 -0.03,0.22c-0.03,-0.02 -0.04,-0.09 -0.02,-0.15c0.04,-0.09 0.03,-0.09 -0.05,-0.03c-0.08,0.06 -0.09,0.05 -0.1,-0.06c-0.01,-0.11 0,-0.12 0.04,-0.05c0.05,0.08 0.06,0.06 0.05,-0.05l-0.01,-0.15l-0.11,0.14c-0.06,0.08 -0.12,0.11 -0.12,0.07c0,-0.04 -0.02,-0.06 -0.05,-0.04c-0.03,0.02 -0.05,-0.03 -0.05,-0.09c0.01,-0.07 0.03,-0.13 0.06,-0.13c0.02,0 0.07,0 0.09,0c0.03,0 0.01,0.03 -0.04,0.06c-0.04,0.03 -0.06,0.07 -0.02,0.09c0.03,0.02 0.09,-0.03 0.13,-0.1c0.05,-0.07 0.05,-0.11 0.02,-0.08c-0.04,0.02 -0.09,-0.01 -0.11,-0.06c-0.04,-0.09 -0.05,-0.09 -0.13,0.01c-0.08,0.1 -0.08,0.1 -0.06,-0.05c0.02,-0.11 0,-0.16 -0.06,-0.16c-0.05,0 -0.07,0.03 -0.04,0.06c0.06,0.1 0.06,0.42 0,0.38c-0.03,-0.02 -0.04,-0.05 -0.03,-0.07c0.01,-0.03 0,-0.1 -0.03,-0.17c-0.04,-0.11 -0.05,-0.11 -0.05,-0.02c0,0.06 -0.03,0.11 -0.07,0.11c-0.03,0 -0.04,0.04 -0.02,0.1c0.02,0.05 0,0.09 -0.04,0.09c-0.05,0 -0.06,0.04 -0.04,0.1c0.02,0.06 0.01,0.14 -0.02,0.18c-0.13,0.16 -0.27,1.62 -0.23,2.38c0.08,1.44 0.27,1.92 1.08,2.75c0.54,0.55 1.05,0.9 1.89,1.3c0.59,0.28 1.58,0.63 2.03,0.73c0.15,0.03 0.12,-0.01 -0.16,-0.17c-0.82,-0.48 -1.52,-1.43 -1.74,-2.35c-0.12,-0.51 -0.12,-1.31 0,-1.79c0.13,-0.5 0.48,-1.2 0.76,-1.52c0.12,-0.15 0.2,-0.28 0.17,-0.31c-0.02,-0.02 0,-0.04 0.05,-0.02c0.06,0.01 0.09,-0.02 0.08,-0.06c-0.01,-0.05 0.01,-0.07 0.05,-0.06c0.03,0 0.13,-0.07 0.22,-0.18c0.1,-0.1 0.15,-0.15 0.13,-0.09c-0.03,0.05 0.02,0.02 0.09,-0.07c0.08,-0.08 0.12,-0.11 0.1,-0.06c-0.03,0.06 -0.01,0.06 0.05,-0.02c0.05,-0.06 0.11,-0.09 0.13,-0.06c0.02,0.02 0.04,0 0.04,-0.04c0,-0.04 0.03,-0.06 0.06,-0.04c0.04,0.02 0.07,0.01 0.07,-0.03c0,-0.04 0.02,-0.05 0.05,-0.03c0.04,0.02 0.08,0 0.1,-0.03c0.03,-0.04 0.07,-0.05 0.1,-0.03c0.04,0.02 0.06,0 0.06,-0.04c0,-0.04 0.04,-0.06 0.09,-0.04c0.05,0.02 0.11,0.02 0.13,0c0.12,-0.13 1.23,-0.1 1.78,0.04c0.77,0.2 1.44,0.59 2.02,1.17l0.5,0.51l0.36,-0.35c0.38,-0.37 0.89,-0.66 1.42,-0.8c0.47,-0.12 1.33,-0.11 1.79,0.04c0.22,0.06 0.39,0.11 0.39,0.09c0,-0.14 -0.4,-1.21 -0.64,-1.71c-1.24,-2.58 -3.67,-4.87 -5.88,-5.53c-0.61,-0.18 -1.59,-0.22 -2.11,-0.09m-2.55,1.63c-0.05,0.09 -0.08,0.32 -0.03,0.27c0.02,-0.02 0.1,0.03 0.18,0.1c0.11,0.1 0.15,0.12 0.15,0.05c0,-0.07 0.01,-0.07 0.05,0c0.05,0.06 0.06,0.06 0.09,-0.02c0.03,-0.07 0,-0.08 -0.12,-0.06c-0.14,0.02 -0.16,0.01 -0.09,-0.06c0.06,-0.08 0.06,-0.09 -0.04,-0.08c-0.14,0.02 -0.22,-0.09 -0.13,-0.2c0.03,-0.04 0.05,-0.08 0.03,-0.08c-0.02,0 -0.06,0.03 -0.09,0.08m1.41,1.59c-0.01,0.06 0.02,0.13 0.08,0.16c0.08,0.05 0.09,0.06 0.01,0.07c-0.08,0 -0.08,0.01 0,0.06c0.08,0.05 0.08,0.06 0.01,0.06c-0.08,0 -0.07,0.03 0.01,0.12c0.05,0.06 0.13,0.18 0.16,0.26c0.05,0.15 0.05,0.15 0.09,0.01c0.02,-0.08 0.01,-0.12 -0.03,-0.09c-0.05,0.03 -0.06,0 -0.03,-0.06c0.02,-0.05 0,-0.15 -0.05,-0.21c-0.06,-0.09 -0.07,-0.14 -0.02,-0.2c0.04,-0.05 0.05,-0.08 0.01,-0.08c-0.14,0.03 -0.21,-0.01 -0.17,-0.09c0.02,-0.06 0.02,-0.1 0,-0.1c-0.02,0 -0.05,0.04 -0.07,0.09m0,2.94l0.03,0.23l-0.09,-0.19l-0.09,-0.19l0.01,0.18c0.01,0.11 -0.03,0.2 -0.09,0.22c-0.08,0.03 -0.08,0.01 -0.01,-0.07c0.06,-0.07 0.06,-0.11 0.02,-0.14c-0.04,-0.02 -0.06,0 -0.05,0.04c0,0.05 -0.03,0.08 -0.07,0.07c-0.05,-0.01 -0.1,0.04 -0.12,0.1c-0.02,0.08 -0.07,0.12 -0.15,0.1c-0.08,-0.01 -0.11,0.01 -0.08,0.05c0.03,0.04 0.01,0.06 -0.05,0.04c-0.06,-0.03 -0.09,0 -0.09,0.08c0,0.06 0.03,0.09 0.06,0.07c0.04,-0.02 0.12,-0.04 0.17,-0.04c0.06,0 0.17,-0.06 0.24,-0.12c0.07,-0.07 0.15,-0.1 0.18,-0.08c0.1,0.06 0.29,-0.2 0.25,-0.34c-0.02,-0.07 -0.01,-0.14 0.03,-0.16c0.03,-0.02 0.05,0.05 0.05,0.17c0.01,0.15 0.02,0.18 0.06,0.12c0.08,-0.12 -0.01,-0.34 -0.13,-0.36c-0.08,-0.01 -0.09,0.04 -0.08,0.22m5.4,6.5c-0.44,0.59 -1.25,1.09 -2.02,1.25c-0.22,0.04 -0.37,0.1 -0.33,0.12c0.11,0.07 2.15,0.06 2.52,-0.01c0.36,-0.07 1.11,-0.34 1.29,-0.47c0.12,-0.08 0.11,-0.09 -0.14,-0.23c-0.15,-0.09 -0.44,-0.33 -0.67,-0.55c-0.22,-0.22 -0.4,-0.4 -0.41,-0.4c-0.01,0 -0.12,0.13 -0.24,0.29" fill="#91ea46" fill-rule="evenodd"/>
  <path d="m20.2,4.32c-0.04,0.09 -0.06,0.38 -0.06,0.64c0,0.61 0.15,1.07 0.6,1.79c0.46,0.74 0.66,1.19 0.66,1.46c0,0.44 -0.07,0.43 -0.63,-0.07c-2,-1.81 -4.19,-2.75 -5.88,-2.52c-1.65,0.22 -3.34,1.42 -4.54,3.22c-0.01,0.01 -0.3,-0.25 -0.64,-0.58c-0.77,-0.72 -1.43,-1.1 -1.84,-1.05c-0.67,0.09 -1.43,0.75 -2.06,1.79c-0.21,0.34 -0.47,0.73 -0.59,0.87c-0.24,0.3 -0.25,0.36 -0.04,0.36c0.3,0 0.75,-0.3 1.32,-0.88c0.62,-0.62 1.05,-0.95 1.26,-0.95c0.44,0.01 1.01,0.49 1.48,1.26l0.32,0.51l-0.27,0.62c-0.15,0.34 -0.36,0.9 -0.47,1.25c-0.12,0.34 -0.22,0.64 -0.23,0.65c-0.01,0.01 -0.15,-0.07 -0.3,-0.19c-0.38,-0.31 -0.96,-0.65 -1.44,-0.86c-0.35,-0.14 -0.5,-0.17 -1.04,-0.17c-1.07,0 -1.47,0.26 -2.5,1.64c-0.78,1.05 -1.31,1.67 -1.68,1.92c-0.15,0.12 -0.28,0.25 -0.28,0.3c0,0.14 0.24,0.23 0.5,0.19c0.4,-0.08 0.72,-0.32 1.78,-1.38c1.41,-1.41 1.81,-1.6 2.61,-1.23c0.46,0.21 0.98,0.6 1.55,1.15l0.45,0.45l0,0.5l0,0.51l-0.61,-0.3c-1.26,-0.62 -2.36,-0.65 -3.48,-0.11c-0.78,0.39 -1.44,1.17 -2.39,2.84c-0.47,0.84 -0.77,1.26 -1.28,1.79c-0.25,0.27 -0.46,0.54 -0.46,0.61c0,0.44 1.23,-0.1 1.99,-0.86c0.16,-0.17 0.57,-0.7 0.9,-1.19c1.28,-1.84 2.01,-2.34 3.15,-2.13c0.45,0.09 1.15,0.41 1.75,0.81c0.55,0.36 0.62,0.44 0.62,0.64c0,0.17 0.32,0.76 0.64,1.19l0.2,0.26l-0.29,0.6c-0.69,1.43 -0.77,2.33 -0.27,3.07c0.48,0.73 1.6,1.13 3.27,1.17c0.56,0.02 0.69,0 0.85,-0.1l0.18,-0.12l-0.13,-0.11c-0.08,-0.06 -0.56,-0.25 -1.08,-0.43c-1.18,-0.4 -1.61,-0.6 -1.85,-0.88c-0.3,-0.34 -0.27,-0.63 0.16,-1.45c0.19,-0.38 0.36,-0.69 0.38,-0.71c0.01,-0.01 0.1,0.03 0.2,0.1c0.58,0.41 1.94,0.96 3.11,1.25c2.15,0.54 4.65,0.67 6.04,0.31c0.5,-0.13 1.31,-0.5 1.81,-0.84c0.3,-0.21 0.48,-0.28 0.79,-0.33c0.76,-0.1 1.32,-0.4 1.9,-0.98l0.36,-0.35l0.24,0.16c0.14,0.09 0.32,0.25 0.4,0.37c0.26,0.33 0.89,1.71 1.25,2.71c0.36,1 0.67,1.67 0.95,2.03c0.17,0.21 0.52,0.43 0.69,0.43c0.11,0 0.07,-0.35 -0.1,-0.8c-0.09,-0.24 -0.22,-0.74 -0.28,-1.13c-0.17,-0.89 -0.47,-2.18 -0.62,-2.62c-0.35,-1.03 -1.06,-2.02 -1.67,-2.34l-0.27,-0.14l0,-0.64c0,-0.68 -0.1,-1.12 -0.36,-1.56c-0.07,-0.12 -0.17,-0.45 -0.21,-0.72l-0.07,-0.49l0.29,-0.39c0.16,-0.22 0.46,-0.62 0.67,-0.9c0.33,-0.44 0.71,-0.79 0.86,-0.79c0.12,0 0.5,0.41 1.24,1.32c1.07,1.32 1.71,1.96 2.24,2.21c0.49,0.23 1.15,0.35 1.51,0.27c0.45,-0.1 0.71,-0.36 0.49,-0.49c-0.05,-0.03 -0.24,-0.07 -0.44,-0.09c-0.68,-0.08 -1.49,-0.75 -2.29,-1.9c-0.71,-1.01 -1.24,-1.68 -1.53,-1.95c-0.36,-0.33 -0.87,-0.57 -1.2,-0.57c-0.56,0 -0.97,0.26 -1.78,1.08l-0.55,0.56l-0.24,-0.52c-0.29,-0.6 -0.29,-0.59 0.1,-1.41c0.31,-0.67 0.63,-1.02 0.96,-1.08c0.35,-0.07 1.12,0.02 1.86,0.2c0.91,0.22 1.84,0.21 2.21,-0.03c0.09,-0.06 0.09,-0.07 0,-0.15c-0.13,-0.13 -3.61,-1.24 -4.14,-1.32c-0.44,-0.07 -0.46,-0.07 -0.78,0.1c-0.42,0.24 -0.89,0.71 -1.18,1.22l-0.24,0.41l-0.12,-0.15c-0.31,-0.38 -0.31,-0.37 -0.14,-0.84c0.26,-0.76 0.18,-1.76 -0.18,-2.3c-0.09,-0.13 -0.35,-0.45 -0.58,-0.71c-0.3,-0.33 -0.53,-0.69 -0.79,-1.2c-0.21,-0.4 -0.43,-0.78 -0.5,-0.85c-0.13,-0.11 -0.14,-0.11 -0.2,0.06m-5.53,2.53c-0.84,0.21 -1.95,0.91 -2.63,1.65c-1.69,1.85 -2.77,4.81 -2.63,7.24c0.08,1.44 0.27,1.92 1.08,2.75c0.54,0.55 1.05,0.9 1.89,1.3c0.59,0.28 1.58,0.63 2.03,0.73c0.15,0.03 0.12,-0.01 -0.16,-0.17c-0.53,-0.31 -1.14,-0.96 -1.41,-1.5c-0.77,-1.52 -0.49,-3.25 0.71,-4.44c0.27,-0.26 0.63,-0.55 0.8,-0.65c1.37,-0.72 3.23,-0.34 4.49,0.93l0.5,0.51l0.36,-0.35c0.38,-0.37 0.89,-0.66 1.42,-0.8c0.47,-0.12 1.33,-0.11 1.79,0.04c0.21,0.06 0.39,0.11 0.39,0.09c0,-0.14 -0.4,-1.21 -0.64,-1.71c-1.24,-2.58 -3.67,-4.87 -5.88,-5.53c-0.61,-0.18 -1.59,-0.22 -2.11,-0.09m1.26,7.28c-1.05,0.22 -1.72,0.72 -2.13,1.58c-0.37,0.78 -0.37,1.61 0,2.4c0.46,0.98 1.42,1.58 2.51,1.58c0.82,0 1.48,-0.29 2.05,-0.88c0.77,-0.82 0.97,-2.05 0.49,-3.1c-0.2,-0.44 -0.71,-0.99 -1.16,-1.24c-0.48,-0.28 -1.3,-0.43 -1.76,-0.34m5.31,0.37c-0.65,0.21 -1.23,0.67 -1.56,1.25c-1.07,1.83 0.36,4.16 2.47,4.02c1.46,-0.09 2.54,-1.22 2.55,-2.65c0,-1.11 -0.57,-2 -1.58,-2.48c-0.37,-0.18 -0.5,-0.2 -1.02,-0.21c-0.37,-0.01 -0.71,0.02 -0.86,0.07m-0.45,2.94c-0.89,0.54 -0.11,1.94 0.82,1.49c0.34,-0.16 0.51,-0.47 0.47,-0.87c-0.03,-0.27 -0.07,-0.36 -0.26,-0.53c-0.19,-0.18 -0.28,-0.21 -0.53,-0.21c-0.19,0 -0.38,0.05 -0.5,0.12m-4.2,0.12c-0.25,0.04 -0.55,0.31 -0.63,0.55c-0.28,0.84 0.74,1.52 1.39,0.92c0.31,-0.29 0.36,-0.71 0.13,-1.13c-0.12,-0.23 -0.56,-0.4 -0.89,-0.34m4.76,0.09c-0.13,0.13 -0.09,0.36 0.09,0.44c0.15,0.07 0.18,0.06 0.29,-0.07c0.1,-0.13 0.11,-0.17 0.03,-0.28c-0.11,-0.16 -0.3,-0.2 -0.41,-0.09m-4.49,0.31c-0.22,0.22 0.04,0.58 0.3,0.43c0.23,-0.12 0.13,-0.5 -0.12,-0.5c-0.06,0 -0.14,0.03 -0.18,0.07m2.07,1.55c-0.44,0.59 -1.25,1.09 -2.02,1.25c-0.22,0.04 -0.37,0.1 -0.33,0.12c0.11,0.07 2.15,0.06 2.52,-0.01c0.36,-0.07 1.11,-0.34 1.29,-0.47c0.12,-0.08 0.11,-0.09 -0.14,-0.23c-0.15,-0.09 -0.44,-0.33 -0.67,-0.55c-0.22,-0.22 -0.4,-0.4 -0.41,-0.4c-0.01,0 -0.12,0.13 -0.24,0.29m-7.17,2.05c-0.21,0.17 -0.22,0.49 -0.02,0.67c0.08,0.08 0.94,0.5 1.92,0.94l1.78,0.81l-0.09,0.29c-0.3,0.96 0.48,2.15 1.84,2.82c0.63,0.3 1.05,0.43 1.86,0.54c1.44,0.21 2.95,-0.36 3.44,-1.29c0.22,-0.41 0.2,-1.1 -0.04,-1.58c-0.9,-1.76 -3.93,-2.66 -5.92,-1.75l-0.44,0.21l-1.95,-0.9c-1.07,-0.49 -2.01,-0.89 -2.08,-0.89c-0.07,0 -0.21,0.06 -0.3,0.13m5.91,1.71c-0.44,0.09 -1.08,0.44 -1.29,0.71c-0.25,0.31 -0.3,0.85 -0.13,1.22c0.37,0.79 1.65,1.46 2.98,1.58c1.21,0.1 2.39,-0.39 2.62,-1.1c0.29,-0.89 -0.65,-1.92 -2.13,-2.32c-0.45,-0.12 -1.65,-0.18 -2.05,-0.09" fill="#1e2122" fill-rule="evenodd"/>
 </g>
</svg>