<svg version="1.2" xmlns="http://www.w3.org/2000/svg" viewBox="0 0 32 32" width="32" height="32">
    <path fill="#fff" d="m15.9 24.9c0-1.1 1.4-1.9 3.1-1.9 1.7 0 3 0.8 3 2 0 1.1-1.4 2-3 2-1.7 0-3.1-0.9-3.1-2z"/>
    <path fill="#fff" d="m9.4 11.5c0-2 1.5-3.5 3.4-3.5 1.9 0 3.5 1.5 3.5 3.5 0 1.9-1.6 3.5-3.5 3.5-1.9 0-3.4-1.6-3.4-3.5z"/>
    <path fill="#fff" d="m17.9 17.1c0-2 1.5-3.5 3.4-3.5 1.9 0 3.5 1.6 3.5 3.4 0 1.9-1.6 3.5-3.5 3.5-1.9 0-3.4-1.5-3.4-3.5z"/>
    <path fill="#fff" d="m12.8 17.1c0-1.9 1.6-3.5 3.5-3.5 1.9 0 3.4 1.6 3.4 3.5 0 1.9-1.5 3.4-3.4 3.4-1.9 0-3.5-1.5-3.5-3.4z"/>
    <path fill="#b4f5ff" d="m18.7 23.2c1.1 0.1 2.1 0.5 2.7 1.2q1 1 0.1 1.8c-0.7 0.6-2 0.7-3.2 0.4-0.7-0.2-1.1-0.4-1.5-0.8-0.5-0.4-0.7-0.8-0.6-1.2q0.1-1 1.7-1.4c0.1 0 0.4 0 0.8 0zm-0.9 0.4c0 0-0.1 0-0.2 0-0.1 0-0.2 0-0.2 0.1q0 0 0 0c-0.1 0-0.2 0.1-0.2 0.2q0.1 0 0 0c-0.1-0.1-0.2-0.1-0.3 0-0.1 0.2-0.1 0.2-0.1 0.5q0 0.2-0.1 0.1c0-0.1 0-0.2 0-0.2q0.1-0.1 0-0.2-0.1 0 0 0c0 0 0 0.1 0 0.2q-0.1 0.1 0 0.2 0.1 0.2 0.1 0.1 0-0.1 0.1-0.1 0 0 0 0 0 0.1 0.1 0 0.1-0.1 0.1-0.2-0.1 0 0 0c0.1 0 0.2-0.1 0.2-0.1q0.1-0.1 0.1-0.1 0.1 0 0-0.1 0-0.2 0.1 0 0 0.1 0 0 0.1-0.1 0.2-0.1 0.1 0 0.1-0.1c0-0.2 0-0.2 0.1-0.1q0 0.1 0 0c0-0.2 0-0.2-0.1-0.1zm0.7 0.4c0 0 0 0-0.2 0q-0.1 0 0 0.1 0 0.1-0.1 0-0.1-0.1-0.1 0-0.1 0.1-0.1 0.2 0.1 0 0-0.1c-0.1-0.1-0.2 0-0.2 0.2q0.1 0 0 0c-0.1-0.1-0.1-0.1-0.2 0q-0.1 0.1-0.1 0.1c0 0-0.1 0.1-0.1 0.2q0 0.1 0.1 0.1 0 0 0-0.1c0 0 0-0.1 0.1-0.2q0.1-0.1 0.1 0 0 0-0.1 0.1-0.1 0 0 0.1 0 0.1 0 0.1c-0.1 0.1-0.1 0.3-0.1 0.4 0 0 0.1 0 0.2 0q0.1-0.1-0.1 0c-0.1 0.2-0.3 0.1-0.2-0.1q0.1-0.2 0-0.2c-0.2-0.2-0.2-0.1-0.2 0.1 0.1 0.2 0.1 0.3-0.1 0.2q0 0 0 0.1 0.1 0 0.2 0 0 0 0 0.1 0 0.1 0.1 0c0.1-0.1 0.1 0 0 0.1q0 0.1 0.1 0c0.2-0.2 0.2-0.2 0.2-0.1q0 0.2 0 0.1-0.1-0.1-0.1 0-0.1 0.1 0.1 0.1 0.1 0 0.1 0.1 0 0 0.1 0 0 0 0-0.1-0.2-0.2 0-0.1 0.1 0.1 0.1 0.1 0-0.1 0 0c0 0.1 0 0.1 0.1 0.2q0 0 0-0.1-0.1 0 0 0c0 0 0.1 0 0.1 0.1q0 0.1 0 0 0-0.1 0.1 0 0.1 0.1 0.1 0.1c0-0.1 0-0.1 0.1 0q0.2 0.2 0.1 0.1-0.1-0.2 0.1-0.1 0.1 0.1 0.3 0.1 0.2-0.1 0.2 0-0.1 0.1 0 0 0.2-0.1 0.2 0 0.1 0.1 0.1 0-0.1-0.1 0.1-0.1 0.1 0.1 0.1 0-0.1 0 0-0.1 0.1 0 0.1 0.1c0 0 0 0 0.1-0.1q0.1-0.1 0.1-0.1-0.1 0.1 0 0 0.1 0 0.1 0 0 0 0.2-0.1 0.1-0.1 0.1-0.2-0.1-0.3 0.1 0 0 0.2 0 0c0-0.1 0-0.2 0-0.2q-0.1-0.1 0-0.1 0-0.1-0.1-0.2 0-0.1 0.1 0 0.3 0.3 0-0.1c0-0.1-0.1-0.3-0.1-0.3 0.1-0.1-0.1-0.1-0.2 0q-0.2 0.2 0 0 0.1-0.2 0.1-0.1 0.1 0.1 0.1 0c0-0.1-0.1-0.2-0.3-0.2q-0.1 0-0.1-0.1-0.1 0 0 0.1 0 0 0.1 0.1c0 0 0.1 0 0 0.1 0 0-0.1-0.1-0.2-0.2-0.1-0.1-0.1-0.2-0.2-0.1q-0.1 0.1-0.1 0 0-0.2-0.1-0.1-0.1 0.1-0.1 0c0-0.1 0-0.1-0.1 0q0 0.1 0 0 0-0.1-0.2-0.1c-0.1 0-0.2 0.1-0.2 0.1 0 0-0.2 0-0.3 0 0-0.1 0-0.1-0.1 0zm1.9 0.2c0.1 0.1 0.1 0.2 0.1 0.2 0 0.1 0 0.3 0.1 0.4 0.1 0.2 0.1 0.3 0 0.3q-0.1 0-0.1 0-0.1 0 0 0.1c0.1 0.1 0.1 0.1 0.2 0 0.1-0.1 0.1-0.2 0.1-0.2q-0.1-0.1 0-0.1c0.1 0.1 0.1 0 0.1 0q0.1-0.1 0 0c-0.1 0-0.2-0.2-0.1-0.3q0.1-0.1-0.1-0.1-0.1 0-0.1-0.1c0 0 0-0.1-0.1-0.2q-0.1-0.1-0.1 0zm0.8 1.2q0 0 0 0.1 0 0-0.1 0 0 0 0-0.1 0-0.1 0 0c-0.1 0.1-0.1 0.2-0.1 0.2q0 0-0.1 0.1-0.1 0 0-0.1 0.1-0.2 0-0.1-0.1 0.1-0.1 0.2 0.1 0.1-0.1 0-0.1-0.1 0 0 0 0.1-0.1 0.1c-0.1-0.1-0.1 0 0 0.2q0 0.1-0.1 0l-0.1-0.2v0.3c0 0.1 0 0.2 0 0.2q0-0.1-0.1-0.3 0-0.1 0 0-0.1 0.1 0 0.2 0 0.1-0.1 0.1 0 0 0-0.1 0-0.1-0.1-0.1-0.1 0 0 0.1c0 0.1 0 0.1-0.1 0q-0.1-0.1-0.1 0 0.1 0.1 0 0.1 0 0-0.1 0 0 0.2 0.1 0.1 0.2-0.2 0.1 0-0.1 0.2 0 0 0.1-0.1 0.2 0 0 0 0.1 0 0.1-0.1 0.1-0.1 0 0.1 0.1 0 0.1-0.1 0.1 0 0 0 0.1-0.1 0.1-0.2 0 0-0.1 0.1-0.2 0 0-0.1 0.1-0.1 0 0.1 0.1 0 0-0.1 0.1 0.1l0.2 0.1-0.1-0.2q-0.1-0.2-0.1-0.1c0.1 0.1 0.2 0.1 0.2 0q0-0.1 0-0.1 0.1 0 0.1 0-0.1 0.1 0 0.1c0 0.1 0.1-0.1 0.1-0.2q0-0.1 0 0c0.1 0 0.2 0 0.2-0.1q0.2-0.1-0.1-0.1c0 0 0-0.2 0.1-0.2q0-0.1 0 0 0 0.1 0.1 0.1 0.1 0.1 0 0-0.1-0.1-0.1-0.1 0-0.1-0.1-0.1-0.1 0-0.1 0.1z"/>
    <path fill="#64cdff" d="m18.6 24c0.1 0 0.2 0 0.3 0 0 0 0.1-0.1 0.2-0.1q0.2 0 0.2 0.1-0.1 0.1 0 0c0.1-0.1 0.1-0.1 0.1 0q0 0.1 0.1 0 0.1-0.1 0.1 0.1 0 0.1 0.1 0c0.1-0.1 0.1 0 0.2 0.1 0.1 0.1 0.2 0.2 0.2 0.2 0.1-0.1 0-0.1 0-0.1q-0.1-0.1-0.1-0.1-0.1-0.1 0-0.1 0 0.1 0.1 0.1c0.2 0 0.3 0.1 0.3 0.2q0 0.1-0.1 0 0-0.1-0.1 0.1-0.2 0.2 0 0c0.1-0.1 0.3-0.1 0.2 0 0 0 0.1 0.2 0.1 0.3q0.3 0.4 0 0.1-0.2-0.1-0.1 0 0.1 0.1 0 0.2 0 0 0 0.1c0.1 0 0.1 0.1 0.1 0.2q0 0.2-0.1 0-0.1-0.3 0 0 0 0.1-0.1 0.2-0.2 0.1-0.2 0.1 0 0-0.1 0-0.1 0.1 0 0 0 0-0.1 0.1c-0.1 0.1-0.1 0.1-0.1 0.1q0-0.1-0.1-0.1-0.1 0.1 0 0.1 0 0.1-0.1 0-0.2 0-0.1 0.1 0 0.1-0.1 0 0-0.1-0.2 0-0.1 0.1-0.1 0 0.1-0.1-0.1 0-0.2 0-0.3-0.1-0.2-0.1-0.1 0 0.1 0.2-0.1 0c-0.1-0.1-0.1-0.1-0.1 0q0 0-0.1-0.1-0.1-0.1-0.1 0 0 0.1 0 0c0-0.1-0.1-0.1-0.1-0.1q-0.1 0 0 0 0 0.1-0.1 0.1c0-0.1 0-0.1 0-0.2q0-0.1 0 0 0 0-0.1-0.1-0.2-0.1-0.1 0.1 0.1 0.1 0.1 0.1-0.1 0-0.1 0 0-0.1-0.1-0.1-0.2 0-0.1-0.1 0-0.1 0.1 0 0 0.1 0-0.1c0-0.1 0-0.1-0.2 0.1q-0.2 0.1-0.1 0c0.1-0.1 0.1-0.2 0-0.1q-0.1 0.1-0.1 0 0-0.1-0.1-0.1 0 0-0.1 0 0-0.1 0-0.1c0.2 0 0.2 0 0.1-0.2 0-0.2 0-0.3 0.2-0.2q0.1 0.1 0 0.3c-0.1 0.2 0.1 0.3 0.2 0.1q0.2-0.1 0-0.1c0 0.1-0.1 0.1-0.1 0 0-0.1 0-0.2 0.1-0.3q0 0 0-0.1-0.1-0.1 0-0.1 0.1-0.1 0.1-0.2 0 0-0.1 0.1c-0.1 0.1-0.1 0.2-0.1 0.2q0 0.1 0 0.1-0.1 0-0.1-0.1c0-0.1 0-0.2 0.1-0.2q0 0 0.1-0.1c0.1-0.1 0.1-0.1 0.2-0.1q0.1 0.1 0 0.1c0-0.2 0-0.3 0.2-0.2q0.1 0.1 0 0.1c0-0.1 0-0.2 0.1-0.2q0-0.1 0.1 0 0.1 0.1 0.1 0-0.1-0.1 0-0.1c0.2 0 0.2 0 0.2-0.1 0 0 0.1 0 0.1 0.1zm1.9 0.2c0.1 0.1 0.1 0.2 0.1 0.2q0 0.1 0.1 0.1 0.2 0 0.1 0.1c-0.1 0.1 0 0.3 0.1 0.3q0.1-0.1 0 0c0 0-0.1 0.1-0.1 0q-0.1 0 0 0.1c0 0 0 0.1-0.1 0.2-0.1 0.1-0.1 0.1-0.2 0q-0.1-0.1 0-0.1 0 0 0.1 0c0.1 0 0.1-0.1 0-0.3-0.1-0.1-0.1-0.3-0.1-0.4 0 0 0-0.1-0.1-0.2q0-0.1 0.1 0z"/>
    <path fill="#91ea46" d="m16.8 6.9c2.2 0.7 4.6 3 5.9 5.6 0.2 0.5 0.6 1.5 0.6 1.7 0 0-0.2 0-0.4-0.1-0.4-0.2-1.3-0.2-1.8 0-0.5 0.1-1 0.4-1.4 0.8l-0.4 0.3-0.5-0.5q-0.8-0.9-2-1.2c-0.5-0.1-1.6-0.1-1.8 0q0 0-0.1 0-0.1 0-0.1 0 0 0.1 0 0.1-0.1-0.1-0.1 0-0.1 0-0.1 0-0.1 0-0.1 0.1 0 0-0.1 0 0 0 0 0 0 0.1-0.1 0.1 0-0.1-0.1 0-0.1 0.1 0 0 0 0-0.1 0.1-0.2 0.1-0.1 0.1c0-0.1-0.1 0-0.2 0.1 0 0.1-0.1 0.1-0.2 0.1q0 0 0 0.1 0 0.1-0.1 0.1-0.1-0.1-0.1 0c0.1 0 0 0.1-0.1 0.3-0.3 0.3-0.7 1-0.8 1.5-0.1 0.5-0.1 1.3 0 1.8 0.2 0.9 0.9 1.9 1.8 2.4 0.2 0.1 0.3 0.2 0.1 0.1-0.4-0.1-1.4-0.4-2-0.7-0.9-0.4-1.4-0.8-1.9-1.3-0.8-0.8-1-1.3-1.1-2.8 0-0.7 0.1-2.2 0.2-2.3q0.1-0.1 0.1-0.2-0.1-0.1 0-0.1 0.1 0 0-0.1 0-0.1 0.1-0.1 0 0 0-0.1 0-0.2 0.1 0 0 0.1 0 0.2 0 0 0 0c0.1 0.1 0.1-0.2 0-0.3q0-0.1 0.1-0.1 0.1 0 0 0.2c0 0.1 0 0.1 0.1 0 0.1-0.1 0.1-0.1 0.1 0q0.1 0.1 0.1 0.1 0.1-0.1 0 0c0 0.1-0.1 0.2-0.1 0.1q-0.1 0 0 0 0.1-0.1 0.1-0.1-0.1 0-0.1 0-0.1 0-0.1 0.1 0 0.1 0.1 0.1 0 0 0 0.1c0 0 0.1 0 0.1-0.1l0.1-0.2v0.2q0.1 0.2 0 0-0.1-0.1 0 0.1c0 0.1 0 0.1 0.1 0.1q0.1-0.1 0 0 0 0.1 0 0.1c0 0 0.1-0.1 0.1-0.2-0.1-0.1 0-0.2 0-0.2q0 0 0 0.1-0.1 0.2 0.1 0 0.1-0.1 0 0.1c0 0.1 0 0.1 0 0.2q0.1 0.1 0.1 0.1 0-0.1 0-0.1 0.1 0.1 0.1 0.1 0 0.1 0 0.1 0.1 0 0.1-0.1 0 0 0 0 0.1 0 0.1 0 0 0.1 0 0 0-0.1-0.1-0.1-0.1 0-0.1-0.1-0.1-0.1-0.1 0-0.1 0.1-0.1 0.1 0-0.1 0.1-0.2 0.1-0.1 0.1 0c0 0.2 0.1 0.2 0.3 0.1q0.1-0.1 0 0 0 0.1 0 0.2 0.1 0.1 0 0.2 0 0 0.1 0.1 0.1 0 0-0.1 0 0 0-0.1 0.1 0 0.1 0.1 0 0.1 0.1 0 0-0.2 0-0.1 0 0.1 0.1 0c0.1-0.1 0.2-0.2 0-0.1-0.1 0.1-0.2 0.1-0.2 0q0 0 0.1 0 0.1 0 0.1-0.1 0-0.1 0.1 0.1c0.1 0 0.1 0.2 0.1 0.2q0 0.1 0 0.2 0.1 0 0.1-0.1 0-0.2 0-0.1 0.1 0 0.1 0.1 0 0.1 0.1 0 0-0.1 0.1 0 0.1 0.1 0.1 0-0.1-0.2 0.1 0 0.1 0.1 0.1 0c-0.1-0.1-0.1-0.2 0.1 0l0.1 0.1-0.1-0.2c-0.1-0.1-0.2-0.1-0.4 0q0 0 0-0.1 0-0.1-0.1 0 0 0.1-0.1 0c-0.1-0.1-0.2-0.3-0.1-0.2q0 0 0 0.1c0 0 0.1 0.1 0.1 0.1q0.1 0 0.1-0.1-0.1-0.2 0 0 0.1 0.1 0.1 0.1 0.1 0 0-0.1 0-0.1 0-0.1 0 0 0.2 0 0.1-0.1 0 0-0.1 0.1 0 0.2 0 0 0-0.1 0-0.1 0.1 0 0 0.1 0 0.1 0.1 0 0-0.1c0-0.1 0-0.2 0-0.2q0.1 0 0.1 0.1 0 0.2 0.1 0.3 0.1 0.1 0.1 0 0-0.2 0.1 0 0.1 0.2 0 0c0-0.1 0-0.1 0.1-0.1q0.1 0.1 0.1 0.1 0-0.2 0.1-0.1 0.2 0.1 0.1 0c-0.1-0.1-0.1-0.2 0-0.2q0.1 0 0 0.1 0 0 0.1 0.1 0.1 0 0 0c0-0.1 0-0.2 0.1-0.2 0.1-0.2 0.2-0.2 0.2-0.1q0.1 0 0.1 0c-0.1-0.1 0.1-0.4 0.2-0.3q0 0 0-0.1 0-0.1 0 0-0.1 0 0-0.2c0-0.1 0 0 0.1 0.1q0.1 0.1 0-0.1c0-0.1 0-0.1 0.1-0.3 0.1-0.1 0.1-0.2 0.1-0.2q-0.1 0-0.1 0 0-0.1 0.1-0.1 0 0 0-0.1 0-0.1-0.1 0-0.1 0.1-0.1 0c0.1-0.1 0.1-0.2 0.1-0.2q0.1-0.1 0-0.1-0.1 0.1 0 0 0-0.1-0.1-0.1 0 0 0-0.1 0-0.1 0 0 0.1 0 0.1-0.1 0-0.1-0.1 0c-0.1 0.1-0.1 0.3 0 0.5q0 0.1 0 0-0.1-0.1 0 0.1 0 0.1 0 0.2c-0.1 0-0.1 0.2-0.2 0.6 0 0.2-0.1 0.3-0.1 0.1 0-0.3 0-0.3-0.1-0.4q-0.2-0.2 0 0c0.2 0.1 0.2 0 0.1-0.1q-0.1-0.1 0-0.1 0.1-0.1 0.1 0-0.1 0.1 0 0.1c0.1 0.1 0.1-0.2-0.1-0.4l-0.1-0.1 0.2 0.1c0.1 0.1 0.2 0 0-0.1q-0.1-0.2 0-0.1c0 0 0.1-0.1 0.1-0.1q0-0.1 0 0c-0.1 0-0.1-0.2 0.1-0.4 0-0.1 0-0.2 0-0.2q-0.1 0-0.1-0.1-0.1-0.1 0 0 0.1 0 0-0.1 0-0.1 0-0.1c-0.1 0.1-0.1 0.4-0.1 0.4 0.1-0.1 0.1 0.1 0 0.2q-0.1 0-0.1-0.1c0.1-0.3-0.1-0.7-0.2-0.6q0 0 0-0.1 0 0 0-0.1-0.1 0-0.1-0.1 0-0.2 0-0.2-0.1 0-0.1-0.1c0 0 0.1-0.1 0.2-0.2q0-0.1 0-0.1c-0.1 0.1-0.3-0.1-0.3-0.2q0.1-0.1 0-0.1-0.1 0-0.1-0.1 0.1-0.1-0.1 0.1-0.1 0.1 0 0 0.1 0 0.1 0-0.1 0.1 0 0.1 0.1-0.1 0 0 0 0.1 0 0 0.1 0 0.1 0.1 0 0 0.1 0.1 0.1 0.1 0 0.1 0 0 0 0.1 0 0-0.1 0c0 0 0 0 0-0.1q0-0.1-0.1-0.1-0.1 0-0.1-0.1c0.1 0 0-0.1 0-0.1-0.1-0.1-0.1-0.1 0-0.2q0.2-0.3 0-0.1-0.2 0.1-0.1 0 0-0.1-0.1-0.2-0.2-0.2-0.1 0 0.2 0.1 0.1 0.1-0.1 0 0 0.1c0.1 0.1 0.1 0.1 0 0.2q-0.1 0 0-0.1c0 0-0.2-0.3-0.3-0.3q0 0.1 0 0 0-0.1-0.1-0.1c-0.1 0-0.2 0-0.2-0.1q-0.2-0.1-0.2-0.1-0.1 0.1-0.1-0.1c0-0.1 0-0.1-0.1 0 0 0 0-0.1 0.2-0.3 0.7-0.7 1.8-1.3 2.6-1.6 0.5-0.1 1.5 0 2.1 0.1zm-4.7 1.6c0 0.1-0.1 0.3 0 0.3 0-0.1 0.1 0 0.2 0.1q0.1 0.1 0.1 0 0-0.1 0.1 0c0 0.1 0 0.1 0.1 0q0-0.1-0.2-0.1-0.2 0.1 0 0c0-0.1 0-0.1-0.1-0.1-0.1 0-0.2-0.1-0.1-0.2q0-0.1 0-0.1 0 0-0.1 0.1zm1.4 1.6q0 0.1 0.1 0.1 0.1 0.1 0 0.1-0.1 0 0 0.1 0.1 0 0 0-0.1 0 0 0.1c0.1 0.1 0.2 0.2 0.2 0.3 0.1 0.2 0.1 0.2 0.1 0q0-0.1 0-0.1-0.1 0.1-0.1 0c0.1-0.1 0-0.2 0-0.2q-0.1-0.2 0-0.2 0-0.1 0-0.1-0.2 0-0.2-0.1 0-0.1 0-0.1 0 0-0.1 0.1zm0.1 2.7c0.1 0 0.2 0.2 0.1 0.4q0 0 0-0.2 0-0.2-0.1-0.1 0 0 0 0.1 0 0.1 0 0.2l-0.1-0.2c0-0.2 0-0.2 0.1-0.2zm0 0.4q0 0 0 0zm0 0c-0.1 0.1-0.2 0.2-0.3 0.1q0 0-0.1 0.1c-0.1 0.1-0.2 0.1-0.3 0.1 0 0-0.1 0.1-0.1 0.1q-0.1 0-0.1-0.1 0-0.1 0.1-0.1 0.1 0.1 0 0 0-0.1 0.1-0.1 0.1 0.1 0.2-0.1 0-0.1 0.1-0.1 0.1 0 0.1 0-0.1-0.1 0-0.1 0.1 0.1 0 0.2-0.1 0.1 0 0 0.1 0 0.1-0.2v-0.2zm5.6 6c0 0 0.2 0.2 0.4 0.4 0.2 0.3 0.5 0.5 0.7 0.6 0.2 0.1 0.2 0.1 0.1 0.2-0.2 0.1-0.9 0.4-1.3 0.5-0.3 0.1-2.4 0.1-2.5 0 0 0 0.1-0.1 0.3-0.1 0.8-0.2 1.6-0.7 2.1-1.3 0.1-0.1 0.2-0.3 0.2-0.3z"/>
    <path fill="#1e2122" d="m20.4 4.3c0.1 0 0.3 0.4 0.5 0.8 0.3 0.5 0.5 0.9 0.8 1.2 0.2 0.3 0.5 0.6 0.6 0.7 0.3 0.6 0.4 1.6 0.1 2.3-0.1 0.5-0.1 0.5 0.2 0.9l0.1 0.1 0.2-0.4c0.3-0.5 0.8-1 1.2-1.2 0.3-0.2 0.4-0.2 0.8-0.1 0.5 0.1 4 1.2 4.1 1.3 0.1 0.1 0.1 0.1 0 0.2-0.3 0.2-1.3 0.2-2.2 0-0.7-0.2-1.5-0.3-1.8-0.2q-0.5 0.1-1 1.1c-0.4 0.8-0.4 0.8-0.1 1.4l0.3 0.5 0.5-0.6c0.8-0.8 1.2-1 1.8-1 0.3 0 0.8 0.2 1.2 0.5 0.3 0.3 0.8 1 1.5 2 0.8 1.1 1.6 1.8 2.3 1.9 0.2 0 0.4 0 0.4 0.1 0.3 0.1 0 0.4-0.4 0.5-0.4 0-1.1-0.1-1.6-0.3-0.5-0.3-1.1-0.9-2.2-2.2-0.7-0.9-1.1-1.3-1.2-1.3-0.2 0-0.6 0.3-0.9 0.7-0.2 0.3-0.5 0.7-0.7 0.9l-0.3 0.4 0.1 0.5c0.1 0.3 0.2 0.6 0.2 0.7 0.3 0.5 0.4 0.9 0.4 1.6v0.6l0.3 0.2c0.6 0.3 1.3 1.3 1.6 2.3 0.2 0.5 0.5 1.8 0.6 2.6 0.1 0.4 0.2 0.9 0.3 1.2 0.2 0.4 0.2 0.8 0.1 0.8-0.1 0-0.5-0.2-0.7-0.5q-0.4-0.5-0.9-2c-0.4-1-1-2.4-1.3-2.7 0-0.1-0.2-0.3-0.4-0.4l-0.2-0.1-0.4 0.3c-0.5 0.6-1.1 0.9-1.9 1-0.3 0.1-0.4 0.1-0.7 0.3-0.5 0.4-1.4 0.7-1.9 0.9-1.3 0.3-3.8 0.2-6-0.3-1.2-0.3-2.5-0.9-3.1-1.3-0.1-0.1-0.2-0.1-0.2-0.1 0 0-0.2 0.3-0.4 0.7-0.4 0.8-0.4 1.1-0.1 1.5 0.2 0.3 0.6 0.5 1.8 0.9 0.5 0.1 1 0.3 1.1 0.4l0.1 0.1-0.2 0.1c-0.1 0.1-0.3 0.1-0.8 0.1-1.7 0-2.8-0.4-3.3-1.2-0.5-0.7-0.4-1.6 0.3-3l0.3-0.6-0.2-0.3c-0.3-0.4-0.7-1-0.7-1.2 0-0.2 0-0.3-0.6-0.6-0.6-0.4-1.3-0.7-1.7-0.8-1.2-0.2-1.9 0.3-3.2 2.1-0.3 0.5-0.7 1-0.9 1.2-0.7 0.7-2 1.3-2 0.8 0 0 0.2-0.3 0.5-0.6 0.5-0.5 0.8-0.9 1.3-1.8 0.9-1.6 1.6-2.4 2.4-2.8 1.1-0.5 2.2-0.5 3.4 0.1l0.6 0.3v-1l-0.4-0.4q-0.9-0.9-1.6-1.2c-0.8-0.4-1.2-0.2-2.6 1.2-1 1.1-1.3 1.3-1.7 1.4-0.3 0.1-0.5 0-0.5-0.2 0 0 0.1-0.1 0.2-0.3 0.4-0.2 0.9-0.8 1.7-1.9 1-1.4 1.4-1.6 2.5-1.6 0.6 0 0.7 0 1.1 0.1 0.4 0.3 1 0.6 1.4 0.9 0.1 0.1 0.3 0.2 0.3 0.2 0 0 0.1-0.3 0.2-0.7 0.1-0.3 0.3-0.9 0.5-1.2l0.3-0.6-0.4-0.5c-0.4-0.8-1-1.3-1.4-1.3q-0.4 0-1.3 1-0.9 0.8-1.3 0.8c-0.2 0-0.2 0 0-0.3 0.1-0.2 0.4-0.6 0.6-0.9 0.6-1 1.4-1.7 2.1-1.8 0.4 0 1 0.3 1.8 1.1 0.4 0.3 0.6 0.6 0.7 0.5 1.2-1.8 2.8-3 4.5-3.2 1.7-0.2 3.9 0.7 5.9 2.5 0.5 0.5 0.6 0.6 0.6 0.1 0-0.3-0.2-0.7-0.7-1.4-0.4-0.8-0.6-1.2-0.6-1.8 0-0.3 0.1-0.6 0.1-0.7 0.1-0.1 0.1-0.1 0.2 0zm-5.7 2.6c-0.9 0.2-2 0.9-2.7 1.6-1.6 1.9-2.7 4.8-2.6 7.2 0.1 1.5 0.3 2 1.1 2.8 0.5 0.5 1 0.9 1.9 1.3 0.6 0.3 1.6 0.6 2 0.7 0.2 0.1 0.1 0-0.1-0.1-0.6-0.4-1.2-1-1.5-1.5-0.7-1.6-0.4-3.3 0.8-4.5 0.2-0.2 0.6-0.5 0.8-0.6 1.3-0.8 3.2-0.4 4.4 0.9l0.5 0.5 0.4-0.4c0.4-0.3 0.9-0.6 1.4-0.8 0.5-0.1 1.4-0.1 1.8 0.1 0.2 0 0.4 0.1 0.4 0.1 0-0.2-0.4-1.2-0.6-1.7-1.3-2.6-3.7-4.9-5.9-5.6-0.6-0.1-1.6-0.2-2.1 0zm1.2 7.2c-1 0.2-1.7 0.7-2.1 1.6-0.4 0.8-0.4 1.6 0 2.4 0.5 1 1.4 1.6 2.5 1.6 0.8 0 1.5-0.3 2.1-0.9 0.7-0.8 0.9-2 0.5-3.1-0.2-0.4-0.8-1-1.2-1.2-0.5-0.3-1.3-0.5-1.8-0.4zm5.3 0.4c-0.6 0.2-1.2 0.7-1.5 1.2-1.1 1.9 0.3 4.2 2.5 4.1 1.4-0.1 2.5-1.3 2.5-2.7 0-1.1-0.6-2-1.6-2.5-0.3-0.1-0.5-0.2-1-0.2-0.4 0-0.7 0-0.9 0.1zm0.1 2.8c0.2 0 0.3 0 0.5 0.2 0.2 0.2 0.3 0.3 0.3 0.6 0 0.4-0.1 0.7-0.5 0.8-0.9 0.5-1.7-0.9-0.8-1.5 0.1 0 0.3-0.1 0.5-0.1zm-3.8 0.6c0.2 0.4 0.2 0.8-0.1 1.1-0.7 0.6-1.7-0.1-1.4-0.9 0-0.2 0.3-0.5 0.6-0.5 0.3-0.1 0.8 0.1 0.9 0.3zm3.9-0.3c-0.2 0.2-0.1 0.4 0 0.5 0.2 0.1 0.2 0 0.3-0.1 0.1-0.1 0.1-0.2 0.1-0.3-0.1-0.1-0.3-0.2-0.4-0.1zm-4.5 0.4c-0.3 0.2 0 0.5 0.3 0.4 0.2-0.1 0.1-0.5-0.2-0.5 0 0-0.1 0-0.1 0.1zm2 1.5c-0.4 0.6-1.2 1.1-2 1.3-0.2 0-0.4 0.1-0.3 0.1 0.1 0 2.1 0 2.5 0 0.4-0.1 1.1-0.4 1.3-0.5 0.1-0.1 0.1-0.1-0.1-0.2-0.2-0.1-0.5-0.4-0.7-0.6-0.2-0.2-0.4-0.4-0.4-0.4 0 0-0.2 0.1-0.3 0.3zm-6.8 1.9c0 0 1 0.4 2 0.9l2 0.9 0.4-0.2c2-0.9 5.1 0 6 1.8 0.2 0.4 0.2 1.1 0 1.5-0.5 1-2 1.5-3.4 1.3-0.9-0.1-1.3-0.2-1.9-0.5-1.4-0.7-2.1-1.9-1.8-2.8v-0.3l-1.7-0.8c-1-0.5-1.9-0.9-2-1-0.2-0.2-0.1-0.5 0.1-0.6 0.1-0.1 0.2-0.2 0.3-0.2zm5.6 1.9c-0.5 0.1-1.1 0.4-1.3 0.7-0.3 0.3-0.3 0.8-0.1 1.2 0.3 0.8 1.6 1.5 2.9 1.6 1.2 0.1 2.4-0.4 2.7-1.1 0.2-0.9-0.7-1.9-2.2-2.3-0.4-0.2-1.6-0.2-2-0.1z"/>
</svg>