<svg width="32" height="32" xmlns="http://www.w3.org/2000/svg" version="1.1">
 <g>
  <title>Layer 1</title>
  <g stroke="null" id="svg_6">
   <path stroke="null" d="m17.85835,23.24179c-1.07109,0.21519 -1.63987,0.65829 -1.69471,1.32031c-0.03738,0.45063 0.13808,0.8108 0.60117,1.23404c0.42779,0.39092 0.78935,0.58036 1.50236,0.78695c1.23384,0.35758 2.55725,0.19268 3.21466,-0.40053c0.58763,-0.53027 0.56992,-1.16243 -0.05155,-1.83369c-0.6185,-0.66803 -1.61761,-1.06824 -2.78123,-1.11397c-0.3479,-0.01373 -0.70371,-0.01063 -0.79069,0.0069m-0.02024,0.31728c-0.02277,0.02271 -0.11999,0.04839 -0.21614,0.05699c-0.09615,0.00854 -0.18192,0.02201 -0.19059,0.02979c-0.00867,0.00778 -0.03714,0.01816 -0.06326,0.02303c-0.11999,0.02245 -0.20349,0.11746 -0.16282,0.18527c0.0315,0.05257 0.01613,0.05149 -0.05193,-0.00361c-0.07945,-0.06427 -0.11974,-0.05295 -0.22537,0.06326c-0.12081,0.13309 -0.14378,0.21342 -0.14858,0.52027c-0.00158,0.09938 -0.01373,0.10671 -0.05801,0.03504c-0.03295,-0.05326 -0.03176,-0.13612 0.00291,-0.20089c0.04035,-0.0754 0.03397,-0.12474 -0.02018,-0.15592c-0.04358,-0.02504 -0.05889,-0.02303 -0.03403,0.00449c0.02486,0.02758 0.01816,0.10064 -0.01493,0.16244c-0.04453,0.08325 -0.02631,0.15067 0.07034,0.26048c0.07173,0.08154 0.11354,0.11461 0.09292,0.0735c-0.02062,-0.04105 -0.00854,-0.09254 0.02682,-0.11443c0.03536,-0.02183 0.06427,-0.00411 0.06427,0.03935c0,0.04352 0.04017,0.02416 0.08925,-0.04302c0.04915,-0.06711 0.07591,-0.14372 0.05953,-0.17021c-0.01632,-0.0265 0.01113,-0.04814 0.06116,-0.04814c0.04997,0 0.126,-0.04238 0.16902,-0.09418c0.04302,-0.05181 0.10076,-0.0802 0.12834,-0.06319c0.02758,0.01708 0.03612,-0.03302 0.01898,-0.1114c-0.02504,-0.11437 -0.0179,-0.12372 0.03656,-0.04751c0.0489,0.0685 0.06806,0.07211 0.06876,0.01303c0.0005,-0.04497 0.05079,-0.07344 0.11164,-0.06326c0.07976,0.01341 0.10861,-0.02119 0.10311,-0.12372c-0.0081,-0.15245 0.07205,-0.19387 0.1224,-0.06326c0.01676,0.04352 0.02727,0.01505 0.0234,-0.06326c-0.00784,-0.15959 -0.00676,-0.15782 -0.06357,-0.10095m0.68916,0.38617c-0.04434,0.04434 -0.0675,0.05143 -0.22986,0.07059c-0.03682,0.00437 -0.04561,0.04352 -0.01948,0.08698c0.03738,0.06224 0.0265,0.06206 -0.05111,-0.00076c-0.07982,-0.06465 -0.11222,-0.06351 -0.16977,0.00582c-0.03909,0.04713 -0.04997,0.11057 -0.02416,0.14099c0.02574,0.03042 -0.00038,0.01936 -0.05819,-0.02474c-0.11987,-0.09134 -0.21791,0.0012 -0.13953,0.1317c0.03568,0.05933 0.02221,0.05857 -0.05383,-0.00303c-0.08533,-0.06914 -0.11557,-0.06168 -0.19178,0.04706c-0.04972,0.07103 -0.10323,0.11626 -0.11892,0.10058c-0.01569,-0.01569 -0.03511,0.05775 -0.04314,0.16313c-0.00911,0.11924 0.01019,0.17629 0.05105,0.15105c0.03612,-0.02233 0.04928,-0.06699 0.02929,-0.0993c-0.01992,-0.03232 0.00803,-0.12208 0.06224,-0.1995c0.05421,-0.07736 0.09855,-0.10753 0.09855,-0.06711c0,0.04049 -0.03042,0.09242 -0.06756,0.11537c-0.0372,0.02296 -0.05339,0.07881 -0.03599,0.12404c0.0174,0.04529 0.01373,0.10013 -0.0081,0.12195c-0.05662,0.05668 -0.08064,0.24252 -0.04434,0.3436c0.026,0.0723 0.0487,0.07249 0.14093,0.00108c0.08824,-0.06832 0.08622,-0.05731 -0.01037,0.05592c-0.15611,0.18299 -0.31387,0.08375 -0.22759,-0.1432c0.04023,-0.10588 0.031,-0.16939 -0.03226,-0.22196c-0.14005,-0.1162 -0.21816,-0.02119 -0.15725,0.19116c0.05269,0.18375 0.03586,0.2176 -0.09513,0.19116c-0.03479,-0.00702 -0.03953,0.01094 -0.01056,0.03997c0.02903,0.02897 0.08596,0.05395 0.12651,0.05554c0.04061,0.00158 0.06509,0.042 0.05446,0.08983c-0.01601,0.07155 -0.00203,0.07249 0.07907,0.00519c0.11746,-0.09747 0.13189,-0.00361 0.01936,0.12619c-0.04346,0.05016 0.0074,0.01366 0.1131,-0.08122c0.19033,-0.17079 0.1923,-0.17111 0.20279,-0.03194c0.00728,0.09627 -0.0057,0.11417 -0.04105,0.05699c-0.04194,-0.06788 -0.05825,-0.06642 -0.08678,0.00791c-0.02436,0.06351 0.00683,0.08931 0.10191,0.08438c0.0828,-0.0043 0.13012,0.026 0.11961,0.0766c-0.00955,0.04611 0.01316,0.06489 0.05054,0.04181c0.04687,-0.02897 0.04244,-0.07446 -0.01423,-0.147c-0.07173,-0.09172 -0.06939,-0.09507 0.01854,-0.02657c0.05541,0.0432 0.12095,0.05832 0.14567,0.03359c0.02474,-0.02474 0.02727,0.00108 0.0057,0.05737c-0.02163,0.0563 -0.00449,0.12392 0.03802,0.15017c0.04946,0.03062 0.0611,0.02151 0.0322,-0.02518c-0.0248,-0.04017 -0.01493,-0.07306 0.02189,-0.07306c0.03682,0 0.06926,0.04984 0.07199,0.1107c0.00323,0.07147 0.0167,0.08154 0.03802,0.02827c0.0248,-0.06198 0.05617,-0.05415 0.12619,0.03162c0.05124,0.06275 0.07223,0.07135 0.04669,0.01916c-0.02562,-0.05219 0.03549,-0.02372 0.13568,0.06326c0.12803,0.11108 0.1546,0.12081 0.08931,0.0327c-0.09021,-0.1217 -0.0883,-0.12246 0.06515,-0.02606c0.10779,0.06774 0.21367,0.08419 0.33253,0.05174c0.11297,-0.03086 0.16035,-0.02504 0.13467,0.01651c-0.02562,0.04149 0.00437,0.04067 0.08476,-0.00234c0.09007,-0.0482 0.14719,-0.04561 0.20671,0.00949c0.06509,0.06028 0.07161,0.05756 0.03138,-0.01296c-0.0389,-0.06818 -0.01885,-0.08064 0.08571,-0.05333c0.07508,0.01967 0.1224,0.0129 0.10512,-0.01499c-0.0172,-0.02795 0.01266,-0.06762 0.06648,-0.0883c0.06445,-0.02474 0.08401,-0.01082 0.05737,0.0408c-0.02221,0.04314 0.02151,0.00721 0.09709,-0.07976c0.07559,-0.08698 0.11531,-0.11544 0.08824,-0.06326c-0.04244,0.08172 -0.03441,0.0828 0.05775,0.0081c0.05889,-0.04776 0.10703,-0.06471 0.10703,-0.03764c0,0.02701 0.05901,-0.0043 0.13119,-0.06958c0.08349,-0.07559 0.12119,-0.17111 0.10367,-0.26283c-0.03523,-0.18432 0.0057,-0.18527 0.07945,-0.00177c0.05395,0.13429 0.05743,0.13498 0.06123,0.01266c0.00215,-0.07135 -0.02695,-0.1606 -0.06477,-0.19842c-0.04952,-0.04952 -0.04864,-0.08122 0.00303,-0.11316c0.05269,-0.03258 0.05022,-0.07249 -0.00917,-0.14947c-0.05712,-0.074 -0.03935,-0.06945 0.06015,0.01543c0.17167,0.14643 0.17768,0.10652 0.02498,-0.16604c-0.06389,-0.11411 -0.105,-0.24075 -0.09128,-0.28149c0.03295,-0.09773 -0.12961,-0.07085 -0.27338,0.04516c-0.0993,0.08014 -0.09811,0.07047 0.00949,-0.07502c0.08204,-0.11095 0.13916,-0.14282 0.17003,-0.09488c0.03397,0.05281 0.04669,0.05307 0.04744,0.00088c0.00126,-0.09356 -0.13258,-0.19096 -0.25207,-0.18343c-0.05219,0.00329 -0.11842,-0.0234 -0.14713,-0.05939c-0.032,-0.03997 -0.04219,-0.02853 -0.02638,0.02954c0.01423,0.05219 0.05915,0.09488 0.09969,0.09488c0.07635,0 0.10804,0.08172 0.05301,0.13676c-0.0172,0.0172 -0.09564,-0.05572 -0.17433,-0.16212c-0.10924,-0.14776 -0.16263,-0.17711 -0.22619,-0.12436c-0.06244,0.05187 -0.09349,0.04232 -0.12436,-0.0382c-0.03277,-0.08533 -0.05219,-0.09001 -0.09469,-0.02296c-0.03979,0.06281 -0.0537,0.05301 -0.05446,-0.0384c-0.00095,-0.12157 -0.0019,-0.12157 -0.09595,0c-0.06168,0.0797 -0.08311,0.08805 -0.06104,0.02378c0.02682,-0.07793 -0.01012,-0.09653 -0.17376,-0.08748c-0.1143,0.00632 -0.215,0.01885 -0.22366,0.02783c-0.03997,0.04131 -0.18059,0.03498 -0.24302,-0.01088c-0.03802,-0.02789 -0.09021,-0.02967 -0.11595,-0.00386m1.89788,0.26826c0.03637,0.05219 0.06433,0.15181 0.06218,0.22139c-0.00215,0.06958 0.04731,0.22234 0.10987,0.33955c0.10879,0.20368 0.10241,0.28363 -0.02416,0.30091c-0.03188,0.00437 -0.07572,0.01145 -0.09735,0.01581c-0.02169,0.00437 -0.00335,0.0513 0.04067,0.10437c0.07161,0.08628 0.09204,0.08565 0.19324,-0.00594c0.06363,-0.05763 0.09653,-0.14587 0.07508,-0.20171c-0.0241,-0.06268 -0.01246,-0.08343 0.0315,-0.0563c0.03827,0.02366 0.09021,0.00974 0.11537,-0.031c0.02871,-0.04643 0.01834,-0.05712 -0.02777,-0.02859c-0.09848,0.06085 -0.20545,-0.2212 -0.12284,-0.32386c0.04535,-0.0563 0.02524,-0.06952 -0.07635,-0.0499c-0.09716,0.01866 -0.12815,0.00101 -0.10475,-0.0599c0.01822,-0.04751 -0.02847,-0.13891 -0.1038,-0.20305c-0.08141,-0.06933 -0.11019,-0.07819 -0.07091,-0.02175m0.77822,1.15996c-0.00417,0.04041 -0.00341,0.09697 0.00152,0.12562c0.005,0.02871 -0.02056,0.03385 -0.0568,0.01145c-0.03618,-0.02239 -0.04902,-0.07432 -0.02847,-0.11537c0.02056,-0.04111 -0.00658,-0.02069 -0.06022,0.04529c-0.05364,0.06604 -0.08546,0.13953 -0.07072,0.16345c0.01474,0.02385 -0.01417,0.0434 -0.06427,0.0434c-0.07382,0 -0.07629,-0.01904 -0.01303,-0.1002c0.06939,-0.08906 0.06547,-0.09027 -0.03555,-0.01094c-0.06244,0.04908 -0.09735,0.13138 -0.07761,0.18293c0.031,0.08078 0.021,0.08154 -0.07249,0.00563c-0.09304,-0.07546 -0.10076,-0.07521 -0.05434,0.00183c0.03991,0.06617 0.02809,0.07982 -0.04485,0.05181c-0.10595,-0.04061 -0.11443,0.04751 -0.0198,0.20627c0.03188,0.05351 -0.00614,0.03985 -0.08722,-0.03138l-0.14378,-0.12625l0.03959,0.24903c0.02175,0.13701 0.02252,0.23201 0.00164,0.21114c-0.03377,-0.03377 -0.06281,-0.14011 -0.09134,-0.33418c-0.00512,-0.03479 -0.0322,-0.00632 -0.06028,0.06326c-0.02803,0.06958 -0.0265,0.15737 0.00347,0.19501c0.03371,0.0425 0.02087,0.06856 -0.03377,0.06856c-0.04852,0 -0.07913,-0.04744 -0.06794,-0.10544c0.0112,-0.05801 -0.01594,-0.10544 -0.06022,-0.10544c-0.04934,0 -0.06863,0.05111 -0.04972,0.13182c0.03074,0.13119 0.03042,0.13119 -0.07205,0.00525c-0.08736,-0.10728 -0.09697,-0.10931 -0.06344,-0.01322c0.02175,0.0623 0.01474,0.105 -0.01563,0.09488c-0.03036,-0.01012 -0.0623,0.00291 -0.07103,0.02903c-0.0365,0.10949 -0.00961,0.12113 0.09089,0.03935c0.09469,-0.07698 0.10184,-0.07249 0.06313,0.03973c-0.04131,0.11981 -0.0389,0.12043 0.04535,0.01202c0.05939,-0.07647 0.10329,-0.09121 0.13227,-0.04434c0.03144,0.05079 0.06788,0.04972 0.13258,-0.00399c0.04908,-0.04073 0.08925,-0.05289 0.08925,-0.02695c0,0.02594 0.0382,0.01543 0.08489,-0.02334c0.04669,-0.03871 0.09956,-0.0558 0.11752,-0.03782c0.0179,0.0179 0.07223,-0.0179 0.12063,-0.07964c0.07907,-0.1007 0.07736,-0.1038 -0.01695,-0.03004c-0.08103,0.06332 -0.11582,0.06471 -0.15207,0.006c-0.02878,-0.04649 -0.02037,-0.05959 0.02157,-0.03365c0.03776,0.02334 0.08774,0.01164 0.11095,-0.026c0.02809,-0.04535 0.08722,-0.02973 0.17585,0.04643l0.13359,0.11481l-0.11645,-0.18977c-0.06401,-0.10437 -0.07856,-0.15415 -0.03232,-0.1107c0.09792,0.09204 0.20975,0.10646 0.15643,0.02018c-0.02005,-0.03239 -0.00309,-0.07945 0.03764,-0.10462c0.0446,-0.02758 0.05718,-0.01848 0.03162,0.02283c-0.02334,0.03776 -0.01347,0.08654 0.02189,0.10841c0.05541,0.03423 0.094,-0.09039 0.07249,-0.2343c-0.00367,-0.02486 0.03491,-0.02922 0.08577,-0.00967c0.05092,0.01954 0.13796,-0.00993 0.19356,-0.06553c0.09533,-0.09533 0.05889,-0.13265 -0.10772,-0.11044c-0.05459,0.00721 -0.02865,-0.16282 0.03447,-0.22595c0.02707,-0.02707 0.03979,-0.01012 0.02815,0.0377c-0.01158,0.04782 0.02163,0.09982 0.07382,0.11551c0.07528,0.02265 0.07743,0.01632 0.01044,-0.0308c-0.04649,-0.03264 -0.07496,-0.08185 -0.06326,-0.10943c0.01164,-0.02765 -0.02865,-0.0575 -0.08951,-0.06642c-0.06085,-0.00892 -0.11405,0.01683 -0.11816,0.05718" fill="#b4f5ff" fill-rule="evenodd" id="svg_1"/>
   <path stroke="null" d="m18.52727,23.94524c-0.04434,0.04434 -0.0675,0.05143 -0.22986,0.07059c-0.03682,0.00437 -0.04561,0.04352 -0.01948,0.08698c0.03738,0.06224 0.0265,0.06206 -0.05111,-0.00076c-0.07982,-0.06465 -0.11222,-0.06351 -0.16977,0.00582c-0.03909,0.04713 -0.04997,0.11057 -0.02416,0.14099c0.02574,0.03042 -0.00038,0.01936 -0.05819,-0.02474c-0.11987,-0.09134 -0.21791,0.0012 -0.13953,0.1317c0.03568,0.05933 0.02221,0.05857 -0.05383,-0.00303c-0.08533,-0.06914 -0.11557,-0.06168 -0.19178,0.04706c-0.04972,0.07103 -0.10323,0.11626 -0.11892,0.10058c-0.01569,-0.01569 -0.03511,0.05775 -0.04314,0.16313c-0.00911,0.11924 0.01019,0.17629 0.05105,0.15105c0.03612,-0.02233 0.04928,-0.06699 0.02929,-0.0993c-0.01992,-0.03232 0.00803,-0.12208 0.06224,-0.1995c0.05421,-0.07736 0.09855,-0.10753 0.09855,-0.06711c0,0.04049 -0.03042,0.09242 -0.06756,0.11537c-0.0372,0.02296 -0.05339,0.07881 -0.03599,0.12404c0.0174,0.04529 0.01373,0.10013 -0.0081,0.12195c-0.05662,0.05668 -0.08064,0.24252 -0.04434,0.3436c0.026,0.0723 0.0487,0.07249 0.14093,0.00108c0.08824,-0.06832 0.08622,-0.05731 -0.01037,0.05592c-0.15611,0.18299 -0.31387,0.08375 -0.22759,-0.1432c0.04023,-0.10588 0.031,-0.16939 -0.03226,-0.22196c-0.14005,-0.1162 -0.21816,-0.02119 -0.15725,0.19116c0.05269,0.18375 0.03586,0.2176 -0.09513,0.19116c-0.03479,-0.00702 -0.03953,0.01094 -0.01056,0.03997c0.02903,0.02897 0.08596,0.05395 0.12651,0.05554c0.04061,0.00158 0.06509,0.042 0.05446,0.08983c-0.01601,0.07155 -0.00203,0.07249 0.07907,0.00519c0.11746,-0.09747 0.13189,-0.00361 0.01936,0.12619c-0.04346,0.05016 0.0074,0.01366 0.1131,-0.08122c0.19033,-0.17079 0.1923,-0.17111 0.20279,-0.03194c0.00728,0.09627 -0.0057,0.11417 -0.04105,0.05699c-0.04194,-0.06788 -0.05825,-0.06642 -0.08678,0.00791c-0.02436,0.06351 0.00683,0.08931 0.10191,0.08438c0.0828,-0.0043 0.13012,0.026 0.11961,0.0766c-0.00955,0.04611 0.01316,0.06489 0.05054,0.04181c0.04687,-0.02897 0.04244,-0.07446 -0.01423,-0.147c-0.07173,-0.09172 -0.06939,-0.09507 0.01854,-0.02657c0.05541,0.0432 0.12095,0.05832 0.14567,0.03359c0.02474,-0.02474 0.02727,0.00108 0.0057,0.05737c-0.02163,0.0563 -0.00449,0.12392 0.03802,0.15017c0.04946,0.03062 0.0611,0.02151 0.0322,-0.02518c-0.0248,-0.04017 -0.01493,-0.07306 0.02189,-0.07306c0.03682,0 0.06926,0.04984 0.07199,0.1107c0.00323,0.07147 0.0167,0.08154 0.03802,0.02827c0.0248,-0.06198 0.05617,-0.05415 0.12619,0.03162c0.05124,0.06275 0.07223,0.07135 0.04669,0.01916c-0.02562,-0.05219 0.03549,-0.02372 0.13568,0.06326c0.12803,0.11108 0.1546,0.12081 0.08931,0.0327c-0.09021,-0.1217 -0.0883,-0.12246 0.06515,-0.02606c0.10779,0.06774 0.21367,0.08419 0.33253,0.05174c0.11297,-0.03086 0.16035,-0.02504 0.13467,0.01651c-0.02562,0.04149 0.00437,0.04067 0.08476,-0.00234c0.09007,-0.0482 0.14719,-0.04561 0.20671,0.00949c0.06509,0.06028 0.07161,0.05756 0.03138,-0.01296c-0.0389,-0.06818 -0.01885,-0.08064 0.08571,-0.05333c0.07508,0.01967 0.1224,0.0129 0.10512,-0.01499c-0.0172,-0.02795 0.01266,-0.06762 0.06648,-0.0883c0.06445,-0.02474 0.08401,-0.01082 0.05737,0.0408c-0.02221,0.04314 0.02151,0.00721 0.09709,-0.07976c0.07559,-0.08698 0.11531,-0.11544 0.08824,-0.06326c-0.04244,0.08172 -0.03441,0.0828 0.05775,0.0081c0.05889,-0.04776 0.10703,-0.06471 0.10703,-0.03764c0,0.02701 0.05901,-0.0043 0.13119,-0.06958c0.08349,-0.07559 0.12119,-0.17111 0.10367,-0.26283c-0.03523,-0.18432 0.0057,-0.18527 0.07945,-0.00177c0.05395,0.13429 0.05743,0.13498 0.06123,0.01266c0.00215,-0.07135 -0.02695,-0.1606 -0.06477,-0.19842c-0.04952,-0.04952 -0.04864,-0.08122 0.00303,-0.11316c0.05269,-0.03258 0.05022,-0.07249 -0.00917,-0.14947c-0.05712,-0.074 -0.03935,-0.06945 0.06015,0.01543c0.17167,0.14643 0.17768,0.10652 0.02498,-0.16604c-0.06389,-0.11411 -0.105,-0.24075 -0.09128,-0.28149c0.03295,-0.09773 -0.12961,-0.07085 -0.27338,0.04516c-0.0993,0.08014 -0.09811,0.07047 0.00949,-0.07502c0.08204,-0.11095 0.13916,-0.14282 0.17003,-0.09488c0.03397,0.05281 0.04669,0.05307 0.04744,0.00088c0.00126,-0.09356 -0.13258,-0.19096 -0.25207,-0.18343c-0.05219,0.00329 -0.11842,-0.0234 -0.14713,-0.05939c-0.032,-0.03997 -0.04219,-0.02853 -0.02638,0.02954c0.01423,0.05219 0.05915,0.09488 0.09969,0.09488c0.07635,0 0.10804,0.08172 0.05301,0.13676c-0.0172,0.0172 -0.09564,-0.05572 -0.17433,-0.16212c-0.10924,-0.14776 -0.16263,-0.17711 -0.22619,-0.12436c-0.06244,0.05187 -0.09349,0.04232 -0.12436,-0.0382c-0.03277,-0.08533 -0.05219,-0.09001 -0.09469,-0.02296c-0.03979,0.06281 -0.0537,0.05301 -0.05446,-0.0384c-0.00095,-0.12157 -0.0019,-0.12157 -0.09595,0c-0.06168,0.0797 -0.08311,0.08805 -0.06104,0.02378c0.02682,-0.07793 -0.01012,-0.09653 -0.17376,-0.08748c-0.1143,0.00632 -0.215,0.01885 -0.22366,0.02783c-0.03997,0.04131 -0.18059,0.03498 -0.24302,-0.01088c-0.03802,-0.02789 -0.09021,-0.02967 -0.11595,-0.00386m1.89788,0.26826c0.03637,0.05219 0.06433,0.15181 0.06218,0.22139c-0.00215,0.06958 0.04731,0.22234 0.10987,0.33955c0.10879,0.20368 0.10241,0.28363 -0.02416,0.30091c-0.03188,0.00437 -0.07572,0.01145 -0.09735,0.01581c-0.02169,0.00437 -0.00335,0.0513 0.04067,0.10437c0.07161,0.08628 0.09204,0.08565 0.19324,-0.00594c0.06363,-0.05763 0.09653,-0.14587 0.07508,-0.20171c-0.0241,-0.06268 -0.01246,-0.08343 0.0315,-0.0563c0.03827,0.02366 0.09021,0.00974 0.11537,-0.031c0.02871,-0.04643 0.01834,-0.05712 -0.02777,-0.02859c-0.09848,0.06085 -0.20545,-0.2212 -0.12284,-0.32386c0.04535,-0.0563 0.02524,-0.06952 -0.07635,-0.0499c-0.09716,0.01866 -0.12815,0.00101 -0.10475,-0.0599c0.01822,-0.04751 -0.02847,-0.13891 -0.1038,-0.20305c-0.08141,-0.06933 -0.11019,-0.07819 -0.07091,-0.02175" fill="#64cdff" fill-rule="evenodd" id="svg_2"/>
   <path stroke="null" d="m14.66818,6.85237c-0.80808,0.20456 -1.90213,0.881 -2.56598,1.58655c-0.15656,0.16636 -0.23341,0.26371 -0.17085,0.21626c0.10393,-0.07869 0.11108,-0.07117 0.08236,0.08729c-0.0248,0.13688 -0.01417,0.15915 0.05054,0.10544c0.06072,-0.05035 0.11057,-0.0365 0.19204,0.05351c0.0611,0.0675 0.16642,0.11076 0.23676,0.09716c0.09229,-0.01771 0.11677,0.00164 0.09007,0.07129c-0.02018,0.05257 -0.01272,0.08078 0.01663,0.06268c0.0749,-0.04631 0.33645,0.24555 0.27788,0.31008c-0.02638,0.02903 -0.0124,0.03239 0.03106,0.00734c0.10102,-0.05813 0.09962,-0.07173 -0.02031,-0.19166c-0.0637,-0.06363 -0.0723,-0.09938 -0.02391,-0.09938c0.05465,0 0.05181,-0.03062 -0.01019,-0.1107c-0.07426,-0.09589 -0.06743,-0.09507 0.05124,0.00594c0.0852,0.07255 0.12215,0.15624 0.09773,0.22139c-0.03529,0.09431 -0.02745,0.09533 0.07856,0.00987c0.11379,-0.09166 0.11417,-0.08925 0.01044,0.07015c-0.09539,0.14669 -0.09671,0.17382 -0.01176,0.24435c0.05263,0.04364 0.07958,0.10532 0.06003,0.13701c-0.01961,0.03169 0.00203,0.04984 0.04814,0.04029c0.04972,-0.01031 0.08103,0.03612 0.07705,0.11437c-0.00367,0.07249 0.03062,0.13182 0.07629,0.13182c0.04567,0 0.06832,-0.02372 0.05042,-0.05275c-0.0179,-0.02897 0.00392,-0.05269 0.04845,-0.05269c0.0446,0 0.01733,-0.04466 -0.06053,-0.09918c-0.07793,-0.05459 -0.12252,-0.13018 -0.09918,-0.16794c0.02713,-0.0439 0.01258,-0.05022 -0.04035,-0.01752c-0.05825,0.03599 -0.06762,0.02663 -0.03162,-0.03162c0.03599,-0.05825 0.02663,-0.06762 -0.03162,-0.03162c-0.05825,0.03599 -0.06762,0.02663 -0.03162,-0.03162c0.03694,-0.05977 0.02644,-0.06794 -0.03764,-0.02929c-0.07572,0.04561 -0.07597,0.0377 -0.00209,-0.05345c0.10317,-0.12721 0.14036,-0.13594 0.11879,-0.02795c-0.00867,0.04352 0.01802,0.07255 0.05939,0.06452c0.04358,-0.00841 0.06509,0.03796 0.05111,0.11044c-0.02518,0.13088 0.16623,0.28382 0.25321,0.20235c0.0265,-0.02486 0.00892,0.02594 -0.03915,0.11291c-0.04801,0.08698 -0.11108,0.17553 -0.14011,0.19679c-0.02897,0.02125 -0.00899,0.05541 0.0444,0.07591c0.05674,0.02175 0.08692,0.09071 0.07249,0.1656c-0.0136,0.07059 0.00247,0.14517 0.03568,0.16566c0.03321,0.02056 0.04131,0.06826 0.01796,0.10602c-0.02334,0.03776 -0.0136,0.05079 0.02169,0.02897c0.08287,-0.05117 0.25074,0.37846 0.23765,0.60826c-0.0069,0.12233 0.01025,0.15675 0.05566,0.11132c0.07964,-0.07964 0.11493,-0.27035 0.04162,-0.22506c-0.05478,0.03385 -0.04049,-0.26523 0.01537,-0.32108c0.01771,-0.01778 0.04966,0.01316 0.07097,0.06863c0.02486,0.06483 0.01341,0.08527 -0.032,0.05718c-0.04302,-0.02657 -0.05819,-0.00923 -0.03884,0.04415c0.01758,0.04833 0.0613,0.0816 0.09722,0.074c0.07021,-0.01493 0.0692,0.09659 -0.0019,0.21032c-0.10564,0.16889 -0.17319,0.41141 -0.10241,0.36763c0.04352,-0.02695 0.05883,-0.00987 0.03935,0.04384c-0.01758,0.04833 -0.07027,0.07863 -0.11714,0.06736c-0.05825,-0.01398 -0.05073,0.01758 0.02372,0.09988c0.15713,0.17358 0.13403,0.24606 -0.0334,0.10482l-0.14232,-0.12005l0.12968,0.15769c0.12613,0.15333 0.1446,0.4825 0.0229,0.40729c-0.03283,-0.02031 -0.04067,-0.06788 -0.01733,-0.10564c0.02638,-0.0427 0.01278,-0.05028 -0.03612,-0.02012c-0.05655,0.03498 -0.05927,0.06781 -0.00974,0.11734c0.13036,0.13036 0.06844,0.18933 -0.07249,0.06908c-0.13606,-0.11607 -0.13783,-0.11613 -0.04839,-0.0012c0.09406,0.12081 0.09956,0.14023 0.11677,0.41311c0.01037,0.16497 0.08684,0.13524 0.11184,-0.04346c0.06489,-0.46435 0.10013,-0.62173 0.15029,-0.67189c0.03491,-0.03491 0.03144,-0.10715 -0.00879,-0.1823c-0.0513,-0.09589 -0.04839,-0.11323 0.01278,-0.0754c0.05566,0.03441 0.06344,0.0234 0.02619,-0.03694c-0.09045,-0.14637 -0.09457,-0.42279 -0.00734,-0.49516c0.06206,-0.05149 0.08311,-0.04593 0.08311,0.02214c0,0.0501 -0.02372,0.07641 -0.05275,0.05851c-0.02897,-0.0179 -0.05269,0.01347 -0.05269,0.06977c0,0.0563 0.02815,0.08495 0.06256,0.0637c0.03714,-0.02296 0.04561,0.00544 0.02087,0.0699c-0.03056,0.07945 -0.01923,0.09469 0.04213,0.0568c0.0611,-0.03782 0.06882,-0.02783 0.02833,0.037c-0.03042,0.0489 -0.0637,0.14252 -0.07388,0.20805c-0.01455,0.09356 -0.00019,0.10399 0.06667,0.04845c0.06471,-0.0537 0.08527,-0.04896 0.08527,0.01961c0,0.04972 -0.02087,0.08483 -0.04643,0.07805c-0.02549,-0.00676 -0.04637,0.01619 -0.04637,0.05098c0,0.03479 0.02512,0.0563 0.0558,0.04782c0.03062,-0.00847 0.00095,0.0747 -0.06604,0.18483c-0.09242,0.15193 -0.10652,0.23189 -0.05857,0.33165c0.05851,0.12189 0.05648,0.12328 -0.02777,0.01898c-0.08172,-0.10127 -0.09482,-0.10235 -0.12998,-0.01069c-0.05257,0.13701 -0.04922,0.16857 0.0136,0.12974c0.02903,-0.0179 0.05275,0.00759 0.05275,0.05674c0,0.04915 -0.02183,0.07584 -0.04839,0.05939c-0.07129,-0.04402 -0.24852,0.23423 -0.20039,0.31463c0.02258,0.03782 -0.00241,0.03353 -0.0556,-0.00955c-0.07951,-0.06427 -0.12125,-0.05219 -0.23417,0.068c-0.07552,0.0804 -0.11575,0.17003 -0.08931,0.19912c0.02638,0.02903 0.01196,0.03207 -0.03207,0.0067c-0.04409,-0.02536 -0.06376,-0.07262 -0.0437,-0.105c0.01999,-0.03239 0.01094,-0.05889 -0.02005,-0.05889c-0.11038,0 -0.13853,0.0847 -0.06116,0.18395c0.06945,0.08913 0.06572,0.09071 -0.0322,0.01392c-0.10361,-0.08128 -0.14061,-0.05497 -0.11461,0.08166c0.00608,0.032 -0.03858,0.01778 -0.09924,-0.03162c-0.09912,-0.08064 -0.10588,-0.07698 -0.06667,0.03675c0.04295,0.12454 0.04219,0.12461 -0.05143,0.00373c-0.0883,-0.11411 -0.12651,-0.09089 -0.09798,0.05953c0.00658,0.03479 -0.02391,0.02795 -0.06774,-0.01519c-0.07426,-0.073 -0.11683,-0.19343 -0.13327,-0.37738c-0.00379,-0.04194 -0.03068,-0.06161 -0.05971,-0.04358c-0.0291,0.01796 -0.02334,0.08786 0.01272,0.15536c0.03953,0.07382 0.04169,0.12265 0.0055,0.12265c-0.03315,0 -0.07458,-0.03561 -0.09216,-0.07907c-0.02454,-0.06079 -0.03302,-0.05997 -0.03688,0.00373c-0.00272,0.04555 -0.03485,0.06433 -0.07135,0.04181c-0.0446,-0.02758 -0.03941,-0.07534 0.01581,-0.14605c0.07173,-0.09172 0.06939,-0.09507 -0.01854,-0.02657c-0.05541,0.0432 -0.12562,0.05743 -0.15605,0.03162c-0.03042,-0.02574 -0.0172,0.00291 0.02935,0.06382c0.05231,0.06832 0.05877,0.1107 0.01689,0.1107c-0.03732,0 -0.09988,-0.04978 -0.13903,-0.1107c-0.06642,-0.10336 -0.06876,-0.10298 -0.03473,0.00532c0.02385,0.07584 0.00911,0.10684 -0.04264,0.08957c-0.04352,-0.01449 -0.07913,-0.05718 -0.07913,-0.09488c0,-0.0377 -0.01923,-0.08774 -0.0427,-0.1112c-0.07982,-0.07982 -0.01543,0.14536 0.07155,0.25011c0.0685,0.08261 0.09735,0.08722 0.13853,0.02221c0.04257,-0.06699 0.05225,-0.06686 0.05307,0.00076c0.00057,0.05035 0.03194,0.06344 0.08002,0.0334c0.14334,-0.08951 0.2274,-0.07388 0.34373,0.06395l0.11487,0.13612l-0.14232,-0.1205c-0.13417,-0.11361 -0.19818,-0.07199 -0.09488,0.06174c0.02612,0.03377 -0.00241,0.00784 -0.06326,-0.05763c-0.1038,-0.11164 -0.14163,-0.094 -0.11367,0.05313c0.00658,0.03479 -0.02353,0.02833 -0.06692,-0.01429c-0.05959,-0.05857 -0.10032,-0.05984 -0.16623,-0.00512c-0.0668,0.05548 -0.08274,0.05326 -0.06788,-0.00943c0.01063,-0.04504 -0.01499,-0.0945 -0.05693,-0.10994c-0.04852,-0.01784 -0.06699,0.02018 -0.05073,0.1045c0.01404,0.07293 0.00032,0.11696 -0.03056,0.09792c-0.0308,-0.0191 -0.04535,-0.09007 -0.03232,-0.15782c0.01303,-0.06774 -0.03182,-0.18812 -0.09969,-0.2675c-0.07711,-0.09021 -0.11714,-0.10873 -0.10665,-0.04946c0.0105,0.05965 -0.02436,0.08799 -0.094,0.07629c-0.06085,-0.01019 -0.1107,0.00861 -0.1107,0.04187c0,0.06794 0.11796,0.06148 0.2372,-0.01296c0.10917,-0.06826 0.0993,0.01012 -0.01581,0.12524c-0.07306,0.07306 -0.09513,0.07565 -0.09583,0.01126c-0.00076,-0.06174 -0.01702,-0.05877 -0.0623,0.01132c-0.04453,0.06894 -0.06161,0.07223 -0.0623,0.01208c-0.0005,-0.04555 -0.02986,-0.06489 -0.06521,-0.04308c-0.03536,0.02189 -0.04523,0.07065 -0.02189,0.10841c0.02556,0.04131 0.01296,0.05042 -0.03162,0.02283c-0.04073,-0.02518 -0.06123,-0.06648 -0.04555,-0.09184c0.01563,-0.02536 0.00347,-0.08647 -0.02701,-0.1358c-0.03415,-0.05534 -0.0265,-0.12556 0.01999,-0.18305c0.06154,-0.07609 0.05813,-0.08293 -0.01828,-0.03675c-0.21222,0.12803 -0.35834,0.07249 -0.32133,-0.12208c0.00608,-0.032 -0.03327,-0.02138 -0.08742,0.02353c-0.05415,0.04497 -0.09798,0.11379 -0.09747,0.15301c0.00057,0.04187 0.0236,0.03568 0.0556,-0.01487c0.04599,-0.07262 0.05921,-0.07262 0.08331,-0.00026c0.01575,0.04725 0.08078,0.08602 0.14454,0.08622c0.0637,0.00012 0.12328,0.03656 0.13239,0.0809c0.00911,0.04434 0.00203,0.05149 -0.01563,0.01581c-0.01771,-0.03568 -0.05997,-0.06483 -0.09387,-0.06483c-0.03397,0 -0.04706,0.02372 -0.02916,0.05269c0.0179,0.02903 -0.00759,0.05275 -0.05674,0.05275c-0.04915,0 -0.07584,-0.02175 -0.05946,-0.04839c0.01645,-0.02657 0.00095,-0.06617 -0.03441,-0.08805c-0.03536,-0.02183 -0.06515,-0.00247 -0.06617,0.04308c-0.00114,0.04675 -0.03251,0.03017 -0.07211,-0.03808c-0.05275,-0.09089 -0.04978,-0.15371 0.01208,-0.25302c0.07705,-0.12378 0.07483,-0.12613 -0.03467,-0.03726c-0.10564,0.08577 -0.11297,0.08445 -0.07616,-0.01379c0.02239,-0.05977 0.0172,-0.12322 -0.01151,-0.14093c-0.02871,-0.01778 -0.04542,0.08034 -0.03714,0.21798c0.00829,0.13764 -0.00841,0.23574 -0.03714,0.21798c-0.02871,-0.01771 -0.03391,-0.08116 -0.01151,-0.14093c0.03346,-0.08945 0.02416,-0.09526 -0.05281,-0.03283c-0.07685,0.06236 -0.09533,0.05124 -0.10393,-0.06244c-0.0081,-0.10759 0.00241,-0.11759 0.04725,-0.04504c0.04409,0.07135 0.05503,0.0587 0.04655,-0.05383l-0.01107,-0.14707l-0.11259,0.13909c-0.06198,0.07647 -0.11266,0.10576 -0.11266,0.06509c0,-0.04073 -0.02454,-0.05883 -0.05452,-0.04029c-0.02998,0.01854 -0.05136,-0.02283 -0.04744,-0.09197c0.00392,-0.06914 0.0284,-0.12531 0.05452,-0.12486c0.02612,0.00044 0.06876,0.00126 0.09488,0.00177c0.02612,0.00057 0.00879,0.02543 -0.0384,0.05534c-0.04719,0.02992 -0.06003,0.07034 -0.02847,0.08983c0.03156,0.01948 0.09362,-0.02258 0.13796,-0.09356c0.04535,-0.07262 0.05067,-0.11057 0.0122,-0.08678c-0.03764,0.02321 -0.08577,-0.00309 -0.10703,-0.05851c-0.03447,-0.08983 -0.0482,-0.08856 -0.12651,0.01183c-0.08052,0.10323 -0.08565,0.09906 -0.06186,-0.05086c0.0172,-0.10829 -0.00303,-0.16345 -0.06003,-0.16345c-0.04731,0 -0.06756,0.02998 -0.04491,0.06654c0.06168,0.09982 0.06527,0.41691 0.00424,0.37921c-0.02916,-0.01802 -0.04187,-0.05219 -0.02821,-0.07584c0.0136,-0.02372 0.00183,-0.1 -0.02619,-0.16959c-0.0432,-0.10741 -0.05155,-0.10981 -0.05534,-0.01581c-0.00241,0.06092 -0.032,0.1107 -0.06572,0.1107c-0.03365,0 -0.04485,0.0427 -0.02486,0.09488c0.02005,0.05225 0.0019,0.09488 -0.04035,0.09488c-0.04491,0 -0.06041,0.0427 -0.03732,0.10291c0.02175,0.05655 0.01158,0.13656 -0.02265,0.17775c-0.12992,0.15656 -0.27193,1.62247 -0.23012,2.37602c0.08008,1.44416 0.26959,1.92705 1.08077,2.75366c0.5395,0.54975 1.04629,0.89758 1.88941,1.29672c0.59219,0.28041 1.58118,0.63482 2.03237,0.72837c0.15029,0.03118 0.11734,-0.00329 -0.15813,-0.16566c-0.8225,-0.48478 -1.52215,-1.43075 -1.73925,-2.35148c-0.12081,-0.51236 -0.1205,-1.31297 0.0007,-1.78973c0.12581,-0.49484 0.47251,-1.19728 0.75178,-1.52305c0.12284,-0.14327 0.20292,-0.28085 0.17806,-0.30577c-0.02486,-0.02486 -0.00253,-0.03574 0.04966,-0.0241c0.05219,0.01158 0.0878,-0.01449 0.07907,-0.05801c-0.00867,-0.04346 0.01196,-0.07192 0.04593,-0.06326c0.03397,0.00873 0.13568,-0.06958 0.22595,-0.17395c0.09033,-0.10437 0.14549,-0.14707 0.12259,-0.09488c-0.02296,0.05219 0.02018,0.02372 0.09577,-0.06326c0.07559,-0.08698 0.11866,-0.11544 0.09571,-0.06326c-0.02765,0.06275 -0.01132,0.05769 0.0482,-0.0148c0.04946,-0.06035 0.10855,-0.09121 0.13119,-0.06856c0.02265,0.02265 0.04118,0.00632 0.04118,-0.03631c0,-0.04264 0.02847,-0.05997 0.06326,-0.03846c0.03479,0.02151 0.06326,0.00728 0.06326,-0.03162c0,-0.0389 0.0265,-0.05434 0.05889,-0.03435c0.03239,0.02005 0.07705,0.00702 0.09924,-0.02891c0.02221,-0.03593 0.06686,-0.04896 0.09924,-0.02891c0.03239,0.01999 0.05889,0.00317 0.05889,-0.03738c0,-0.04055 0.03991,-0.05845 0.08868,-0.03973c0.04877,0.01872 0.10595,0.01683 0.12695,-0.00424c0.12334,-0.12334 1.22822,-0.0933 1.78239,0.04839c0.77101,0.19723 1.43569,0.58137 2.01864,1.16673l0.50603,0.50812l0.35783,-0.35055c0.37706,-0.36941 0.8862,-0.65652 1.4133,-0.79707c0.47024,-0.12537 1.33771,-0.10893 1.79712,0.03403c0.21184,0.06591 0.38516,0.11013 0.38516,0.09817c0,-0.14523 -0.39724,-1.21568 -0.63571,-1.71325c-1.23789,-2.58237 -3.67167,-4.87002 -5.8795,-5.52648c-0.61408,-0.18261 -1.58971,-0.22519 -2.11486,-0.09222m-2.54346,1.62545c-0.05427,0.08792 -0.08217,0.31905 -0.03245,0.26933c0.01771,-0.01765 0.09836,0.02998 0.1792,0.10595c0.1052,0.09886 0.14726,0.11246 0.14795,0.04801c0.00082,-0.07344 0.01088,-0.07452 0.05446,-0.0057c0.04346,0.06856 0.06035,0.06654 0.09007,-0.01094c0.02827,-0.07376 -0.00057,-0.08856 -0.12803,-0.06547c-0.13903,0.02524 -0.15263,0.01543 -0.08748,-0.06306c0.06332,-0.07629 0.05668,-0.08975 -0.03714,-0.07528c-0.14485,0.02227 -0.22272,-0.0933 -0.13448,-0.19957c0.03706,-0.04466 0.0513,-0.08122 0.03169,-0.08122c-0.01954,0 -0.05731,0.03511 -0.08381,0.07793m1.41013,1.59667c-0.01974,0.05136 0.01266,0.12145 0.0723,0.15618c0.08678,0.0506 0.08938,0.06357 0.01316,0.06591c-0.08431,0.00259 -0.08431,0.00967 0,0.06421c0.07717,0.0499 0.07831,0.06148 0.006,0.0623c-0.07173,0.00076 -0.06933,0.02258 0.01246,0.11297c0.0558,0.06154 0.1267,0.18046 0.15769,0.26415c0.05592,0.15111 0.05648,0.15124 0.09229,0.01442c0.02334,-0.08931 0.01208,-0.12297 -0.03207,-0.09564c-0.04226,0.02606 -0.05364,0.00443 -0.03011,-0.05706c0.02093,-0.05452 -0.00032,-0.15163 -0.04725,-0.21576c-0.06224,-0.08508 -0.06667,-0.13909 -0.01657,-0.1995c0.03782,-0.04555 0.04257,-0.07781 0.01056,-0.07173c-0.14176,0.02695 -0.20956,-0.01113 -0.17591,-0.0988c0.02005,-0.05219 0.02221,-0.09488 0.00481,-0.09488c-0.0174,0 -0.04769,0.04194 -0.06736,0.09324m-0.00057,2.93394l0.0248,0.23044l-0.08975,-0.18977l-0.08983,-0.18977l0.00974,0.18287c0.00594,0.1124 -0.02688,0.19559 -0.0852,0.21582c-0.07938,0.02765 -0.08147,0.01683 -0.01272,-0.06648c0.05662,-0.0687 0.06104,-0.11259 0.01423,-0.1415c-0.03738,-0.02309 -0.06009,-0.0043 -0.05054,0.04181c0.00955,0.04605 -0.02062,0.07584 -0.06711,0.0661c-0.04649,-0.00967 -0.09906,0.03796 -0.11683,0.10588c-0.02119,0.08103 -0.07426,0.11544 -0.15434,0.1c-0.07781,-0.01493 -0.10627,0.00215 -0.07843,0.04719c0.02713,0.04396 0.00899,0.05737 -0.04801,0.03555c-0.05927,-0.02277 -0.09166,0.00525 -0.09166,0.07945c0,0.06382 0.02903,0.09615 0.06547,0.07287c0.03606,-0.02303 0.11234,-0.04226 0.16959,-0.04282c0.05724,-0.0005 0.16218,-0.05357 0.23322,-0.11784c0.07103,-0.06427 0.1556,-0.10051 0.18793,-0.08058c0.09647,0.05965 0.28458,-0.1971 0.2477,-0.33803c-0.01848,-0.07072 -0.00778,-0.14447 0.02372,-0.16395c0.0315,-0.01948 0.05775,0.05877 0.05825,0.17388c0.0007,0.14751 0.01765,0.18293 0.0575,0.12005c0.07369,-0.11639 -0.01037,-0.33905 -0.13498,-0.35733c-0.07629,-0.0112 -0.0921,0.03574 -0.07274,0.21614m5.39536,6.49914c-0.43918,0.58846 -1.25408,1.09304 -2.01618,1.24833c-0.22392,0.04567 -0.37415,0.10342 -0.33373,0.12841c0.11013,0.06806 2.14787,0.0544 2.5162,-0.01683c0.36637,-0.07091 1.11132,-0.34044 1.29349,-0.46802c0.1162,-0.08141 0.10867,-0.094 -0.14074,-0.2341c-0.14491,-0.08147 -0.44367,-0.32829 -0.66392,-0.54855c-0.22019,-0.22019 -0.40882,-0.4004 -0.41913,-0.4004c-0.01025,0 -0.11645,0.13106 -0.236,0.29116" fill="#91ea46" fill-rule="evenodd" id="svg_3"/>
   <path stroke="null" d="m20.20036,4.31573c-0.03568,0.09387 -0.06483,0.38313 -0.06483,0.64292c0,0.60744 0.15611,1.07204 0.60307,1.79453c0.45872,0.74166 0.66089,1.18754 0.66044,1.45694c-0.0007,0.44234 -0.07363,0.43468 -0.62527,-0.06585c-2.0027,-1.81718 -4.19725,-2.75916 -5.88861,-2.52753c-1.64183,0.22474 -3.33016,1.42335 -4.53358,3.21852c-0.00899,0.01334 -0.29907,-0.24461 -0.64469,-0.57327c-0.76405,-0.72648 -1.42323,-1.1029 -1.83463,-1.04774c-0.67315,0.09027 -1.43575,0.7495 -2.06387,1.78403c-0.20874,0.34379 -0.472,0.73672 -0.58511,0.87323c-0.24752,0.29888 -0.25555,0.36277 -0.04535,0.36277c0.30159,0 0.75602,-0.30248 1.32626,-0.88265c0.61173,-0.62236 1.04952,-0.95255 1.26009,-0.95034c0.43709,0.00462 1.00081,0.48484 1.4763,1.2575l0.31748,0.5159l-0.27009,0.6149c-0.14852,0.33823 -0.36093,0.89922 -0.472,1.2468c-0.11108,0.34752 -0.21253,0.64247 -0.2255,0.65538c-0.01296,0.01296 -0.14611,-0.07476 -0.29584,-0.19501c-0.38275,-0.30723 -0.96027,-0.64823 -1.44251,-0.85179c-0.35429,-0.14947 -0.4987,-0.17376 -1.0437,-0.17534c-1.06672,-0.00317 -1.47136,0.26301 -2.49716,1.64272c-0.77683,1.04483 -1.31607,1.66284 -1.67745,1.9223c-0.15662,0.11253 -0.28484,0.24448 -0.28484,0.29331c0,0.14258 0.24385,0.23537 0.49686,0.18913c0.40685,-0.07432 0.72458,-0.31969 1.78523,-1.37863c1.41235,-1.41013 1.80687,-1.59635 2.60608,-1.23043c0.46068,0.2109 0.98241,0.59915 1.54797,1.15193l0.4586,0.44829l0,0.50597l0,0.50597l-0.6099,-0.29951c-1.26281,-0.62014 -2.36743,-0.65393 -3.47988,-0.10627c-0.78702,0.38749 -1.44536,1.16806 -2.3926,2.8369c-0.47624,0.83913 -0.77506,1.25718 -1.2766,1.78624c-0.2553,0.26927 -0.4641,0.54367 -0.4641,0.6099c0,0.43899 1.22631,-0.09336 1.9848,-0.86166c0.16351,-0.16554 0.57252,-0.69859 0.90897,-1.1845c1.27768,-1.84533 2.00738,-2.33852 3.14703,-2.127c0.45126,0.08375 1.14946,0.40432 1.74968,0.80333c0.55114,0.36637 0.62236,0.43968 0.62236,0.64001c0,0.17395 0.31532,0.76487 0.6378,1.19526l0.19527,0.26068l-0.28522,0.59327c-0.68726,1.42955 -0.76829,2.33675 -0.27465,3.07537c0.48586,0.72705 1.59907,1.12485 3.27127,1.16907c0.56632,0.01493 0.6939,-0.00038 0.8497,-0.10215l0.18331,-0.11974l-0.13498,-0.10924c-0.0742,-0.06009 -0.55677,-0.25257 -1.07236,-0.42772c-1.18368,-0.40204 -1.61292,-0.60547 -1.85197,-0.87771c-0.29976,-0.34144 -0.26801,-0.63027 0.16048,-1.45833c0.19261,-0.37232 0.36175,-0.68852 0.37585,-0.70257c0.01411,-0.01411 0.1055,0.0308 0.20317,0.09982c0.57562,0.40667 1.93976,0.95458 3.107,1.24795c2.14977,0.54032 4.65091,0.67 6.03771,0.31305c0.50559,-0.13012 1.31279,-0.50736 1.81401,-0.84774c0.30495,-0.20709 0.48181,-0.27908 0.79428,-0.32336c0.7514,-0.1064 1.31823,-0.39913 1.90048,-0.98133l0.35372,-0.35372l0.24366,0.16124c0.13403,0.08868 0.31501,0.25492 0.40211,0.36935c0.25251,0.33151 0.88506,1.70927 1.2427,2.70659c0.36099,1.00682 0.67739,1.67909 0.95654,2.03243c0.16744,0.2119 0.51704,0.4345 0.68252,0.4345c0.11816,0 0.07711,-0.35657 -0.09266,-0.80504c-0.08919,-0.23562 -0.21848,-0.74153 -0.28737,-1.12422c-0.16148,-0.89701 -0.46296,-2.18354 -0.61534,-2.62613c-0.35226,-1.02302 -1.05976,-2.01365 -1.66897,-2.33687l-0.27073,-0.14359l-0.0012,-0.64109c-0.00126,-0.67176 -0.10444,-1.1141 -0.36339,-1.55821c-0.07103,-0.12177 -0.16193,-0.44361 -0.20197,-0.71522l-0.07293,-0.49377l0.29154,-0.3918c0.16029,-0.21545 0.46075,-0.61837 0.66759,-0.89537c0.33127,-0.44355 0.70814,-0.79308 0.85508,-0.79308c0.12189,0 0.50806,0.40982 1.24598,1.3224c1.07059,1.32398 1.71312,1.9588 2.23453,2.20764c0.49395,0.23568 1.14902,0.35384 1.51103,0.2725c0.45575,-0.10241 0.70977,-0.35643 0.49136,-0.49142c-0.04346,-0.02682 -0.241,-0.06794 -0.43905,-0.09128c-0.67594,-0.0797 -1.48762,-0.7514 -2.29139,-1.89624c-0.70971,-1.01074 -1.23739,-1.68567 -1.52582,-1.95153c-0.3603,-0.33215 -0.86747,-0.57333 -1.19949,-0.5705c-0.55834,0.00474 -0.97691,0.25777 -1.78561,1.07956l-0.54803,0.55683l-0.24372,-0.51849c-0.2811,-0.59801 -0.28161,-0.59054 0.10532,-1.41013c0.31337,-0.6638 0.62603,-1.01378 0.96184,-1.07678c0.35195,-0.06604 1.12005,0.01587 1.8581,0.19818c0.90783,0.22424 1.83602,0.21076 2.2139,-0.03213c0.08431,-0.05421 0.08431,-0.07097 0,-0.15111c-0.1365,-0.12974 -3.61582,-1.2358 -4.14842,-1.31885c-0.43412,-0.06762 -0.45809,-0.06433 -0.77227,0.10665c-0.42766,0.23277 -0.88999,0.70541 -1.18716,1.21347l-0.24056,0.41135l-0.11796,-0.1477c-0.30711,-0.38452 -0.30426,-0.36732 -0.14081,-0.8435c0.26016,-0.7581 0.18135,-1.75879 -0.1811,-2.29968c-0.08489,-0.12677 -0.34505,-0.44399 -0.57802,-0.70491c-0.29862,-0.33442 -0.53203,-0.68903 -0.79119,-1.20184c-0.20216,-0.40009 -0.42697,-0.781 -0.49965,-0.84647c-0.1303,-0.11746 -0.13289,-0.11683 -0.19691,0.05155m-5.53218,2.53664c-0.83856,0.21228 -1.94906,0.91023 -2.62506,1.64986c-1.68985,1.84893 -2.76903,4.81253 -2.63468,7.23517c0.08008,1.44416 0.26959,1.92705 1.08077,2.75366c0.5395,0.54975 1.04629,0.89758 1.88941,1.29672c0.59219,0.28041 1.58118,0.63482 2.03237,0.72837c0.15029,0.03118 0.11734,-0.00329 -0.15813,-0.16566c-0.53096,-0.31299 -1.147,-0.96507 -1.4157,-1.49863c-0.76412,-1.51735 -0.48466,-3.2564 0.71414,-4.44407c0.26409,-0.26168 0.62464,-0.55246 0.80118,-0.64627c1.36307,-0.72433 3.22263,-0.33879 4.48633,0.9301l0.50603,0.50812l0.35783,-0.35055c0.37706,-0.36941 0.8862,-0.65652 1.4133,-0.79707c0.47024,-0.12537 1.33771,-0.10893 1.79712,0.03403c0.21184,0.06591 0.38516,0.11013 0.38516,0.09817c0,-0.14523 -0.39724,-1.21568 -0.63571,-1.71325c-1.23789,-2.58237 -3.67167,-4.87002 -5.8795,-5.52648c-0.61408,-0.18261 -1.58971,-0.22519 -2.11486,-0.09222m1.26091,7.28148c-1.04933,0.21848 -1.72248,0.71775 -2.13009,1.57978c-0.36839,0.77911 -0.36757,1.60648 0.00234,2.39703c0.45689,0.97639 1.41374,1.57895 2.50728,1.57895c0.82111,0 1.48395,-0.28566 2.04875,-0.88284c0.77676,-0.82129 0.97146,-2.04831 0.49149,-3.09681c-0.19995,-0.43671 -0.71376,-0.98879 -1.15541,-1.2415c-0.48244,-0.27605 -1.30057,-0.43121 -1.76435,-0.33462m5.30996,0.36592c-0.65393,0.2138 -1.22872,0.67259 -1.56328,1.24776c-1.06792,1.83596 0.36283,4.15803 2.4785,4.02247c1.45782,-0.09342 2.5391,-1.2224 2.54226,-2.65442c0.00241,-1.10095 -0.5698,-1.99764 -1.58029,-2.47641c-0.36801,-0.1744 -0.49199,-0.20001 -1.01985,-0.2109c-0.36181,-0.00746 -0.70295,0.021 -0.85735,0.07147m-0.45208,2.94297c-0.88329,0.53855 -0.11,1.93319 0.82566,1.4892c0.341,-0.1618 0.50641,-0.46947 0.46795,-0.87007c-0.02612,-0.27168 -0.06812,-0.35802 -0.25978,-0.53362c-0.19198,-0.17597 -0.2768,-0.20944 -0.52995,-0.20925c-0.18723,0.00012 -0.37814,0.04699 -0.50389,0.12372m-4.19371,0.11335c-0.24859,0.04264 -0.55196,0.30919 -0.63368,0.55677c-0.27762,0.84122 0.74533,1.51855 1.38749,0.91871c0.31002,-0.28958 0.36131,-0.71465 0.13682,-1.13402c-0.12208,-0.2281 -0.56385,-0.39749 -0.89063,-0.34144m4.75914,0.08919c-0.13732,0.13732 -0.09286,0.36536 0.08722,0.4474c0.14643,0.06673 0.17958,0.05819 0.28635,-0.07369c0.10608,-0.131 0.11006,-0.16529 0.03277,-0.28237c-0.10424,-0.15775 -0.2966,-0.20109 -0.40635,-0.09134m-4.49347,0.31867c-0.21469,0.21469 0.03776,0.57239 0.30362,0.43013c0.22328,-0.11949 0.12663,-0.50603 -0.12651,-0.50603c-0.05566,0 -0.13536,0.03415 -0.17711,0.07591m2.0707,1.5436c-0.43918,0.58846 -1.25408,1.09304 -2.01618,1.24833c-0.22392,0.04567 -0.37415,0.10342 -0.33373,0.12841c0.11013,0.06806 2.14787,0.0544 2.5162,-0.01683c0.36637,-0.07091 1.11132,-0.34044 1.29349,-0.46802c0.1162,-0.08141 0.10867,-0.094 -0.14074,-0.2341c-0.14491,-0.08147 -0.44367,-0.32829 -0.66392,-0.54855c-0.22019,-0.22019 -0.40882,-0.4004 -0.41913,-0.4004c-0.01025,0 -0.11645,0.13106 -0.236,0.29116m-7.16679,2.05388c-0.21608,0.1699 -0.22753,0.48675 -0.02436,0.67341c0.07831,0.07192 0.94224,0.4944 1.9199,0.93883l1.77751,0.80808l-0.08989,0.28983c-0.29762,0.95919 0.48504,2.15242 1.84779,2.8171c0.62293,0.30382 1.05097,0.42937 1.85645,0.54462c1.43518,0.20532 2.9538,-0.36688 3.44471,-1.29792c0.21494,-0.40761 0.19413,-1.09614 -0.04763,-1.5732c-0.89499,-1.76638 -3.92855,-2.66276 -5.91411,-1.7476l-0.44063,0.20311l-1.95071,-0.89366c-1.07292,-0.49155 -2.0096,-0.89372 -2.08158,-0.89372c-0.07199,0 -0.20583,0.05901 -0.29748,0.13112m5.90576,1.70528c-0.4419,0.09254 -1.07924,0.44355 -1.29032,0.71053c-0.24537,0.31052 -0.30121,0.85204 -0.12619,1.22404c0.36979,0.78606 1.65075,1.46288 2.98043,1.57478c1.21157,0.10197 2.38387,-0.38813 2.61684,-1.09411c0.29337,-0.88885 -0.64861,-1.91775 -2.12497,-2.32112c-0.45088,-0.12316 -1.65404,-0.17825 -2.05577,-0.09412" fill="#1e2122" fill-rule="evenodd" id="svg_4"/>
  </g>
 </g>

</svg>