<svg
   xmlns="http://www.w3.org/2000/svg"
   width="103"
   height="41"
   viewBox="0 -20 1000 420"
   version="1.1">
  <g fill="black">
    <path
       id="path8"
       style="stroke:none;stroke-width:0.43820944"
       d="m 550.59468,85.908756 c -89.81333,0 -157.75906,69.768034 -157.75906,156.197084 0,91.11497 70.80934,156.19709 157.75906,156.19709 86.94971,0 157.49873,-65.08212 157.49873,-156.19709 0,-86.42905 -67.68541,-156.197084 -157.49873,-156.197084 z m 0,82.524124 c 38.78894,-0.26032 70.54901,32.80139 70.54901,73.67296 0,40.61125 -31.76007,73.67296 -70.54901,73.67296 -38.78895,0 -70.54902,-33.06171 -70.54902,-73.67296 0,-40.87157 31.76007,-73.67296 70.54902,-73.67296 z" />
    <path
       id="path10"
       style="stroke:none;stroke-width:0.1"
       d="m 999.99992,343.62354 c 0,30.1981 -24.47087,54.66898 -54.66898,54.66898 -30.1981,0 -54.66898,-24.47088 -54.66898,-54.66898 0,-30.1981 24.47088,-54.66898 54.66898,-54.66898 30.19811,0 54.66898,24.47088 54.66898,54.66898 z" />
    <path
       id="path12"
       d="m 840.86093,387.88979 -85.9084,0 0,-387.88943272 85.9084,0 0,387.88943272 z"
       style="stroke:none;stroke-width:1px" />
    <path
       id="path14"
       style="fill-rule:evenodd;stroke:none;stroke-width:0.2"
       d="M -5.92e-5,387.88979 156.19703,3.5728e-4 l 80.70183,0 153.5938,387.88943272 -109.33796,0 -18.22299,-54.66898 -135.37081,0 -18.223,54.66898 -109.3379592,0 z M 236.89886,252.51898 l -80.70183,0 40.35091,-130.16424 40.35092,130.16424 z" />
  </g>
</svg>
