<svg version="1.0" xmlns="http://www.w3.org/2000/svg"
 width="32" height="32" viewBox="225 100 380 200"
 preserveAspectRatio="xMidYMid meet">
<g transform="translate(0.000000,395.000000) scale(0.100000,-0.100000)"
fill="#2f9aff" stroke="none">
<path d="M2611 2372 c-167 -636 -306 -1162 -308 -1167 -2 -6 112 -40 254 -78
141 -37 258 -69 260 -71 2 -2 -28 -107 -68 -232 -39 -126 -72 -233 -73 -237
-1 -8 514 -176 539 -177 6 0 52 134 104 298 51 163 97 307 102 319 8 22 11 21
109 -43 56 -36 107 -67 114 -70 8 -3 65 76 159 220 81 124 147 228 147 230 0
3 -68 7 -152 8 l-151 3 -13 40 c-8 22 -21 59 -30 83 l-16 42 -200 -2 -201 -3
-30 -82 -30 -83 -153 0 c-85 0 -154 2 -154 4 0 2 87 226 194 498 l194 493 133
507 c73 279 130 510 127 514 -7 6 -524 144 -542 144 -6 0 -136 -474 -315
-1158z"/>
<path d="M4550 3180 c-12 -55 -27 -100 -32 -100 -5 0 -29 13 -52 30 l-43 29
-214 -327 c-382 -586 -421 -644 -424 -640 -3 2 40 145 95 318 55 173 100 320
100 326 0 6 -117 48 -260 93 -143 45 -266 84 -273 87 -9 3 -34 -61 -85 -224
-40 -126 -72 -232 -72 -236 0 -3 49 -6 109 -6 l109 0 54 -137 c29 -76 130
-335 223 -575 94 -241 172 -438 175 -438 3 0 27 34 54 75 l49 75 -31 68 c-52
113 -64 205 -41 314 24 114 113 240 207 295 134 79 333 84 474 12 57 -29 141
-110 169 -164 13 -25 26 -45 29 -45 5 0 271 1143 267 1147 -5 4 -531 123 -546
123 -14 0 -22 -20 -41 -100z"/>
<path d="M5162 2873 c-56 -181 -102 -331 -102 -335 0 -5 59 -8 130 -8 l130 0
-2 -577 -3 -578 -127 -3 -128 -3 0 566 c0 311 -4 565 -8 565 -4 0 -45 -118
-90 -262 l-81 -263 14 -55 c67 -249 -100 -514 -353 -562 -117 -22 -287 9 -357
64 -14 11 -28 18 -30 16 -6 -6 -76 -310 -72 -314 1 -2 109 -27 240 -57 131
-30 241 -57 244 -60 4 -5 -71 -267 -83 -288 -3 -5 547 -182 551 -177 1 2 39
122 84 268 46 146 86 269 90 273 6 6 351 -30 457 -48 l31 -5 21 177 c12 98 22
181 22 186 0 4 -13 1 -30 -8 -45 -23 -130 -20 -171 8 -55 37 -79 81 -79 147 0
100 68 170 167 170 57 0 84 -9 120 -42 l22 -20 5 33 c3 19 15 113 26 209 12
96 36 308 55 470 19 162 38 311 41 332 l5 36 -74 7 c-41 4 -79 10 -85 14 -7 4
3 50 31 138 22 73 39 135 36 137 -2 3 -121 42 -263 86 -143 45 -264 84 -270
86 -7 3 -50 -120 -114 -323z"/>
<path d="M3329 1972 l-55 -187 114 -3 c63 -1 116 -1 118 0 4 5 -109 378 -115
378 -3 0 -31 -84 -62 -188z"/>
<path d="M4365 2011 c-182 -84 -161 -358 32 -412 55 -15 120 -1 169 36 97 74
112 230 31 322 -61 69 -153 91 -232 54z"/>
</g>
</svg>
