<svg width="205" height="32" xmlns="http://www.w3.org/2000/svg">

 <g>
  <title>Layer 1</title>
  <g stroke="null" id="svg_9">
   <g stroke="null" transform="matrix(1.31855 0 0 1.31855 0 0)" id="svg_10">
    <svg stroke="null" y="0" x="0" id="svg_2" class="squares">
     <path stroke="null" id="svg_3" d="m11.35,0l-11.35,0l0,11.35l11.35,0l0,-11.35z" fill="#f26522"/>
     <path stroke="null" id="svg_4" d="m23.88,0l-11.35,0l0,11.35l11.35,0l0,-11.35z" fill="#8dc63f"/>
     <path stroke="null" id="svg_5" d="m11.35,12.53l-11.35,0l0,11.35l11.35,0l0,-11.35z" fill="#00aeef"/>
     <path stroke="null" id="svg_6" d="m23.88,12.53l-11.35,0l0,11.35l11.35,0l0,-11.35z" fill="#ffc20e"/>
    </svg>
   </g>
   <path fill="#77787b" stroke="null" id="svg_7" d="m61.37869,6.2895l0,18.89488l-3.27001,0l0,-14.80736l-0.06593,0l-5.84119,14.80736l-2.17561,0l-6.02579,-14.80736l-0.03956,0l0,14.80736l-3.03267,0l0,-18.89488l4.70724,0l5.41926,14.00304l0.07911,0l5.73571,-14.00304l4.50946,0zm2.74259,1.45041c0,-0.52742 0.19778,-0.97573 0.58016,-1.33174c0.38238,-0.35601 0.83069,-0.52742 1.35811,-0.52742a1.89872,1.89872 0 0 1 1.95146,1.84598c0,0.52742 -0.1846,0.96254 -0.56698,1.31855c-0.3692,0.34282 -0.84387,0.52742 -1.38448,0.52742s-1.0021,-0.1846 -1.3713,-0.54061c-0.38238,-0.35601 -0.56698,-0.79113 -0.56698,-1.30537l0,0.01319zm3.52054,3.90292l0,13.54155l-3.1909,0l0,-13.54155l3.1909,0zm9.67819,11.2209c0.46149,0 0.98892,-0.10548 1.55589,-0.31645c0.58016,-0.22415 1.10759,-0.51424 1.58226,-0.87025l0,2.95356c-0.50105,0.29008 -1.08121,0.52742 -1.71412,0.65928a9.49359,9.49359 0 0 1 -2.13606,0.22415a6.55321,6.55321 0 0 1 -4.87865,-1.88553a6.57959,6.57959 0 0 1 -1.84598,-4.82591c0,-2.17561 0.63291,-3.96885 1.9119,-5.3797c1.26581,-1.41085 3.07223,-2.10969 5.40607,-2.10969a7.41027,7.41027 0 0 1 3.27001,0.76476l0,3.04586a6.59277,6.59277 0 0 0 -1.50315,-0.83069a4.3776,4.3776 0 0 0 -1.58226,-0.30327c-1.25263,0 -2.26791,0.40875 -3.03267,1.22626s-1.17351,1.92509 -1.17351,3.30957c0,1.3713 0.38238,2.43933 1.12077,3.20409c0.73839,0.76476 1.75368,1.13396 3.03267,1.13396l-0.01319,0zm12.223,-11.44505a3.34913,3.34913 0 0 1 1.19988,0.1846l0,3.23046a3.3755,3.3755 0 0 0 -1.89872,-0.52742c-0.79113,0 -1.45041,0.34282 -1.97783,1.0021s-0.8175,1.67456 -0.8175,3.03267l0,6.85648l-3.1909,0l0,-13.56792l3.1909,0l0,2.13606l0.05274,0c0.29008,-0.73839 0.73839,-1.31855 1.31855,-1.72731c0.59335,-0.42194 1.29218,-0.63291 2.10969,-0.63291l0.01319,0.01319zm1.3713,7.19931c0,-2.24154 0.63291,-4.02159 1.89872,-5.32696s3.03267,-1.96465 5.27422,-1.96465c2.10969,0 3.75788,0.63291 4.95776,1.88553s1.78005,2.96675 1.78005,5.11599c0,2.1888 -0.63291,3.94248 -1.89872,5.23466a6.88285,6.88285 0 0 1 -5.16873,1.95146c-2.0965,0 -3.75788,-0.61972 -4.99732,-1.84598a6.81692,6.81692 0 0 1 -1.84598,-5.05006zm3.32276,-0.10548c0,1.41085 0.31645,2.49207 0.96254,3.24364s1.55589,1.10759 2.75578,1.10759c1.14714,0 2.03057,-0.3692 2.63711,-1.10759s0.92299,-1.85916 0.92299,-3.32276c0,-1.45041 -0.31645,-2.55799 -0.94936,-3.29639a3.27001,3.27001 0 0 0 -2.63711,-1.12077c-1.17351,0 -2.07013,0.39557 -2.71622,1.16033c-0.65928,0.79113 -0.97573,1.89872 -0.97573,3.33594zm15.33478,-3.30957c0,0.46149 0.13186,0.8175 0.43512,1.08121c0.29008,0.26371 0.92299,0.58016 1.92509,0.97573c1.26581,0.51424 2.16243,1.08121 2.67666,1.71412c0.51424,0.64609 0.76476,1.41085 0.76476,2.32066c0,1.26581 -0.48787,2.29428 -1.4636,3.07223s-2.30747,1.16033 -3.96885,1.16033a9.55952,9.55952 0 0 1 -3.59965,-0.73839l0,-3.12497c0.58016,0.39557 1.19988,0.7252 1.87235,0.96254c0.65928,0.23734 1.279,0.35601 1.8196,0.35601c0.7252,0 1.25263,-0.10548 1.59545,-0.30327c0.34282,-0.21097 0.51424,-0.54061 0.51424,-1.01529c0,-0.44831 -0.1846,-0.8175 -0.52742,-1.12077c-0.3692,-0.30327 -1.04166,-0.65928 -2.03057,-1.05484c-1.17351,-0.48787 -2.0042,-1.04166 -2.50525,-1.66138s-0.73839,-1.38448 -0.73839,-2.33384c0,-1.22626 0.48787,-2.24154 1.45041,-3.01949c0.98892,-0.79113 2.24154,-1.1867 3.78425,-1.1867a9.30899,9.30899 0 0 1 3.07223,0.58016l0,3.03267c-0.42194,-0.29008 -0.92299,-0.52742 -1.47678,-0.73839a4.93139,4.93139 0 0 0 -1.67456,-0.30327c-0.60653,0 -1.08121,0.13186 -1.41085,0.35601a1.13396,1.13396 0 0 0 -0.52742,0.98892l0.01319,0zm7.17293,3.41506c0,-2.24154 0.63291,-4.02159 1.89872,-5.32696a6.98834,6.98834 0 0 1 5.27422,-1.96465c2.10969,0 3.77106,0.63291 4.95776,1.88553s1.78005,2.96675 1.78005,5.11599c0,2.1888 -0.63291,3.94248 -1.89872,5.23466a6.88285,6.88285 0 0 1 -5.15555,1.95146c-2.10969,0 -3.77106,-0.61972 -5.01051,-1.84598a6.81692,6.81692 0 0 1 -1.84598,-5.05006zm3.32276,-0.10548c0,1.41085 0.31645,2.49207 0.96254,3.24364s1.55589,1.10759 2.76896,1.10759c1.14714,0 2.03057,-0.3692 2.63711,-1.10759s0.92299,-1.85916 0.92299,-3.32276c0,-1.45041 -0.32964,-2.55799 -0.94936,-3.29639a3.27001,3.27001 0 0 0 -2.63711,-1.12077c-1.17351,0 -2.08332,0.39557 -2.72941,1.16033a5.01051,5.01051 0 0 0 -0.97573,3.33594zm21.17598,-4.25893l-4.74679,0l0,10.944l-3.23046,0l0,-10.944l-2.26791,0l0,-2.61074l2.26791,0l0,-1.88553a4.69405,4.69405 0 0 1 4.94458,-4.86546c0.39557,0 0.73839,0.02637 1.02847,0.06593c0.30327,0.03956 0.56698,0.10548 0.79113,0.1846l0,2.75578a3.1909,3.1909 0 0 0 -1.45041,-0.35601c-0.67246,0 -1.1867,0.21097 -1.55589,0.61972c-0.35601,0.42194 -0.52742,1.02847 -0.52742,1.84598l0,1.64819l4.74679,0l0,-3.04586l3.1909,-0.97573l0,4.02159l3.24364,0l0,2.59755l-3.23046,0l0,6.32906c0,0.84387 0.15823,1.43722 0.46149,1.78005c0.30327,0.34282 0.77795,0.51424 1.42404,0.51424a3.0986,3.0986 0 0 0 1.34493,-0.44831l0,2.63711c-0.19778,0.11867 -0.52742,0.22415 -1.0021,0.31645s-0.92299,0.13186 -1.39767,0.13186c-1.33174,0 -2.34703,-0.34282 -3.01949,-1.05484c-0.65928,-0.7252 -1.0021,-1.79323 -1.0021,-3.24364l0,-6.96197l-0.01319,0z"/>
   <path fill="#77787b" stroke="null" id="svg_8" d="m154.93011,25.36898l0,-18.68391l5.93349,0c1.80642,0 3.24364,0.39557 4.29849,1.1867c1.05484,0.79113 1.58226,1.8196 1.58226,3.08542c0,1.05484 -0.30327,1.97783 -0.89662,2.76896a4.85228,4.85228 0 0 1 -2.49207,1.66138l0,0.05274c1.29218,0.14504 2.30747,0.61972 3.07223,1.43722c0.77795,0.79113 1.16033,1.84598 1.16033,3.12497c0,1.59545 -0.63291,2.90082 -1.88553,3.87655s-2.84808,1.48997 -4.77317,1.48997l-5.99942,0zm3.0986,-16.19184l0,5.31377l2.0042,0c1.08121,0 1.92509,-0.26371 2.53162,-0.75158c0.61972,-0.52742 0.92299,-1.23944 0.92299,-2.16243c0,-1.60864 -1.06803,-2.39977 -3.20409,-2.39977l-2.25473,0zm0,7.80584l0,5.90712l2.63711,0c1.16033,0 2.05694,-0.26371 2.67666,-0.79113c0.63291,-0.54061 0.94936,-1.279 0.94936,-2.21517c0,-1.93827 -1.33174,-2.90082 -4.02159,-2.90082l-2.24154,0zm13.34377,-7.7531c-0.48787,0 -0.92299,-0.17141 -1.26581,-0.48787c-0.35601,-0.31645 -0.52742,-0.7252 -0.52742,-1.22626s0.17141,-0.9098 0.52742,-1.23944s0.77795,-0.48787 1.279,-0.48787s0.93617,0.15823 1.29218,0.48787s0.52742,0.75158 0.52742,1.23944c0,0.47468 -0.17141,0.87025 -0.52742,1.21307c-0.35601,0.32964 -0.79113,0.50105 -1.30537,0.50105zm1.50315,16.1391l-3.01949,0l0,-13.34377l3.03267,0l-0.01319,13.34377zm14.96559,0l-3.01949,0l0,-7.51576c0,-2.50525 -0.88343,-3.74469 -2.63711,-3.74469c-0.92299,0 -1.68775,0.35601 -2.29428,1.05484a3.82381,3.82381 0 0 0 -0.89662,2.59755l0,7.60806l-3.03267,0l0,-13.34377l3.03267,0l0,2.21517l0.05274,0a4.74679,4.74679 0 0 1 4.32486,-2.53162c1.45041,0 2.55799,0.47468 3.32276,1.42404c0.76476,0.93617 1.14714,2.29428 1.14714,4.08752l0,8.14866zm14.96559,-1.06803c0,4.89184 -2.45251,7.34435 -7.3839,7.34435a11.00993,11.00993 0 0 1 -4.54901,-0.87025l0,-2.76896c1.45041,0.84387 2.84808,1.25263 4.15345,1.25263c3.16453,0 4.75998,-1.55589 4.75998,-4.68087l0,-1.45041l-0.05274,0a4.89184,4.89184 0 0 1 -4.50946,2.54481a4.90502,4.90502 0 0 1 -3.92929,-1.76686a7.23886,7.23886 0 0 1 -1.48997,-4.78635c0,-2.26791 0.52742,-4.06115 1.60864,-5.40607s2.53162,-2.0042 4.40397,-2.0042c1.75368,0 3.05905,0.7252 3.91611,2.16243l0.05274,0l0,-1.84598l3.03267,0l-0.01319,12.27574zm-2.99312,-5.03688l0,-1.74049c0,-0.93617 -0.31645,-1.74049 -0.93617,-2.39977a3.03267,3.03267 0 0 0 -2.32066,-1.0021c-1.14714,0 -2.04376,0.43512 -2.68985,1.279a5.72252,5.72252 0 0 0 -0.97573,3.54691c0,1.31855 0.31645,2.36021 0.92299,3.15134c0.63291,0.79113 1.45041,1.17351 2.47888,1.17351c1.05484,0 1.89872,-0.38238 2.54481,-1.12077c0.65928,-0.76476 0.97573,-1.71412 0.97573,-2.90082l0,0.01319z"/>
  </g>
 </g>
</svg>