<svg width="16" height="16" xmlns="http://www.w3.org/2000/svg" xml:space="preserve" version="1.1">
 <path stroke="null" id="svg_2" d="m7.87026,11.92294c-0.08658,0 -0.17317,-0.03315 -0.23912,-0.0991l-4.05866,-4.05866c-0.13224,-0.13224 -0.13224,-0.346 0,-0.47825s0.346,-0.13224 0.47825,0l3.81953,3.81953l3.81953,-3.81953c0.13224,-0.13224 0.346,-0.13224 0.47825,0s0.13224,0.346 0,0.47825l-4.05866,4.05866c-0.06595,0.06595 -0.15254,0.0991 -0.23912,0.0991z"/>
 <path stroke="null" id="svg_3" d="m7.87026,11.92294c-0.1867,0 -0.33822,-0.15118 -0.33822,-0.33822l0,-11.16131c0,-0.18704 0.15152,-0.33822 0.33822,-0.33822s0.33822,0.15118 0.33822,0.33822l0,11.16131c0,0.18704 -0.15152,0.33822 -0.33822,0.33822z"/>
 <path stroke="null" id="svg_4" d="m15.31113,14.62871l-14.88174,0c-0.1867,0 -0.33822,-0.15118 -0.33822,-0.33822s0.15152,-0.33822 0.33822,-0.33822l14.88174,0c0.18704,0 0.33822,0.15118 0.33822,0.33822s-0.15118,0.33822 -0.33822,0.33822z"/>
 <path stroke="null" id="svg_5" d="m15.31113,15.98159l-14.88174,0c-0.1867,0 -0.33822,-0.15118 -0.33822,-0.33822s0.15152,-0.33822 0.33822,-0.33822l14.88174,0c0.18704,0 0.33822,0.15118 0.33822,0.33822s-0.15118,0.33822 -0.33822,0.33822z"/>
</svg>