<svg
   xmlns="http://www.w3.org/2000/svg"
   version="1.1"
   viewBox="0 0 20.097663 20.286787"
   height="76.674469"
   width="75.959671"
  >
  <path
     style="mix-blend-mode:normal;fill:#585858;fill-opacity:1;stroke:#ff7f00;stroke-width:0.15874999;stroke-miterlimit:4;stroke-dasharray:0.079375, 0.07937500000000000;stroke-opacity:1;opacity:1;stroke-dashoffset:0"
     d="m 18.548841,20.021815 -1.423824,-0.0016 V 19.267543 18.51486 h -0.807962 -0.807963 l -0.0027,-0.808963 -0.0027,-0.808962 -0.864514,-0.0025 -0.864514,-0.0025 -3.106893,-3.078012 -3.106948,-3.078087 -0.6161008,0.192735 C 5.369567,11.421386 3.8428529,11.310566 2.4979419,10.605831 1.9507919,10.319124 1.8313133,10.222373 1.2635892,9.6062807 0.76770822,9.0681533 0.58520984,8.815025 0.39904078,8.4071476 -0.40413009,6.6474745 -0.21795172,4.5496725 0.89050402,2.8694977 2.5503663,0.35351264 5.808419,-0.61871048 8.3260753,0.65067571 8.8445141,0.91207017 9.0326166,1.0544137 9.5795476,1.5992191 10.139883,2.1573327 10.260718,2.3179174 10.514507,2.8412454 11.16255,4.1775219 11.26177,5.6895827 10.791983,7.0698361 L 10.643076,7.507329 13.3539,10.218376 c 1.490968,1.491061 3.578542,3.611855 4.639058,4.712871 l 1.928207,2.001851 0.06318,1.507753 c 0.03477,0.829238 0.04634,1.524573 0.02576,1.545164 -0.02059,0.02059 -0.67816,0.03674 -1.461263,0.03585 z M 13.775196,13.655162 C 9.3166978,9.1966642 9.2785429,9.1603557 9.1677711,9.2711278 c -0.11077,0.1107693 -0.074463,0.148927 4.3840349,4.6074252 4.458499,4.458497 4.496653,4.494807 4.607426,4.384035 0.11077,-0.110771 0.07446,-0.148925 -4.384036,-4.607426 z M 6.559274,3.5432717 C 6.5241824,3.2494845 6.2131384,2.8922974 5.9638794,2.8595568 5.6099197,2.8130602 5.4524596,2.9338711 4.0856398,4.3006949 2.7188201,5.667514 2.5980035,5.8249757 2.644501,6.1789343 2.6772445,6.4281918 3.0344321,6.7392357 3.3282168,6.7743292 l 0.2628987,0.031399 1.499778,-1.4997774 1.4997773,-1.4997773 z"
  />
</svg>
