<svg width="20" height="20" xmlns="http://www.w3.org/2000/svg" version="1.1">
 <path d="m18.54884,20.02182l-1.42382,-0.0016l0,-0.75268l0,-0.75268l-0.80797,0l-0.80796,0l-0.0027,-0.80896l-0.0027,-0.80897l-0.86451,-0.0025l-0.86452,-0.0025l-3.10689,-3.07801l-3.10695,-3.07808l-0.6161,0.19273c-1.57515,0.49282 -3.10187,0.382 -4.44678,-0.32274c-0.54715,-0.28671 -0.66663,-0.38346 -1.23435,-0.99955c-0.49588,-0.53813 -0.67838,-0.79125 -0.86455,-1.19913c-0.80317,-1.75968 -0.61699,-3.85748 0.49146,-5.53765c1.65987,-2.51599 4.91792,-3.48821 7.43558,-2.21882c0.51843,0.26139 0.70654,0.40373 1.25347,0.94854c0.56033,0.55811 0.68117,0.7187 0.93496,1.24203c0.64804,1.33627 0.74726,2.84833 0.27747,4.22859l-0.1489,0.43749l2.71082,2.71105c1.49097,1.49106 3.57854,3.61185 4.63906,4.71287l1.92821,2.00185l0.06318,1.50775c0.03477,0.82924 0.04634,1.52457 0.02575,1.54516c-0.02058,0.02059 -0.67815,0.03674 -1.46126,0.03585l0,-0.00004zm-4.77364,-6.36666c-4.4585,-4.4585 -4.49666,-4.4948 -4.60743,-4.38403c-0.11077,0.11077 -0.07446,0.14892 4.38404,4.60742c4.45849,4.4585 4.49665,4.49481 4.60742,4.38404c0.11077,-0.11077 0.07446,-0.14893 -4.38403,-4.60743zm-7.21593,-10.11189c-0.03509,-0.29379 -0.34613,-0.65097 -0.59539,-0.68371c-0.35396,-0.0465 -0.51142,0.07431 -1.87824,1.44113c-1.36682,1.36682 -1.48764,1.52429 -1.44114,1.87824c0.03274,0.24926 0.38993,0.56031 0.68372,0.5954l0.2629,0.0314l1.49977,-1.49978l1.49978,-1.49978l-0.0314,-0.2629z" fill="#585858" stroke="#ff7f00" stroke-width="0.15875" stroke-miterlimit="4" stroke-dasharray="0.079375, 0.07937500000000000" stroke-dashoffset="0"/>
</svg>