<svg width="32" height="32" xmlns="http://www.w3.org/2000/svg" version="1.1" xml:space="preserve" fill="#f47216">
<path d="m3.24465,1.18181l0,8.56062l2.57614,0c1.01284,0 1.51907,-0.53619 1.51907,-1.59374l0,-2.92846l12.85505,0c3.75438,0 5.63138,1.99475 5.63138,5.85885l0,3.18533l-18.48643,0l0.00037,1.93331c0,1.05235 -0.51106,1.59344 -1.51907,1.59344l-3.48677,0l0,5.23293c0,5.23293 2.61666,7.84959 7.90645,7.84959l10.46624,0c6.14282,0 9.27165,-3.18529 9.27165,-9.49912l0,-10.69334c0,-6.31379 -3.12883,-9.49912 -9.27165,-9.49912l-17.46245,-0.0003l0.00002,0.00001zm10.77102,16.60943l2.77871,0c1.8718,0 2.58394,0.96102 2.58394,2.7541l0,4.19222c0,1.42374 -0.71401,2.16201 -2.10968,2.16201l-1.43359,0c-1.20909,0 -1.81939,-0.71549 -1.81939,-2.13588l0,-6.97241"/>
</svg>