<svg width="36" height="36" xmlns="http://www.w3.org/2000/svg" fill="#f47216" xml:space="preserve" version="1.1">
 <path stroke="null" d="m2.98871,0.75868l0,10.13299l3.04931,0c1.19887,0 1.79809,-0.63468 1.79809,-1.88647l0,-3.46634l15.2162,0c4.44396,0 6.66572,2.36114 6.66572,6.93497l0,3.77039l-21.88193,0l0.00044,2.28841c0,1.24564 -0.60493,1.88612 -1.79809,1.88612l-4.1272,0l0,6.19409c0,6.19409 3.09727,9.29136 9.35867,9.29136l12.38863,0c7.2711,0 10.97462,-3.77035 10.97462,-11.24387l0,-12.65744c0,-7.47348 -3.70352,-11.24387 -10.97462,-11.24387l-20.66986,-0.00035zm12.74939,19.66017l3.28909,0c2.2156,0 3.05855,1.13754 3.05855,3.25996l0,4.96223c0,1.68524 -0.84515,2.55912 -2.49717,2.55912l-1.6969,0c-1.43117,0 -2.15357,-0.84691 -2.15357,-2.52819l0,-8.25307"/>
</svg>