<svg width="250" height="44" xmlns="http://www.w3.org/2000/svg" xml:space="preserve" version="1.1">
 <g id="svg_1" transform="matrix(0.409396 0 0 -0.409396 -0.175547 43.2666)">
   <g id="svg_2" fill="#f47216" transform="translate(0 1.42109e-14) scale(0.1 0.1)">
    <path id="svg_3" d="m8.1133,805.72l0,-798.85l110.19,0l0,688.66l422.38,0l0,-688.66l107.12,0l0,688.66l264.75,0c104.06,0 156.1,-55.09 156.1,-163.75l0,-524.91l111.71,0l0,543.28c0,169.87 -82.64,255.57 -246.39,255.57l-925.87,0"/>
    <path id="svg_4" d="m2074.1,6.8711l0,108.66l-456.05,0c-101,0 -151.5,53.563 -151.5,157.63l0,273.93c0,108.65 52.04,149.98 156.1,149.98l243.32,0c82.64,0 125.49,-41.32 125.49,-122.43l0,-15.305c0,-70.391 -41.32,-105.59 -123.96,-105.59l-325.14,0l0,-94.886l354.22,0.003c136.2,0 202.01,59.692 202.01,177.53l0,58.152c0,140.78 -70.4,211.18 -212.72,211.18l-281.59,0c-165.28,0 -249.45,-85.699 -249.45,-255.57l0,-287.7c0,-169.87 84.17,-255.57 249.45,-255.57l469.82,0"/>
    <path id="svg_5" d="m2654.1,115.53l-21.53,0c-98.36,0 -148.88,50.86 -151.4,149.73l0,431.81l172.93,0l0,108.65l-172.93,0l0,73.277l0.16,0l0,112.79c0,48.231 -19.15,74.091 -69.52,74.091l-42.19,0l0,-113.38l-0.17,0l0,-146.78l-149.97,0l0,-108.65l149.97,0l0,-146.92l-0.1,0.003l0,-287.7c0,-3.265 0.04,-6.492 0.1,-9.695l0,-19.105l0.77,0c9.22,-150.7 92.92,-226.77 248.57,-226.77l35.31,0l0,108.66"/>
    <path id="svg_6" d="m2828,805.72l0,-230.32l69.31,0c27.25,0 40.87,14.426 40.87,42.879l0,78.789l345.86,0c101.01,0 151.51,-53.668 151.51,-157.63l0,-85.7l-497.37,0l0.01,-52.015c0,-28.313 -13.75,-42.871 -40.87,-42.871l-93.81,0l0,-140.79c0,-140.79 70.4,-211.19 212.72,-211.19l281.59,0c165.27,0 249.45,85.699 249.45,255.57l0,287.7c0,169.87 -84.18,255.57 -249.45,255.57l-469.82,0.008zm289.79,-446.87l74.76,0c50.36,0 69.52,-25.856 69.52,-74.098l0,-112.79c0,-38.305 -19.21,-58.168 -56.76,-58.168l-38.57,0c-32.53,0 -48.95,19.25 -48.95,57.465l0,187.59"/>
    <path id="svg_7" d="m3966.6,1065.9c-166.8,0 -249.45,-84.169 -249.45,-254.03l0.01,-550.94c0,-169.86 82.64,-254.04 249.45,-254.04l344.33,0c149.97,0 224.96,74.988 224.96,226.5l0,342.03l-425.45,0l0,-94.878l316.79,0l0,-225.73c0,-93.34 -45.92,-139.26 -139.26,-139.26l-299.95,0c-102.52,0 -154.56,52.028 -154.56,157.62l-0.01,520.33c0,105.6 52.03,157.62 154.57,157.62l521.85,0l0,114.78l-543.28,0"/>
    <path id="svg_8" d="m5875,805.72c-166.81,0 -249.45,-85.699 -249.45,-255.82l0,-543.02l111.72,0l0,524.66c0,108.91 53.56,164 157.62,164l195.89,0l0,110.19l-215.78,0"/>
    <path id="svg_9" d="m5426.6,6.8711l0,108.66l-456.05,0c-101,0 -151.5,53.563 -151.5,157.63l0,273.93c0,108.65 52.03,149.98 156.09,149.98l243.33,0c82.64,0 125.49,-41.32 125.49,-122.43l0,-15.305c0,-70.391 -41.32,-105.59 -123.96,-105.59l-325.14,0l0,-94.886l354.22,0.003c136.2,0 202.01,59.692 202.01,177.53l0,58.152c0,140.78 -70.4,211.18 -212.72,211.18l-281.59,0c-165.28,0 -249.45,-85.699 -249.45,-255.57l0,-287.7c0,-169.87 84.17,-255.57 249.45,-255.57l469.82,0"/>
   </g>
  </g>
</svg>