<svg width="205" height="38" xmlns="http://www.w3.org/2000/svg">
 <polygon stroke="null" fill="#B3B3B3" points="14.576065063476562,23.080634713172913 14.576065063476562,32.46775209903717 22.117855072021484,32.46775209903717 20.59345054626465,23.241096138954163 " />
 <path stroke="null" fill="currentColor" d="m35.917723,32.387524l0,-22.545135l-4.653444,0l0,22.545135l4.653444,0zm17.731227,-7.862716l0,0c0,-4.733676 -2.567418,-8.985961 -8.02318,-8.985961c-4.813908,0 -8.183643,3.851126 -8.183643,8.584802l0,0.080232c0,5.054603 3.610431,8.504571 8.584802,8.504571c3.048808,0 5.215067,-1.123245 6.739471,-3.048808l-2.647649,-2.406954c-1.283709,1.203477 -2.406954,1.684868 -4.01159,1.684868c-2.086027,0 -3.610431,-1.123245 -4.01159,-3.209272l11.473147,0c0,-0.401159 0.080232,-0.722086 0.080232,-1.203477zm-4.573212,-1.7651l-7.060398,0c0.401159,-2.086027 1.604636,-3.449967 3.610431,-3.449967c1.925563,0 3.12904,1.363941 3.449967,3.449967zm20.218413,9.627816l-5.856921,-8.504571l5.616226,-8.02318l-4.89414,0l-3.12904,4.813908l-3.12904,-4.813908l-4.974371,0l5.535994,8.103412l-5.776689,8.424339l4.89414,0l3.369735,-5.215067l3.289504,5.215067l5.054603,0zm14.441724,0l0,-9.627816c0,-4.492981 -2.24649,-7.14063 -7.381325,-7.14063c-2.808113,0 -4.573212,0.561623 -6.418544,1.363941l1.203477,3.530199c1.524404,-0.561623 2.727881,-0.88255 4.573212,-0.88255c2.326722,0 3.530199,1.123245 3.530199,3.048808l0,0.240695c-1.203477,-0.401159 -2.406954,-0.641854 -4.01159,-0.641854c-3.931358,0 -6.659239,1.684868 -6.659239,5.295299l0,0c0,3.289504 2.487186,5.054603 5.616226,5.054603c2.326722,0 3.851126,-0.802318 5.054603,-2.086027l0,1.845331l4.492981,0zm-4.412749,-5.856921c0,1.684868 -1.524404,2.888345 -3.690663,2.888345c-1.524404,0 -2.567418,-0.722086 -2.567418,-2.005795l0,-0.080232c0,-1.444172 1.203477,-2.24649 3.209272,-2.24649c1.203477,0 2.24649,0.240695 3.048808,0.641854l0,0.802318zm21.502122,5.856921l0,-10.751061c0,-3.770894 -2.086027,-6.097617 -5.616226,-6.097617c-2.406954,0 -3.770894,1.203477 -4.813908,2.647649l0,-2.326722l-4.733676,0l0,16.52775l4.733676,0l0,-9.226657c0,-2.24649 1.123245,-3.369735 2.888345,-3.369735c1.7651,0 2.808113,1.123245 2.808113,3.369735l0,9.226657l4.733676,0zm18.613777,0l0,-22.545135l-4.733676,0l0,8.103412c-1.123245,-1.283709 -2.647649,-2.406954 -5.134835,-2.406954c-3.931358,0 -7.541789,2.968577 -7.541789,8.504571l0,0.080232c0,5.535994 3.690663,8.504571 7.541789,8.504571c2.406954,0 4.01159,-1.123245 5.134835,-2.647649l0,2.406954l4.733676,0zm-4.653444,-8.263875c0,2.727881 -1.845331,4.573212 -4.01159,4.573212c-2.166259,0 -4.01159,-1.845331 -4.01159,-4.573212l0,-0.080232c0,-2.727881 1.845331,-4.573212 4.01159,-4.573212c2.166259,0 4.01159,1.845331 4.01159,4.573212l0,0.080232zm16.688214,-3.690663l0,-4.89414c-2.808113,-0.160464 -4.332517,1.363941 -5.295299,3.610431l0,-3.289504l-4.653444,0l0,16.52775l4.653444,0l0,-6.177848c0,-3.931358 1.925563,-5.776689 5.054603,-5.776689l0.240695,0zm5.856921,-6.418544l0,-4.172053l-4.974371,0l0,4.172053l4.974371,0zm-0.160464,18.373082l0,-16.52775l-4.653444,0l0,16.52775l4.653444,0zm16.52775,0l0,-9.627816c0,-4.492981 -2.24649,-7.14063 -7.381325,-7.14063c-2.808113,0 -4.573212,0.561623 -6.418544,1.363941l1.203477,3.530199c1.524404,-0.561623 2.727881,-0.88255 4.573212,-0.88255c2.326722,0 3.530199,1.123245 3.530199,3.048808l0,0.240695c-1.203477,-0.401159 -2.406954,-0.641854 -4.091822,-0.641854c-3.851126,0 -6.659239,1.684868 -6.659239,5.295299l0,0c0,3.289504 2.567418,5.054603 5.696458,5.054603c2.326722,0 3.851126,-0.802318 4.974371,-2.086027l0,1.845331l4.573212,0zm-4.412749,-5.856921c0,1.684868 -1.524404,2.888345 -3.690663,2.888345c-1.524404,0 -2.567418,-0.722086 -2.567418,-2.005795l0,-0.080232c0,-1.444172 1.203477,-2.24649 3.209272,-2.24649c1.203477,0 2.24649,0.240695 3.048808,0.641854l0,0.802318zm9.467352,5.856921l0,-3.289504l-2.888345,0l0,3.289504l2.888345,0zm17.891691,-8.02318c0,-4.492981 -3.530199,-8.263875 -8.263875,-8.263875c-4.813908,0 -8.344107,3.770894 -8.344107,8.344107c0,4.492981 3.449967,8.263875 8.263875,8.263875c4.813908,0 8.344107,-3.770894 8.344107,-8.344107zm-2.406954,0.080232c0,3.369735 -2.406954,6.177848 -5.856921,6.177848c-3.369735,0 -5.937153,-2.808113 -5.937153,-6.25808c0,-3.449967 2.406954,-6.177848 5.856921,-6.177848c3.369735,0 5.937153,2.727881 5.937153,6.25808zm6.980166,1.524404c0,-4.813908 2.808113,-7.301094 6.338312,-7.301094l0.160464,0l0,-2.567418c-3.048808,-0.080232 -5.37553,1.845331 -6.498776,4.492981l0,-4.172053l-2.406954,0l0,15.966128l2.406954,0l0,-6.418544zm22.545135,3.610431l0,-13.158015l-2.406954,0l0,2.888345c-1.283709,-1.7651 -3.209272,-3.209272 -6.25808,-3.209272c-3.770894,0 -7.461557,2.808113 -7.461557,7.541789c0,4.653444 3.690663,7.461557 7.461557,7.461557c2.968577,0 4.89414,-1.524404 6.25808,-3.369735l0,1.925563c0,3.690663 -2.24649,5.696458 -5.776689,5.696458c-2.24649,0 -4.332517,-0.722086 -6.097617,-2.086027l-1.123245,1.845331c2.166259,1.524404 4.573212,2.24649 7.220862,2.24649c4.974371,0 8.183643,-2.647649 8.183643,-7.782484zm-2.326722,-6.017385c0,3.289504 -2.808113,5.455762 -5.856921,5.455762c-2.968577,0 -5.535994,-2.166259 -5.535994,-5.455762c0,-3.289504 2.487186,-5.37553 5.535994,-5.37553c3.048808,0 5.856921,2.086027 5.856921,5.37553z" />
 <path stroke="null" fill="currentColor" d="m22.83994,18.507423l-7.461557,-17.570764l-0.88255,0l-7.541789,17.570764c-5.134835,11.794074 -5.937153,13.639406 -6.017385,13.880101l0,0.080232l3.12904,0l2.968577,0l0,-0.080232l3.048808,-7.622021l4.492981,-1.684868l4.492981,1.684868l2.968577,7.622021l0,0.080232l3.530199,0l3.048808,0l0,-0.080232c-0.080232,-0.320927 -0.802318,-2.086027 -5.776689,-13.880101z" />
 <path stroke="null" fill="#FF9933" d="m15.619078,19.309741c0.561623,0 1.684868,-0.88255 1.845331,-2.086027c0.401159,0.641854 0.641854,1.363941 0.561623,2.166259c-0.160464,1.845331 -1.363941,3.209272 -3.690663,3.12904c-0.722086,0 -1.524404,-0.401159 -2.086027,-0.88255c-1.925563,-1.845331 -0.481391,-4.733676 1.203477,-6.177848c-0.080232,0.320927 -0.080232,0.641854 -0.080232,0.88255c0.240695,-0.240695 0.481391,-0.481391 0.641854,-0.641854c0.802318,-0.962782 1.283709,-2.406954 0.88255,-3.851126c2.005795,1.7651 2.808113,4.974371 0.962782,7.220862c-0.080232,0.080232 -0.240695,0.240695 -0.240695,0.240695z" />
 </svg>