<svg width="32" height="32" xmlns="http://www.w3.org/2000/svg">
 <rect fill="none" height="34" width="34" y="-1" x="-1"/>
 <polygon stroke="null" fill="#B3B3B3" points="15.669752418994904,22.209558129310608 15.669752418994904,31.596673607826233 23.211542427539825,31.596673607826233 21.68713790178299,22.370019555091858 "/>
 <path stroke="null" class="svg-grey" d="m23.933627,17.636346l-7.461557,-17.570764l-0.88255,0l-7.541789,17.570764c-5.134835,11.794074 -5.937153,13.639406 -6.017385,13.880101l0,0.080232l3.12904,0l2.968577,0l0,-0.080232l3.048808,-7.622021l4.492981,-1.684868l4.492981,1.684868l2.968577,7.622021l0,0.080232l3.530199,0l3.048808,0l0,-0.080232c-0.080232,-0.320927 -0.802318,-2.086027 -5.776689,-13.880101z"/>
 <path stroke="null" fill="#FF9933" d="m16.712765,18.438664c0.561623,0 1.684868,-0.88255 1.845331,-2.086027c0.401159,0.641854 0.641854,1.363941 0.561623,2.166259c-0.160464,1.845331 -1.363941,3.209272 -3.690663,3.12904c-0.722086,0 -1.524404,-0.401159 -2.086027,-0.88255c-1.925563,-1.845331 -0.481391,-4.733676 1.203477,-6.177848c-0.080232,0.320927 -0.080232,0.641854 -0.080232,0.88255c0.240695,-0.240695 0.481391,-0.481391 0.641854,-0.641854c0.802318,-0.962782 1.283709,-2.406954 0.88255,-3.851126c2.005795,1.7651 2.808113,4.974371 0.962782,7.220862c-0.080232,0.080232 -0.240695,0.240695 -0.240695,0.240695z" />
</svg>