<svg height="24px" width="24px" viewBox="0 0 24 24" xmlns="http://www.w3.org/2000/svg">
    <path stroke="null" fill="currentColor" d="M9.28566 17.8572C11.033 17.8572 12.6582 17.3343 14.0134 16.4365L19.6742 22.0914L22.0914 19.6743L16.4365 14.0134C17.3343 12.6583 17.8571 11.033 17.8571 9.28572C17.8571 4.55185 14.0195 0.714294 9.28566 0.714294C4.55179 0.714294 0.714233 4.55185 0.714233 9.28572C0.714233 14.0196 4.55179 17.8572 9.28566 17.8572ZM14.7714 9.28572C14.7714 12.3154 12.3153 14.7714 9.28566 14.7714C6.25599 14.7714 3.79995 12.3154 3.79995 9.28572C3.79995 6.25605 6.25599 3.80001 9.28566 3.80001C12.3153 3.80001 14.7714 6.25605 14.7714 9.28572Z" fill-rule="evenodd"/>
</svg>