<svg width="32" height="32" xmlns="http://www.w3.org/2000/svg">
 <path stroke="null" fill="#fff238" d="m0.647043,12.938785c0,7.228549 5.962123,11.092676 14.037499,11.092676l1.220652,0l0,7.560414c8.468274,-2.43749 15.258151,-10.451834 15.258151,-18.65309c0,-7.541341 -6.190995,-12.62612 -15.258151,-12.62612s-15.258151,5.084779 -15.258151,12.62612z"/>
 <path stroke="null" class="svg-grey" d="m23.229107,8.452889c-2.094181,0 -3.593295,1.510557 -3.593295,3.604738c0.038145,0.732391 0.183098,1.384677 0.801053,3.040187l1.129103,3.028743l1.575404,-0.507334l-0.801053,-2.193359c0.308978,0.144952 0.724762,0.221243 1.090958,0.221243c1.846236,0 3.394939,-1.548702 3.394939,-3.58948c0,-2.036963 -1.52963,-3.604738 -3.597109,-3.604738zm-0.019073,5.500564c-1.052812,0 -1.834793,-0.778166 -1.834793,-1.876753c0,-1.094772 0.78198,-1.884382 1.834793,-1.884382c1.052812,0 1.865309,0.801053 1.865309,1.884382s-0.801053,1.876753 -1.865309,1.876753zm-12.641378,-5.069521l-1.739429,0.568366l0.225058,4.558373c-0.629399,0.270832 -0.900231,-0.019073 -1.296943,-0.625584l-1.953043,-3.00967l-1.777575,0.587439l2.292537,3.520818c0.625584,0.923118 1.68984,1.411379 2.818943,0.980336c0.068662,0.8659 -0.308978,1.354161 -1.003223,1.354161c-0.434857,0 -0.90786,-0.228872 -1.132918,-0.74002l-1.514372,0.511148c0.789609,1.61355 1.991189,1.777575 2.628217,1.777575c1.392306,0 2.830387,-1.018482 2.72358,-3.211841l-0.270832,-6.2711zm4.688067,5.126739c-0.587439,0 -1.167249,-0.240316 -1.476226,-0.778166l5.111481,-1.693655c-0.240316,-1.85768 -1.663139,-3.085961 -3.574222,-3.085961c-2.090367,0 -3.604738,1.510557 -3.604738,3.604738c0,2.097996 1.514372,3.58948 3.604738,3.58948c2.086552,0 3.574222,-1.472412 3.623811,-3.494117l-1.838607,0.617955c-0.171654,0.797238 -1.041369,1.239725 -1.846236,1.239725zm0.106807,-4.00145c0.560737,0 1.132918,0.221243 1.460968,0.801053l-3.391124,1.094772c0,-1.11766 0.839198,-1.895825 1.930156,-1.895825z"/>
</svg>