<svg width="98" height="98" xmlns="http://www.w3.org/2000/svg">
 <path stroke="null" fill="#fff238" d="m1.356263,39.641802c0,22.516228 18.571432,34.552607 43.725445,34.552607l3.802213,0l0,23.549954c26.37785,-7.592543 47.527658,-32.556445 47.527658,-58.102561c0,-23.490545 -19.284347,-39.329137 -47.527658,-39.329137s-47.527658,15.838592 -47.527658,39.329137z"/>
 <path stroke="null" d="m71.697196,25.66867c-6.523171,0 -11.192763,4.705238 -11.192763,11.228409c0.118819,2.281328 0.570332,4.313135 2.495202,9.469886l3.517047,9.43424l4.907231,-1.580295l-2.495202,-6.832101c0.962435,0.451513 2.257564,0.689151 3.398228,0.689151c5.750847,0 10.574904,-4.824057 10.574904,-11.180881c0,-6.344942 -4.764648,-11.228409 -11.204645,-11.228409zm-0.05941,17.133721c-3.279408,0 -5.715201,-2.423911 -5.715201,-5.845902c0,-3.410109 2.435792,-5.869666 5.715201,-5.869666c3.279408,0 5.810256,2.495202 5.810256,5.869666s-2.495202,5.845902 -5.810256,5.845902zm-39.376664,-15.791064l-5.418153,1.770405l0.701033,14.198888c-1.960516,0.843616 -2.804132,-0.05941 -4.039851,-1.948634l-6.08354,-9.37483l-5.536972,1.829815l7.141031,10.967007c1.948634,2.875423 5.263688,4.396308 8.780735,3.053652c0.213874,2.697195 -0.962435,4.21808 -3.124943,4.21808c-1.354538,0 -2.827896,-0.712915 -3.528929,-2.305091l-4.71712,1.592177c2.459556,5.02605 6.202359,5.536972 8.186639,5.536972c4.336899,0 8.81638,-3.172471 8.483687,-10.004572l-0.843616,-19.533867zm14.602873,15.969293c-1.829815,0 -3.635866,-0.748561 -4.598301,-2.423911l15.921765,-5.27557c-0.748561,-5.786492 -5.180515,-9.612469 -11.133354,-9.612469c-6.511289,0 -11.228409,4.705238 -11.228409,11.228409c0,6.535053 4.71712,11.180881 11.228409,11.180881c6.499407,0 11.133354,-4.586419 11.287819,-10.883834l-5.727083,1.92487c-0.534686,2.48332 -3.243763,3.861622 -5.750847,3.861622zm0.332694,-12.464128c1.746641,0 3.528929,0.689151 4.550773,2.495202l-10.563022,3.410109c0,-3.481401 2.614021,-5.905311 6.012249,-5.905311z"/>
</svg>