<svg width="162" height="41" xmlns="http://www.w3.org/2000/svg" preserveAspectRatio="xMidYMid meet">
 <g>
  <g stroke="null" id="svg_3">
   <path stroke="null" d="m92.86612,39.8361c3.09317,0 5.63108,-1.447 7.41154,-4.13881l0.33346,3.58204l6.07468,0l0,-38.38697l-6.56355,0l0,13.86343c-1.64768,-2.49264 -4.09505,-3.80535 -6.96642,-3.80535c-6.34175,0 -10.77026,5.36401 -10.77026,14.64351c0,9.14521 4.29573,14.24216 10.48207,14.24216l-0.00151,0l0,0.00001zm40.39074,-2.42625l0,-5.3625c-2.04753,1.3791 -5.47416,2.60279 -8.67898,2.60279c-4.80723,0 -6.63145,-2.26933 -6.89852,-6.89852l15.84305,0l0,-3.49301c0,-9.65672 -4.24896,-13.30817 -10.81402,-13.30817c-8.01206,0 -11.8159,6.11995 -11.8159,14.53186c0,9.65672 4.73934,14.35381 13.15124,14.35381c4.18408,0 7.27725,-1.11354 9.21312,-2.42625l0,-0.00002zm-70.76565,-18.07014c1.22369,-1.49076 3.13843,-2.7582 5.51942,-2.7582c2.31309,0 3.36024,1.00038 3.36024,3.09317l0,19.60465l6.56355,0l0,-20.27308c0,-5.51791 -2.20294,-7.94416 -7.56544,-7.94416c-3.917,0 -6.2316,1.447 -7.56695,2.75971l-0.33195,0l-0.15692,-2.3146l-6.41116,0l0,27.77212l6.56506,0l0,-19.93811l0.02414,-0.00151zm-11.92756,1.00189c0,-6.7431 -3.42814,-9.2795 -10.39305,-9.2795c-4.31686,0 -7.78875,1.82572 -9.76838,3.24858l0,5.69746c2.09128,-1.71406 5.29611,-3.6937 9.01243,-3.6937c3.13843,0 4.58393,1.11203 4.58393,4.09355l0,1.75783l-1.04564,0c-10.05808,0 -14.53186,3.25009 -14.53186,9.0577c0,5.3625 3.42663,8.45567 8.50093,8.45567c3.87174,0 5.51942,-1.26745 6.78687,-2.60279l0.26707,0c0.04526,0.71218 0.26707,1.64617 0.49038,2.20294l6.40814,0a69.63249,69.63249 0 0 1 -0.33346,-6.78687l0,-12.15087l0.02263,0l0.00001,0zm102.8999,18.93773l7.41003,0l-9.0577,-14.30854l7.83402,-13.46358l-6.56506,0l-4.74085,8.38927l-5.29611,-8.38927l-7.43266,0l8.38927,13.30817l-8.72274,14.46396l6.67672,0l5.5843,-9.39116l5.92078,9.39116zm-58.66005,-23.14293c3.53828,0 5.29611,2.8261 5.29611,9.21312c0,6.4534 -1.87099,9.2795 -5.58581,9.2795c-3.58355,0 -5.36401,-2.76121 -5.36401,-9.0577c0.02263,-6.56355 1.89212,-9.43491 5.65371,-9.43491l-0.00001,0zm27.79325,0c3.25009,0 4.25047,2.71444 4.25047,6.18634l0,0.55677l-9.16785,0c0.15541,-4.42851 1.75783,-6.74461 4.91889,-6.74461l-0.00151,0.00151l0,-0.00001zm-78.59816,16.50997c-0.82384,1.22369 -2.38099,2.20294 -4.69558,2.20294c-2.75971,0 -4.13881,-1.60241 -4.13881,-4.02866c0,-3.20332 2.26933,-4.31535 7.89889,-4.31535l0.93549,0l0,6.14107l0.00001,0z" fill="#000" id="svg_1"/>
   <path stroke="null" d="m18.69648,32.75954l0,6.5198l-6.67521,0l0,-10.99357l-12.59599,-27.3934l6.96491,0l9.81364,21.43038c1.89212,4.09505 2.49264,5.51791 2.49264,10.4368zm12.55072,-31.86718l-8.1886,18.55901l-6.78687,0l8.1886,-18.55901l6.78687,0z" fill="#FC3F1D" id="svg_2"/>
  </g>
 </g>

</svg>