<svg width="162" height="49" xmlns="http://www.w3.org/2000/svg" preserveAspectRatio="xMidYMid meet">
    <g>
        <g stroke="null" id="svg_3">
            <path stroke="null" fill="#fff" fill-rule="evenodd" d="m111.53021,25.20037l0,3.68136l-16.6343,0c0.25321,4.69423 2.20102,7.01211 7.20689,7.01211c3.38919,0 7.0316,-1.09077 9.13523,-2.4932l0,5.62917c-1.94781,1.32451 -5.25909,2.29842 -9.68062,2.29842c-8.82358,0 -13.82945,-4.86953 -13.82945,-14.86179c0,-8.76514 4.03196,-15.15396 12.44651,-15.15396c6.89525,0 11.35573,3.79823 11.35573,13.88789l0,-0.00001zm-11.51156,-8.41454c-3.31128,0 -4.98639,2.41528 -5.14222,6.99264l9.6027,0l0,-0.58434c0,-3.62292 -1.03234,-6.40829 -4.47997,-6.40829l0.01948,0l0,-0.00001zm-52.04549,6.60307l0,-11.55051l6.95368,0l0,29.19767l-6.95368,0l0,-12.21277l-9.2521,0l0,12.21277l-6.89525,0l0,-29.21716l6.89525,0l0,11.56999l9.2521,0zm93.16376,17.64716l-7.8302,0l-10.22601,-14.33588l0,14.33588l-6.89525,0l0,-29.21716l6.89525,0l0,13.49832l9.73905,-13.47885l6.99264,0l-9.73905,13.47885l11.06356,15.71882l0,0.00001zm20.41305,-1.46085c-1.6946,1.22712 -3.93458,1.81146 -7.14846,1.81146c-9.19366,0 -13.67363,-5.337 -13.6931,-14.90075c0,-8.82358 4.57735,-15.09553 13.40094,-15.09553c3.42814,0 5.97978,0.58434 7.44064,1.40242l0,5.84343a13.42041,13.42041 0 0 0 -6.66151,-1.79198c-4.5384,0 -7.01211,3.19441 -7.01211,9.46636c0,5.92134 2.00624,9.62219 6.95368,9.62219c2.90224,0 4.96692,-0.77912 6.71995,-1.98677l0,5.64865l0,-0.01948l-0.00002,0.00001zm-78.59414,-4.01249l3.07754,0l0,11.88164l-6.38881,0l0,-6.46673l-15.48509,0l0,6.46673l-6.38881,0l0,-11.90112l2.14259,0c2.43476,-4.86953 2.92172,-14.10214 2.92172,-21.23113l0,-2.4932l20.12088,0l0,23.74381zm-16.6343,0l9.73905,0l0,-18.27046l-7.30429,0l0,0.85703c0,5.04483 -0.50643,13.01137 -2.43476,17.41342l0,0.00001z" clip-rule="evenodd" id="svg_1"/>
            <path stroke="null" fill="#FC3F1D" d="m26.02135,41.01659l0,-40.31967l-10.20653,0c-10.28444,0 -15.66039,5.25909 -15.66039,13.05033c0,6.17456 2.94119,9.8754 8.21976,13.63467l-9.17418,13.63467l7.59646,0l10.22601,-15.29031l-3.54502,-2.35685c-4.28519,-2.92172 -6.40829,-5.1617 -6.40829,-10.0507c0,-4.28519 3.0191,-7.18742 8.76514,-7.18742l3.13598,0l0,34.8658l7.05108,0l0,0.01948l-0.00001,0z" id="svg_2"/>
        </g>
    </g>

</svg>