<svg width="205" height="40" xmlns="http://www.w3.org/2000/svg" version="1.1" xml:space="preserve">
  <g transform="matrix(0.579689 0 0 -0.579689 -0.496297 40.3621) translate(0 -1.42109e-14) scale(0.1 0.1)">
   <g>
    <path d="m76.4492,388.012c3.1992,-9.653 9.1406,-17.813 17.7305,-24.492c8.5903,-6.68 20.9803,-12.231 37.1093,-16.68c16.172,-4.461 37.152,-7.781 62.973,-10c38.008,-3.719 69.367,-9.809 94.136,-18.36c24.762,-8.519 44.102,-19.46 58.082,-32.82c13.989,-13.32 23.719,-28.898 29.071,-46.68c5.39,-17.808 8.078,-38.242 8.078,-61.171c0,-21.52 -3.629,-42.457 -10.777,-62.848c-7.192,-20.4298 -19.18,-38.7501 -36.051,-55.0821c-16.84,-16.3281 -39.102,-29.2891 -66.68,-38.8984c-27.66,-9.6094 -61.883,-14.46097 -102.781,-14.46097c-12.93,0 -26.91,0.75 -41.949,2.23047c-15.082,1.4805 -30.0004,3.5195 -44.6527,6.1289c-14.7188,2.582 -28.5078,5.5508 -41.4375,8.8711c-12.8906,3.3203 -23.6797,6.8398 -32.26955,10.5898l0,66.7112c16.48825,-5.9299 37.80855,-11.6721 64.01955,-17.219c26.1797,-5.5937 58.6402,-8.3632 97.3902,-8.3632c27.969,0 51.09,2.7695 69.368,8.3632c18.32,5.5469 32.812,13.1172 43.601,22.809c10.781,9.609 18.281,20.347 22.57,32.23c4.34,11.828 6.45,24.449 6.45,37.809c0,12.621 -1.25,24.3 -3.75,35.039c-2.539,10.742 -8.051,20.191 -16.68,28.363c-8.59,8.156 -20.98,15 -37.109,20.578c-16.129,5.551 -37.5,9.461 -64.02,11.68c-38.75,3.68 -70.512,9.812 -95.2421,18.32c-24.7187,8.52 -43.9375,19.301 -57.5781,32.27c-13.5899,12.972 -22.9297,27.621 -27.96096,43.949c-5,16.281 -7.5,34.101 -7.5,53.391c0,20 3.35938,39.812 10.19136,59.5c6.8399,19.64 17.9297,37.261 33.3594,52.812c15.3906,15.578 36.0586,28.156 61.8794,37.848c25.82,9.609 57.691,14.449 95.742,14.449c25.117,0 51.289,-2.07 78.547,-6.129c27.269,-4.098 52.742,-11.328 76.371,-21.68l0,-66.718c-20.782,7.378 -43.008,13.48 -66.68,18.32c-23.629,4.808 -53.441,7.23 -89.301,7.23c-26.558,0 -48.238,-2.422 -65.078,-7.23c-16.91,-4.84 -30,-11.481 -39.2929,-20c-9.3398,-8.551 -15.7773,-18.75 -19.3789,-30.582c-3.5898,-11.879 -5.3906,-24.5 -5.3906,-37.82c0,-11.868 1.6406,-22.649 4.8906,-32.258" />
       <path d="m1297.19,451.41c-3.95,14.801 -10.74,27.031 -20.43,36.68c-9.69,9.64 -22.81,16.68 -39.3,21.129c-16.48,4.453 -37.3,6.683 -62.38,6.683c-36.6,0 -67.42,-2.781 -92.58,-8.32c-25.12,-5.551 -48.05,-12.07 -68.83,-19.492l0,66.75c23.67,10.39 50.04,17.969 79.06,22.781c29.07,4.801 56.49,7.258 82.35,7.258c40.15,0 73.32,-4.449 99.49,-13.359c26.21,-8.899 46.99,-21.68 62.42,-38.36c15.43,-16.711 26.17,-36.359 32.27,-58.941c6.09,-22.617 9.18,-48.008 9.18,-76.207l0,-380.3909l-74.26,0l0,42.2187c0,0 -62.77,-53.32027 -144.18,-53.32027c-35.16,0 -64.92,4.99997 -89.3,14.99997c-24.41,10.0391 -44.1,23.1719 -59.18,39.5c-15.071,16.2813 -25.821,35.3907 -32.301,57.2615c-6.449,21.879 -9.649,44.301 -9.649,67.309c0,20.742 2.5,40.781 7.5,60.07c5,19.262 14.34,36.68 28.01,52.27c13.59,15.55 32.65,29.101 57.54,39.449c42.58,17.742 109.49,21.172 162.5,22l77.97,-0.707l0,40.469c0,20 -1.96,37.418 -5.9,52.269m-199.07,-166.289c-13.86,-7.351 -24.92,-15.781 -32.81,-26.141c-7.93,-10.39 -13.08,-21.871 -15.62,-34.492c-2.5,-12.609 -3.75,-25.578 -3.75,-38.898c0,-12.621 1.25,-25.43 3.75,-38.399c2.54,-12.972 7.89,-24.851 16.13,-35.55c8.28,-10.782 19.92,-19.4887 35,-26.1722c15.04,-6.6368 35.51,-10 61.33,-10c29.41,0 54.49,3.9101 75.31,11.6835c20.82,7.7696 42.66,18.7067 65.63,32.8087l0,180.43l-77.04,0.468c-47.81,-0.699 -103.59,-2.89 -127.93,-15.738" />
       <path d="m1836.33,408.551c6.44,35.238 18.28,65.828 35.51,91.801c17.22,25.937 40.54,46.488 69.96,61.718c29.37,15.2 66.68,22.77 111.87,22.77c26.56,0 53.99,-2.031 82.35,-6.09c28.32,-4.098 54.29,-11.328 78,-21.68l0,-66.718c-20.82,7.378 -43.43,13.48 -67.81,18.32c-24.37,4.808 -55.59,7.23 -93.59,7.23c-33.71,0 -60.67,-6.293 -80.71,-18.914c-20.07,-12.609 -35.35,-29.289 -45.74,-50.039c-10.39,-20.738 -17.03,-44.289 -19.88,-70.617c-2.89,-26.332 -4.34,-53.211 -4.34,-80.672c0,-27.422 1.45,-54.289 4.34,-80.621c2.85,-26.289 9.49,-49.879 19.88,-70.629c10.39,-20.738 25.67,-37.461 45.74,-50.0311c20.04,-12.6172 47,-18.9101 80.71,-18.9101c38,0 69.22,2.3828 93.59,7.2304c24.38,4.8008 46.99,10.9297 67.81,18.3518l0,-66.7112c-23.71,-10.3906 -49.68,-17.621 -78,-21.7187c-28.36,-4.07032 -55.79,-6.10157 -82.35,-6.10157c-45.19,0 -82.5,7.58207 -111.87,22.82027c-29.42,15.1485 -52.74,35.7422 -69.96,61.6797c-17.23,25.9685 -29.07,56.5625 -35.51,91.7895c-6.45,35.203 -9.69,72.851 -9.69,112.851c0,40.078 3.24,77.699 9.69,112.891"/>
       <path d="m2673.67,541.48c-28.71,28.95 -75.31,43.36 -139.88,43.36c-25.12,0 -50.2,-3.711 -75.31,-11.09c-25.12,-7.461 -49.14,-18.91 -72.07,-34.488l0,155.968l-73.21,0l0,-677.6089l73.21,0l0,462.6879c20.04,11.843 40.86,20.742 62.38,26.722c21.52,5.899 49.84,8.871 85,8.871c33.71,0 60.08,-6.683 79.06,-20c19.03,-13.363 28.56,-38.203 28.56,-74.531l0,-403.7499l75.31,0l0,400.3909c0,68.32 -14.38,94.57 -43.05,123.468" />
       <path d="m1801.09,567.152c-22.42,13.789 -52.57,15.618 -79.64,15.618c-68.91,0 -108.91,-27.93 -133.09,-43.508l0,44.328l-71.91,0l0,-565.9689l73.12,0l0,459.7579c20.12,14.383 63.91,42.703 131.72,42.351c29.65,-0.16 54.73,-3.089 79.8,-14.218l0,61.64" />
       <path d="m894.922,295.66l0,3.051c0,40.16 0.308,77.891 -3.981,113.168c-4.339,35.312 -13.519,65.973 -27.5,91.992c-14.062,26.008 -34.531,46.641 -61.531,61.867c-26.949,15.242 -63.43,22.852 -109.449,22.852c-45.27,0 -82.691,-7.61 -112.191,-22.852c-29.489,-15.226 -52.649,-35.859 -69.532,-61.867c-16.91,-26.019 -28.547,-56.68 -35.078,-91.992c-6.48,-35.277 -9.68,-73.008 -9.68,-113.168c0,-40.121 3.2,-77.852 9.68,-113.121c6.531,-35.32 18.168,-65.981 35.078,-91.9611c16.883,-26.0469 40.043,-46.6797 69.532,-61.9101c29.5,-15.1993 66.921,-22.84771 112.191,-22.84771c26.598,0 55.348,2.07031 86.289,6.12891c30.941,4.1016 61.48,13.1992 91.68,27.3008l0,66.9182c-26.602,-11.9182 -53.2,-20.0784 -79.809,-24.5276c-26.641,-4.4609 -59.332,-6.6797 -98.16,-6.6797c-30.191,0 -55,5 -74.41,15.0391c-19.422,10.0392 -34.5,23.5902 -45.321,40.6992c-10.781,17.07 -18.628,36.719 -22.609,59.102c-8.441,47.027 -8.871,79.339 -8.711,102.808l353.512,0zm-323.242,164.731c10.781,17.847 25.898,32.109 45.269,42.929c19.461,10.739 44.571,16.168 75.512,16.168c30.898,0 55,-5.429 72.269,-16.168c17.258,-10.82 30.192,-25.082 38.821,-42.929c8.64,-17.852 13.828,-38.481 15.629,-61.871c1.129,-14.809 1.8,-29.969 2.23,-45.2l-278.211,0c1.289,15.629 3.051,31.02 5.821,45.782c4.3,23.007 11.878,43.437 22.66,61.289" />
   </g>
      <path fill="#e4002c" d="m2867.42,17.3398l677.887,0l0,677.891l-677.887,0l0,-677.891z" />
      <g fill="white">
    <path d="m2942.73,92.582l36.7188,0l0,36.6797l-36.7188,0l0,-36.6797z" />
          <path d="m3114.96,359.879c-21.01,0 -40.04,-3.629 -53.83,-10.777c-13.75,-7.192 -24.76,-17.032 -32.81,-29.301c-8.09,-12.301 -13.67,-26.871 -16.64,-43.352c-3.01,-16.328 -4.49,-34.148 -4.49,-52.929c0,-18.868 1.48,-36.68 4.49,-52.969c2.97,-16.492 8.55,-31.063 16.64,-43.36c8.09,-12.312 19.1,-22.152 32.81,-29.2222c13.75,-7.1876 32.78,-10.8165 53.83,-10.8165c12.15,0 25,0.9375 38.2,2.8477c13.25,1.9102 25.51,5.3516 36.45,10.23l0.78,0.36l0,33.941l-1.72,-0.621c-9.53,-3.441 -20.04,-6.289 -31.17,-8.519c-11.17,-2.231 -25.66,-3.36 -43.09,-3.36c-15.31,0 -27.61,2.93 -36.6,8.668c-9.1,5.75 -16.09,13.403 -20.74,22.821c-4.69,9.492 -7.73,20.429 -9.06,32.5c-1.33,12.179 -1.99,24.8 -1.99,37.5c0,12.652 0.66,25.269 1.99,37.46c1.33,12.071 4.37,23 9.06,32.5c4.69,9.45 11.64,17.11 20.7,22.852c9.07,5.738 21.41,8.629 36.64,8.629c17.47,0 31.96,-1.129 43.09,-3.359c11.21,-2.262 21.68,-5.122 31.17,-8.512l1.72,-0.629l0,33.949l-0.78,0.352c-11.02,4.879 -23.24,8.32 -36.45,10.226c-13.12,1.922 -25.97,2.891 -38.2,2.891"/>
          <path d="m3244.02,420l0,-327.6602l37.66,0l0,216.5702c7.73,5.309 17.15,9.289 26.72,11.949c9.76,2.731 22.89,4.102 38.98,4.102c15.28,0 27.35,-3.051 35.82,-9.102c8.4,-5.937 11.49,-17.269 11.49,-33.629l0,-189.8902l38.63,0l0,188.2812c0,25.238 -6.84,44.93 -20.31,58.641c-13.44,13.668 -35.55,20.617 -65.63,20.617c-11.68,0 -23.51,-1.758 -35.23,-5.27c-10.86,-3.199 -21.53,-8.199 -30.63,-14.879l0,80.27l-37.5,0" />
   </g>
  </g>
</svg>