<svg width="36" height="36" xmlns="http://www.w3.org/2000/svg" version="1.1" xml:space="preserve">
<path fill="#e4002c" d="m-0.5618,36.63561l36.60105,0l0,-36.60126l-36.60105,0l0,36.60126z" />
 <path fill="white" d="m3.5044,32.57307l1.98255,0l0,-1.98044l-1.98255,0l0,1.98044z" />
 <path fill="white" d="m12.80359,18.14094c-1.13439,0 -2.16187,0.19594 -2.90643,0.58188c-0.7424,0.38832 -1.33686,0.91961 -1.77151,1.58204c-0.4368,0.66417 -0.73808,1.45084 -0.89844,2.3407c-0.16252,0.8816 -0.24243,1.84375 -0.24243,2.85779c0,1.01874 0.07991,1.98046 0.24243,2.85995c0.16036,0.89045 0.46164,1.67718 0.89844,2.34113c0.4368,0.66476 1.03126,1.19605 1.77151,1.57779c0.7424,0.38808 1.76989,0.58401 2.90643,0.58401c0.65601,0 1.34982,-0.05062 2.06253,-0.15376c0.71541,-0.10314 1.37736,-0.28895 1.96804,-0.55235l0.04211,-0.01944l0,-1.83257l-0.09287,0.03353c-0.51455,0.18579 -1.08202,0.33956 -1.68296,0.45997c-0.6031,0.12046 -1.38546,0.18142 -2.32655,0.18142c-0.82663,0 -1.49074,-0.1582 -1.97614,-0.46801c-0.49133,-0.31046 -0.86874,-0.72367 -1.11981,-1.23217c-0.25323,-0.5125 -0.41736,-1.10302 -0.48918,-1.75477c-0.07181,-0.65758 -0.10745,-1.33902 -0.10745,-2.02473c0,-0.68312 0.03564,-1.36435 0.10745,-2.02257c0.07181,-0.65175 0.23595,-1.24184 0.48918,-1.75477c0.25323,-0.51023 0.62848,-0.92382 1.11765,-1.23384c0.48972,-0.30981 1.15599,-0.4659 1.9783,-0.4659c0.94326,0 1.72561,0.06096 2.32655,0.18136c0.60526,0.12213 1.17056,0.27655 1.68296,0.45959l0.09287,0.03396l0,-1.833l-0.04211,-0.01901c-0.595,-0.26343 -1.25479,-0.44922 -1.96804,-0.55213c-0.70839,-0.10377 -1.40219,-0.15609 -2.06253,-0.15609"/>
 <path fill="white" d="m19.77191,14.89484l0,17.69131l2.03337,0l0,-11.69324c0.41736,-0.28665 0.92598,-0.50154 1.44269,-0.64516c0.52697,-0.14745 1.2359,-0.22148 2.10464,-0.22148c0.82501,0 1.4767,0.16473 1.93402,0.49144c0.45354,0.32056 0.62038,0.9324 0.62038,1.81573l0,10.25271l2.08574,0l0,-10.16584c0,-1.36267 -0.36931,-2.4259 -1.09659,-3.16619c-0.72566,-0.73797 -1.91945,-1.11317 -3.54355,-1.11317c-0.63064,0 -1.26937,0.09492 -1.90217,0.28454c-0.58636,0.17272 -1.16247,0.44269 -1.6538,0.80336l0,-4.33401l-2.02473,0" />
</svg>