<svg width="32" height="32" xmlns="http://www.w3.org/2000/svg">
 <path class="svg-grey" d="m-0.5618,32.628617l32.768295,0l0,-32.768483l-32.768295,0l0,32.768483z" fill="#e4002c"/>
 <path d="m3.078599,28.991494l1.774943,0l0,-1.773054l-1.774943,0l0,1.773054z" fill="white"/>
 <path d="m11.404005,16.070655c-1.0156,0 -1.935485,0.175422 -2.602077,0.520947c-0.664658,0.347656 -1.196868,0.823311 -1.586003,1.416373c-0.39106,0.59462 -0.66079,1.298912 -0.804358,2.095589c-0.145501,0.789281 -0.217043,1.650678 -0.217043,2.558531c0,0.912061 0.071542,1.773072 0.217043,2.560464c0.143568,0.797205 0.413298,1.501551 0.804358,2.095974c0.39106,0.595148 0.923269,1.070803 1.586003,1.412568c0.664658,0.347441 1.584552,0.522854 2.602077,0.522854c0.587315,0 1.208471,-0.045319 1.846548,-0.137659c0.640494,-0.092339 1.233127,-0.258692 1.761953,-0.49451l0.0377,-0.017404l0,-1.640669l-0.083145,0.030019c-0.460668,0.166335 -0.968714,0.304002 -1.506725,0.411803c-0.539945,0.107846 -1.240379,0.162422 -2.08292,0.162422c-0.740068,0 -1.334634,-0.141634 -1.769204,-0.419001c-0.439879,-0.27795 -0.777768,-0.647889 -1.002547,-1.103141c-0.226712,-0.458832 -0.373655,-0.987515 -0.437954,-1.571016c-0.06429,-0.58872 -0.096198,-1.198802 -0.096198,-1.812706c0,-0.611586 0.031908,-1.221479 0.096198,-1.810772c0.06429,-0.583501 0.211242,-1.111798 0.437954,-1.571016c0.226712,-0.4568 0.562667,-0.82708 1.000613,-1.104636c0.438438,-0.277368 1.034938,-0.417112 1.771138,-0.417112c0.844485,0 1.544909,0.054576 2.08292,0.162369c0.541879,0.109341 1.047982,0.24759 1.506725,0.411463l0.083145,0.030404l0,-1.641054l-0.0377,-0.017019c-0.532693,-0.235844 -1.123392,-0.402179 -1.761953,-0.494313c-0.634209,-0.092904 -1.255357,-0.139745 -1.846548,-0.139745" fill="white"/>
 <path d="m17.642623,13.164477l0,15.838728l1.820441,0l0,-10.468758c0.373655,-0.256633 0.829014,-0.44902 1.291616,-0.577601c0.471787,-0.132009 1.10648,-0.198287 1.884248,-0.198287c0.738617,0 1.322064,0.14748 1.731495,0.439978c0.406047,0.286992 0.555416,0.834762 0.555416,1.625592l0,9.179076l1.867327,0l0,-9.101303c0,-1.219975 -0.330637,-2.171867 -0.981758,-2.834636c-0.649671,-0.660692 -1.718451,-0.996602 -3.17248,-0.996602c-0.564601,0 -1.136445,0.08498 -1.70298,0.254744c-0.524958,0.154633 -1.04074,0.396333 -1.480619,0.719234l0,-3.880165l-1.812706,0" fill="white"/>
</svg>